<?xml version="1.0" encoding="UTF-8" standalone="no"?>
<svg
   xmlns:dc="http://purl.org/dc/elements/1.1/"
   xmlns:cc="http://creativecommons.org/ns#"
   xmlns:rdf="http://www.w3.org/1999/02/22-rdf-syntax-ns#"
   xmlns:svg="http://www.w3.org/2000/svg"
   xmlns="http://www.w3.org/2000/svg"
   viewBox="0 0 480 364.79999"
   height="364.79999"
   width="480"
   xml:space="preserve"
   id="svg2"
   version="1.1"><metadata
     id="metadata8"><rdf:RDF><cc:Work
         rdf:about=""><dc:format>image/svg+xml</dc:format><dc:type
           rdf:resource="http://purl.org/dc/dcmitype/StillImage" /></cc:Work></rdf:RDF></metadata><defs
     id="defs6"><clipPath
       id="clipPath152"
       clipPathUnits="userSpaceOnUse"><path
         id="path150"
         d="m 57.6,38.304 h 288 v 183.312 h -288 z" /></clipPath><clipPath
       id="clipPath162"
       clipPathUnits="userSpaceOnUse"><path
         id="path160"
         d="m 57.6,38.304 h 288 v 183.312 h -288 z" /></clipPath><clipPath
       id="clipPath172"
       clipPathUnits="userSpaceOnUse"><path
         id="path170"
         d="m 57.6,38.304 h 288 v 183.312 h -288 z" /></clipPath></defs><g
     transform="matrix(1.3333333,0,0,-1.3333333,0,364.8)"
     id="g10"><path
       id="path12"
       style="fill:#ffffff;fill-opacity:1;fill-rule:nonzero;stroke:none"
       d="M 0,0 H 360 V 273.6 H 0 Z" /><path
       id="path14"
       style="fill:#ffffff;fill-opacity:1;fill-rule:nonzero;stroke:none"
       d="m 57.6,38.304 h 288 v 183.312 h -288 z" /><path
       id="path16"
       style="fill:#000000;fill-opacity:1;fill-rule:nonzero;stroke:#000000;stroke-width:0.80000001;stroke-linecap:butt;stroke-linejoin:round;stroke-miterlimit:10;stroke-dasharray:none;stroke-opacity:1"
       d="m 73.806642,38.304 v -3.5" /><g
       transform="translate(61.806642,22.975875)"
       id="g18"><text
         id="text22"
         style="font-variant:normal;font-weight:normal;font-size:12px;font-family:TimesNewRomanPSMT;-inkscape-font-specification:TimesNewRomanPSMT;writing-mode:lr-tb;fill:#000000;fill-opacity:1;fill-rule:nonzero;stroke:none"
         transform="scale(1,-1)"><tspan
           id="tspan20"
           y="0"
           x="0 6 12 18">2010</tspan></text>
</g><path
       id="path24"
       style="fill:#000000;fill-opacity:1;fill-rule:nonzero;stroke:#000000;stroke-width:0.80000001;stroke-linecap:butt;stroke-linejoin:round;stroke-miterlimit:10;stroke-dasharray:none;stroke-opacity:1"
       d="m 112.64945,38.304 v -3.5" /><g
       transform="translate(100.64945,22.975875)"
       id="g26"><text
         id="text30"
         style="font-variant:normal;font-weight:normal;font-size:12px;font-family:TimesNewRomanPSMT;-inkscape-font-specification:TimesNewRomanPSMT;writing-mode:lr-tb;fill:#000000;fill-opacity:1;fill-rule:nonzero;stroke:none"
         transform="scale(1,-1)"><tspan
           id="tspan28"
           y="0"
           x="0 6 12 18">2012</tspan></text>
</g><path
       id="path32"
       style="fill:#000000;fill-opacity:1;fill-rule:nonzero;stroke:#000000;stroke-width:0.80000001;stroke-linecap:butt;stroke-linejoin:round;stroke-miterlimit:10;stroke-dasharray:none;stroke-opacity:1"
       d="m 151.43911,38.304 v -3.5" /><g
       transform="translate(139.43911,22.975875)"
       id="g34"><text
         id="text38"
         style="font-variant:normal;font-weight:normal;font-size:12px;font-family:TimesNewRomanPSMT;-inkscape-font-specification:TimesNewRomanPSMT;writing-mode:lr-tb;fill:#000000;fill-opacity:1;fill-rule:nonzero;stroke:none"
         transform="scale(1,-1)"><tspan
           id="tspan36"
           y="0"
           x="0 6 12 18">2014</tspan></text>
</g><path
       id="path40"
       style="fill:#000000;fill-opacity:1;fill-rule:nonzero;stroke:#000000;stroke-width:0.80000001;stroke-linecap:butt;stroke-linejoin:round;stroke-miterlimit:10;stroke-dasharray:none;stroke-opacity:1"
       d="m 190.28192,38.304 v -3.5" /><g
       transform="translate(178.28192,22.975875)"
       id="g42"><text
         id="text46"
         style="font-variant:normal;font-weight:normal;font-size:12px;font-family:TimesNewRomanPSMT;-inkscape-font-specification:TimesNewRomanPSMT;writing-mode:lr-tb;fill:#000000;fill-opacity:1;fill-rule:nonzero;stroke:none"
         transform="scale(1,-1)"><tspan
           id="tspan44"
           y="0"
           x="0 6 12 18">2016</tspan></text>
</g><path
       id="path48"
       style="fill:#000000;fill-opacity:1;fill-rule:nonzero;stroke:#000000;stroke-width:0.80000001;stroke-linecap:butt;stroke-linejoin:round;stroke-miterlimit:10;stroke-dasharray:none;stroke-opacity:1"
       d="m 229.07159,38.304 v -3.5" /><g
       transform="translate(217.07159,22.975875)"
       id="g50"><text
         id="text54"
         style="font-variant:normal;font-weight:normal;font-size:12px;font-family:TimesNewRomanPSMT;-inkscape-font-specification:TimesNewRomanPSMT;writing-mode:lr-tb;fill:#000000;fill-opacity:1;fill-rule:nonzero;stroke:none"
         transform="scale(1,-1)"><tspan
           id="tspan52"
           y="0"
           x="0 6 12 18">2018</tspan></text>
</g><path
       id="path56"
       style="fill:#000000;fill-opacity:1;fill-rule:nonzero;stroke:#000000;stroke-width:0.80000001;stroke-linecap:butt;stroke-linejoin:round;stroke-miterlimit:10;stroke-dasharray:none;stroke-opacity:1"
       d="m 267.91439,38.304 v -3.5" /><g
       transform="translate(255.91439,22.975875)"
       id="g58"><text
         id="text62"
         style="font-variant:normal;font-weight:normal;font-size:12px;font-family:TimesNewRomanPSMT;-inkscape-font-specification:TimesNewRomanPSMT;writing-mode:lr-tb;fill:#000000;fill-opacity:1;fill-rule:nonzero;stroke:none"
         transform="scale(1,-1)"><tspan
           id="tspan60"
           y="0"
           x="0 6 12 18">2020</tspan></text>
</g><path
       id="path64"
       style="fill:#000000;fill-opacity:1;fill-rule:nonzero;stroke:#000000;stroke-width:0.80000001;stroke-linecap:butt;stroke-linejoin:round;stroke-miterlimit:10;stroke-dasharray:none;stroke-opacity:1"
       d="m 306.70406,38.304 v -3.5" /><g
       transform="translate(294.70406,22.975875)"
       id="g66"><text
         id="text70"
         style="font-variant:normal;font-weight:normal;font-size:12px;font-family:TimesNewRomanPSMT;-inkscape-font-specification:TimesNewRomanPSMT;writing-mode:lr-tb;fill:#000000;fill-opacity:1;fill-rule:nonzero;stroke:none"
         transform="scale(1,-1)"><tspan
           id="tspan68"
           y="0"
           x="0 6 12 18">2022</tspan></text>
</g><path
       id="path72"
       style="fill:#000000;fill-opacity:1;fill-rule:nonzero;stroke:#000000;stroke-width:0.80000001;stroke-linecap:butt;stroke-linejoin:round;stroke-miterlimit:10;stroke-dasharray:none;stroke-opacity:1"
       d="m 345.54686,38.304 v -3.5" /><g
       transform="translate(333.54686,22.975875)"
       id="g74"><text
         id="text78"
         style="font-variant:normal;font-weight:normal;font-size:12px;font-family:TimesNewRomanPSMT;-inkscape-font-specification:TimesNewRomanPSMT;writing-mode:lr-tb;fill:#000000;fill-opacity:1;fill-rule:nonzero;stroke:none"
         transform="scale(1,-1)"><tspan
           id="tspan76"
           y="0"
           x="0 6 12 18">2024</tspan></text>
</g><path
       id="path80"
       style="fill:#000000;fill-opacity:1;fill-rule:nonzero;stroke:#000000;stroke-width:0.60000002;stroke-linecap:butt;stroke-linejoin:round;stroke-miterlimit:10;stroke-dasharray:none;stroke-opacity:1"
       d="m 93.201476,38.304 v -2" /><path
       id="path82"
       style="fill:#000000;fill-opacity:1;fill-rule:nonzero;stroke:#000000;stroke-width:0.60000002;stroke-linecap:butt;stroke-linejoin:round;stroke-miterlimit:10;stroke-dasharray:none;stroke-opacity:1"
       d="m 132.04428,38.304 v -2" /><path
       id="path84"
       style="fill:#000000;fill-opacity:1;fill-rule:nonzero;stroke:#000000;stroke-width:0.60000002;stroke-linecap:butt;stroke-linejoin:round;stroke-miterlimit:10;stroke-dasharray:none;stroke-opacity:1"
       d="m 170.83395,38.304 v -2" /><path
       id="path86"
       style="fill:#000000;fill-opacity:1;fill-rule:nonzero;stroke:#000000;stroke-width:0.60000002;stroke-linecap:butt;stroke-linejoin:round;stroke-miterlimit:10;stroke-dasharray:none;stroke-opacity:1"
       d="m 209.67675,38.304 v -2" /><path
       id="path88"
       style="fill:#000000;fill-opacity:1;fill-rule:nonzero;stroke:#000000;stroke-width:0.60000002;stroke-linecap:butt;stroke-linejoin:round;stroke-miterlimit:10;stroke-dasharray:none;stroke-opacity:1"
       d="m 248.46642,38.304 v -2" /><path
       id="path90"
       style="fill:#000000;fill-opacity:1;fill-rule:nonzero;stroke:#000000;stroke-width:0.60000002;stroke-linecap:butt;stroke-linejoin:round;stroke-miterlimit:10;stroke-dasharray:none;stroke-opacity:1"
       d="m 287.30923,38.304 v -2" /><path
       id="path92"
       style="fill:#000000;fill-opacity:1;fill-rule:nonzero;stroke:#000000;stroke-width:0.60000002;stroke-linecap:butt;stroke-linejoin:round;stroke-miterlimit:10;stroke-dasharray:none;stroke-opacity:1"
       d="m 326.09889,38.304 v -2" /><g
       transform="translate(188.38125,5.694625)"
       id="g94"><text
         id="text98"
         style="font-variant:normal;font-weight:normal;font-size:14px;font-family:TimesNewRomanPSMT;-inkscape-font-specification:TimesNewRomanPSMT;writing-mode:lr-tb;fill:#000000;fill-opacity:1;fill-rule:nonzero;stroke:none"
         transform="scale(1,-1)"><tspan
           id="tspan96"
           y="0"
           x="0 10.108 16.323999 20.216">Date</tspan></text>
</g><path
       id="path100"
       style="fill:#000000;fill-opacity:1;fill-rule:nonzero;stroke:#000000;stroke-width:0.80000001;stroke-linecap:butt;stroke-linejoin:round;stroke-miterlimit:10;stroke-dasharray:none;stroke-opacity:1"
       d="M 57.6,38.304 H 54.1" /><g
       transform="translate(44.6,34.139938)"
       id="g102"><text
         id="text106"
         style="font-variant:normal;font-weight:normal;font-size:12px;font-family:TimesNewRomanPSMT;-inkscape-font-specification:TimesNewRomanPSMT;writing-mode:lr-tb;fill:#000000;fill-opacity:1;fill-rule:nonzero;stroke:none"
         transform="scale(1,-1)"><tspan
           id="tspan104"
           y="0"
           x="0">0</tspan></text>
</g><path
       id="path108"
       style="fill:#000000;fill-opacity:1;fill-rule:nonzero;stroke:#000000;stroke-width:0.80000001;stroke-linecap:butt;stroke-linejoin:round;stroke-miterlimit:10;stroke-dasharray:none;stroke-opacity:1"
       d="M 57.6,79.04 H 54.1" /><g
       transform="translate(26.6,74.875937)"
       id="g110"><text
         id="text114"
         style="font-variant:normal;font-weight:normal;font-size:12px;font-family:TimesNewRomanPSMT;-inkscape-font-specification:TimesNewRomanPSMT;writing-mode:lr-tb;fill:#000000;fill-opacity:1;fill-rule:nonzero;stroke:none"
         transform="scale(1,-1)"><tspan
           id="tspan112"
           y="0"
           x="0 6 12 18">1000</tspan></text>
</g><path
       id="path116"
       style="fill:#000000;fill-opacity:1;fill-rule:nonzero;stroke:#000000;stroke-width:0.80000001;stroke-linecap:butt;stroke-linejoin:round;stroke-miterlimit:10;stroke-dasharray:none;stroke-opacity:1"
       d="M 57.6,119.776 H 54.1" /><g
       transform="translate(26.6,115.61194)"
       id="g118"><text
         id="text122"
         style="font-variant:normal;font-weight:normal;font-size:12px;font-family:TimesNewRomanPSMT;-inkscape-font-specification:TimesNewRomanPSMT;writing-mode:lr-tb;fill:#000000;fill-opacity:1;fill-rule:nonzero;stroke:none"
         transform="scale(1,-1)"><tspan
           id="tspan120"
           y="0"
           x="0 6 12 18">2000</tspan></text>
</g><path
       id="path124"
       style="fill:#000000;fill-opacity:1;fill-rule:nonzero;stroke:#000000;stroke-width:0.80000001;stroke-linecap:butt;stroke-linejoin:round;stroke-miterlimit:10;stroke-dasharray:none;stroke-opacity:1"
       d="M 57.6,160.512 H 54.1" /><g
       transform="translate(26.6,156.34794)"
       id="g126"><text
         id="text130"
         style="font-variant:normal;font-weight:normal;font-size:12px;font-family:TimesNewRomanPSMT;-inkscape-font-specification:TimesNewRomanPSMT;writing-mode:lr-tb;fill:#000000;fill-opacity:1;fill-rule:nonzero;stroke:none"
         transform="scale(1,-1)"><tspan
           id="tspan128"
           y="0"
           x="0 6 12 18">3000</tspan></text>
</g><path
       id="path132"
       style="fill:#000000;fill-opacity:1;fill-rule:nonzero;stroke:#000000;stroke-width:0.80000001;stroke-linecap:butt;stroke-linejoin:round;stroke-miterlimit:10;stroke-dasharray:none;stroke-opacity:1"
       d="M 57.6,201.248 H 54.1" /><g
       transform="translate(26.6,197.08394)"
       id="g134"><text
         id="text138"
         style="font-variant:normal;font-weight:normal;font-size:12px;font-family:TimesNewRomanPSMT;-inkscape-font-specification:TimesNewRomanPSMT;writing-mode:lr-tb;fill:#000000;fill-opacity:1;fill-rule:nonzero;stroke:none"
         transform="scale(1,-1)"><tspan
           id="tspan136"
           y="0"
           x="0 6 12 18">4000</tspan></text>
</g><g
       transform="rotate(90,-19.875312,33.475312)"
       id="g140"><text
         id="text144"
         style="font-variant:normal;font-weight:normal;font-size:14px;font-family:TimesNewRomanPSMT;-inkscape-font-specification:TimesNewRomanPSMT;writing-mode:lr-tb;fill:#000000;fill-opacity:1;fill-rule:nonzero;stroke:none"
         transform="scale(1,-1)"><tspan
           id="tspan142"
           y="0"
           x="0 9.3380003 14 17.892 28.784 35 40.445999 43.945999 51.73 57.945999 62.608002 66.108002 73.108002 80.108002 87.108002 90.608002 97.608002 104.608 111.608 115.108 122.892 129.108 136.108 143.108 147">Crimes Per 100,000 People</tspan></text>
</g><g
       id="g146"><g
         clip-path="url(#clipPath152)"
         id="g148"><path
           id="path154"
           style="fill:none;stroke:#6c17b9;stroke-width:1.5;stroke-linecap:square;stroke-linejoin:round;stroke-miterlimit:10;stroke-dasharray:none;stroke-opacity:1"
           d="m 59.247232,148.47573 1.594096,-13.77146 1.647233,-33.05152 1.594096,-5.508588 1.647232,33.051518 1.647233,-27.54293 1.594096,35.80581 1.647232,-30.29722 1.594096,-16.525768 1.647233,5.50859 1.647232,16.525768 1.487823,-13.771472 1.647232,-5.508591 1.594096,22.034343 1.647233,-5.50858 1.594096,11.01718 1.647232,-22.034352 1.647233,55.085862 1.594096,11.01718 1.647232,-57.84016 h 1.594096 l 1.647233,-27.542938 1.647232,24.788638 1.540959,30.29723 1.647233,-33.05152 1.594096,-8.262883 1.647237,22.034343 1.59409,-19.280048 1.64723,2.754296 h 1.64724 l 1.59409,8.262882 1.64724,-11.017178 1.59409,-22.034346 1.64723,16.525756 1.64724,11.017178 1.48782,16.52576 1.64723,-22.034348 1.5941,-24.788642 1.64723,16.525764 1.5941,-2.754295 1.64723,19.280051 1.64723,-27.542933 1.5941,-2.754291 1.64723,5.508586 1.59409,2.754292 h 1.64724 l 1.64723,19.280056 1.48782,-2.754292 1.64723,-22.034351 1.5941,33.051523 1.64723,-24.788641 1.5941,11.017173 1.64723,-8.262878 1.64723,5.508583 1.5941,8.262883 1.64723,22.03434 1.5941,-11.01716 1.64723,-33.051528 1.64723,57.840158 1.48783,-44.068693 1.64723,30.297223 1.59409,-8.26288 1.64724,2.7543 1.59409,-13.77147 1.64724,30.29723 1.64723,-24.78864 1.59409,16.52576 1.64724,-8.26288 1.59409,11.01717 1.64724,19.28005 1.64723,-35.8058 1.54096,-5.50859 1.64723,19.28005 1.59409,44.06869 1.64724,-60.59445 1.59409,46.82299 1.64724,-22.03435 h 1.64723 l 1.59409,11.01717 1.64724,-66.103038 1.59409,55.085868 1.64723,-38.560108 1.64724,-13.771468 1.48782,11.017173 1.64723,77.120213 1.5941,-38.5601 1.64723,27.54294 1.5941,-60.594462 1.64723,60.594462 1.64723,-22.03436 1.5941,52.33158 1.64723,-60.59446 1.5941,24.78864 1.64723,8.26289 1.64723,-71.611638 1.48782,13.771468 1.64724,52.33158 1.59409,-27.54294 3.24133,33.05153 1.64723,-27.54294 1.64724,-5.50859 1.59409,-19.28005 1.64723,35.80581 1.5941,-2.75429 1.64723,-24.78864 1.64724,5.50858 1.48782,-13.77146 1.64723,2.7543 1.5941,24.78863 1.64723,38.56011 1.59409,-77.120212 1.64724,49.577272 1.64723,2.7543 1.5941,-35.80582 1.64723,2.7543 1.5941,-5.50858 h 3.29446 l 1.54096,19.28005 1.64723,-60.59446 1.5941,2.754296 1.64723,-2.754296 1.5941,35.80582 h 1.64723 l 1.64723,16.52575 1.5941,-27.542928 1.64723,-13.771468 1.59409,-2.754292 1.64724,-24.788642 1.64723,5.508587 1.48782,5.508587 1.64723,46.822996 1.5941,-8.26289 3.24133,33.05152 1.64723,-44.068693 1.64723,35.805813 1.5941,11.01718 1.64723,-30.29723 1.5941,38.5601 1.64723,-2.75429 1.64723,-19.28005 1.48783,8.26288 1.64723,-27.54293 1.59409,35.80581 1.64724,2.75429 1.59409,-30.29723 1.64724,13.77147 1.64723,-57.84016 1.59409,46.82299 1.64724,22.03435 1.59409,-38.56011 1.64724,-5.508588 1.64723,5.508588 1.48782,19.28006 1.64723,44.06869 1.5941,-8.26288 1.64723,-22.03435 1.5941,22.03435 1.64723,-30.29723 1.64723,30.29723 1.5941,-22.03435 1.64723,-5.50859 1.5941,30.29724 1.64723,-16.52577 1.64723,-41.3144 1.54096,38.56011 1.64723,-30.29723 v 0" /></g></g><g
       id="g156"><g
         clip-path="url(#clipPath162)"
         id="g158"><path
           id="path164"
           style="fill:none;stroke:#1db8f7;stroke-width:1.5;stroke-linecap:square;stroke-linejoin:round;stroke-miterlimit:10;stroke-dasharray:none;stroke-opacity:1"
           d="m 59.247232,115.4739 1.594096,2.05615 1.647233,0.45027 1.594096,-4.82699 1.647232,11.52239 1.647233,-2.436 1.594096,-0.32211 1.647232,-18.22123 1.594096,2.36238 1.647233,-10.810204 1.647232,5.306944 1.487823,1.69958 1.647232,10.53811 1.594096,2.9932 1.647233,2.71248 1.594096,-2.39178 1.647232,7.75273 1.647233,-2.94404 1.594096,8.81363 1.647232,-17.52444 1.594096,-0.46001 1.647233,-13.282362 1.647232,5.898712 1.540959,-1.81211 1.647233,9.44741 1.594096,-4.99087 1.647237,-1.03637 1.59409,-2.64927 1.64723,7.74272 1.64724,-4.20495 1.59409,0.024 1.64724,-10.029042 1.59409,1.448211 1.64723,-14.654303 1.64724,3.03279 1.48782,1.117732 1.64723,7.507433 3.24133,-6.702739 1.5941,0.253243 1.64723,4.940209 1.64723,-3.620259 1.5941,1.259682 1.64723,-7.973627 1.59409,1.659526 1.64724,-6.211777 1.64723,3.357057 1.48782,1.886113 1.64723,8.088247 1.5941,2.952985 1.64723,1.677355 1.5941,2.361595 1.64723,11.403629 1.64723,-5.80667 1.5941,6.03526 1.64723,-10.00993 1.5941,2.18534 1.64723,-8.819407 1.64723,6.721317 1.48783,4.70606 1.64723,13.3311 1.59409,1.64221 1.64724,-0.68229 1.59409,-2.43716 1.64724,16.31943 1.64723,-2.08589 1.59409,6.40575 1.64724,-18.01373 1.59409,1.80485 1.64724,-11.79226 1.64723,7.25952 1.54096,4.87494 1.64723,14.24321 3.24133,2.65663 1.59409,-8.72521 1.64724,9.32435 1.64723,-6.48856 1.59409,0.29614 1.64724,-19.2585 1.59409,1.43896 1.64723,-11.50323 1.64724,6.3015 1.48782,0.43402 1.64723,11.66075 1.5941,-0.0375 1.64723,9.3776 1.5941,-1.26863 1.64723,18.38037 1.64723,4.97822 1.5941,6.91637 1.64723,-26.62637 1.5941,1.3429 1.64723,-18.93138 1.64723,9.9484 1.48782,5.11255 1.64724,13.34652 3.24133,-7.71757 1.59409,-3.86416 1.64723,11.32616 1.64724,-0.35021 1.59409,8.18906 1.64723,-22.32056 1.5941,-0.57409 1.64723,-16.65492 1.64724,7.16096 1.48782,0.63297 1.64723,12.9157 1.5941,4.7044 1.64723,-3.13652 1.59409,-5.75186 1.64724,10.76714 1.64723,-5.24097 1.5941,4.62077 1.64723,-14.82153 1.5941,-7.70775 1.64723,-23.094099 1.64723,1.62744 1.54096,0.404514 1.64723,4.492275 1.5941,2.13957 3.24133,-8.015023 1.64723,3.804573 1.64723,-9.788165 1.5941,-2.113161 1.64723,-5.944309 1.59409,4.031089 1.64724,-5.690353 1.64723,3.958086 1.48782,4.87712 1.64723,3.668948 1.5941,4.792623 1.64723,3.432927 1.5941,1.143815 1.64723,22.56874 1.64723,2.49104 1.5941,9.51289 1.64723,-12.59921 1.5941,5.84435 1.64723,-12.27132 1.64723,10.64035 1.48783,7.02447 1.64723,18.23591 1.59409,4.38777 1.64724,4.8828 1.59409,-0.0291 1.64724,22.18997 1.64723,-3.68489 1.59409,7.93938 1.64724,-25.1038 1.59409,3.07556 1.64724,-21.82925 1.64723,9.38539 1.48782,3.75666 1.64723,16.48266 1.5941,-0.73316 1.64723,-0.0101 1.5941,-4.89428 1.64723,18.5249 1.64723,-7.58822 1.5941,4.79875 1.64723,-26.19225 1.5941,1.88982 1.64723,-21.02902 1.64723,9.12784 1.54096,4.29515 1.64723,17.02176 v 0" /></g></g><g
       id="g166"><g
         clip-path="url(#clipPath172)"
         id="g168"><path
           id="path174"
           style="fill:none;stroke:#6d6d6d;stroke-width:1.5;stroke-linecap:butt;stroke-linejoin:round;stroke-miterlimit:10;stroke-dasharray:4.5, 4.5;stroke-dashoffset:0;stroke-opacity:1"
           d="m 275.99114,47.67328 v 164.9808" /></g></g><g
       id="g176"><path
         id="path178"
         style="fill:none;stroke:#000000;stroke-width:0.80000001;stroke-linecap:square;stroke-linejoin:miter;stroke-miterlimit:10;stroke-dasharray:none;stroke-opacity:1"
         d="M 57.6,38.304 V 221.616" /><path
         id="path180"
         style="fill:none;stroke:#000000;stroke-width:0.80000001;stroke-linecap:square;stroke-linejoin:miter;stroke-miterlimit:10;stroke-dasharray:none;stroke-opacity:1"
         d="M 345.6,38.304 V 221.616" /><path
         id="path182"
         style="fill:none;stroke:#000000;stroke-width:0.80000001;stroke-linecap:square;stroke-linejoin:miter;stroke-miterlimit:10;stroke-dasharray:none;stroke-opacity:1"
         d="m 57.6,38.304 h 288" /><path
         id="path184"
         style="fill:none;stroke:#000000;stroke-width:0.80000001;stroke-linecap:square;stroke-linejoin:miter;stroke-miterlimit:10;stroke-dasharray:none;stroke-opacity:1"
         d="m 57.6,221.616 h 288" /><g
         transform="translate(143.76763,201.248)"
         id="g186"><text
           id="text190"
           style="font-variant:normal;font-weight:normal;font-size:14px;font-family:TimesNewRomanPSMT;-inkscape-font-specification:TimesNewRomanPSMT;writing-mode:lr-tb;fill:#000000;fill-opacity:1;fill-rule:nonzero;stroke:none"
           transform="scale(1,-1)"><tspan
             id="tspan188"
             y="0"
             x="0 8.0696249 12.731625 18.947624 22.839624 29.839624 33.731625 40.731625">Training</tspan></text>
</g><g
         transform="translate(291.01292,201.248)"
         id="g192"><text
           id="text196"
           style="font-variant:normal;font-weight:normal;font-size:14px;font-family:TimesNewRomanPSMT;-inkscape-font-specification:TimesNewRomanPSMT;writing-mode:lr-tb;fill:#000000;fill-opacity:1;fill-rule:nonzero;stroke:none"
           transform="scale(1,-1)"><tspan
             id="tspan194"
             y="0"
             x="0 7.5852499 13.80125 19.24725 23.13925 27.03125 34.03125">Testing</tspan></text>
</g><path
         id="path198"
         style="fill:#ffffff;fill-opacity:0.8;fill-rule:nonzero;stroke:#cccccc;stroke-width:1;stroke-linecap:butt;stroke-linejoin:miter;stroke-miterlimit:10;stroke-dasharray:none;stroke-opacity:0.8"
         d="m 67.4,144.71459 h 98.47187 c 1.86667,0 2.8,0.93333 2.8,2.8 v 38.21562 c 0,1.86667 -0.93333,2.8 -2.8,2.8 H 67.4 c -1.866667,0 -2.8,-0.93333 -2.8,-2.8 v -38.21562 c 0,-1.86667 0.933333,-2.8 2.8,-2.8 z" /><path
         id="path200"
         style="fill:none;stroke:#6c17b9;stroke-width:1.5;stroke-linecap:square;stroke-linejoin:round;stroke-miterlimit:10;stroke-dasharray:none;stroke-opacity:1"
         d="m 70.2,178.03021 h 14 14" /><g
         transform="translate(109.4,173.13021)"
         id="g202"><text
           id="text206"
           style="font-variant:normal;font-weight:normal;font-size:14px;font-family:TimesNewRomanPSMT;-inkscape-font-specification:TimesNewRomanPSMT;writing-mode:lr-tb;fill:#000000;fill-opacity:1;fill-rule:nonzero;stroke:none"
           transform="scale(1,-1)"><tspan
             id="tspan204"
             y="0"
             x="0 10.108 14.77 18.662001 25.662001 29.554001 36.554001 42.77">Original</tspan></text>
</g><path
         id="path208"
         style="fill:none;stroke:#1db8f7;stroke-width:1.5;stroke-linecap:square;stroke-linejoin:round;stroke-miterlimit:10;stroke-dasharray:none;stroke-opacity:1"
         d="m 70.2,158.21459 h 14 14" /><g
         transform="translate(109.4,153.31459)"
         id="g210"><text
           id="text214"
           style="font-variant:normal;font-weight:normal;font-size:14px;font-family:TimesNewRomanPSMT;-inkscape-font-specification:TimesNewRomanPSMT;writing-mode:lr-tb;fill:#000000;fill-opacity:1;fill-rule:nonzero;stroke:none"
           transform="scale(1,-1)"><tspan
             id="tspan212"
             y="0"
             x="0 12.446 19.445999 26.445999 32.661999 36.554001 40.445999 46.661999">Modelled</tspan></text>
</g><g
         transform="translate(62.5,251.50137)"
         id="g216"><text
           id="text220"
           style="font-variant:normal;font-weight:normal;font-size:20px;font-family:TimesNewRomanPSMT;-inkscape-font-specification:TimesNewRomanPSMT;writing-mode:lr-tb;fill:#000000;fill-opacity:1;fill-rule:nonzero;stroke:none"
           transform="scale(1,-1)"><tspan
             id="tspan218"
             y="0"
             x="0 11.12 21.120001 27.780001 36.66 45.540001 54.419998 62.200001 67.760002 73.32 83.32 93.32 98.32 111.66 118.32 123.88 139.44 148.32001 153.32001 166.66 176.66 186.66 196.66 202.22 207.22 218.34 228.34">Forecasting Crime Count For</tspan></text>
</g><g
         transform="translate(97.5,230.52012)"
         id="g222"><text
           id="text226"
           style="font-variant:normal;font-weight:normal;font-size:20px;font-family:TimesNewRomanPSMT;-inkscape-font-specification:TimesNewRomanPSMT;writing-mode:lr-tb;fill:#000000;fill-opacity:1;fill-rule:nonzero;stroke:none"
           transform="scale(1,-1)"><tspan
             id="tspan224"
             y="0"
             x="0 13.34 22.219999 30 38.880001 43.880001 53.880001 58.880001 73.32 81.099998 86.660004 96.660004 106.66 111.66 123.88 135 147.22">Case 2 Using LSTM</tspan></text>
</g></g></g></svg>