<?xml version="1.0" encoding="UTF-8" standalone="no"?>
<svg
   xmlns:dc="http://purl.org/dc/elements/1.1/"
   xmlns:cc="http://creativecommons.org/ns#"
   xmlns:rdf="http://www.w3.org/1999/02/22-rdf-syntax-ns#"
   xmlns:svg="http://www.w3.org/2000/svg"
   xmlns="http://www.w3.org/2000/svg"
   viewBox="0 0 480 364.79999"
   height="364.79999"
   width="480"
   xml:space="preserve"
   id="svg2"
   version="1.1"><metadata
     id="metadata8"><rdf:RDF><cc:Work
         rdf:about=""><dc:format>image/svg+xml</dc:format><dc:type
           rdf:resource="http://purl.org/dc/dcmitype/StillImage" /></cc:Work></rdf:RDF></metadata><defs
     id="defs6"><clipPath
       id="clipPath22"
       clipPathUnits="userSpaceOnUse"><path
         id="path20"
         d="m 57.6,38.304 h 288 v 183.312 h -288 z" /></clipPath><clipPath
       id="clipPath164"
       clipPathUnits="userSpaceOnUse"><path
         id="path162"
         d="m 57.6,38.304 h 288 v 183.312 h -288 z" /></clipPath><clipPath
       id="clipPath174"
       clipPathUnits="userSpaceOnUse"><path
         id="path172"
         d="m 57.6,38.304 h 288 v 183.312 h -288 z" /></clipPath><clipPath
       id="clipPath184"
       clipPathUnits="userSpaceOnUse"><path
         id="path182"
         d="m 57.6,38.304 h 288 v 183.312 h -288 z" /></clipPath></defs><g
     transform="matrix(1.3333333,0,0,-1.3333333,0,364.8)"
     id="g10"><path
       id="path12"
       style="fill:#ffffff;fill-opacity:1;fill-rule:nonzero;stroke:none"
       d="M 0,0 H 360 V 273.6 H 0 Z" /><path
       id="path14"
       style="fill:#ffffff;fill-opacity:1;fill-rule:nonzero;stroke:none"
       d="m 57.6,38.304 h 288 v 183.312 h -288 z" /><g
       id="g16"><g
         clip-path="url(#clipPath22)"
         id="g18"><path
           id="path24"
           style="fill:#1db8f7;fill-opacity:0.3;fill-rule:nonzero;stroke:#1db8f7;stroke-width:1;stroke-linecap:butt;stroke-linejoin:round;stroke-miterlimit:10;stroke-dasharray:none;stroke-opacity:0.3"
           d="m 59.247232,110.94612 v 0 l 1.594096,0.40474 1.647233,-4.17696 1.594096,-3.05962 1.647232,10.23557 1.647233,-3.14687 1.594096,3.13405 1.647232,-13.23379 1.594096,1.31665 1.647233,-10.922511 1.647232,4.942397 1.487823,-10.872927 1.647232,21.676971 1.594096,2.45752 1.647233,0.88106 1.594096,-0.83829 1.647232,5.64579 1.647233,-4.15326 1.594096,10.47955 1.647232,-14.42474 1.594096,-1.62145 1.647233,-11.829221 1.647232,5.485903 1.540959,-1.748624 1.647233,4.630022 1.594096,-0.78526 1.647237,-1.611953 1.59409,-5.522529 1.64723,12.057762 1.64724,-5.96712 1.59409,3.06283 1.64724,-10.148347 1.59409,-4.797091 1.64723,-7.08922 1.64724,0.310298 1.48782,3.871568 1.64723,3.242261 1.5941,-3.393649 1.64723,2.313871 1.5941,-3.944401 1.64723,5.481482 1.64723,-1.36269 1.5941,1.884824 1.64723,-9.289414 1.59409,4.983765 1.64724,-9.808501 1.64723,4.421344 1.48782,1.395268 1.64723,8.574728 1.5941,2.347976 1.64723,2.299899 1.5941,-0.265104 1.64723,5.510337 1.64723,3.407236 1.5941,3.45602 1.64723,-9.179896 1.5941,2.681436 1.64723,-9.207061 1.64723,7.370673 1.48783,6.979588 1.64723,7.58022 1.59409,-0.40464 1.64724,0.0352 1.59409,1.35286 1.64724,15.8435 1.64723,-2.4657 1.59409,-0.86553 1.64724,-10.47987 1.59409,4.79752 1.64724,-14.66693 1.64723,9.20517 1.54096,3.47607 1.64723,11.49166 1.59409,1.60753 1.64724,-8.65562 1.59409,-3.80073 1.64724,11.98398 1.64723,-9.07396 1.59409,1.08108 1.64724,-12.45528 1.59409,2.609 1.64723,-12.76884 1.64724,1.82101 1.48782,6.02031 1.64723,7.84176 1.5941,11.2291 1.64723,-5.63412 1.5941,5.33627 1.64723,25.70846 1.64723,-9.00011 1.5941,-3.894 1.64723,-10.94999 1.5941,-4.24123 1.64723,-8.12455 1.64723,6.5415 1.48782,1.77042 1.64724,9.60715 1.59409,-5.04825 1.64724,1.25062 1.59409,-7.12291 1.64723,21.20459 1.64724,-3.9186 1.59409,-2.28735 1.64723,-18.32656 1.5941,3.83386 1.64723,-15.00003 1.64724,1.86533 1.48782,5.80535 1.64723,13.7284 1.5941,-3.59625 1.64723,-4.0616 1.59409,-4.20352 1.64724,15.78034 1.64723,-4.07865 1.5941,5.27097 1.64723,-27.15912 1.5941,-7.43981 1.64723,-11.597358 1.64723,3.381424 1.54096,-0.718651 1.64723,7.963505 1.5941,-2.918941 1.64723,-2.995346 1.5941,-7.604352 1.64723,1.910608 1.64723,-7.043408 1.5941,1.397884 1.64723,-3.170655 1.59409,2.676999 1.64724,-6.930021 1.64723,5.202547 1.48782,-1.899523 1.64723,10.602455 1.5941,2.585419 1.64723,2.567507 1.5941,-7.453637 1.64723,4.261388 1.64723,-3.345888 1.5941,2.593959 1.64723,-7.922442 1.5941,0.838826 1.64723,-7.37537 1.64723,3.319368 1.48783,0.904417 1.64723,6.118225 1.59409,1.106998 1.64724,0.834119 1.59409,-2.279585 1.64724,8.475211 1.64723,-2.556896 1.59409,1.740079 1.64724,-9.368883 1.59409,1.047022 1.64724,-8.181921 1.64723,4.480427 1.48782,0.499492 1.64723,5.276534 1.5941,0.05107 1.64723,0.89217 1.5941,-1.113983 1.64723,9.439401 1.64723,-2.409168 1.5941,1.507493 1.64723,-10.338907 1.5941,1.126639 1.64723,-8.481253 1.64723,4.572424 1.54096,1.072041 1.64723,5.18488 v 87.049727 0 l -1.64723,-14.49779 -1.54096,-3.34034 -1.64723,-12.67741 -1.64723,22.13593 -1.5941,-3.55425 -1.64723,26.67569 -1.5941,-4.72498 -1.64723,5.49313 -1.64723,-25.38072 -1.5941,2.04875 -1.64723,-3.4697 -1.5941,-2.09274 -1.64723,-15.10146 -1.48782,-3.06567 -1.64723,-12.58942 -1.64724,17.39885 -1.59409,-4.67401 -1.64724,18.70346 -1.59409,-6.77596 -1.64723,2.44859 -1.64724,-20.93349 -1.59409,1.68043 -1.64724,-4.53788 -1.59409,-4.5274 -1.64723,-13.86657 -1.48783,-3.89004 -1.64723,-8.13976 -1.64723,10.1839 -1.5941,-4.32292 -1.64723,9.1597 -1.5941,-7.96206 -1.64723,0.18806 -1.64723,-11.10626 -1.5941,2.00276 -1.64723,-2.95081 -1.5941,-2.9416 -1.64723,-12.153157 -1.48782,2.196969 -1.64723,-5.988623 -1.64724,7.979013 -1.59409,-3.080254 -1.64723,3.651759 -1.5941,-1.607911 -1.64723,8.110899 -1.64723,-2.198666 -1.5941,8.758951 -1.64723,3.44913 -1.5941,3.40434 -1.64723,-9.11295 -1.54096,0.84507 -1.64723,-3.900092 -1.64723,13.380992 -1.5941,8.58587 -1.64723,31.33678 -1.5941,-6.07735 -1.64723,4.71009 -1.64724,-18.20497 -1.59409,4.85683 -1.64723,4.68705 -1.5941,4.22818 -1.64723,-15.74323 -1.48782,-6.68602 -1.64724,-2.15612 -1.64723,17.35221 -1.5941,-4.42929 -1.64723,21.20258 -1.59409,2.65108 -1.64724,4.53884 -1.64723,-24.52611 -1.59409,8.24907 -1.64724,-1.44641 -1.59409,5.94132 -1.64724,-10.97488 -1.48782,-2.01677 -1.64723,-7.58713 -1.64723,9.4317 -1.5941,4.92762 -1.64723,12.71265 -1.5941,4.52555 -1.64723,10.4523 -1.64723,-29.83054 -1.5941,-6.18252 -1.64723,6.53986 -1.5941,-12.93081 -1.64723,-8.95831 -1.48782,-6.97478 -1.64724,-2.11889 -1.64723,14.87925 -1.59409,-3.03159 -1.64724,14.51769 -1.59409,-1.25202 -1.64723,10.58093 -1.64724,-13.95891 -1.59409,4.44238 -1.64724,10.08806 -1.59409,-1.71976 -1.64723,-13.18455 -1.54096,-4.01616 -1.64723,-10.77195 -1.64724,17.18021 -1.59409,-5.60582 -1.64724,12.28248 -1.59409,1.02416 -1.64723,2.89925 -1.64724,-18.55094 -1.59409,-1.56917 -1.64724,-0.0406 -1.59409,0.63501 -1.64723,-8.64897 -1.48783,-8.16836 -1.64723,-8.6803 -1.64723,10.86037 -1.5941,-3.14839 -1.64723,10.83282 -1.5941,-4.06349 -1.64723,-4.00663 -1.64723,-6.4918 -1.5941,0.32805 -1.64723,-2.71238 -1.5941,-2.627515 -1.64723,-9.933937 -1.48782,-1.614783 -1.64723,-5.24833 -1.64724,11.666939 -1.59409,-5.911175 -1.64723,11.055654 -1.5941,-2.229761 -1.64723,1.632284 -1.64723,-6.513074 -1.5941,4.709241 -1.64723,-2.753076 -1.5941,4.198651 -1.64723,-3.622864 -1.48782,-4.595089 -1.64724,-0.36469 -1.64723,8.521455 -1.59409,5.77543 -1.64724,12.20141 -1.59409,-3.65897 -1.64724,7.18473 -1.64723,-14.47123 -1.59409,6.65659 -1.647237,1.93734 -1.594096,1.09506 -1.647233,-5.41158 -1.540959,2.13892 -1.647232,-6.61267 -1.647233,14.30504 -1.594096,1.98029 -1.647232,17.45147 -1.594096,-12.64542 -1.647233,5.04373 -1.647232,-6.81948 -1.594096,1.08375 -1.647233,-0.97803 -1.594096,-0.94962 -1.647232,19.09406 -1.487823,-37.66793 -1.647232,-5.692334 -1.647233,12.579834 -1.594096,-1.51642 -1.647232,15.24182 -1.594096,-3.6096 -1.647233,3.62436 -1.647232,-11.78867 -1.594096,3.52387 -1.647233,-6.27921 -1.594096,-0.40474 z" /></g></g><g
       id="g26"><path
         id="path28"
         style="fill:#000000;fill-opacity:1;fill-rule:nonzero;stroke:#000000;stroke-width:0.80000001;stroke-linecap:butt;stroke-linejoin:round;stroke-miterlimit:10;stroke-dasharray:none;stroke-opacity:1"
         d="m 73.806642,38.304 v -3.5" /><g
         transform="translate(61.806642,22.975875)"
         id="g30"><text
           id="text34"
           style="font-variant:normal;font-weight:normal;font-size:12px;font-family:TimesNewRomanPSMT;-inkscape-font-specification:TimesNewRomanPSMT;writing-mode:lr-tb;fill:#000000;fill-opacity:1;fill-rule:nonzero;stroke:none"
           transform="scale(1,-1)"><tspan
             id="tspan32"
             y="0"
             x="0 6 12 18">2010</tspan></text>
</g><path
         id="path36"
         style="fill:#000000;fill-opacity:1;fill-rule:nonzero;stroke:#000000;stroke-width:0.80000001;stroke-linecap:butt;stroke-linejoin:round;stroke-miterlimit:10;stroke-dasharray:none;stroke-opacity:1"
         d="m 112.64945,38.304 v -3.5" /><g
         transform="translate(100.64945,22.975875)"
         id="g38"><text
           id="text42"
           style="font-variant:normal;font-weight:normal;font-size:12px;font-family:TimesNewRomanPSMT;-inkscape-font-specification:TimesNewRomanPSMT;writing-mode:lr-tb;fill:#000000;fill-opacity:1;fill-rule:nonzero;stroke:none"
           transform="scale(1,-1)"><tspan
             id="tspan40"
             y="0"
             x="0 6 12 18">2012</tspan></text>
</g><path
         id="path44"
         style="fill:#000000;fill-opacity:1;fill-rule:nonzero;stroke:#000000;stroke-width:0.80000001;stroke-linecap:butt;stroke-linejoin:round;stroke-miterlimit:10;stroke-dasharray:none;stroke-opacity:1"
         d="m 151.43911,38.304 v -3.5" /><g
         transform="translate(139.43911,22.975875)"
         id="g46"><text
           id="text50"
           style="font-variant:normal;font-weight:normal;font-size:12px;font-family:TimesNewRomanPSMT;-inkscape-font-specification:TimesNewRomanPSMT;writing-mode:lr-tb;fill:#000000;fill-opacity:1;fill-rule:nonzero;stroke:none"
           transform="scale(1,-1)"><tspan
             id="tspan48"
             y="0"
             x="0 6 12 18">2014</tspan></text>
</g><path
         id="path52"
         style="fill:#000000;fill-opacity:1;fill-rule:nonzero;stroke:#000000;stroke-width:0.80000001;stroke-linecap:butt;stroke-linejoin:round;stroke-miterlimit:10;stroke-dasharray:none;stroke-opacity:1"
         d="m 190.28192,38.304 v -3.5" /><g
         transform="translate(178.28192,22.975875)"
         id="g54"><text
           id="text58"
           style="font-variant:normal;font-weight:normal;font-size:12px;font-family:TimesNewRomanPSMT;-inkscape-font-specification:TimesNewRomanPSMT;writing-mode:lr-tb;fill:#000000;fill-opacity:1;fill-rule:nonzero;stroke:none"
           transform="scale(1,-1)"><tspan
             id="tspan56"
             y="0"
             x="0 6 12 18">2016</tspan></text>
</g><path
         id="path60"
         style="fill:#000000;fill-opacity:1;fill-rule:nonzero;stroke:#000000;stroke-width:0.80000001;stroke-linecap:butt;stroke-linejoin:round;stroke-miterlimit:10;stroke-dasharray:none;stroke-opacity:1"
         d="m 229.07159,38.304 v -3.5" /><g
         transform="translate(217.07159,22.975875)"
         id="g62"><text
           id="text66"
           style="font-variant:normal;font-weight:normal;font-size:12px;font-family:TimesNewRomanPSMT;-inkscape-font-specification:TimesNewRomanPSMT;writing-mode:lr-tb;fill:#000000;fill-opacity:1;fill-rule:nonzero;stroke:none"
           transform="scale(1,-1)"><tspan
             id="tspan64"
             y="0"
             x="0 6 12 18">2018</tspan></text>
</g><path
         id="path68"
         style="fill:#000000;fill-opacity:1;fill-rule:nonzero;stroke:#000000;stroke-width:0.80000001;stroke-linecap:butt;stroke-linejoin:round;stroke-miterlimit:10;stroke-dasharray:none;stroke-opacity:1"
         d="m 267.91439,38.304 v -3.5" /><g
         transform="translate(255.91439,22.975875)"
         id="g70"><text
           id="text74"
           style="font-variant:normal;font-weight:normal;font-size:12px;font-family:TimesNewRomanPSMT;-inkscape-font-specification:TimesNewRomanPSMT;writing-mode:lr-tb;fill:#000000;fill-opacity:1;fill-rule:nonzero;stroke:none"
           transform="scale(1,-1)"><tspan
             id="tspan72"
             y="0"
             x="0 6 12 18">2020</tspan></text>
</g><path
         id="path76"
         style="fill:#000000;fill-opacity:1;fill-rule:nonzero;stroke:#000000;stroke-width:0.80000001;stroke-linecap:butt;stroke-linejoin:round;stroke-miterlimit:10;stroke-dasharray:none;stroke-opacity:1"
         d="m 306.70406,38.304 v -3.5" /><g
         transform="translate(294.70406,22.975875)"
         id="g78"><text
           id="text82"
           style="font-variant:normal;font-weight:normal;font-size:12px;font-family:TimesNewRomanPSMT;-inkscape-font-specification:TimesNewRomanPSMT;writing-mode:lr-tb;fill:#000000;fill-opacity:1;fill-rule:nonzero;stroke:none"
           transform="scale(1,-1)"><tspan
             id="tspan80"
             y="0"
             x="0 6 12 18">2022</tspan></text>
</g><path
         id="path84"
         style="fill:#000000;fill-opacity:1;fill-rule:nonzero;stroke:#000000;stroke-width:0.80000001;stroke-linecap:butt;stroke-linejoin:round;stroke-miterlimit:10;stroke-dasharray:none;stroke-opacity:1"
         d="m 345.54686,38.304 v -3.5" /><g
         transform="translate(333.54686,22.975875)"
         id="g86"><text
           id="text90"
           style="font-variant:normal;font-weight:normal;font-size:12px;font-family:TimesNewRomanPSMT;-inkscape-font-specification:TimesNewRomanPSMT;writing-mode:lr-tb;fill:#000000;fill-opacity:1;fill-rule:nonzero;stroke:none"
           transform="scale(1,-1)"><tspan
             id="tspan88"
             y="0"
             x="0 6 12 18">2024</tspan></text>
</g><path
         id="path92"
         style="fill:#000000;fill-opacity:1;fill-rule:nonzero;stroke:#000000;stroke-width:0.60000002;stroke-linecap:butt;stroke-linejoin:round;stroke-miterlimit:10;stroke-dasharray:none;stroke-opacity:1"
         d="m 93.201476,38.304 v -2" /><path
         id="path94"
         style="fill:#000000;fill-opacity:1;fill-rule:nonzero;stroke:#000000;stroke-width:0.60000002;stroke-linecap:butt;stroke-linejoin:round;stroke-miterlimit:10;stroke-dasharray:none;stroke-opacity:1"
         d="m 132.04428,38.304 v -2" /><path
         id="path96"
         style="fill:#000000;fill-opacity:1;fill-rule:nonzero;stroke:#000000;stroke-width:0.60000002;stroke-linecap:butt;stroke-linejoin:round;stroke-miterlimit:10;stroke-dasharray:none;stroke-opacity:1"
         d="m 170.83395,38.304 v -2" /><path
         id="path98"
         style="fill:#000000;fill-opacity:1;fill-rule:nonzero;stroke:#000000;stroke-width:0.60000002;stroke-linecap:butt;stroke-linejoin:round;stroke-miterlimit:10;stroke-dasharray:none;stroke-opacity:1"
         d="m 209.67675,38.304 v -2" /><path
         id="path100"
         style="fill:#000000;fill-opacity:1;fill-rule:nonzero;stroke:#000000;stroke-width:0.60000002;stroke-linecap:butt;stroke-linejoin:round;stroke-miterlimit:10;stroke-dasharray:none;stroke-opacity:1"
         d="m 248.46642,38.304 v -2" /><path
         id="path102"
         style="fill:#000000;fill-opacity:1;fill-rule:nonzero;stroke:#000000;stroke-width:0.60000002;stroke-linecap:butt;stroke-linejoin:round;stroke-miterlimit:10;stroke-dasharray:none;stroke-opacity:1"
         d="m 287.30923,38.304 v -2" /><path
         id="path104"
         style="fill:#000000;fill-opacity:1;fill-rule:nonzero;stroke:#000000;stroke-width:0.60000002;stroke-linecap:butt;stroke-linejoin:round;stroke-miterlimit:10;stroke-dasharray:none;stroke-opacity:1"
         d="m 326.09889,38.304 v -2" /><g
         transform="translate(188.38125,5.694625)"
         id="g106"><text
           id="text110"
           style="font-variant:normal;font-weight:normal;font-size:14px;font-family:TimesNewRomanPSMT;-inkscape-font-specification:TimesNewRomanPSMT;writing-mode:lr-tb;fill:#000000;fill-opacity:1;fill-rule:nonzero;stroke:none"
           transform="scale(1,-1)"><tspan
             id="tspan108"
             y="0"
             x="0 10.108 16.323999 20.216">Date</tspan></text>
</g><path
         id="path112"
         style="fill:#000000;fill-opacity:1;fill-rule:nonzero;stroke:#000000;stroke-width:0.80000001;stroke-linecap:butt;stroke-linejoin:round;stroke-miterlimit:10;stroke-dasharray:none;stroke-opacity:1"
         d="M 57.6,38.304 H 54.1" /><g
         transform="translate(44.6,34.139938)"
         id="g114"><text
           id="text118"
           style="font-variant:normal;font-weight:normal;font-size:12px;font-family:TimesNewRomanPSMT;-inkscape-font-specification:TimesNewRomanPSMT;writing-mode:lr-tb;fill:#000000;fill-opacity:1;fill-rule:nonzero;stroke:none"
           transform="scale(1,-1)"><tspan
             id="tspan116"
             y="0"
             x="0">0</tspan></text>
</g><path
         id="path120"
         style="fill:#000000;fill-opacity:1;fill-rule:nonzero;stroke:#000000;stroke-width:0.80000001;stroke-linecap:butt;stroke-linejoin:round;stroke-miterlimit:10;stroke-dasharray:none;stroke-opacity:1"
         d="M 57.6,79.04 H 54.1" /><g
         transform="translate(26.6,74.875937)"
         id="g122"><text
           id="text126"
           style="font-variant:normal;font-weight:normal;font-size:12px;font-family:TimesNewRomanPSMT;-inkscape-font-specification:TimesNewRomanPSMT;writing-mode:lr-tb;fill:#000000;fill-opacity:1;fill-rule:nonzero;stroke:none"
           transform="scale(1,-1)"><tspan
             id="tspan124"
             y="0"
             x="0 6 12 18">1000</tspan></text>
</g><path
         id="path128"
         style="fill:#000000;fill-opacity:1;fill-rule:nonzero;stroke:#000000;stroke-width:0.80000001;stroke-linecap:butt;stroke-linejoin:round;stroke-miterlimit:10;stroke-dasharray:none;stroke-opacity:1"
         d="M 57.6,119.776 H 54.1" /><g
         transform="translate(26.6,115.61194)"
         id="g130"><text
           id="text134"
           style="font-variant:normal;font-weight:normal;font-size:12px;font-family:TimesNewRomanPSMT;-inkscape-font-specification:TimesNewRomanPSMT;writing-mode:lr-tb;fill:#000000;fill-opacity:1;fill-rule:nonzero;stroke:none"
           transform="scale(1,-1)"><tspan
             id="tspan132"
             y="0"
             x="0 6 12 18">2000</tspan></text>
</g><path
         id="path136"
         style="fill:#000000;fill-opacity:1;fill-rule:nonzero;stroke:#000000;stroke-width:0.80000001;stroke-linecap:butt;stroke-linejoin:round;stroke-miterlimit:10;stroke-dasharray:none;stroke-opacity:1"
         d="M 57.6,160.512 H 54.1" /><g
         transform="translate(26.6,156.34794)"
         id="g138"><text
           id="text142"
           style="font-variant:normal;font-weight:normal;font-size:12px;font-family:TimesNewRomanPSMT;-inkscape-font-specification:TimesNewRomanPSMT;writing-mode:lr-tb;fill:#000000;fill-opacity:1;fill-rule:nonzero;stroke:none"
           transform="scale(1,-1)"><tspan
             id="tspan140"
             y="0"
             x="0 6 12 18">3000</tspan></text>
</g><path
         id="path144"
         style="fill:#000000;fill-opacity:1;fill-rule:nonzero;stroke:#000000;stroke-width:0.80000001;stroke-linecap:butt;stroke-linejoin:round;stroke-miterlimit:10;stroke-dasharray:none;stroke-opacity:1"
         d="M 57.6,201.248 H 54.1" /><g
         transform="translate(26.6,197.08394)"
         id="g146"><text
           id="text150"
           style="font-variant:normal;font-weight:normal;font-size:12px;font-family:TimesNewRomanPSMT;-inkscape-font-specification:TimesNewRomanPSMT;writing-mode:lr-tb;fill:#000000;fill-opacity:1;fill-rule:nonzero;stroke:none"
           transform="scale(1,-1)"><tspan
             id="tspan148"
             y="0"
             x="0 6 12 18">4000</tspan></text>
</g><g
         transform="rotate(90,-19.875312,33.475312)"
         id="g152"><text
           id="text156"
           style="font-variant:normal;font-weight:normal;font-size:14px;font-family:TimesNewRomanPSMT;-inkscape-font-specification:TimesNewRomanPSMT;writing-mode:lr-tb;fill:#000000;fill-opacity:1;fill-rule:nonzero;stroke:none"
           transform="scale(1,-1)"><tspan
             id="tspan154"
             y="0"
             x="0 9.3380003 14 17.892 28.784 35 40.445999 43.945999 51.73 57.945999 62.608002 66.108002 73.108002 80.108002 87.108002 90.608002 97.608002 104.608 111.608 115.108 122.892 129.108 136.108 143.108 147">Crimes Per 100,000 People</tspan></text>
</g></g><g
       id="g158"><g
         clip-path="url(#clipPath164)"
         id="g160"><path
           id="path166"
           style="fill:none;stroke:#6c17b9;stroke-width:1.5;stroke-linecap:square;stroke-linejoin:round;stroke-miterlimit:10;stroke-dasharray:none;stroke-opacity:1"
           d="m 59.247232,148.47573 1.594096,-13.77146 1.647233,-33.05152 1.594096,-5.508588 1.647232,33.051518 1.647233,-27.54293 1.594096,35.80581 1.647232,-30.29722 1.594096,-16.525768 1.647233,5.50859 1.647232,16.525768 1.487823,-13.771472 1.647232,-5.508591 1.594096,22.034343 1.647233,-5.50858 1.594096,11.01718 1.647232,-22.034352 1.647233,55.085862 1.594096,11.01718 1.647232,-57.84016 h 1.594096 l 1.647233,-27.542938 1.647232,24.788638 1.540959,30.29723 1.647233,-33.05152 1.594096,-8.262883 1.647237,22.034343 1.59409,-19.280048 1.64723,2.754296 h 1.64724 l 1.59409,8.262882 1.64724,-11.017178 1.59409,-22.034346 1.64723,16.525756 1.64724,11.017178 1.48782,16.52576 1.64723,-22.034348 1.5941,-24.788642 1.64723,16.525764 1.5941,-2.754295 1.64723,19.280051 1.64723,-27.542933 1.5941,-2.754291 1.64723,5.508586 1.59409,2.754292 h 1.64724 l 1.64723,19.280056 1.48782,-2.754292 1.64723,-22.034351 1.5941,33.051523 1.64723,-24.788641 1.5941,11.017173 1.64723,-8.262878 1.64723,5.508583 1.5941,8.262883 1.64723,22.03434 1.5941,-11.01716 1.64723,-33.051528 1.64723,57.840158 1.48783,-44.068693 1.64723,30.297223 1.59409,-8.26288 1.64724,2.7543 1.59409,-13.77147 1.64724,30.29723 1.64723,-24.78864 1.59409,16.52576 1.64724,-8.26288 1.59409,11.01717 1.64724,19.28005 1.64723,-35.8058 1.54096,-5.50859 1.64723,19.28005 1.59409,44.06869 1.64724,-60.59445 1.59409,46.82299 1.64724,-22.03435 h 1.64723 l 1.59409,11.01717 1.64724,-66.103038 1.59409,55.085868 1.64723,-38.560108 1.64724,-13.771468 1.48782,11.017173 1.64723,77.120213 1.5941,-38.5601 1.64723,27.54294 1.5941,-60.594462 1.64723,60.594462 1.64723,-22.03436 1.5941,52.33158 1.64723,-60.59446 1.5941,24.78864 1.64723,8.26289 1.64723,-71.611638 1.48782,13.771468 1.64724,52.33158 1.59409,-27.54294 3.24133,33.05153 1.64723,-27.54294 1.64724,-5.50859 1.59409,-19.28005 1.64723,35.80581 1.5941,-2.75429 1.64723,-24.78864 1.64724,5.50858 1.48782,-13.77146 1.64723,2.7543 1.5941,24.78863 1.64723,38.56011 1.59409,-77.120212 1.64724,49.577272 1.64723,2.7543 1.5941,-35.80582 1.64723,2.7543 1.5941,-5.50858 h 3.29446 l 1.54096,19.28005 1.64723,-60.59446 1.5941,2.754296 1.64723,-2.754296 1.5941,35.80582 h 1.64723 l 1.64723,16.52575 1.5941,-27.542928 1.64723,-13.771468 1.59409,-2.754292 1.64724,-24.788642 1.64723,5.508587 1.48782,5.508587 1.64723,46.822996 1.5941,-8.26289 3.24133,33.05152 1.64723,-44.068693 1.64723,35.805813 1.5941,11.01718 1.64723,-30.29723 1.5941,38.5601 1.64723,-2.75429 1.64723,-19.28005 1.48783,8.26288 1.64723,-27.54293 1.59409,35.80581 1.64724,2.75429 1.59409,-30.29723 1.64724,13.77147 1.64723,-57.84016 1.59409,46.82299 1.64724,22.03435 1.59409,-38.56011 1.64724,-5.508588 1.64723,5.508588 1.48782,19.28006 1.64723,44.06869 1.5941,-8.26288 1.64723,-22.03435 1.5941,22.03435 1.64723,-30.29723 1.64723,30.29723 1.5941,-22.03435 1.64723,-5.50859 1.5941,30.29724 1.64723,-16.52577 1.64723,-41.3144 1.54096,38.56011 1.64723,-30.29723 v 0" /></g></g><g
       id="g168"><g
         clip-path="url(#clipPath174)"
         id="g170"><path
           id="path176"
           style="fill:none;stroke:#1db8f7;stroke-width:1.5;stroke-linecap:square;stroke-linejoin:round;stroke-miterlimit:10;stroke-dasharray:none;stroke-opacity:1"
           d="m 59.247232,117.04555 1.594096,2.21647 1.647233,-7.0446 1.594096,-3.28355 1.647232,10.9847 1.647233,-3.37718 1.594096,3.36343 1.647232,-14.20236 1.594096,1.41301 1.647233,-11.721923 1.647232,5.304123 1.487823,7.93146 1.647232,6.46645 1.594096,1.78927 1.647233,0.92915 1.594096,-0.95368 1.647232,6.20495 1.647233,-4.57691 1.594096,11.51167 1.647232,-15.8661 1.594096,-1.79193 1.647233,-13.008372 1.647232,6.023002 1.540959,-1.934 1.647233,5.00617 1.594096,-0.92985 1.647237,-1.76717 1.59409,-6.063112 1.64723,13.209492 1.64724,-6.54769 1.59409,3.34766 1.64724,-11.127627 1.59409,-5.263588 1.64723,-7.77242 1.64724,0.336414 1.48782,4.217895 1.64723,3.429246 1.5941,-3.775419 1.64723,2.523938 1.5941,-4.309895 1.64723,5.975058 1.64723,-1.491418 1.5941,2.050057 1.64723,-10.134129 1.59409,5.427702 1.64724,-10.69744 1.64723,4.817123 1.48782,1.501143 1.64723,9.229916 3.24133,4.982358 1.5941,-0.294988 1.64723,5.980974 3.24133,7.44227 1.64723,-9.97217 1.5941,2.90555 1.64723,-9.999608 4.78229,23.647268 1.59409,-0.5123 1.64724,0.0378 1.59409,1.45702 1.64724,17.14386 1.64723,-2.6737 1.59409,-0.94153 1.64724,-11.34543 1.59409,5.18595 1.64724,-15.8739 1.64723,9.95779 1.54096,3.73644 1.64723,12.30955 1.59409,1.66425 1.64724,-9.34444 1.59409,-4.10905 1.64724,12.93381 1.64723,-9.79853 1.59409,1.16342 1.64724,-13.447 1.59409,2.81237 1.64723,-13.78371 1.64724,1.96431 1.48782,6.48002 1.64723,8.3818 1.5941,12.05006 1.64723,-6.07012 1.5941,5.74383 1.64723,27.69291 1.64723,-9.69907 1.5941,-4.19791 1.64723,-11.79845 1.5941,-4.57156 1.64723,-8.75376 1.64723,7.04494 1.48782,1.88966 1.64724,10.26853 1.59409,-5.4768 1.64724,1.34496 1.59409,-7.66534 1.64723,22.80495 1.64724,-4.21733 1.59409,-2.46251 1.64723,-19.71219 1.5941,4.12084 1.64723,-16.13331 1.64724,2.00546 1.48782,6.23016 1.64723,14.70144 1.5941,-3.8996 3.24132,-8.88151 1.64724,16.94935 1.64723,-4.38302 1.5941,5.65982 1.64723,-29.17326 1.5941,-7.99233 1.64723,-12.457292 1.64723,3.631512 1.54096,-0.779338 1.64723,8.518918 3.24133,-6.366612 1.5941,-8.16126 1.64723,2.049582 1.64723,-7.558331 1.5941,1.499224 1.64723,-3.402714 1.59409,2.871556 1.64724,-7.436043 1.64723,5.581765 1.48782,-2.042846 1.64723,11.351375 3.24133,5.510299 1.5941,-5.013637 1.64723,7.266842 1.64723,-2.080539 1.5941,4.829639 1.64723,-8.626885 1.5941,2.218223 1.64723,-8.719035 1.64723,5.26472 1.48783,2.048524 1.64723,9.249393 1.59409,2.39695 1.64724,2.19688 1.59409,-2.21827 1.64724,13.36129 1.64723,-2.71311 1.59409,3.57026 1.64724,-13.26479 1.59409,2.33166 1.64724,-11.948254 1.64723,7.532354 1.48782,1.36982 1.64723,8.94753 1.5941,0.69784 1.64723,1.79752 1.5941,-1.53274 1.64723,15.48037 1.64723,-3.64649 1.5941,2.6791 1.64723,-16.60837 1.5941,2.00851 1.64723,-13.70264 1.64723,7.61473 1.54096,1.89751 1.64723,8.67141 v 0" /></g></g><g
       id="g178"><g
         clip-path="url(#clipPath184)"
         id="g180"><path
           id="path186"
           style="fill:none;stroke:#6d6d6d;stroke-width:1.5;stroke-linecap:butt;stroke-linejoin:round;stroke-miterlimit:10;stroke-dasharray:4.5, 4.5;stroke-dashoffset:0;stroke-opacity:1"
           d="m 275.99114,47.67328 v 164.9808" /></g></g><g
       id="g188"><path
         id="path190"
         style="fill:none;stroke:#000000;stroke-width:0.80000001;stroke-linecap:square;stroke-linejoin:miter;stroke-miterlimit:10;stroke-dasharray:none;stroke-opacity:1"
         d="M 57.6,38.304 V 221.616" /><path
         id="path192"
         style="fill:none;stroke:#000000;stroke-width:0.80000001;stroke-linecap:square;stroke-linejoin:miter;stroke-miterlimit:10;stroke-dasharray:none;stroke-opacity:1"
         d="M 345.6,38.304 V 221.616" /><path
         id="path194"
         style="fill:none;stroke:#000000;stroke-width:0.80000001;stroke-linecap:square;stroke-linejoin:miter;stroke-miterlimit:10;stroke-dasharray:none;stroke-opacity:1"
         d="m 57.6,38.304 h 288" /><path
         id="path196"
         style="fill:none;stroke:#000000;stroke-width:0.80000001;stroke-linecap:square;stroke-linejoin:miter;stroke-miterlimit:10;stroke-dasharray:none;stroke-opacity:1"
         d="m 57.6,221.616 h 288" /><g
         transform="translate(143.76763,201.248)"
         id="g198"><text
           id="text202"
           style="font-variant:normal;font-weight:normal;font-size:14px;font-family:TimesNewRomanPSMT;-inkscape-font-specification:TimesNewRomanPSMT;writing-mode:lr-tb;fill:#000000;fill-opacity:1;fill-rule:nonzero;stroke:none"
           transform="scale(1,-1)"><tspan
             id="tspan200"
             y="0"
             x="0 8.0696249 12.731625 18.947624 22.839624 29.839624 33.731625 40.731625">Training</tspan></text>
</g><g
         transform="translate(291.01292,201.248)"
         id="g204"><text
           id="text208"
           style="font-variant:normal;font-weight:normal;font-size:14px;font-family:TimesNewRomanPSMT;-inkscape-font-specification:TimesNewRomanPSMT;writing-mode:lr-tb;fill:#000000;fill-opacity:1;fill-rule:nonzero;stroke:none"
           transform="scale(1,-1)"><tspan
             id="tspan206"
             y="0"
             x="0 7.5852499 13.80125 19.24725 23.13925 27.03125 34.03125">Testing</tspan></text>
</g><path
         id="path210"
         style="fill:#ffffff;fill-opacity:0.8;fill-rule:nonzero;stroke:#cccccc;stroke-width:1;stroke-linecap:butt;stroke-linejoin:miter;stroke-miterlimit:10;stroke-dasharray:none;stroke-opacity:0.8"
         d="m 67.4,144.71459 h 98.47187 c 1.86667,0 2.8,0.93333 2.8,2.8 v 38.21562 c 0,1.86667 -0.93333,2.8 -2.8,2.8 H 67.4 c -1.866667,0 -2.8,-0.93333 -2.8,-2.8 v -38.21562 c 0,-1.86667 0.933333,-2.8 2.8,-2.8 z" /><path
         id="path212"
         style="fill:none;stroke:#6c17b9;stroke-width:1.5;stroke-linecap:square;stroke-linejoin:round;stroke-miterlimit:10;stroke-dasharray:none;stroke-opacity:1"
         d="m 70.2,178.03021 h 14 14" /><g
         transform="translate(109.4,173.13021)"
         id="g214"><text
           id="text218"
           style="font-variant:normal;font-weight:normal;font-size:14px;font-family:TimesNewRomanPSMT;-inkscape-font-specification:TimesNewRomanPSMT;writing-mode:lr-tb;fill:#000000;fill-opacity:1;fill-rule:nonzero;stroke:none"
           transform="scale(1,-1)"><tspan
             id="tspan216"
             y="0"
             x="0 10.108 14.77 18.662001 25.662001 29.554001 36.554001 42.77">Original</tspan></text>
</g><path
         id="path220"
         style="fill:none;stroke:#1db8f7;stroke-width:1.5;stroke-linecap:square;stroke-linejoin:round;stroke-miterlimit:10;stroke-dasharray:none;stroke-opacity:1"
         d="m 70.2,158.21459 h 14 14" /><g
         transform="translate(109.4,153.31459)"
         id="g222"><text
           id="text226"
           style="font-variant:normal;font-weight:normal;font-size:14px;font-family:TimesNewRomanPSMT;-inkscape-font-specification:TimesNewRomanPSMT;writing-mode:lr-tb;fill:#000000;fill-opacity:1;fill-rule:nonzero;stroke:none"
           transform="scale(1,-1)"><tspan
             id="tspan224"
             y="0"
             x="0 12.446 19.445999 26.445999 32.661999 36.554001 40.445999 46.661999">Modelled</tspan></text>
</g><g
         transform="translate(62.5,251.50137)"
         id="g228"><text
           id="text232"
           style="font-variant:normal;font-weight:normal;font-size:20px;font-family:TimesNewRomanPSMT;-inkscape-font-specification:TimesNewRomanPSMT;writing-mode:lr-tb;fill:#000000;fill-opacity:1;fill-rule:nonzero;stroke:none"
           transform="scale(1,-1)"><tspan
             id="tspan230"
             y="0"
             x="0 11.12 21.120001 27.780001 36.66 45.540001 54.419998 62.200001 67.760002 73.32 83.32 93.32 98.32 111.66 118.32 123.88 139.44 148.32001 153.32001 166.66 176.66 186.66 196.66 202.22 207.22 218.34 228.34">Forecasting Crime Count For</tspan></text>
</g><g
         transform="translate(85.28125,230.52012)"
         id="g234"><text
           id="text238"
           style="font-variant:normal;font-weight:normal;font-size:20px;font-family:TimesNewRomanPSMT;-inkscape-font-specification:TimesNewRomanPSMT;writing-mode:lr-tb;fill:#000000;fill-opacity:1;fill-rule:nonzero;stroke:none"
           transform="scale(1,-1)"><tspan
             id="tspan236"
             y="0"
             x="0 13.34 22.219999 30 38.880001 43.880001 53.880001 58.880001 73.32 81.099998 86.660004 96.660004 106.66 111.66 122.78 137.22 150.56 157.22 175">Case 2 Using SARIMA</tspan></text>
</g></g></g></svg>