<?xml version="1.0" encoding="UTF-8" standalone="no"?>
<svg
   xmlns:dc="http://purl.org/dc/elements/1.1/"
   xmlns:cc="http://creativecommons.org/ns#"
   xmlns:rdf="http://www.w3.org/1999/02/22-rdf-syntax-ns#"
   xmlns:svg="http://www.w3.org/2000/svg"
   xmlns="http://www.w3.org/2000/svg"
   viewBox="0 0 480 384"
   height="384"
   width="480"
   xml:space="preserve"
   id="svg2"
   version="1.1"><metadata
     id="metadata8"><rdf:RDF><cc:Work
         rdf:about=""><dc:format>image/svg+xml</dc:format><dc:type
           rdf:resource="http://purl.org/dc/dcmitype/StillImage" /></cc:Work></rdf:RDF></metadata><defs
     id="defs6"><clipPath
       id="clipPath166"
       clipPathUnits="userSpaceOnUse"><path
         id="path164"
         d="m 57.6,43.2 h 288 v 201.6 h -288 z" /></clipPath><clipPath
       id="clipPath176"
       clipPathUnits="userSpaceOnUse"><path
         id="path174"
         d="m 57.6,43.2 h 288 v 201.6 h -288 z" /></clipPath></defs><g
     transform="matrix(1.3333333,0,0,-1.3333333,0,384)"
     id="g10"><path
       id="path12"
       style="fill:#ffffff;fill-opacity:1;fill-rule:nonzero;stroke:none"
       d="M 0,0 H 360 V 288 H 0 Z" /><path
       id="path14"
       style="fill:#ffffff;fill-opacity:1;fill-rule:nonzero;stroke:none"
       d="m 57.6,43.2 h 288 v 201.6 h -288 z" /><path
       id="path16"
       style="fill:#000000;fill-opacity:1;fill-rule:nonzero;stroke:#000000;stroke-width:0.80000001;stroke-linecap:butt;stroke-linejoin:round;stroke-miterlimit:10;stroke-dasharray:none;stroke-opacity:1"
       d="M 71.233136,43.2 V 39.7" /><g
       transform="translate(59.233136,27.871875)"
       id="g18"><text
         id="text22"
         style="font-variant:normal;font-weight:normal;font-size:12px;font-family:TimesNewRomanPSMT;-inkscape-font-specification:TimesNewRomanPSMT;writing-mode:lr-tb;fill:#000000;fill-opacity:1;fill-rule:nonzero;stroke:none"
         transform="scale(1,-1)"><tspan
           id="tspan20"
           y="0"
           x="0 6 12 18">2010</tspan></text>
</g><path
       id="path24"
       style="fill:#000000;fill-opacity:1;fill-rule:nonzero;stroke:#000000;stroke-width:0.80000001;stroke-linecap:butt;stroke-linejoin:round;stroke-miterlimit:10;stroke-dasharray:none;stroke-opacity:1"
       d="M 112.13254,43.2 V 39.7" /><g
       transform="translate(100.13254,27.871875)"
       id="g26"><text
         id="text30"
         style="font-variant:normal;font-weight:normal;font-size:12px;font-family:TimesNewRomanPSMT;-inkscape-font-specification:TimesNewRomanPSMT;writing-mode:lr-tb;fill:#000000;fill-opacity:1;fill-rule:nonzero;stroke:none"
         transform="scale(1,-1)"><tspan
           id="tspan28"
           y="0"
           x="0 6 12 18">2012</tspan></text>
</g><path
       id="path32"
       style="fill:#000000;fill-opacity:1;fill-rule:nonzero;stroke:#000000;stroke-width:0.80000001;stroke-linecap:butt;stroke-linejoin:round;stroke-miterlimit:10;stroke-dasharray:none;stroke-opacity:1"
       d="M 153.03195,43.2 V 39.7" /><g
       transform="translate(141.03195,27.871875)"
       id="g34"><text
         id="text38"
         style="font-variant:normal;font-weight:normal;font-size:12px;font-family:TimesNewRomanPSMT;-inkscape-font-specification:TimesNewRomanPSMT;writing-mode:lr-tb;fill:#000000;fill-opacity:1;fill-rule:nonzero;stroke:none"
         transform="scale(1,-1)"><tspan
           id="tspan36"
           y="0"
           x="0 6 12 18">2014</tspan></text>
</g><path
       id="path40"
       style="fill:#000000;fill-opacity:1;fill-rule:nonzero;stroke:#000000;stroke-width:0.80000001;stroke-linecap:butt;stroke-linejoin:round;stroke-miterlimit:10;stroke-dasharray:none;stroke-opacity:1"
       d="M 193.93136,43.2 V 39.7" /><g
       transform="translate(181.93136,27.871875)"
       id="g42"><text
         id="text46"
         style="font-variant:normal;font-weight:normal;font-size:12px;font-family:TimesNewRomanPSMT;-inkscape-font-specification:TimesNewRomanPSMT;writing-mode:lr-tb;fill:#000000;fill-opacity:1;fill-rule:nonzero;stroke:none"
         transform="scale(1,-1)"><tspan
           id="tspan44"
           y="0"
           x="0 6 12 18">2016</tspan></text>
</g><path
       id="path48"
       style="fill:#000000;fill-opacity:1;fill-rule:nonzero;stroke:#000000;stroke-width:0.80000001;stroke-linecap:butt;stroke-linejoin:round;stroke-miterlimit:10;stroke-dasharray:none;stroke-opacity:1"
       d="M 234.83077,43.2 V 39.7" /><g
       transform="translate(222.83077,27.871875)"
       id="g50"><text
         id="text54"
         style="font-variant:normal;font-weight:normal;font-size:12px;font-family:TimesNewRomanPSMT;-inkscape-font-specification:TimesNewRomanPSMT;writing-mode:lr-tb;fill:#000000;fill-opacity:1;fill-rule:nonzero;stroke:none"
         transform="scale(1,-1)"><tspan
           id="tspan52"
           y="0"
           x="0 6 12 18">2018</tspan></text>
</g><path
       id="path56"
       style="fill:#000000;fill-opacity:1;fill-rule:nonzero;stroke:#000000;stroke-width:0.80000001;stroke-linecap:butt;stroke-linejoin:round;stroke-miterlimit:10;stroke-dasharray:none;stroke-opacity:1"
       d="M 275.73018,43.2 V 39.7" /><g
       transform="translate(263.73018,27.871875)"
       id="g58"><text
         id="text62"
         style="font-variant:normal;font-weight:normal;font-size:12px;font-family:TimesNewRomanPSMT;-inkscape-font-specification:TimesNewRomanPSMT;writing-mode:lr-tb;fill:#000000;fill-opacity:1;fill-rule:nonzero;stroke:none"
         transform="scale(1,-1)"><tspan
           id="tspan60"
           y="0"
           x="0 6 12 18">2020</tspan></text>
</g><path
       id="path64"
       style="fill:#000000;fill-opacity:1;fill-rule:nonzero;stroke:#000000;stroke-width:0.80000001;stroke-linecap:butt;stroke-linejoin:round;stroke-miterlimit:10;stroke-dasharray:none;stroke-opacity:1"
       d="M 316.62959,43.2 V 39.7" /><g
       transform="translate(304.62959,27.871875)"
       id="g66"><text
         id="text70"
         style="font-variant:normal;font-weight:normal;font-size:12px;font-family:TimesNewRomanPSMT;-inkscape-font-specification:TimesNewRomanPSMT;writing-mode:lr-tb;fill:#000000;fill-opacity:1;fill-rule:nonzero;stroke:none"
         transform="scale(1,-1)"><tspan
           id="tspan68"
           y="0"
           x="0 6 12 18">2022</tspan></text>
</g><path
       id="path72"
       style="fill:#000000;fill-opacity:1;fill-rule:nonzero;stroke:#000000;stroke-width:0.60000002;stroke-linecap:butt;stroke-linejoin:round;stroke-miterlimit:10;stroke-dasharray:none;stroke-opacity:1"
       d="m 91.68284,43.2 v -2" /><path
       id="path74"
       style="fill:#000000;fill-opacity:1;fill-rule:nonzero;stroke:#000000;stroke-width:0.60000002;stroke-linecap:butt;stroke-linejoin:round;stroke-miterlimit:10;stroke-dasharray:none;stroke-opacity:1"
       d="m 132.58225,43.2 v -2" /><path
       id="path76"
       style="fill:#000000;fill-opacity:1;fill-rule:nonzero;stroke:#000000;stroke-width:0.60000002;stroke-linecap:butt;stroke-linejoin:round;stroke-miterlimit:10;stroke-dasharray:none;stroke-opacity:1"
       d="m 173.48166,43.2 v -2" /><path
       id="path78"
       style="fill:#000000;fill-opacity:1;fill-rule:nonzero;stroke:#000000;stroke-width:0.60000002;stroke-linecap:butt;stroke-linejoin:round;stroke-miterlimit:10;stroke-dasharray:none;stroke-opacity:1"
       d="m 214.38106,43.2 v -2" /><path
       id="path80"
       style="fill:#000000;fill-opacity:1;fill-rule:nonzero;stroke:#000000;stroke-width:0.60000002;stroke-linecap:butt;stroke-linejoin:round;stroke-miterlimit:10;stroke-dasharray:none;stroke-opacity:1"
       d="m 255.28047,43.2 v -2" /><path
       id="path82"
       style="fill:#000000;fill-opacity:1;fill-rule:nonzero;stroke:#000000;stroke-width:0.60000002;stroke-linecap:butt;stroke-linejoin:round;stroke-miterlimit:10;stroke-dasharray:none;stroke-opacity:1"
       d="m 296.17988,43.2 v -2" /><g
       transform="translate(186.48281,4.2)"
       id="g84"><text
         id="text88"
         style="font-variant:normal;font-weight:normal;font-size:16px;font-family:TimesNewRomanPSMT;-inkscape-font-specification:TimesNewRomanPSMT;writing-mode:lr-tb;fill:#000000;fill-opacity:1;fill-rule:nonzero;stroke:none"
         transform="scale(1,-1)"><tspan
           id="tspan86"
           y="0"
           x="0 11.552 18.656 23.104">Date</tspan></text>
</g><path
       id="path90"
       style="fill:#000000;fill-opacity:1;fill-rule:nonzero;stroke:#000000;stroke-width:0.80000001;stroke-linecap:butt;stroke-linejoin:round;stroke-miterlimit:10;stroke-dasharray:none;stroke-opacity:1"
       d="M 57.6,43.2 H 54.1" /><g
       transform="translate(44.6,39.035938)"
       id="g92"><text
         id="text96"
         style="font-variant:normal;font-weight:normal;font-size:12px;font-family:TimesNewRomanPSMT;-inkscape-font-specification:TimesNewRomanPSMT;writing-mode:lr-tb;fill:#000000;fill-opacity:1;fill-rule:nonzero;stroke:none"
         transform="scale(1,-1)"><tspan
           id="tspan94"
           y="0"
           x="0">0</tspan></text>
</g><path
       id="path98"
       style="fill:#000000;fill-opacity:1;fill-rule:nonzero;stroke:#000000;stroke-width:0.80000001;stroke-linecap:butt;stroke-linejoin:round;stroke-miterlimit:10;stroke-dasharray:none;stroke-opacity:1"
       d="M 57.6,72 H 54.1" /><g
       transform="translate(38.6,67.835937)"
       id="g100"><text
         id="text104"
         style="font-variant:normal;font-weight:normal;font-size:12px;font-family:TimesNewRomanPSMT;-inkscape-font-specification:TimesNewRomanPSMT;writing-mode:lr-tb;fill:#000000;fill-opacity:1;fill-rule:nonzero;stroke:none"
         transform="scale(1,-1)"><tspan
           id="tspan102"
           y="0"
           x="0 6">10</tspan></text>
</g><path
       id="path106"
       style="fill:#000000;fill-opacity:1;fill-rule:nonzero;stroke:#000000;stroke-width:0.80000001;stroke-linecap:butt;stroke-linejoin:round;stroke-miterlimit:10;stroke-dasharray:none;stroke-opacity:1"
       d="M 57.6,100.8 H 54.1" /><g
       transform="translate(38.6,96.635937)"
       id="g108"><text
         id="text112"
         style="font-variant:normal;font-weight:normal;font-size:12px;font-family:TimesNewRomanPSMT;-inkscape-font-specification:TimesNewRomanPSMT;writing-mode:lr-tb;fill:#000000;fill-opacity:1;fill-rule:nonzero;stroke:none"
         transform="scale(1,-1)"><tspan
           id="tspan110"
           y="0"
           x="0 6">20</tspan></text>
</g><path
       id="path114"
       style="fill:#000000;fill-opacity:1;fill-rule:nonzero;stroke:#000000;stroke-width:0.80000001;stroke-linecap:butt;stroke-linejoin:round;stroke-miterlimit:10;stroke-dasharray:none;stroke-opacity:1"
       d="M 57.6,129.6 H 54.1" /><g
       transform="translate(38.6,125.43594)"
       id="g116"><text
         id="text120"
         style="font-variant:normal;font-weight:normal;font-size:12px;font-family:TimesNewRomanPSMT;-inkscape-font-specification:TimesNewRomanPSMT;writing-mode:lr-tb;fill:#000000;fill-opacity:1;fill-rule:nonzero;stroke:none"
         transform="scale(1,-1)"><tspan
           id="tspan118"
           y="0"
           x="0 6">30</tspan></text>
</g><path
       id="path122"
       style="fill:#000000;fill-opacity:1;fill-rule:nonzero;stroke:#000000;stroke-width:0.80000001;stroke-linecap:butt;stroke-linejoin:round;stroke-miterlimit:10;stroke-dasharray:none;stroke-opacity:1"
       d="M 57.6,158.4 H 54.1" /><g
       transform="translate(38.6,154.23594)"
       id="g124"><text
         id="text128"
         style="font-variant:normal;font-weight:normal;font-size:12px;font-family:TimesNewRomanPSMT;-inkscape-font-specification:TimesNewRomanPSMT;writing-mode:lr-tb;fill:#000000;fill-opacity:1;fill-rule:nonzero;stroke:none"
         transform="scale(1,-1)"><tspan
           id="tspan126"
           y="0"
           x="0 6">40</tspan></text>
</g><path
       id="path130"
       style="fill:#000000;fill-opacity:1;fill-rule:nonzero;stroke:#000000;stroke-width:0.80000001;stroke-linecap:butt;stroke-linejoin:round;stroke-miterlimit:10;stroke-dasharray:none;stroke-opacity:1"
       d="M 57.6,187.2 H 54.1" /><g
       transform="translate(38.6,183.03594)"
       id="g132"><text
         id="text136"
         style="font-variant:normal;font-weight:normal;font-size:12px;font-family:TimesNewRomanPSMT;-inkscape-font-specification:TimesNewRomanPSMT;writing-mode:lr-tb;fill:#000000;fill-opacity:1;fill-rule:nonzero;stroke:none"
         transform="scale(1,-1)"><tspan
           id="tspan134"
           y="0"
           x="0 6">50</tspan></text>
</g><path
       id="path138"
       style="fill:#000000;fill-opacity:1;fill-rule:nonzero;stroke:#000000;stroke-width:0.80000001;stroke-linecap:butt;stroke-linejoin:round;stroke-miterlimit:10;stroke-dasharray:none;stroke-opacity:1"
       d="M 57.6,216 H 54.1" /><g
       transform="translate(38.6,211.83594)"
       id="g140"><text
         id="text144"
         style="font-variant:normal;font-weight:normal;font-size:12px;font-family:TimesNewRomanPSMT;-inkscape-font-specification:TimesNewRomanPSMT;writing-mode:lr-tb;fill:#000000;fill-opacity:1;fill-rule:nonzero;stroke:none"
         transform="scale(1,-1)"><tspan
           id="tspan142"
           y="0"
           x="0 6">60</tspan></text>
</g><path
       id="path146"
       style="fill:#000000;fill-opacity:1;fill-rule:nonzero;stroke:#000000;stroke-width:0.80000001;stroke-linecap:butt;stroke-linejoin:round;stroke-miterlimit:10;stroke-dasharray:none;stroke-opacity:1"
       d="M 57.6,244.8 H 54.1" /><g
       transform="translate(38.6,240.63594)"
       id="g148"><text
         id="text152"
         style="font-variant:normal;font-weight:normal;font-size:12px;font-family:TimesNewRomanPSMT;-inkscape-font-specification:TimesNewRomanPSMT;writing-mode:lr-tb;fill:#000000;fill-opacity:1;fill-rule:nonzero;stroke:none"
         transform="scale(1,-1)"><tspan
           id="tspan150"
           y="0"
           x="0 6">70</tspan></text>
</g><g
       transform="rotate(90,0.7140625,24.464062)"
       id="g154"><text
         id="text158"
         style="font-variant:normal;font-weight:normal;font-size:16px;font-family:TimesNewRomanPSMT;-inkscape-font-specification:TimesNewRomanPSMT;writing-mode:lr-tb;fill:#000000;fill-opacity:1;fill-rule:nonzero;stroke:none"
         transform="scale(1,-1)"><tspan
           id="tspan156"
           y="0"
           x="0 10.672 17.775999 24.879999 32.880001 38.208 46.208 53.312 61.312 65.311996 75.984001 81.311996 85.760002 98.208 105.312 111.536 115.536 124.432 131.536 136.864 140.864 148.864 156.864 164.864 168.864 176.864 184.864 192.864 196.864 205.75999 212.864 220.864 228.864 233.312">Recorded Crimes Per 100,000 People</tspan></text>
</g><g
       id="g160"><g
         clip-path="url(#clipPath166)"
         id="g162"><path
           id="path168"
           style="fill:none;stroke:#6c17b9;stroke-width:1.5;stroke-linecap:square;stroke-linejoin:round;stroke-miterlimit:10;stroke-dasharray:none;stroke-opacity:1"
           d="m 57.6,88.874892 1.704142,4.616601 1.704142,1.276933 1.704142,2.193704 1.704142,-7.727078 3.408284,-0.753063 1.704142,-3.372411 1.704142,-4.452893 1.704142,1.145965 1.704142,-1.014997 1.704142,4.714827 1.704142,1.735319 1.704142,2.324672 1.704142,0.785804 1.704142,0.425644 1.704142,-0.392902 1.704142,-3.17596 3.408284,5.009504 1.704142,-7.825304 1.704142,5.042246 1.704142,-0.916772 1.704142,8.774818 1.704142,-4.354667 1.704142,13.358678 1.70414,-3.11048 1.70414,6.6466 1.70415,2.68483 1.70414,-9.06949 1.70414,-1.37516 1.70414,0.58935 1.70414,-6.4174 1.70415,0.949513 1.70414,-1.375158 1.70414,1.342417 1.70414,2.259188 1.70414,7.79256 1.70415,0.0327 1.70414,10.80482 1.70414,-8.80756 1.70414,-7.95627 1.70414,8.77481 1.70415,-2.8158 1.70414,-5.14047 1.70414,5.46789 1.70414,-5.89353 1.70414,15.4869 1.70415,-1.08049 1.70414,13.81707 1.70414,3.92902 1.70414,13.16223 1.70414,-14.17723 1.70415,16.56739 1.70414,-0.16372 1.70414,-10.37916 1.70414,-3.53612 1.70414,-2.97951 1.70415,1.14596 1.70414,10.37917 1.70414,1.04774 3.40828,13.26045 1.70415,2.12822 1.70414,-6.58111 1.70414,1.30967 1.70414,3.20871 1.70414,-1.17871 1.70415,-4.91128 1.70414,-8.25095 1.70414,-0.42564 1.70414,8.38191 1.70414,-2.65209 1.70415,13.064 1.70414,5.43515 1.70414,22.32995 1.70414,-20.7256 1.70414,-6.71208 1.70415,-0.72032 1.70414,-12.54013 1.70414,0.58935 1.70414,-7.66159 1.70414,2.29193 1.70415,24.22897 1.70414,-13.29319 3.40828,37.94781 1.70414,0.49113 1.70415,-23.57414 1.70414,-5.82805 1.70414,11.42691 1.70414,-12.90029 1.70414,-18.33544 1.70415,5.6316 1.70414,-4.87854 1.70414,18.10625 1.70414,1.44064 1.70414,11.68884 1.70415,-1.01499 1.70414,19.4814 1.70414,-32.21799 1.70414,2.84854 1.70415,1.96452 3.40828,-12.34368 1.70414,-5.6316 1.70414,4.51837 1.70414,23.31221 1.70415,-11.06675 1.70414,14.24271 1.70414,2.8158 1.70414,19.67785 1.70414,-20.1035 1.70415,-5.92627 1.70414,6.67933 1.70414,-8.4474 1.70414,-6.77756 1.70414,4.12547 1.70415,-7.13772 1.70414,-23.11575 1.70414,7.8253 5.11243,68.23403 1.70414,-6.15547 1.70414,-7.07224 1.70414,-17.6806 1.70415,-12.60562 1.70414,-10.60836 1.70414,-15.12673 1.70414,-2.06274 1.70414,47.31198 1.70415,2.88129 1.70414,13.81706 3.40828,18.43366 1.70414,-36.31071 1.70415,8.25094 1.70414,3.89628 1.70414,-10.44465 1.70414,-19.77608 1.70414,-5.99176 1.70415,3.01225 1.70414,23.14849 1.70414,-11.98352 1.70414,22.42818 1.70414,2.91402 1.70415,5.27144 1.70414,-6.51563 1.70414,-20.13624 1.70414,9.2332 1.70414,-6.84305 1.70415,-22.03527 1.70414,7.75982 1.70414,-1.21144 1.70414,20.79107 1.70414,-7.8253 1.70415,27.07752 1.70414,12.86755 1.70414,-7.20321 1.70414,-16.2727 1.70414,13.19496 1.70415,-14.30819 1.70414,0.42565 1.70414,-11.6561 1.70414,-12.9003 1.70414,8.34918 1.70415,-4.58386 1.70414,-4.02725 1.70414,19.0885 v 0" /></g></g><g
       id="g170"><g
         clip-path="url(#clipPath176)"
         id="g172"><path
           id="path178"
           style="fill:none;stroke:#1db8f7;stroke-width:1.5;stroke-linecap:square;stroke-linejoin:round;stroke-miterlimit:10;stroke-dasharray:none;stroke-opacity:1"
           d="m 57.6,91.517627 1.704142,-0.801006 1.704142,-1.117771 3.408284,-1.509763 1.704142,-0.215551 5.112426,-0.237798 1.704142,-0.30727 1.704142,-0.506239 1.704142,-0.156154 1.704142,0.07304 1.704142,0.287121 1.704142,-0.05541 1.704142,0.674986 1.704142,0.516313 1.704142,1.269377 1.704142,0.571723 1.704142,1.465828 1.704142,1.04774 1.704142,1.498569 1.704142,1.672354 1.704142,1.004923 1.704142,1.143446 1.704142,0.99233 1.70414,0.309789 1.70414,0.984776 1.70415,0.49113 1.70414,0.66491 1.70414,0.16371 1.70414,1.09811 1.70414,0.073 1.70415,1.14345 1.70414,-0.0453 1.70414,-0.86388 3.40828,0.9067 1.70415,-0.0428 1.70414,0.87144 1.70414,0.34505 1.70414,1.64213 1.70414,1.45575 1.70415,2.34482 1.70414,2.04763 1.70414,3.05758 1.70414,1.13589 1.70414,3.08781 1.70415,3.68724 6.81656,8.68918 1.70415,3.24397 1.70414,2.13325 1.70414,2.71758 3.40828,4.20859 1.70415,0.51631 1.70414,1.70761 3.40828,1.28197 1.70414,1.02256 1.70415,0.65987 1.70414,0.85633 1.70414,1.41293 1.70414,0.41054 3.40829,2.5866 1.70414,2.4506 3.40828,1.37516 1.70414,0.52639 1.70415,-0.68506 1.70414,-0.54905 1.70414,-0.76062 1.70414,0.0504 1.70414,1.94688 1.70415,0.27956 1.70414,1.94437 1.70414,2.39771 1.70414,2.0174 1.70414,-1.51368 1.70415,-0.36772 1.70414,1.02759 1.70414,0.0907 1.70414,-0.35512 1.70414,0.0327 1.70415,0.24683 1.70414,1.46331 1.70414,-0.28964 1.70414,1.63205 3.40829,0.22668 1.70414,-2.3826 1.70414,-0.35009 1.70414,0.24934 1.70414,-1.10567 1.70415,-0.58683 3.40828,0.69513 1.70414,2.47327 1.70415,0.2292 1.70414,1.21396 1.70414,0.53143 1.70414,2.12318 1.70414,-0.92181 1.70414,1.10063 1.70415,1.39531 3.40828,1.14345 3.40828,2.56394 1.70415,-0.90166 1.70414,-2.09296 1.70414,0.52638 1.70414,1.17871 1.70414,2.69491 1.70415,0.70773 1.70414,1.71013 1.70414,0.80595 1.70414,-0.6775 1.70414,-0.84374 1.70415,-1.48597 1.70414,-1.96199 1.70414,2.22644 1.70414,4.22622 1.70415,4.68712 1.70414,3.62427 1.70414,2.58913 1.70414,-1.93681 1.70414,-0.82862 1.70415,0.0151 1.70414,0.57173 1.70414,0.0202 1.70414,0.37527 1.70414,1.77058 1.70415,3.7099 1.70414,-0.85129 1.70414,0.65232 1.70414,-0.18638 1.70414,-0.48609 1.70415,-1.70005 3.40828,-0.83618 1.70414,-1.20641 1.70414,-2.098 1.70415,0.0202 1.70414,0.38786 1.70414,1.75547 1.70414,-0.62713 1.70414,2.37756 1.70415,1.64213 1.70414,0.86388 1.70414,-0.79336 1.70414,0.72284 1.70414,1.17115 1.70415,0.49365 1.70414,0.12341 3.40828,1.69754 1.70414,0.61202 1.70415,-1.29708 1.70414,0.77321 1.70414,-1.17975 1.70414,-2.56404 1.70414,-2.35652 1.70415,-1.07211 1.70414,-2.98952 1.70414,-1.79963 v 0" /></g></g><g
       id="g180"><path
         id="path182"
         style="fill:none;stroke:#000000;stroke-width:0.80000001;stroke-linecap:square;stroke-linejoin:miter;stroke-miterlimit:10;stroke-dasharray:none;stroke-opacity:1"
         d="M 57.6,43.2 V 244.8" /><path
         id="path184"
         style="fill:none;stroke:#000000;stroke-width:0.80000001;stroke-linecap:square;stroke-linejoin:miter;stroke-miterlimit:10;stroke-dasharray:none;stroke-opacity:1"
         d="M 345.6,43.2 V 244.8" /><path
         id="path186"
         style="fill:none;stroke:#000000;stroke-width:0.80000001;stroke-linecap:square;stroke-linejoin:miter;stroke-miterlimit:10;stroke-dasharray:none;stroke-opacity:1"
         d="m 57.6,43.2 h 288" /><path
         id="path188"
         style="fill:none;stroke:#000000;stroke-width:0.80000001;stroke-linecap:square;stroke-linejoin:miter;stroke-miterlimit:10;stroke-dasharray:none;stroke-opacity:1"
         d="m 57.6,244.8 h 288" /><path
         id="path190"
         style="fill:#ffffff;fill-opacity:0.8;fill-rule:nonzero;stroke:#cccccc;stroke-width:1;stroke-linecap:butt;stroke-linejoin:miter;stroke-miterlimit:10;stroke-dasharray:none;stroke-opacity:0.8"
         d="m 67.4,193.96875 h 136.175 c 1.86667,0 2.8,0.93333 2.8,2.8 V 235 c 0,1.86667 -0.93333,2.8 -2.8,2.8 H 67.4 c -1.866667,0 -2.8,-0.93333 -2.8,-2.8 v -38.23125 c 0,-1.86667 0.933333,-2.8 2.8,-2.8 z" /><path
         id="path192"
         style="fill:none;stroke:#6c17b9;stroke-width:1.5;stroke-linecap:square;stroke-linejoin:round;stroke-miterlimit:10;stroke-dasharray:none;stroke-opacity:1"
         d="m 70.2,227.3 h 14 14" /><g
         transform="translate(109.4,222.4)"
         id="g194"><text
           id="text198"
           style="font-variant:normal;font-weight:normal;font-size:14px;font-family:TimesNewRomanPSMT;-inkscape-font-specification:TimesNewRomanPSMT;writing-mode:lr-tb;fill:#000000;fill-opacity:1;fill-rule:nonzero;stroke:none"
           transform="scale(1,-1)"><tspan
             id="tspan196"
             y="0"
             x="0 10.108 14.77 18.662001 25.662001 29.554001 36.554001 42.77 46.661999 50.161999 57.161999 63.377998 67.269997 74.269997 80.486">Original values</tspan></text>
</g><path
         id="path200"
         style="fill:none;stroke:#1db8f7;stroke-width:1.5;stroke-linecap:square;stroke-linejoin:round;stroke-miterlimit:10;stroke-dasharray:none;stroke-opacity:1"
         d="m 70.2,207.48437 h 14 14" /><g
         transform="translate(109.4,202.58437)"
         id="g202"><text
           id="text206"
           style="font-variant:normal;font-weight:normal;font-size:14px;font-family:TimesNewRomanPSMT;-inkscape-font-specification:TimesNewRomanPSMT;writing-mode:lr-tb;fill:#000000;fill-opacity:1;fill-rule:nonzero;stroke:none"
           transform="scale(1,-1)"><tspan
             id="tspan204"
             y="0"
             x="0 12.446 19.445999 26.445999 30.337999 37.338001 44.338001 47.838001 54.054001 61.054001 67.269997 71.931999 78.148003 85.148003">Moving average</tspan></text>
</g><g
         transform="translate(46.34375,268.34937)"
         id="g208"><text
           id="text212"
           style="font-variant:normal;font-weight:normal;font-size:20px;font-family:TimesNewRomanPSMT;-inkscape-font-specification:TimesNewRomanPSMT;writing-mode:lr-tb;fill:#000000;fill-opacity:1;fill-rule:nonzero;stroke:none"
           transform="scale(1,-1)"><tspan
             id="tspan210"
             y="0"
             x="0 11.12 21.120001 31.120001 36.68 42.240002 51.119999 56.119999 70.559998 77.220001 87.220001 96.099998 102.76 107.76 122.2 128.50063 135.16063 144.04062 154.04062 162.92062 171.80063 179.58063 184.58063 190.14062 200.14062 205.14062 217.36063 227.36063 237.36063 247.36063 257.36063">Public Order Offences in London</tspan></text>
</g></g></g></svg>