<?xml version="1.0" encoding="UTF-8" standalone="no"?>
<svg
   width="251.565pt"
   height="248.518125pt"
   viewBox="0 0 251.565 248.518125"
   version="1.1"
   id="svg78"
   sodipodi:docname="Triangulation.svg"
   inkscape:version="1.3 (0e150ed6c4, 2023-07-21)"
   xmlns:inkscape="http://www.inkscape.org/namespaces/inkscape"
   xmlns:sodipodi="http://sodipodi.sourceforge.net/DTD/sodipodi-0.dtd"
   xmlns:xlink="http://www.w3.org/1999/xlink"
   xmlns="http://www.w3.org/2000/svg"
   xmlns:svg="http://www.w3.org/2000/svg"
   xmlns:rdf="http://www.w3.org/1999/02/22-rdf-syntax-ns#"
   xmlns:cc="http://creativecommons.org/ns#"
   xmlns:dc="http://purl.org/dc/elements/1.1/">
  <sodipodi:namedview
     id="namedview78"
     pagecolor="#ffffff"
     bordercolor="#000000"
     borderopacity="0.25"
     inkscape:showpageshadow="2"
     inkscape:pageopacity="0.0"
     inkscape:pagecheckerboard="0"
     inkscape:deskcolor="#d1d1d1"
     inkscape:document-units="pt"
     inkscape:zoom="2.8284271"
     inkscape:cx="167.05398"
     inkscape:cy="164.75588"
     inkscape:window-width="1472"
     inkscape:window-height="1008"
     inkscape:window-x="-7"
     inkscape:window-y="0"
     inkscape:window-maximized="0"
     inkscape:current-layer="svg78" />
  <metadata
     id="metadata1">
    <rdf:RDF>
      <cc:Work>
        <dc:type
           rdf:resource="http://purl.org/dc/dcmitype/StillImage" />
        <dc:date>2024-04-02T13:22:54.877301</dc:date>
        <dc:format>image/svg+xml</dc:format>
        <dc:creator>
          <cc:Agent>
            <dc:title>Matplotlib v3.7.0, https://matplotlib.org/</dc:title>
          </cc:Agent>
        </dc:creator>
      </cc:Work>
    </rdf:RDF>
  </metadata>
  <defs
     id="defs1">
    <style
       type="text/css"
       id="style1">*{stroke-linejoin: round; stroke-linecap: butt}</style>
  </defs>
  <g
     id="figure_1">
    <g
       id="patch_1">
      <path
         d="M 0 248.518125  L 251.565 248.518125  L 251.565 0  L 0 0  z "
         style="fill: #ffffff"
         id="path1" />
    </g>
    <g
       id="axes_1">
      <g
         id="patch_2">
        <path
           d="M 26.925 224.64  L 244.365 224.64  L 244.365 7.2  L 26.925 7.2  z "
           style="fill: #ffffff"
           id="path2" />
      </g>
      <g
         id="patch_3">
        <path
           d="M 98.011154 178.643077  L 56.195769 206.52  L 125.888077 206.52  L 98.011154 178.643077  z "
           clip-path="url(#p5bfac24552)"
           style="fill: none; stroke: #000000; stroke-linejoin: miter"
           id="path3" />
      </g>
      <g
         id="patch_4">
        <path
           d="M 42.257308 136.827692  L 56.195769 206.52  L 98.011154 178.643077  L 42.257308 136.827692  z "
           clip-path="url(#p5bfac24552)"
           style="fill: none; stroke: #000000; stroke-linejoin: miter"
           id="path4" />
      </g>
      <g
         id="patch_5">
        <path
           d="M 139.826538 122.889231  L 125.888077 206.52  L 181.641923 192.581538  L 139.826538 122.889231  z "
           clip-path="url(#p5bfac24552)"
           style="fill: none; stroke: #000000; stroke-linejoin: miter"
           id="path5" />
      </g>
      <g
         id="patch_6">
        <path
           d="M 139.826538 122.889231  L 42.257308 136.827692  L 98.011154 178.643077  L 139.826538 122.889231  z "
           clip-path="url(#p5bfac24552)"
           style="fill: none; stroke: #000000; stroke-linejoin: miter"
           id="path6" />
      </g>
      <g
         id="patch_7">
        <path
           d="M 139.826538 122.889231  L 98.011154 178.643077  L 125.888077 206.52  L 139.826538 122.889231  z "
           clip-path="url(#p5bfac24552)"
           style="fill: none; stroke: #000000; stroke-linejoin: miter"
           id="path7" />
      </g>
      <g
         id="patch_8">
        <path
           d="M 195.580385 122.889231  L 139.826538 122.889231  L 181.641923 192.581538  L 195.580385 122.889231  z "
           clip-path="url(#p5bfac24552)"
           style="fill: none; stroke: #000000; stroke-linejoin: miter"
           id="path8" />
      </g>
      <g
         id="patch_9">
        <path
           d="M 167.703462 53.196923  L 139.826538 122.889231  L 195.580385 122.889231  L 167.703462 53.196923  z "
           clip-path="url(#p5bfac24552)"
           style="fill: none; stroke: #000000; stroke-linejoin: miter"
           id="path9" />
      </g>
      <g
         id="patch_10">
        <path
           d="M 195.580385 39.258462  L 167.703462 53.196923  L 195.580385 122.889231  L 195.580385 39.258462  z "
           clip-path="url(#p5bfac24552)"
           style="fill: none; stroke: #000000; stroke-linejoin: miter"
           id="path10" />
      </g>
      <g
         id="patch_11">
        <path
           d="M 98.011154 25.32  L 167.703462 53.196923  L 195.580385 39.258462  L 98.011154 25.32  z "
           clip-path="url(#p5bfac24552)"
           style="fill: none; stroke: #000000; stroke-linejoin: miter"
           id="path11" />
      </g>
      <g
         id="patch_12">
        <path
           d="M 98.011154 25.32  L 139.826538 122.889231  L 167.703462 53.196923  L 98.011154 25.32  z "
           clip-path="url(#p5bfac24552)"
           style="fill: none; stroke: #000000; stroke-linejoin: miter"
           id="path12" />
      </g>
      <g
         id="patch_13">
        <path
           d="M 98.011154 25.32  L 42.257308 136.827692  L 139.826538 122.889231  L 98.011154 25.32  z "
           clip-path="url(#p5bfac24552)"
           style="fill: none; stroke: #000000; stroke-linejoin: miter"
           id="path13" />
      </g>
      <g
         id="patch_14">
        <path
           d="M 91.041923 249.025474  C 100.466245 249.025474 109.50584 245.281152 116.169842 238.61715  C 122.833844 231.953148 126.578167 222.913553 126.578167 213.489231  C 126.578167 204.064909 122.833844 195.025314 116.169842 188.361312  C 109.50584 181.69731 100.466245 177.952987 91.041923 177.952987  C 81.617601 177.952987 72.578006 181.69731 65.914004 188.361312  C 59.250002 195.025314 55.505679 204.064909 55.505679 213.489231  C 55.505679 222.913553 59.250002 231.953148 65.914004 238.61715  C 72.578006 245.281152 81.617601 249.025474 91.041923 249.025474  L 91.041923 249.025474  z "
           clip-path="url(#p5bfac24552)"
           style="fill: none; stroke: #bbbbbb; stroke-linejoin: miter"
           id="path14" />
      </g>
      <g
         id="patch_15">
        <path
           d="M 61.525181 206.89875  C 71.519262 206.89875 81.105357 202.928059 88.17224 195.861176  C 95.239122 188.794294 99.209813 179.208199 99.209813 169.214118  C 99.209813 159.220036 95.239122 149.633941 88.17224 142.567059  C 81.105357 135.500176 71.519262 131.529486 61.525181 131.529486  C 51.5311 131.529486 41.945005 135.500176 34.878122 142.567059  C 27.81124 149.633941 23.840549 159.220036 23.840549 169.214118  C 23.840549 179.208199 27.81124 188.794294 34.878122 195.861176  C 41.945005 202.928059 51.5311 206.89875 61.525181 206.89875  L 61.525181 206.89875  z "
           clip-path="url(#p5bfac24552)"
           style="fill: none; stroke: #bbbbbb; stroke-linejoin: miter"
           id="path15" />
      </g>
      <g
         id="patch_16">
        <path
           d="M 145.583729 211.13773  C 157.335421 211.13773 168.607376 206.468734 176.917076 198.159033  C 185.226777 189.849332 189.895774 178.577377 189.895774 166.825686  C 189.895774 155.073994 185.226777 143.802039 176.917076 135.492338  C 168.607376 127.182637 157.335421 122.513641 145.583729 122.513641  C 133.832037 122.513641 122.560083 127.182637 114.250382 135.492338  C 105.940681 143.802039 101.271684 155.073994 101.271684 166.825686  C 101.271684 178.577377 105.940681 189.849332 114.250382 198.159033  C 122.560083 206.468734 133.832037 211.13773 145.583729 211.13773  L 145.583729 211.13773  z "
           clip-path="url(#p5bfac24552)"
           style="fill: none; stroke: #bbbbbb; stroke-linejoin: miter"
           id="path16" />
      </g>
      <g
         id="patch_17">
        <path
           d="M 91.041923 179.138365  C 104.111106 179.138365 116.646769 173.945923 125.888077 164.704615  C 135.129385 155.463307 140.321826 142.927645 140.321826 129.858462  C 140.321826 116.789278 135.129385 104.253616 125.888077 95.012308  C 116.646769 85.771 104.111106 80.578558 91.041923 80.578558  C 77.97274 80.578558 65.437077 85.771 56.195769 95.012308  C 46.954461 104.253616 41.76202 116.789278 41.76202 129.858462  C 41.76202 142.927645 46.954461 155.463307 56.195769 164.704615  C 65.437077 173.945923 77.97274 179.138365 91.041923 179.138365  L 91.041923 179.138365  z "
           clip-path="url(#p5bfac24552)"
           style="fill: none; stroke: #bbbbbb; stroke-linejoin: miter"
           id="path17" />
      </g>
      <g
         id="patch_18">
        <path
           d="M 138.830934 208.522784  C 150.187611 208.522784 161.080676 204.010729 169.11106 195.980345  C 177.141443 187.949962 181.653498 177.056897 181.653498 165.70022  C 181.653498 154.343543 177.141443 143.450477 169.11106 135.420094  C 161.080676 127.389711 150.187611 122.877656 138.830934 122.877656  C 127.474257 122.877656 116.581192 127.389711 108.550809 135.420094  C 100.520425 143.450477 96.00837 154.343543 96.00837 165.70022  C 96.00837 177.056897 100.520425 187.949962 108.550809 195.980345  C 116.581192 204.010729 127.474257 208.522784 138.830934 208.522784  L 138.830934 208.522784  z "
           clip-path="url(#p5bfac24552)"
           style="fill: none; stroke: #bbbbbb; stroke-linejoin: miter"
           id="path18" />
      </g>
      <g
         id="patch_19">
        <path
           d="M 167.703462 194.995872  C 178.694015 194.995872 189.235904 190.629278 197.007399 182.857783  C 204.778894 175.086288 209.145487 164.5444 209.145487 153.553846  C 209.145487 142.563293 204.778894 132.021404 197.007399 124.249909  C 189.235904 116.478414 178.694015 112.111821 167.703462 112.111821  C 156.712908 112.111821 146.171019 116.478414 138.399524 124.249909  C 130.628029 132.021404 126.261436 142.563293 126.261436 153.553846  C 126.261436 164.5444 130.628029 175.086288 138.399524 182.857783  C 146.171019 190.629278 156.712908 194.995872 167.703462 194.995872  L 167.703462 194.995872  z "
           clip-path="url(#p5bfac24552)"
           style="fill: none; stroke: #bbbbbb; stroke-linejoin: miter"
           id="path19" />
      </g>
      <g
         id="patch_20">
        <path
           d="M 167.703462 134.04  C 178.423379 134.04 188.705679 129.780932 196.285805 122.200805  C 203.865932 114.620679 208.125 104.338379 208.125 93.618462  C 208.125 82.898544 203.865932 72.616244 196.285805 65.036118  C 188.705679 57.455991 178.423379 53.196923 167.703462 53.196923  C 156.983544 53.196923 146.701244 57.455991 139.121118 65.036118  C 131.540991 72.616244 127.281923 82.898544 127.281923 93.618462  C 127.281923 104.338379 131.540991 114.620679 139.121118 122.200805  C 146.701244 129.780932 156.983544 134.04 167.703462 134.04  L 167.703462 134.04  z "
           clip-path="url(#p5bfac24552)"
           style="fill: none; stroke: #bbbbbb; stroke-linejoin: miter"
           id="path20" />
      </g>
      <g
         id="patch_21">
        <path
           d="M 199.065 123.034172  C 210.193008 123.034172 220.866741 118.612967 228.735431 110.744277  C 236.604121 102.875587 241.025326 92.201855 241.025326 81.073846  C 241.025326 69.945838 236.604121 59.272106 228.735431 51.403415  C 220.866741 43.534725 210.193008 39.11352 199.065 39.11352  C 187.936992 39.11352 177.263259 43.534725 169.394569 51.403415  C 161.525879 59.272106 157.104674 69.945838 157.104674 81.073846  C 157.104674 92.201855 161.525879 102.875587 169.394569 110.744277  C 177.263259 118.612967 187.936992 123.034172 199.065 123.034172  L 199.065 123.034172  z "
           clip-path="url(#p5bfac24552)"
           style="fill: none; stroke: #bbbbbb; stroke-linejoin: miter"
           id="path21" />
      </g>
      <g
         id="patch_22">
        <path
           d="M 152.990641 54.859419  C 170.476619 54.859419 187.248771 47.912166 199.613225 35.547712  C 211.977679 23.183259 218.924932 6.411107 218.924932 -11.074872  C 218.924932 -28.56085 211.977679 -45.333002 199.613225 -57.697456  C 187.248771 -70.06191 170.476619 -77.009163 152.990641 -77.009163  C 135.504663 -77.009163 118.732511 -70.06191 106.368057 -57.697456  C 94.003603 -45.333002 87.05635 -28.56085 87.05635 -11.074872  C 87.05635 6.411107 94.003603 23.183259 106.368057 35.547712  C 118.732511 47.912166 135.504663 54.859419 152.990641 54.859419  L 152.990641 54.859419  z "
           clip-path="url(#p5bfac24552)"
           style="fill: none; stroke: #bbbbbb; stroke-linejoin: miter"
           id="path22" />
      </g>
      <g
         id="patch_23">
        <path
           d="M 118.918846 127.180696  C 132.994787 127.180696 146.496109 121.588265 156.449302 111.635072  C 166.402496 101.681878 171.994926 88.180556 171.994926 74.104615  C 171.994926 60.028674 166.402496 46.527352 156.449302 36.574159  C 146.496109 26.620966 132.994787 21.028535 118.918846 21.028535  C 104.842905 21.028535 91.341583 26.620966 81.38839 36.574159  C 71.435197 46.527352 65.842766 60.028674 65.842766 74.104615  C 65.842766 88.180556 71.435197 101.681878 81.38839 111.635072  C 91.341583 121.588265 104.842905 127.180696 118.918846 127.180696  L 118.918846 127.180696  z "
           clip-path="url(#p5bfac24552)"
           style="fill: none; stroke: #bbbbbb; stroke-linejoin: miter"
           id="path23" />
      </g>
      <g
         id="patch_24">
        <path
           d="M 85.144882 153.133519  C 102.264895 153.133519 118.686021 146.331666 130.791698 134.225988  C 142.897376 122.120311 149.699229 105.699185 149.699229 88.579172  C 149.699229 71.459159 142.897376 55.038032 130.791698 42.932355  C 118.686021 30.826678 102.264895 24.024824 85.144882 24.024824  C 68.024869 24.024824 51.603742 30.826678 39.498065 42.932355  C 27.392388 55.038032 20.590534 71.459159 20.590534 88.579172  C 20.590534 105.699185 27.392388 122.120311 39.498065 134.225988  C 51.603742 146.331666 68.024869 153.133519 85.144882 153.133519  L 85.144882 153.133519  z "
           clip-path="url(#p5bfac24552)"
           style="fill: none; stroke: #bbbbbb; stroke-linejoin: miter"
           id="path24" />
      </g>
      <g
         id="matplotlib.axis_1">
        <g
           id="xtick_1">
          <g
             id="line2d_1">
            <defs
               id="defs24">
              <path
                 id="med6446a1d2"
                 d="M 0 0  L 0 3.5  "
                 style="stroke: #000000; stroke-width: 0.8" />
            </defs>
            <g
               id="g24">
              <use
                 xlink:href="#med6446a1d2"
                 x="56.195769"
                 y="224.64"
                 style="stroke: #000000; stroke-width: 0.8"
                 id="use24" />
            </g>
          </g>
          <g
             id="text_1">
            <!-- 0.0 -->
            <g
               transform="translate(48.244207 239.238437) scale(0.1 -0.1)"
               id="g27">
              <defs
                 id="defs25">
                <path
                   id="DejaVuSans-30"
                   d="M 2034 4250  Q 1547 4250 1301 3770  Q 1056 3291 1056 2328  Q 1056 1369 1301 889  Q 1547 409 2034 409  Q 2525 409 2770 889  Q 3016 1369 3016 2328  Q 3016 3291 2770 3770  Q 2525 4250 2034 4250  z M 2034 4750  Q 2819 4750 3233 4129  Q 3647 3509 3647 2328  Q 3647 1150 3233 529  Q 2819 -91 2034 -91  Q 1250 -91 836 529  Q 422 1150 422 2328  Q 422 3509 836 4129  Q 1250 4750 2034 4750  z "
                   transform="scale(0.015625)" />
                <path
                   id="DejaVuSans-2e"
                   d="M 684 794  L 1344 794  L 1344 0  L 684 0  L 684 794  z "
                   transform="scale(0.015625)" />
              </defs>
              <use
                 xlink:href="#DejaVuSans-30"
                 id="use25" />
              <use
                 xlink:href="#DejaVuSans-2e"
                 x="63.623047"
                 id="use26" />
              <use
                 xlink:href="#DejaVuSans-30"
                 x="95.410156"
                 id="use27" />
            </g>
          </g>
        </g>
        <g
           id="xtick_2">
          <g
             id="line2d_2">
            <g
               id="g28">
              <use
                 xlink:href="#med6446a1d2"
                 x="91.041923"
                 y="224.64"
                 style="stroke: #000000; stroke-width: 0.8"
                 id="use28" />
            </g>
          </g>
          <g
             id="text_2">
            <!-- 2.5 -->
            <g
               transform="translate(83.090361 239.238437) scale(0.1 -0.1)"
               id="g31">
              <defs
                 id="defs28">
                <path
                   id="DejaVuSans-32"
                   d="M 1228 531  L 3431 531  L 3431 0  L 469 0  L 469 531  Q 828 903 1448 1529  Q 2069 2156 2228 2338  Q 2531 2678 2651 2914  Q 2772 3150 2772 3378  Q 2772 3750 2511 3984  Q 2250 4219 1831 4219  Q 1534 4219 1204 4116  Q 875 4013 500 3803  L 500 4441  Q 881 4594 1212 4672  Q 1544 4750 1819 4750  Q 2544 4750 2975 4387  Q 3406 4025 3406 3419  Q 3406 3131 3298 2873  Q 3191 2616 2906 2266  Q 2828 2175 2409 1742  Q 1991 1309 1228 531  z "
                   transform="scale(0.015625)" />
                <path
                   id="DejaVuSans-35"
                   d="M 691 4666  L 3169 4666  L 3169 4134  L 1269 4134  L 1269 2991  Q 1406 3038 1543 3061  Q 1681 3084 1819 3084  Q 2600 3084 3056 2656  Q 3513 2228 3513 1497  Q 3513 744 3044 326  Q 2575 -91 1722 -91  Q 1428 -91 1123 -41  Q 819 9 494 109  L 494 744  Q 775 591 1075 516  Q 1375 441 1709 441  Q 2250 441 2565 725  Q 2881 1009 2881 1497  Q 2881 1984 2565 2268  Q 2250 2553 1709 2553  Q 1456 2553 1204 2497  Q 953 2441 691 2322  L 691 4666  z "
                   transform="scale(0.015625)" />
              </defs>
              <use
                 xlink:href="#DejaVuSans-32"
                 id="use29" />
              <use
                 xlink:href="#DejaVuSans-2e"
                 x="63.623047"
                 id="use30" />
              <use
                 xlink:href="#DejaVuSans-35"
                 x="95.410156"
                 id="use31" />
            </g>
          </g>
        </g>
        <g
           id="xtick_3">
          <g
             id="line2d_3">
            <g
               id="g32">
              <use
                 xlink:href="#med6446a1d2"
                 x="125.888077"
                 y="224.64"
                 style="stroke: #000000; stroke-width: 0.8"
                 id="use32" />
            </g>
          </g>
          <g
             id="text_3">
            <!-- 5.0 -->
            <g
               transform="translate(117.936514 239.238437) scale(0.1 -0.1)"
               id="g35">
              <use
                 xlink:href="#DejaVuSans-35"
                 id="use33" />
              <use
                 xlink:href="#DejaVuSans-2e"
                 x="63.623047"
                 id="use34" />
              <use
                 xlink:href="#DejaVuSans-30"
                 x="95.410156"
                 id="use35" />
            </g>
          </g>
        </g>
        <g
           id="xtick_4">
          <g
             id="line2d_4">
            <g
               id="g36">
              <use
                 xlink:href="#med6446a1d2"
                 x="160.734231"
                 y="224.64"
                 style="stroke: #000000; stroke-width: 0.8"
                 id="use36" />
            </g>
          </g>
          <g
             id="text_4">
            <!-- 7.5 -->
            <g
               transform="translate(152.782668 239.238437) scale(0.1 -0.1)"
               id="g39">
              <defs
                 id="defs36">
                <path
                   id="DejaVuSans-37"
                   d="M 525 4666  L 3525 4666  L 3525 4397  L 1831 0  L 1172 0  L 2766 4134  L 525 4134  L 525 4666  z "
                   transform="scale(0.015625)" />
              </defs>
              <use
                 xlink:href="#DejaVuSans-37"
                 id="use37" />
              <use
                 xlink:href="#DejaVuSans-2e"
                 x="63.623047"
                 id="use38" />
              <use
                 xlink:href="#DejaVuSans-35"
                 x="95.410156"
                 id="use39" />
            </g>
          </g>
        </g>
        <g
           id="xtick_5">
          <g
             id="line2d_5">
            <g
               id="g40">
              <use
                 xlink:href="#med6446a1d2"
                 x="195.580385"
                 y="224.64"
                 style="stroke: #000000; stroke-width: 0.8"
                 id="use40" />
            </g>
          </g>
          <g
             id="text_5">
            <!-- 10.0 -->
            <g
               transform="translate(184.447572 239.238437) scale(0.1 -0.1)"
               id="g44">
              <defs
                 id="defs40">
                <path
                   id="DejaVuSans-31"
                   d="M 794 531  L 1825 531  L 1825 4091  L 703 3866  L 703 4441  L 1819 4666  L 2450 4666  L 2450 531  L 3481 531  L 3481 0  L 794 0  L 794 531  z "
                   transform="scale(0.015625)" />
              </defs>
              <use
                 xlink:href="#DejaVuSans-31"
                 id="use41" />
              <use
                 xlink:href="#DejaVuSans-30"
                 x="63.623047"
                 id="use42" />
              <use
                 xlink:href="#DejaVuSans-2e"
                 x="127.246094"
                 id="use43" />
              <use
                 xlink:href="#DejaVuSans-30"
                 x="159.033203"
                 id="use44" />
            </g>
          </g>
        </g>
        <g
           id="xtick_6">
          <g
             id="line2d_6">
            <g
               id="g45">
              <use
                 xlink:href="#med6446a1d2"
                 x="230.426538"
                 y="224.64"
                 style="stroke: #000000; stroke-width: 0.8"
                 id="use45" />
            </g>
          </g>
          <g
             id="text_6">
            <!-- 12.5 -->
            <g
               transform="translate(219.293726 239.238437) scale(0.1 -0.1)"
               id="g49">
              <use
                 xlink:href="#DejaVuSans-31"
                 id="use46" />
              <use
                 xlink:href="#DejaVuSans-32"
                 x="63.623047"
                 id="use47" />
              <use
                 xlink:href="#DejaVuSans-2e"
                 x="127.246094"
                 id="use48" />
              <use
                 xlink:href="#DejaVuSans-35"
                 x="159.033203"
                 id="use49" />
            </g>
          </g>
        </g>
      </g>
      <g
         id="matplotlib.axis_2">
        <g
           id="ytick_1">
          <g
             id="line2d_7">
            <defs
               id="defs49">
              <path
                 id="m06e58cf9c8"
                 d="M 0 0  L -3.5 0  "
                 style="stroke: #000000; stroke-width: 0.8" />
            </defs>
            <g
               id="g50">
              <use
                 xlink:href="#m06e58cf9c8"
                 x="26.925"
                 y="206.52"
                 style="stroke: #000000; stroke-width: 0.8"
                 id="use50" />
            </g>
          </g>
          <g
             id="text_7">
            <!-- 0 -->
            <g
               transform="translate(13.5625 210.319219) scale(0.1 -0.1)"
               id="g51">
              <use
                 xlink:href="#DejaVuSans-30"
                 id="use51" />
            </g>
          </g>
        </g>
        <g
           id="ytick_2">
          <g
             id="line2d_8">
            <g
               id="g52">
              <use
                 xlink:href="#m06e58cf9c8"
                 x="26.925"
                 y="178.643077"
                 style="stroke: #000000; stroke-width: 0.8"
                 id="use52" />
            </g>
          </g>
          <g
             id="text_8">
            <!-- 2 -->
            <g
               transform="translate(13.5625 182.442296) scale(0.1 -0.1)"
               id="g53">
              <use
                 xlink:href="#DejaVuSans-32"
                 id="use53" />
            </g>
          </g>
        </g>
        <g
           id="ytick_3">
          <g
             id="line2d_9">
            <g
               id="g54">
              <use
                 xlink:href="#m06e58cf9c8"
                 x="26.925"
                 y="150.766154"
                 style="stroke: #000000; stroke-width: 0.8"
                 id="use54" />
            </g>
          </g>
          <g
             id="text_9">
            <!-- 4 -->
            <g
               transform="translate(13.5625 154.565373) scale(0.1 -0.1)"
               id="g55">
              <defs
                 id="defs54">
                <path
                   id="DejaVuSans-34"
                   d="M 2419 4116  L 825 1625  L 2419 1625  L 2419 4116  z M 2253 4666  L 3047 4666  L 3047 1625  L 3713 1625  L 3713 1100  L 3047 1100  L 3047 0  L 2419 0  L 2419 1100  L 313 1100  L 313 1709  L 2253 4666  z "
                   transform="scale(0.015625)" />
              </defs>
              <use
                 xlink:href="#DejaVuSans-34"
                 id="use55" />
            </g>
          </g>
        </g>
        <g
           id="ytick_4">
          <g
             id="line2d_10">
            <g
               id="g56">
              <use
                 xlink:href="#m06e58cf9c8"
                 x="26.925"
                 y="122.889231"
                 style="stroke: #000000; stroke-width: 0.8"
                 id="use56" />
            </g>
          </g>
          <g
             id="text_10">
            <!-- 6 -->
            <g
               transform="translate(13.5625 126.68845) scale(0.1 -0.1)"
               id="g57">
              <defs
                 id="defs56">
                <path
                   id="DejaVuSans-36"
                   d="M 2113 2584  Q 1688 2584 1439 2293  Q 1191 2003 1191 1497  Q 1191 994 1439 701  Q 1688 409 2113 409  Q 2538 409 2786 701  Q 3034 994 3034 1497  Q 3034 2003 2786 2293  Q 2538 2584 2113 2584  z M 3366 4563  L 3366 3988  Q 3128 4100 2886 4159  Q 2644 4219 2406 4219  Q 1781 4219 1451 3797  Q 1122 3375 1075 2522  Q 1259 2794 1537 2939  Q 1816 3084 2150 3084  Q 2853 3084 3261 2657  Q 3669 2231 3669 1497  Q 3669 778 3244 343  Q 2819 -91 2113 -91  Q 1303 -91 875 529  Q 447 1150 447 2328  Q 447 3434 972 4092  Q 1497 4750 2381 4750  Q 2619 4750 2861 4703  Q 3103 4656 3366 4563  z "
                   transform="scale(0.015625)" />
              </defs>
              <use
                 xlink:href="#DejaVuSans-36"
                 id="use57" />
            </g>
          </g>
        </g>
        <g
           id="ytick_5">
          <g
             id="line2d_11">
            <g
               id="g58">
              <use
                 xlink:href="#m06e58cf9c8"
                 x="26.925"
                 y="95.012308"
                 style="stroke: #000000; stroke-width: 0.8"
                 id="use58" />
            </g>
          </g>
          <g
             id="text_11">
            <!-- 8 -->
            <g
               transform="translate(13.5625 98.811526) scale(0.1 -0.1)"
               id="g59">
              <defs
                 id="defs58">
                <path
                   id="DejaVuSans-38"
                   d="M 2034 2216  Q 1584 2216 1326 1975  Q 1069 1734 1069 1313  Q 1069 891 1326 650  Q 1584 409 2034 409  Q 2484 409 2743 651  Q 3003 894 3003 1313  Q 3003 1734 2745 1975  Q 2488 2216 2034 2216  z M 1403 2484  Q 997 2584 770 2862  Q 544 3141 544 3541  Q 544 4100 942 4425  Q 1341 4750 2034 4750  Q 2731 4750 3128 4425  Q 3525 4100 3525 3541  Q 3525 3141 3298 2862  Q 3072 2584 2669 2484  Q 3125 2378 3379 2068  Q 3634 1759 3634 1313  Q 3634 634 3220 271  Q 2806 -91 2034 -91  Q 1263 -91 848 271  Q 434 634 434 1313  Q 434 1759 690 2068  Q 947 2378 1403 2484  z M 1172 3481  Q 1172 3119 1398 2916  Q 1625 2713 2034 2713  Q 2441 2713 2670 2916  Q 2900 3119 2900 3481  Q 2900 3844 2670 4047  Q 2441 4250 2034 4250  Q 1625 4250 1398 4047  Q 1172 3844 1172 3481  z "
                   transform="scale(0.015625)" />
              </defs>
              <use
                 xlink:href="#DejaVuSans-38"
                 id="use59" />
            </g>
          </g>
        </g>
        <g
           id="ytick_6">
          <g
             id="line2d_12">
            <g
               id="g60">
              <use
                 xlink:href="#m06e58cf9c8"
                 x="26.925"
                 y="67.135385"
                 style="stroke: #000000; stroke-width: 0.8"
                 id="use60" />
            </g>
          </g>
          <g
             id="text_12">
            <!-- 10 -->
            <g
               transform="translate(7.2 70.934603) scale(0.1 -0.1)"
               id="g62">
              <use
                 xlink:href="#DejaVuSans-31"
                 id="use61" />
              <use
                 xlink:href="#DejaVuSans-30"
                 x="63.623047"
                 id="use62" />
            </g>
          </g>
        </g>
        <g
           id="ytick_7">
          <g
             id="line2d_13">
            <g
               id="g63">
              <use
                 xlink:href="#m06e58cf9c8"
                 x="26.925"
                 y="39.258462"
                 style="stroke: #000000; stroke-width: 0.8"
                 id="use63" />
            </g>
          </g>
          <g
             id="text_13">
            <!-- 12 -->
            <g
               transform="translate(7.2 43.05768) scale(0.1 -0.1)"
               id="g65">
              <use
                 xlink:href="#DejaVuSans-31"
                 id="use64" />
              <use
                 xlink:href="#DejaVuSans-32"
                 x="63.623047"
                 id="use65" />
            </g>
          </g>
        </g>
        <g
           id="ytick_8">
          <g
             id="line2d_14">
            <g
               id="g66">
              <use
                 xlink:href="#m06e58cf9c8"
                 x="26.925"
                 y="11.381538"
                 style="stroke: #000000; stroke-width: 0.8"
                 id="use66" />
            </g>
          </g>
          <g
             id="text_14">
            <!-- 14 -->
            <g
               transform="translate(7.2 15.180757) scale(0.1 -0.1)"
               id="g68">
              <use
                 xlink:href="#DejaVuSans-31"
                 id="use67" />
              <use
                 xlink:href="#DejaVuSans-34"
                 x="63.623047"
                 id="use68" />
            </g>
          </g>
        </g>
      </g>
      <g
         id="line2d_15">
        <path
           d="M 181.641923 192.581538  "
           clip-path="url(#p5bfac24552)"
           style="fill: none; stroke: #1f77b4; stroke-width: 1.5; stroke-linecap: square"
           id="path68" />
        <defs
           id="defs68">
          <path
             id="m657893e45e"
             d="M 0 1.5  C 0.397805 1.5 0.77937 1.341951 1.06066 1.06066  C 1.341951 0.77937 1.5 0.397805 1.5 0  C 1.5 -0.397805 1.341951 -0.77937 1.06066 -1.06066  C 0.77937 -1.341951 0.397805 -1.5 0 -1.5  C -0.397805 -1.5 -0.77937 -1.341951 -1.06066 -1.06066  C -1.341951 -0.77937 -1.5 -0.397805 -1.5 0  C -1.5 0.397805 -1.341951 0.77937 -1.06066 1.06066  C -0.77937 1.341951 -0.397805 1.5 0 1.5  z "
             style="stroke: #1f77b4" />
        </defs>
        <g
           clip-path="url(#p5bfac24552)"
           id="g69">
          <use
             xlink:href="#m657893e45e"
             x="181.641923"
             y="192.581538"
             style="fill: #1f77b4; stroke: #1f77b4"
             id="use69" />
        </g>
      </g>
      <g
         id="line2d_16">
        <path
           d="M 42.257308 136.827692  "
           clip-path="url(#p5bfac24552)"
           style="fill: none; stroke: #ff7f0e; stroke-width: 1.5; stroke-linecap: square"
           id="path69" />
        <defs
           id="defs69">
          <path
             id="mcaae03f5a8"
             d="M 0 1.5  C 0.397805 1.5 0.77937 1.341951 1.06066 1.06066  C 1.341951 0.77937 1.5 0.397805 1.5 0  C 1.5 -0.397805 1.341951 -0.77937 1.06066 -1.06066  C 0.77937 -1.341951 0.397805 -1.5 0 -1.5  C -0.397805 -1.5 -0.77937 -1.341951 -1.06066 -1.06066  C -1.341951 -0.77937 -1.5 -0.397805 -1.5 0  C -1.5 0.397805 -1.341951 0.77937 -1.06066 1.06066  C -0.77937 1.341951 -0.397805 1.5 0 1.5  z "
             style="stroke: #ff7f0e" />
        </defs>
        <g
           clip-path="url(#p5bfac24552)"
           id="g70">
          <use
             xlink:href="#mcaae03f5a8"
             x="42.257308"
             y="136.827692"
             style="fill: #ff7f0e; stroke: #ff7f0e"
             id="use70" />
        </g>
      </g>
      <g
         id="line2d_17">
        <path
           d="M 139.826538 122.889231  "
           clip-path="url(#p5bfac24552)"
           style="fill: none; stroke: #2ca02c; stroke-width: 1.5; stroke-linecap: square"
           id="path70" />
        <defs
           id="defs70">
          <path
             id="mf2c5f1b671"
             d="M 0 1.5  C 0.397805 1.5 0.77937 1.341951 1.06066 1.06066  C 1.341951 0.77937 1.5 0.397805 1.5 0  C 1.5 -0.397805 1.341951 -0.77937 1.06066 -1.06066  C 0.77937 -1.341951 0.397805 -1.5 0 -1.5  C -0.397805 -1.5 -0.77937 -1.341951 -1.06066 -1.06066  C -1.341951 -0.77937 -1.5 -0.397805 -1.5 0  C -1.5 0.397805 -1.341951 0.77937 -1.06066 1.06066  C -0.77937 1.341951 -0.397805 1.5 0 1.5  z "
             style="stroke: #2ca02c" />
        </defs>
        <g
           clip-path="url(#p5bfac24552)"
           id="g71">
          <use
             xlink:href="#mf2c5f1b671"
             x="139.826538"
             y="122.889231"
             style="fill: #2ca02c; stroke: #2ca02c"
             id="use71" />
        </g>
      </g>
      <g
         id="line2d_18">
        <path
           d="M 195.580385 122.889231  "
           clip-path="url(#p5bfac24552)"
           style="fill: none; stroke: #d62728; stroke-width: 1.5; stroke-linecap: square"
           id="path71" />
        <defs
           id="defs71">
          <path
             id="m6fd79eec9a"
             d="M 0 1.5  C 0.397805 1.5 0.77937 1.341951 1.06066 1.06066  C 1.341951 0.77937 1.5 0.397805 1.5 0  C 1.5 -0.397805 1.341951 -0.77937 1.06066 -1.06066  C 0.77937 -1.341951 0.397805 -1.5 0 -1.5  C -0.397805 -1.5 -0.77937 -1.341951 -1.06066 -1.06066  C -1.341951 -0.77937 -1.5 -0.397805 -1.5 0  C -1.5 0.397805 -1.341951 0.77937 -1.06066 1.06066  C -0.77937 1.341951 -0.397805 1.5 0 1.5  z "
             style="stroke: #d62728" />
        </defs>
        <g
           clip-path="url(#p5bfac24552)"
           id="g72">
          <use
             xlink:href="#m6fd79eec9a"
             x="195.580385"
             y="122.889231"
             style="fill: #d62728; stroke: #d62728"
             id="use72" />
        </g>
      </g>
      <g
         id="line2d_19">
        <path
           d="M 167.703462 53.196923  "
           clip-path="url(#p5bfac24552)"
           style="fill: none; stroke: #9467bd; stroke-width: 1.5; stroke-linecap: square"
           id="path72" />
        <defs
           id="defs72">
          <path
             id="m624f074c8f"
             d="M 0 1.5  C 0.397805 1.5 0.77937 1.341951 1.06066 1.06066  C 1.341951 0.77937 1.5 0.397805 1.5 0  C 1.5 -0.397805 1.341951 -0.77937 1.06066 -1.06066  C 0.77937 -1.341951 0.397805 -1.5 0 -1.5  C -0.397805 -1.5 -0.77937 -1.341951 -1.06066 -1.06066  C -1.341951 -0.77937 -1.5 -0.397805 -1.5 0  C -1.5 0.397805 -1.341951 0.77937 -1.06066 1.06066  C -0.77937 1.341951 -0.397805 1.5 0 1.5  z "
             style="stroke: #9467bd" />
        </defs>
        <g
           clip-path="url(#p5bfac24552)"
           id="g73">
          <use
             xlink:href="#m624f074c8f"
             x="167.703462"
             y="53.196923"
             style="fill: #9467bd; stroke: #9467bd"
             id="use73" />
        </g>
      </g>
      <g
         id="line2d_20">
        <path
           d="M 195.580385 39.258462  "
           clip-path="url(#p5bfac24552)"
           style="fill: none; stroke: #8c564b; stroke-width: 1.5; stroke-linecap: square"
           id="path73" />
        <defs
           id="defs73">
          <path
             id="m4e131f9f7f"
             d="M 0 1.5  C 0.397805 1.5 0.77937 1.341951 1.06066 1.06066  C 1.341951 0.77937 1.5 0.397805 1.5 0  C 1.5 -0.397805 1.341951 -0.77937 1.06066 -1.06066  C 0.77937 -1.341951 0.397805 -1.5 0 -1.5  C -0.397805 -1.5 -0.77937 -1.341951 -1.06066 -1.06066  C -1.341951 -0.77937 -1.5 -0.397805 -1.5 0  C -1.5 0.397805 -1.341951 0.77937 -1.06066 1.06066  C -0.77937 1.341951 -0.397805 1.5 0 1.5  z "
             style="stroke: #8c564b" />
        </defs>
        <g
           clip-path="url(#p5bfac24552)"
           id="g74">
          <use
             xlink:href="#m4e131f9f7f"
             x="195.580385"
             y="39.258462"
             style="fill: #8c564b; stroke: #8c564b"
             id="use74" />
        </g>
      </g>
      <g
         id="line2d_21">
        <path
           d="M 98.011154 25.32  "
           clip-path="url(#p5bfac24552)"
           style="fill: none; stroke: #e377c2; stroke-width: 1.5; stroke-linecap: square"
           id="path74" />
        <defs
           id="defs74">
          <path
             id="mee08231cf5"
             d="M 0 1.5  C 0.397805 1.5 0.77937 1.341951 1.06066 1.06066  C 1.341951 0.77937 1.5 0.397805 1.5 0  C 1.5 -0.397805 1.341951 -0.77937 1.06066 -1.06066  C 0.77937 -1.341951 0.397805 -1.5 0 -1.5  C -0.397805 -1.5 -0.77937 -1.341951 -1.06066 -1.06066  C -1.341951 -0.77937 -1.5 -0.397805 -1.5 0  C -1.5 0.397805 -1.341951 0.77937 -1.06066 1.06066  C -0.77937 1.341951 -0.397805 1.5 0 1.5  z "
             style="stroke: #e377c2" />
        </defs>
        <g
           clip-path="url(#p5bfac24552)"
           id="g75">
          <use
             xlink:href="#mee08231cf5"
             x="98.011154"
             y="25.32"
             style="fill: #e377c2; stroke: #e377c2"
             id="use75" />
        </g>
      </g>
      <g
         id="patch_25">
        <path
           d="M 26.925 224.64  L 26.925 7.2  "
           style="fill: none; stroke: #000000; stroke-width: 0.8; stroke-linejoin: miter; stroke-linecap: square"
           id="path75" />
      </g>
      <g
         id="patch_26">
        <path
           d="M 244.365 224.64  L 244.365 7.2  "
           style="fill: none; stroke: #000000; stroke-width: 0.8; stroke-linejoin: miter; stroke-linecap: square"
           id="path76" />
      </g>
      <g
         id="patch_27">
        <path
           d="M 26.925 224.64  L 244.365 224.64  "
           style="fill: none; stroke: #000000; stroke-width: 0.8; stroke-linejoin: miter; stroke-linecap: square"
           id="path77" />
      </g>
      <g
         id="patch_28">
        <path
           d="M 26.925 7.2  L 244.365 7.2  "
           style="fill: none; stroke: #000000; stroke-width: 0.8; stroke-linejoin: miter; stroke-linecap: square"
           id="path78" />
      </g>
    </g>
  </g>
  <defs
     id="defs78">
    <clipPath
       id="p5bfac24552">
      <rect
         x="26.925"
         y="7.2"
         width="217.44"
         height="217.44"
         id="rect78" />
    </clipPath>
  </defs>
  <text
     xml:space="preserve"
     style="font-size:9px;fill:#000000;stroke-width:0.75"
     x="49.188118"
     y="210.27588"
     id="text78"><tspan
       sodipodi:role="line"
       id="tspan78"
       style="fill:#3a79f9;fill-opacity:1;stroke-width:0.75"
       x="49.188118"
       y="210.27588">0</tspan></text>
  <text
     xml:space="preserve"
     style="font-size:9px;fill:#000000;stroke-width:0.75;stroke-linecap:butt;stroke-linejoin:round"
     x="126.30273"
     y="214.79706"
     id="text78-2"><tspan
       sodipodi:role="line"
       id="tspan78-5"
       style="fill:#3a79f9;fill-opacity:1;stroke-width:0.75"
       x="126.30273"
       y="214.79706">1</tspan></text>
  <text
     xml:space="preserve"
     style="font-size:9px;fill:#000000;stroke-width:0.75;stroke-linecap:butt;stroke-linejoin:round"
     x="185.01324"
     y="200.29617"
     id="text78-9"><tspan
       sodipodi:role="line"
       id="tspan78-0"
       style="fill:#3a79f9;fill-opacity:1;stroke-width:0.75"
       x="185.01324"
       y="200.29617">3</tspan></text>
  <text
     xml:space="preserve"
     style="font-size:9px;fill:#000000;stroke-width:0.75;stroke-linecap:butt;stroke-linejoin:round"
     x="199.45169"
     y="129.33073"
     id="text78-93"><tspan
       sodipodi:role="line"
       id="tspan78-07"
       style="fill:#3a79f9;fill-opacity:1;stroke-width:0.75"
       x="199.45169"
       y="129.33073">6</tspan></text>
  <text
     xml:space="preserve"
     style="font-size:9px;fill:#000000;stroke-width:0.75;stroke-linecap:butt;stroke-linejoin:round"
     x="146.34978"
     y="125.56915"
     id="text78-4"><tspan
       sodipodi:role="line"
       id="tspan78-6"
       style="fill:#3a79f9;fill-opacity:1;stroke-width:0.75"
       x="146.34978"
       y="125.56915">5</tspan></text>
  <text
     xml:space="preserve"
     style="font-size:9px;fill:#000000;stroke-width:0.75;stroke-linecap:butt;stroke-linejoin:round"
     x="31.452806"
     y="136.83475"
     id="text78-6"><tspan
       sodipodi:role="line"
       id="tspan78-4"
       style="fill:#3a79f9;fill-opacity:1;stroke-width:0.75"
       x="31.452806"
       y="136.83475">4</tspan></text>
  <text
     xml:space="preserve"
     style="font-size:9px;fill:#000000;stroke-width:0.75;stroke-linecap:butt;stroke-linejoin:round"
     x="89.761909"
     y="21.841667"
     id="text78-0"><tspan
       sodipodi:role="line"
       id="tspan78-8"
       style="fill:#3a79f9;fill-opacity:1;stroke-width:0.75"
       x="89.761909"
       y="21.841667">9</tspan></text>
  <text
     xml:space="preserve"
     style="font-size:9px;fill:#000000;stroke-width:0.75;stroke-linecap:butt;stroke-linejoin:round"
     x="196.87677"
     y="36.069592"
     id="text78-3"><tspan
       sodipodi:role="line"
       id="tspan78-2"
       style="fill:#3a79f9;fill-opacity:1;stroke-width:0.75"
       x="196.87677"
       y="36.069592">8</tspan></text>
  <text
     xml:space="preserve"
     style="font-size:9px;fill:#000000;stroke-width:0.75;stroke-linecap:butt;stroke-linejoin:round"
     x="157.40352"
     y="58.994659"
     id="text78-27"><tspan
       sodipodi:role="line"
       id="tspan78-9"
       style="fill:#3a79f9;fill-opacity:1;stroke-width:0.75"
       x="157.40352"
       y="58.994659">7</tspan></text>
  <text
     xml:space="preserve"
     style="font-size:9px;fill:#000000;stroke-width:0.75;stroke-linecap:butt;stroke-linejoin:round"
     x="94.382782"
     y="173.87199"
     id="text78-8"><tspan
       sodipodi:role="line"
       id="tspan78-94"
       style="fill:#3a79f9;fill-opacity:1;stroke-width:0.75"
       x="94.382782"
       y="173.87199">2</tspan></text>
  <text
     xml:space="preserve"
     style="font-size:9px;fill:#e6053d;stroke-width:0.75;stroke-linecap:butt;stroke-linejoin:round;fill-opacity:1"
     x="94.4711"
     y="197.88113"
     id="text78-61"><tspan
       sodipodi:role="line"
       id="tspan78-1"
       style="fill:#e6053d;fill-opacity:1;stroke-width:0.75"
       x="94.4711"
       y="197.88113">0</tspan></text>
  <text
     xml:space="preserve"
     style="font-size:9px;fill:#e6053d;fill-opacity:1;stroke-width:0.75;stroke-linecap:butt;stroke-linejoin:round"
     x="115.59465"
     y="174.86374"
     id="text78-61-4"><tspan
       sodipodi:role="line"
       id="tspan78-1-7"
       style="fill:#e6053d;fill-opacity:1;stroke-width:0.75"
       x="115.59465"
       y="174.86374">4</tspan></text>
  <text
     xml:space="preserve"
     style="font-size:9px;fill:#e6053d;fill-opacity:1;stroke-width:0.75;stroke-linecap:butt;stroke-linejoin:round"
     x="147.92917"
     y="179.0843"
     id="text78-61-1"><tspan
       sodipodi:role="line"
       id="tspan78-1-72"
       style="fill:#e6053d;fill-opacity:1;stroke-width:0.75"
       x="147.92917"
       y="179.0843">2</tspan></text>
  <text
     xml:space="preserve"
     style="font-size:9px;fill:#e6053d;fill-opacity:1;stroke-width:0.75;stroke-linecap:butt;stroke-linejoin:round"
     x="169.55049"
     y="145.7567"
     id="text78-61-7"><tspan
       sodipodi:role="line"
       id="tspan78-1-2"
       style="fill:#e6053d;fill-opacity:1;stroke-width:0.75"
       x="169.55049"
       y="145.7567">5</tspan></text>
  <text
     xml:space="preserve"
     style="font-size:9px;fill:#e6053d;fill-opacity:1;stroke-width:0.75;stroke-linecap:butt;stroke-linejoin:round"
     x="163.67783"
     y="103.6124"
     id="text78-61-9"><tspan
       sodipodi:role="line"
       id="tspan78-1-4"
       style="fill:#e6053d;fill-opacity:1;stroke-width:0.75"
       x="163.67783"
       y="103.6124">6</tspan></text>
  <text
     xml:space="preserve"
     style="font-size:9px;fill:#e6053d;fill-opacity:1;stroke-width:0.75;stroke-linecap:butt;stroke-linejoin:round"
     x="181.01236"
     y="68.378014"
     id="text78-61-6"><tspan
       sodipodi:role="line"
       id="tspan78-1-73"
       style="fill:#e6053d;fill-opacity:1;stroke-width:0.75"
       x="181.01236"
       y="68.378014">7</tspan></text>
  <text
     xml:space="preserve"
     style="font-size:9px;fill:#e6053d;fill-opacity:1;stroke-width:0.75;stroke-linecap:butt;stroke-linejoin:round"
     x="136.30473"
     y="68.70562"
     id="text78-61-8"><tspan
       sodipodi:role="line"
       id="tspan78-1-1"
       style="fill:#e6053d;fill-opacity:1;stroke-width:0.75"
       x="136.30473"
       y="68.70562">9</tspan></text>
  <text
     xml:space="preserve"
     style="font-size:9px;fill:#e6053d;fill-opacity:1;stroke-width:0.75;stroke-linecap:butt;stroke-linejoin:round"
     x="89.759232"
     y="96.411469"
     id="text78-61-2"><tspan
       sodipodi:role="line"
       id="tspan78-1-75"
       style="fill:#e6053d;fill-opacity:1;stroke-width:0.75"
       x="89.759232"
       y="96.411469">10</tspan></text>
  <text
     xml:space="preserve"
     style="font-size:9px;fill:#e6053d;fill-opacity:1;stroke-width:0.75;stroke-linecap:butt;stroke-linejoin:round"
     x="90.678276"
     y="149.83698"
     id="text78-61-78"><tspan
       sodipodi:role="line"
       id="tspan78-1-19"
       style="fill:#e6053d;fill-opacity:1;stroke-width:0.75"
       x="90.678276"
       y="149.83698">3</tspan></text>
  <text
     xml:space="preserve"
     style="font-size:9px;fill:#e6053d;fill-opacity:1;stroke-width:0.75;stroke-linecap:butt;stroke-linejoin:round"
     x="61.419136"
     y="176.79015"
     id="text78-61-49"><tspan
       sodipodi:role="line"
       id="tspan78-1-0"
       style="fill:#e6053d;fill-opacity:1;stroke-width:0.75"
       x="61.419136"
       y="176.79015">1</tspan></text>
  <text
     xml:space="preserve"
     style="font-size:9px;fill:#e6053d;fill-opacity:1;stroke-width:0.75;stroke-linecap:butt;stroke-linejoin:round"
     x="153.87453"
     y="44.068691"
     id="text78-61-5"><tspan
       sodipodi:role="line"
       id="tspan78-1-6"
       style="fill:#e6053d;fill-opacity:1;stroke-width:0.75"
       x="153.87453"
       y="44.068691">8</tspan></text>
</svg>
