<?xml version="1.0" encoding="utf-8" standalone="no"?>
<!DOCTYPE svg PUBLIC "-//W3C//DTD SVG 1.1//EN"
  "http://www.w3.org/Graphics/SVG/1.1/DTD/svg11.dtd">
<svg xmlns:xlink="http://www.w3.org/1999/xlink" width="360pt" height="194.4pt" viewBox="0 0 360 194.4" xmlns="http://www.w3.org/2000/svg" version="1.1">
 <metadata>
  <rdf:RDF xmlns:dc="http://purl.org/dc/elements/1.1/" xmlns:cc="http://creativecommons.org/ns#" xmlns:rdf="http://www.w3.org/1999/02/22-rdf-syntax-ns#">
   <cc:Work>
    <dc:type rdf:resource="http://purl.org/dc/dcmitype/StillImage"/>
    <dc:date>2024-09-05T16:14:42.002580</dc:date>
    <dc:format>image/svg+xml</dc:format>
    <dc:creator>
     <cc:Agent>
      <dc:title>Matplotlib v3.9.1.post1, https://matplotlib.org/</dc:title>
     </cc:Agent>
    </dc:creator>
   </cc:Work>
  </rdf:RDF>
 </metadata>
 <defs>
  <style type="text/css">*{stroke-linejoin: round; stroke-linecap: butt}</style>
 </defs>
 <g id="figure_1">
  <g id="patch_1">
   <path d="M 0 194.4 
L 360 194.4 
L 360 0 
L 0 0 
z
" style="fill: #ffffff"/>
  </g>
  <g id="axes_1">
   <g id="patch_2">
    <path d="M 54 167.184 
L 334.8 167.184 
L 334.8 33.048 
L 54 33.048 
z
" style="fill: #ffffff"/>
   </g>
   <g id="patch_3">
    <path d="M 66.763636 26913.9024 
L 68.933093 26913.9024 
L 68.933093 159.324741 
L 66.763636 159.324741 
z
" clip-path="url(#p8a4d24df1c)" style="fill: #6c17b9"/>
   </g>
   <g id="patch_4">
    <path d="M 68.571517 26913.9024 
L 70.740973 26913.9024 
L 70.740973 154.307317 
L 68.571517 154.307317 
z
" clip-path="url(#p8a4d24df1c)" style="fill: #6c17b9"/>
   </g>
   <g id="patch_5">
    <path d="M 70.379397 26913.9024 
L 72.548854 26913.9024 
L 72.548854 154.958323 
L 70.379397 154.958323 
z
" clip-path="url(#p8a4d24df1c)" style="fill: #6c17b9"/>
   </g>
   <g id="patch_6">
    <path d="M 72.187278 26913.9024 
L 74.356734 26913.9024 
L 74.356734 151.304153 
L 72.187278 151.304153 
z
" clip-path="url(#p8a4d24df1c)" style="fill: #6c17b9"/>
   </g>
   <g id="patch_7">
    <path d="M 73.995158 26913.9024 
L 76.164615 26913.9024 
L 76.164615 154.170864 
L 73.995158 154.170864 
z
" clip-path="url(#p8a4d24df1c)" style="fill: #6c17b9"/>
   </g>
   <g id="patch_8">
    <path d="M 75.803039 26913.9024 
L 77.972495 26913.9024 
L 77.972495 146.294898 
L 75.803039 146.294898 
z
" clip-path="url(#p8a4d24df1c)" style="fill: #6c17b9"/>
   </g>
   <g id="patch_9">
    <path d="M 77.610919 26913.9024 
L 79.780376 26913.9024 
L 79.780376 154.35538 
L 77.610919 154.35538 
z
" clip-path="url(#p8a4d24df1c)" style="fill: #6c17b9"/>
   </g>
   <g id="patch_10">
    <path d="M 79.4188 26913.9024 
L 81.588257 26913.9024 
L 81.588257 149.225939 
L 79.4188 149.225939 
z
" clip-path="url(#p8a4d24df1c)" style="fill: #6c17b9"/>
   </g>
   <g id="patch_11">
    <path d="M 81.22668 26913.9024 
L 83.396137 26913.9024 
L 83.396137 149.596867 
L 81.22668 149.596867 
z
" clip-path="url(#p8a4d24df1c)" style="fill: #6c17b9"/>
   </g>
   <g id="patch_12">
    <path d="M 83.034561 26913.9024 
L 85.204018 26913.9024 
L 85.204018 125.330713 
L 83.034561 125.330713 
z
" clip-path="url(#p8a4d24df1c)" style="fill: #6c17b9"/>
   </g>
   <g id="patch_13">
    <path d="M 84.842441 26913.9024 
L 87.011898 26913.9024 
L 87.011898 127.897274 
L 84.842441 127.897274 
z
" clip-path="url(#p8a4d24df1c)" style="fill: #6c17b9"/>
   </g>
   <g id="patch_14">
    <path d="M 86.650322 26913.9024 
L 88.819779 26913.9024 
L 88.819779 126.044566 
L 86.650322 126.044566 
z
" clip-path="url(#p8a4d24df1c)" style="fill: #6c17b9"/>
   </g>
   <g id="patch_15">
    <path d="M 88.458202 26913.9024 
L 90.627659 26913.9024 
L 90.627659 127.466242 
L 88.458202 127.466242 
z
" clip-path="url(#p8a4d24df1c)" style="fill: #6c17b9"/>
   </g>
   <g id="patch_16">
    <path d="M 90.266083 26913.9024 
L 92.43554 26913.9024 
L 92.43554 127.898747 
L 90.266083 127.898747 
z
" clip-path="url(#p8a4d24df1c)" style="fill: #6c17b9"/>
   </g>
   <g id="patch_17">
    <path d="M 92.073963 26913.9024 
L 94.24342 26913.9024 
L 94.24342 132.687012 
L 92.073963 132.687012 
z
" clip-path="url(#p8a4d24df1c)" style="fill: #6c17b9"/>
   </g>
   <g id="patch_18">
    <path d="M 93.881844 26913.9024 
L 96.051301 26913.9024 
L 96.051301 127.161061 
L 93.881844 127.161061 
z
" clip-path="url(#p8a4d24df1c)" style="fill: #6c17b9"/>
   </g>
   <g id="patch_19">
    <path d="M 95.689724 26913.9024 
L 97.859181 26913.9024 
L 97.859181 147.053479 
L 95.689724 147.053479 
z
" clip-path="url(#p8a4d24df1c)" style="fill: #6c17b9"/>
   </g>
   <g id="patch_20">
    <path d="M 97.497605 26913.9024 
L 99.667062 26913.9024 
L 99.667062 126.622581 
L 97.497605 126.622581 
z
" clip-path="url(#p8a4d24df1c)" style="fill: #6c17b9"/>
   </g>
   <g id="patch_21">
    <path d="M 99.305485 26913.9024 
L 101.474942 26913.9024 
L 101.474942 127.171876 
L 99.305485 127.171876 
z
" clip-path="url(#p8a4d24df1c)" style="fill: #6c17b9"/>
   </g>
   <g id="patch_22">
    <path d="M 101.113366 26913.9024 
L 103.282823 26913.9024 
L 103.282823 127.104042 
L 101.113366 127.104042 
z
" clip-path="url(#p8a4d24df1c)" style="fill: #6c17b9"/>
   </g>
   <g id="patch_23">
    <path d="M 102.921246 26913.9024 
L 105.090703 26913.9024 
L 105.090703 126.821142 
L 102.921246 126.821142 
z
" clip-path="url(#p8a4d24df1c)" style="fill: #6c17b9"/>
   </g>
   <g id="patch_24">
    <path d="M 104.729127 26913.9024 
L 106.898584 26913.9024 
L 106.898584 127.969855 
L 104.729127 127.969855 
z
" clip-path="url(#p8a4d24df1c)" style="fill: #6c17b9"/>
   </g>
   <g id="patch_25">
    <path d="M 106.537007 26913.9024 
L 108.706464 26913.9024 
L 108.706464 110.137574 
L 106.537007 110.137574 
z
" clip-path="url(#p8a4d24df1c)" style="fill: #6c17b9"/>
   </g>
   <g id="patch_26">
    <path d="M 108.344888 26913.9024 
L 110.514345 26913.9024 
L 110.514345 125.957509 
L 108.344888 125.957509 
z
" clip-path="url(#p8a4d24df1c)" style="fill: #6c17b9"/>
   </g>
   <g id="patch_27">
    <path d="M 110.152768 26913.9024 
L 112.322225 26913.9024 
L 112.322225 146.131229 
L 110.152768 146.131229 
z
" clip-path="url(#p8a4d24df1c)" style="fill: #6c17b9"/>
   </g>
   <g id="patch_28">
    <path d="M 111.960649 26913.9024 
L 114.130106 26913.9024 
L 114.130106 146.936562 
L 111.960649 146.936562 
z
" clip-path="url(#p8a4d24df1c)" style="fill: #6c17b9"/>
   </g>
   <g id="patch_29">
    <path d="M 113.768529 26913.9024 
L 115.937986 26913.9024 
L 115.937986 146.300965 
L 113.768529 146.300965 
z
" clip-path="url(#p8a4d24df1c)" style="fill: #6c17b9"/>
   </g>
   <g id="patch_30">
    <path d="M 115.57641 26913.9024 
L 117.745867 26913.9024 
L 117.745867 126.83337 
L 115.57641 126.83337 
z
" clip-path="url(#p8a4d24df1c)" style="fill: #6c17b9"/>
   </g>
   <g id="patch_31">
    <path d="M 117.38429 26913.9024 
L 119.553747 26913.9024 
L 119.553747 155.142816 
L 117.38429 155.142816 
z
" clip-path="url(#p8a4d24df1c)" style="fill: #6c17b9"/>
   </g>
   <g id="patch_32">
    <path d="M 119.192171 26913.9024 
L 121.361628 26913.9024 
L 121.361628 127.604859 
L 119.192171 127.604859 
z
" clip-path="url(#p8a4d24df1c)" style="fill: #6c17b9"/>
   </g>
   <g id="patch_33">
    <path d="M 121.000052 26913.9024 
L 123.169508 26913.9024 
L 123.169508 125.80014 
L 121.000052 125.80014 
z
" clip-path="url(#p8a4d24df1c)" style="fill: #6c17b9"/>
   </g>
   <g id="patch_34">
    <path d="M 122.807932 26913.9024 
L 124.977389 26913.9024 
L 124.977389 148.241425 
L 122.807932 148.241425 
z
" clip-path="url(#p8a4d24df1c)" style="fill: #6c17b9"/>
   </g>
   <g id="patch_35">
    <path d="M 124.615813 26913.9024 
L 126.785269 26913.9024 
L 126.785269 115.816971 
L 124.615813 115.816971 
z
" clip-path="url(#p8a4d24df1c)" style="fill: #6c17b9"/>
   </g>
   <g id="patch_36">
    <path d="M 126.423693 26913.9024 
L 128.59315 26913.9024 
L 128.59315 148.453334 
L 126.423693 148.453334 
z
" clip-path="url(#p8a4d24df1c)" style="fill: #6c17b9"/>
   </g>
   <g id="patch_37">
    <path d="M 128.231574 26913.9024 
L 130.40103 26913.9024 
L 130.40103 125.736803 
L 128.231574 125.736803 
z
" clip-path="url(#p8a4d24df1c)" style="fill: #6c17b9"/>
   </g>
   <g id="patch_38">
    <path d="M 130.039454 26913.9024 
L 132.208911 26913.9024 
L 132.208911 149.974966 
L 130.039454 149.974966 
z
" clip-path="url(#p8a4d24df1c)" style="fill: #6c17b9"/>
   </g>
   <g id="patch_39">
    <path d="M 131.847335 26913.9024 
L 134.016791 26913.9024 
L 134.016791 147.610258 
L 131.847335 147.610258 
z
" clip-path="url(#p8a4d24df1c)" style="fill: #6c17b9"/>
   </g>
   <g id="patch_40">
    <path d="M 133.655215 26913.9024 
L 135.824672 26913.9024 
L 135.824672 110.275684 
L 133.655215 110.275684 
z
" clip-path="url(#p8a4d24df1c)" style="fill: #6c17b9"/>
   </g>
   <g id="patch_41">
    <path d="M 135.463096 26913.9024 
L 137.632552 26913.9024 
L 137.632552 148.264566 
L 135.463096 148.264566 
z
" clip-path="url(#p8a4d24df1c)" style="fill: #6c17b9"/>
   </g>
   <g id="patch_42">
    <path d="M 137.270976 26913.9024 
L 139.440433 26913.9024 
L 139.440433 128.067146 
L 137.270976 128.067146 
z
" clip-path="url(#p8a4d24df1c)" style="fill: #6c17b9"/>
   </g>
   <g id="patch_43">
    <path d="M 139.078857 26913.9024 
L 141.248313 26913.9024 
L 141.248313 125.769355 
L 139.078857 125.769355 
z
" clip-path="url(#p8a4d24df1c)" style="fill: #6c17b9"/>
   </g>
   <g id="patch_44">
    <path d="M 140.886737 26913.9024 
L 143.056194 26913.9024 
L 143.056194 104.657848 
L 140.886737 104.657848 
z
" clip-path="url(#p8a4d24df1c)" style="fill: #6c17b9"/>
   </g>
   <g id="patch_45">
    <path d="M 142.694618 26913.9024 
L 144.864074 26913.9024 
L 144.864074 125.800713 
L 142.694618 125.800713 
z
" clip-path="url(#p8a4d24df1c)" style="fill: #6c17b9"/>
   </g>
   <g id="patch_46">
    <path d="M 144.502498 26913.9024 
L 146.671955 26913.9024 
L 146.671955 123.099525 
L 144.502498 123.099525 
z
" clip-path="url(#p8a4d24df1c)" style="fill: #6c17b9"/>
   </g>
   <g id="patch_47">
    <path d="M 146.310379 26913.9024 
L 148.479835 26913.9024 
L 148.479835 116.820975 
L 146.310379 116.820975 
z
" clip-path="url(#p8a4d24df1c)" style="fill: #6c17b9"/>
   </g>
   <g id="patch_48">
    <path d="M 148.118259 26913.9024 
L 150.287716 26913.9024 
L 150.287716 127.877498 
L 148.118259 127.877498 
z
" clip-path="url(#p8a4d24df1c)" style="fill: #6c17b9"/>
   </g>
   <g id="patch_49">
    <path d="M 149.92614 26913.9024 
L 152.095596 26913.9024 
L 152.095596 150.784757 
L 149.92614 150.784757 
z
" clip-path="url(#p8a4d24df1c)" style="fill: #6c17b9"/>
   </g>
   <g id="patch_50">
    <path d="M 151.73402 26913.9024 
L 153.903477 26913.9024 
L 153.903477 148.405116 
L 151.73402 148.405116 
z
" clip-path="url(#p8a4d24df1c)" style="fill: #6c17b9"/>
   </g>
   <g id="patch_51">
    <path d="M 153.541901 26913.9024 
L 155.711357 26913.9024 
L 155.711357 148.382012 
L 153.541901 148.382012 
z
" clip-path="url(#p8a4d24df1c)" style="fill: #6c17b9"/>
   </g>
   <g id="patch_52">
    <path d="M 155.349781 26913.9024 
L 157.519238 26913.9024 
L 157.519238 108.0454 
L 155.349781 108.0454 
z
" clip-path="url(#p8a4d24df1c)" style="fill: #6c17b9"/>
   </g>
   <g id="patch_53">
    <path d="M 157.157662 26913.9024 
L 159.327118 26913.9024 
L 159.327118 122.30224 
L 157.157662 122.30224 
z
" clip-path="url(#p8a4d24df1c)" style="fill: #6c17b9"/>
   </g>
   <g id="patch_54">
    <path d="M 158.965542 26913.9024 
L 161.134999 26913.9024 
L 161.134999 122.548806 
L 158.965542 122.548806 
z
" clip-path="url(#p8a4d24df1c)" style="fill: #6c17b9"/>
   </g>
   <g id="patch_55">
    <path d="M 160.773423 26913.9024 
L 162.942879 26913.9024 
L 162.942879 127.877377 
L 160.773423 127.877377 
z
" clip-path="url(#p8a4d24df1c)" style="fill: #6c17b9"/>
   </g>
   <g id="patch_56">
    <path d="M 162.581303 26913.9024 
L 164.75076 26913.9024 
L 164.75076 121.74347 
L 162.581303 121.74347 
z
" clip-path="url(#p8a4d24df1c)" style="fill: #6c17b9"/>
   </g>
   <g id="patch_57">
    <path d="M 164.389184 26913.9024 
L 166.55864 26913.9024 
L 166.55864 109.920877 
L 164.389184 109.920877 
z
" clip-path="url(#p8a4d24df1c)" style="fill: #6c17b9"/>
   </g>
   <g id="patch_58">
    <path d="M 166.197064 26913.9024 
L 168.366521 26913.9024 
L 168.366521 122.495586 
L 166.197064 122.495586 
z
" clip-path="url(#p8a4d24df1c)" style="fill: #6c17b9"/>
   </g>
   <g id="patch_59">
    <path d="M 168.004945 26913.9024 
L 170.174401 26913.9024 
L 170.174401 120.247852 
L 168.004945 120.247852 
z
" clip-path="url(#p8a4d24df1c)" style="fill: #6c17b9"/>
   </g>
   <g id="patch_60">
    <path d="M 169.812825 26913.9024 
L 171.982282 26913.9024 
L 171.982282 122.100634 
L 169.812825 122.100634 
z
" clip-path="url(#p8a4d24df1c)" style="fill: #6c17b9"/>
   </g>
   <g id="patch_61">
    <path d="M 171.620706 26913.9024 
L 173.790162 26913.9024 
L 173.790162 121.924938 
L 171.620706 121.924938 
z
" clip-path="url(#p8a4d24df1c)" style="fill: #6c17b9"/>
   </g>
   <g id="patch_62">
    <path d="M 173.428586 26913.9024 
L 175.598043 26913.9024 
L 175.598043 121.857134 
L 173.428586 121.857134 
z
" clip-path="url(#p8a4d24df1c)" style="fill: #6c17b9"/>
   </g>
   <g id="patch_63">
    <path d="M 175.236467 26913.9024 
L 177.405923 26913.9024 
L 177.405923 118.616734 
L 175.236467 118.616734 
z
" clip-path="url(#p8a4d24df1c)" style="fill: #6c17b9"/>
   </g>
   <g id="patch_64">
    <path d="M 177.044347 26913.9024 
L 179.213804 26913.9024 
L 179.213804 122.085377 
L 177.044347 122.085377 
z
" clip-path="url(#p8a4d24df1c)" style="fill: #6c17b9"/>
   </g>
   <g id="patch_65">
    <path d="M 178.852228 26913.9024 
L 181.021684 26913.9024 
L 181.021684 125.645897 
L 178.852228 125.645897 
z
" clip-path="url(#p8a4d24df1c)" style="fill: #6c17b9"/>
   </g>
   <g id="patch_66">
    <path d="M 180.660108 26913.9024 
L 182.829565 26913.9024 
L 182.829565 121.948441 
L 180.660108 121.948441 
z
" clip-path="url(#p8a4d24df1c)" style="fill: #6c17b9"/>
   </g>
   <g id="patch_67">
    <path d="M 182.467989 26913.9024 
L 184.637445 26913.9024 
L 184.637445 134.95845 
L 182.467989 134.95845 
z
" clip-path="url(#p8a4d24df1c)" style="fill: #6c17b9"/>
   </g>
   <g id="patch_68">
    <path d="M 184.275869 26913.9024 
L 186.445326 26913.9024 
L 186.445326 122.285987 
L 184.275869 122.285987 
z
" clip-path="url(#p8a4d24df1c)" style="fill: #6c17b9"/>
   </g>
   <g id="patch_69">
    <path d="M 186.08375 26913.9024 
L 188.253206 26913.9024 
L 188.253206 125.431721 
L 186.08375 125.431721 
z
" clip-path="url(#p8a4d24df1c)" style="fill: #6c17b9"/>
   </g>
   <g id="patch_70">
    <path d="M 187.89163 26913.9024 
L 190.061087 26913.9024 
L 190.061087 122.577562 
L 187.89163 122.577562 
z
" clip-path="url(#p8a4d24df1c)" style="fill: #6c17b9"/>
   </g>
   <g id="patch_71">
    <path d="M 189.699511 26913.9024 
L 191.868967 26913.9024 
L 191.868967 107.458267 
L 189.699511 107.458267 
z
" clip-path="url(#p8a4d24df1c)" style="fill: #6c17b9"/>
   </g>
   <g id="patch_72">
    <path d="M 191.507391 26913.9024 
L 193.676848 26913.9024 
L 193.676848 122.57392 
L 191.507391 122.57392 
z
" clip-path="url(#p8a4d24df1c)" style="fill: #6c17b9"/>
   </g>
   <g id="patch_73">
    <path d="M 193.315272 26913.9024 
L 195.484728 26913.9024 
L 195.484728 115.097341 
L 193.315272 115.097341 
z
" clip-path="url(#p8a4d24df1c)" style="fill: #6c17b9"/>
   </g>
   <g id="patch_74">
    <path d="M 195.123152 26913.9024 
L 197.292609 26913.9024 
L 197.292609 121.916737 
L 195.123152 121.916737 
z
" clip-path="url(#p8a4d24df1c)" style="fill: #6c17b9"/>
   </g>
   <g id="patch_75">
    <path d="M 196.931033 26913.9024 
L 199.100489 26913.9024 
L 199.100489 118.529009 
L 196.931033 118.529009 
z
" clip-path="url(#p8a4d24df1c)" style="fill: #6c17b9"/>
   </g>
   <g id="patch_76">
    <path d="M 198.738913 26913.9024 
L 200.90837 26913.9024 
L 200.90837 119.925195 
L 198.738913 119.925195 
z
" clip-path="url(#p8a4d24df1c)" style="fill: #6c17b9"/>
   </g>
   <g id="patch_77">
    <path d="M 200.546794 26913.9024 
L 202.71625 26913.9024 
L 202.71625 122.532516 
L 200.546794 122.532516 
z
" clip-path="url(#p8a4d24df1c)" style="fill: #6c17b9"/>
   </g>
   <g id="patch_78">
    <path d="M 202.354674 26913.9024 
L 204.524131 26913.9024 
L 204.524131 121.286546 
L 202.354674 121.286546 
z
" clip-path="url(#p8a4d24df1c)" style="fill: #6c17b9"/>
   </g>
   <g id="patch_79">
    <path d="M 204.162555 26913.9024 
L 206.332011 26913.9024 
L 206.332011 122.377456 
L 204.162555 122.377456 
z
" clip-path="url(#p8a4d24df1c)" style="fill: #6c17b9"/>
   </g>
   <g id="patch_80">
    <path d="M 205.970435 26913.9024 
L 208.139892 26913.9024 
L 208.139892 121.445806 
L 205.970435 121.445806 
z
" clip-path="url(#p8a4d24df1c)" style="fill: #6c17b9"/>
   </g>
   <g id="patch_81">
    <path d="M 207.778316 26913.9024 
L 209.947772 26913.9024 
L 209.947772 121.652585 
L 207.778316 121.652585 
z
" clip-path="url(#p8a4d24df1c)" style="fill: #6c17b9"/>
   </g>
   <g id="patch_82">
    <path d="M 209.586196 26913.9024 
L 211.755653 26913.9024 
L 211.755653 121.873326 
L 209.586196 121.873326 
z
" clip-path="url(#p8a4d24df1c)" style="fill: #6c17b9"/>
   </g>
   <g id="patch_83">
    <path d="M 211.394077 26913.9024 
L 213.563533 26913.9024 
L 213.563533 121.663972 
L 211.394077 121.663972 
z
" clip-path="url(#p8a4d24df1c)" style="fill: #6c17b9"/>
   </g>
   <g id="patch_84">
    <path d="M 213.201957 26913.9024 
L 215.371414 26913.9024 
L 215.371414 126.248092 
L 213.201957 126.248092 
z
" clip-path="url(#p8a4d24df1c)" style="fill: #6c17b9"/>
   </g>
   <g id="patch_85">
    <path d="M 215.009838 26913.9024 
L 217.179294 26913.9024 
L 217.179294 119.187039 
L 215.009838 119.187039 
z
" clip-path="url(#p8a4d24df1c)" style="fill: #6c17b9"/>
   </g>
   <g id="patch_86">
    <path d="M 216.817718 26913.9024 
L 218.987175 26913.9024 
L 218.987175 127.716177 
L 216.817718 127.716177 
z
" clip-path="url(#p8a4d24df1c)" style="fill: #6c17b9"/>
   </g>
   <g id="patch_87">
    <path d="M 218.625599 26913.9024 
L 220.795055 26913.9024 
L 220.795055 122.277708 
L 218.625599 122.277708 
z
" clip-path="url(#p8a4d24df1c)" style="fill: #6c17b9"/>
   </g>
   <g id="patch_88">
    <path d="M 220.433479 26913.9024 
L 222.602936 26913.9024 
L 222.602936 124.011251 
L 220.433479 124.011251 
z
" clip-path="url(#p8a4d24df1c)" style="fill: #6c17b9"/>
   </g>
   <g id="patch_89">
    <path d="M 222.24136 26913.9024 
L 224.410816 26913.9024 
L 224.410816 122.631514 
L 222.24136 122.631514 
z
" clip-path="url(#p8a4d24df1c)" style="fill: #6c17b9"/>
   </g>
   <g id="patch_90">
    <path d="M 224.04924 26913.9024 
L 226.218697 26913.9024 
L 226.218697 120.249469 
L 224.04924 120.249469 
z
" clip-path="url(#p8a4d24df1c)" style="fill: #6c17b9"/>
   </g>
   <g id="patch_91">
    <path d="M 225.857121 26913.9024 
L 228.026577 26913.9024 
L 228.026577 118.491997 
L 225.857121 118.491997 
z
" clip-path="url(#p8a4d24df1c)" style="fill: #6c17b9"/>
   </g>
   <g id="patch_92">
    <path d="M 227.665001 26913.9024 
L 229.834458 26913.9024 
L 229.834458 119.824608 
L 227.665001 119.824608 
z
" clip-path="url(#p8a4d24df1c)" style="fill: #6c17b9"/>
   </g>
   <g id="patch_93">
    <path d="M 229.472882 26913.9024 
L 231.642338 26913.9024 
L 231.642338 120.649257 
L 229.472882 120.649257 
z
" clip-path="url(#p8a4d24df1c)" style="fill: #6c17b9"/>
   </g>
   <g id="patch_94">
    <path d="M 231.280762 26913.9024 
L 233.450219 26913.9024 
L 233.450219 120.265282 
L 231.280762 120.265282 
z
" clip-path="url(#p8a4d24df1c)" style="fill: #6c17b9"/>
   </g>
   <g id="patch_95">
    <path d="M 233.088643 26913.9024 
L 235.258099 26913.9024 
L 235.258099 120.941803 
L 233.088643 120.941803 
z
" clip-path="url(#p8a4d24df1c)" style="fill: #6c17b9"/>
   </g>
   <g id="patch_96">
    <path d="M 234.896523 26913.9024 
L 237.06598 26913.9024 
L 237.06598 148.186167 
L 234.896523 148.186167 
z
" clip-path="url(#p8a4d24df1c)" style="fill: #6c17b9"/>
   </g>
   <g id="patch_97">
    <path d="M 236.704404 26913.9024 
L 238.87386 26913.9024 
L 238.87386 119.988629 
L 236.704404 119.988629 
z
" clip-path="url(#p8a4d24df1c)" style="fill: #6c17b9"/>
   </g>
   <g id="patch_98">
    <path d="M 238.512284 26913.9024 
L 240.681741 26913.9024 
L 240.681741 116.21484 
L 238.512284 116.21484 
z
" clip-path="url(#p8a4d24df1c)" style="fill: #6c17b9"/>
   </g>
   <g id="patch_99">
    <path d="M 240.320165 26913.9024 
L 242.489621 26913.9024 
L 242.489621 134.542156 
L 240.320165 134.542156 
z
" clip-path="url(#p8a4d24df1c)" style="fill: #6c17b9"/>
   </g>
   <g id="patch_100">
    <path d="M 242.128045 26913.9024 
L 244.297502 26913.9024 
L 244.297502 121.043142 
L 242.128045 121.043142 
z
" clip-path="url(#p8a4d24df1c)" style="fill: #6c17b9"/>
   </g>
   <g id="patch_101">
    <path d="M 243.935926 26913.9024 
L 246.105382 26913.9024 
L 246.105382 147.802073 
L 243.935926 147.802073 
z
" clip-path="url(#p8a4d24df1c)" style="fill: #6c17b9"/>
   </g>
   <g id="patch_102">
    <path d="M 245.743806 26913.9024 
L 247.913263 26913.9024 
L 247.913263 122.849568 
L 245.743806 122.849568 
z
" clip-path="url(#p8a4d24df1c)" style="fill: #6c17b9"/>
   </g>
   <g id="patch_103">
    <path d="M 247.551687 26913.9024 
L 249.721143 26913.9024 
L 249.721143 123.958509 
L 247.551687 123.958509 
z
" clip-path="url(#p8a4d24df1c)" style="fill: #6c17b9"/>
   </g>
   <g id="patch_104">
    <path d="M 249.359567 26913.9024 
L 251.529024 26913.9024 
L 251.529024 121.571871 
L 249.359567 121.571871 
z
" clip-path="url(#p8a4d24df1c)" style="fill: #6c17b9"/>
   </g>
   <g id="patch_105">
    <path d="M 251.167448 26913.9024 
L 253.336904 26913.9024 
L 253.336904 122.040228 
L 251.167448 122.040228 
z
" clip-path="url(#p8a4d24df1c)" style="fill: #6c17b9"/>
   </g>
   <g id="patch_106">
    <path d="M 252.975328 26913.9024 
L 255.144785 26913.9024 
L 255.144785 132.794438 
L 252.975328 132.794438 
z
" clip-path="url(#p8a4d24df1c)" style="fill: #6c17b9"/>
   </g>
   <g id="patch_107">
    <path d="M 254.783209 26913.9024 
L 256.952665 26913.9024 
L 256.952665 118.805657 
L 254.783209 118.805657 
z
" clip-path="url(#p8a4d24df1c)" style="fill: #6c17b9"/>
   </g>
   <g id="patch_108">
    <path d="M 256.591089 26913.9024 
L 258.760546 26913.9024 
L 258.760546 120.54827 
L 256.591089 120.54827 
z
" clip-path="url(#p8a4d24df1c)" style="fill: #6c17b9"/>
   </g>
   <g id="patch_109">
    <path d="M 258.39897 26913.9024 
L 260.568426 26913.9024 
L 260.568426 118.485937 
L 258.39897 118.485937 
z
" clip-path="url(#p8a4d24df1c)" style="fill: #6c17b9"/>
   </g>
   <g id="patch_110">
    <path d="M 260.20685 26913.9024 
L 262.376307 26913.9024 
L 262.376307 119.248663 
L 260.20685 119.248663 
z
" clip-path="url(#p8a4d24df1c)" style="fill: #6c17b9"/>
   </g>
   <g id="patch_111">
    <path d="M 262.014731 26913.9024 
L 264.184187 26913.9024 
L 264.184187 120.750827 
L 262.014731 120.750827 
z
" clip-path="url(#p8a4d24df1c)" style="fill: #6c17b9"/>
   </g>
   <g id="patch_112">
    <path d="M 263.822611 26913.9024 
L 265.992068 26913.9024 
L 265.992068 122.536131 
L 263.822611 122.536131 
z
" clip-path="url(#p8a4d24df1c)" style="fill: #6c17b9"/>
   </g>
   <g id="patch_113">
    <path d="M 265.630492 26913.9024 
L 267.799948 26913.9024 
L 267.799948 105.304594 
L 265.630492 105.304594 
z
" clip-path="url(#p8a4d24df1c)" style="fill: #6c17b9"/>
   </g>
   <g id="patch_114">
    <path d="M 267.438372 26913.9024 
L 269.607829 26913.9024 
L 269.607829 123.82204 
L 267.438372 123.82204 
z
" clip-path="url(#p8a4d24df1c)" style="fill: #6c17b9"/>
   </g>
   <g id="patch_115">
    <path d="M 269.246253 26913.9024 
L 271.41571 26913.9024 
L 271.41571 122.447551 
L 269.246253 122.447551 
z
" clip-path="url(#p8a4d24df1c)" style="fill: #6c17b9"/>
   </g>
   <g id="patch_116">
    <path d="M 271.054133 26913.9024 
L 273.22359 26913.9024 
L 273.22359 119.53745 
L 271.054133 119.53745 
z
" clip-path="url(#p8a4d24df1c)" style="fill: #6c17b9"/>
   </g>
   <g id="patch_117">
    <path d="M 272.862014 26913.9024 
L 275.031471 26913.9024 
L 275.031471 122.193323 
L 272.862014 122.193323 
z
" clip-path="url(#p8a4d24df1c)" style="fill: #6c17b9"/>
   </g>
   <g id="patch_118">
    <path d="M 274.669894 26913.9024 
L 276.839351 26913.9024 
L 276.839351 139.3818 
L 274.669894 139.3818 
z
" clip-path="url(#p8a4d24df1c)" style="fill: #6c17b9"/>
   </g>
   <g id="patch_119">
    <path d="M 276.477775 26913.9024 
L 278.647232 26913.9024 
L 278.647232 118.141221 
L 276.477775 118.141221 
z
" clip-path="url(#p8a4d24df1c)" style="fill: #6c17b9"/>
   </g>
   <g id="patch_120">
    <path d="M 278.285655 26913.9024 
L 280.455112 26913.9024 
L 280.455112 118.345082 
L 278.285655 118.345082 
z
" clip-path="url(#p8a4d24df1c)" style="fill: #6c17b9"/>
   </g>
   <g id="patch_121">
    <path d="M 280.093536 26913.9024 
L 282.262993 26913.9024 
L 282.262993 105.886394 
L 280.093536 105.886394 
z
" clip-path="url(#p8a4d24df1c)" style="fill: #6c17b9"/>
   </g>
   <g id="patch_122">
    <path d="M 281.901416 26913.9024 
L 284.070873 26913.9024 
L 284.070873 123.717064 
L 281.901416 123.717064 
z
" clip-path="url(#p8a4d24df1c)" style="fill: #6c17b9"/>
   </g>
   <g id="patch_123">
    <path d="M 283.709297 26913.9024 
L 285.878754 26913.9024 
L 285.878754 143.399849 
L 283.709297 143.399849 
z
" clip-path="url(#p8a4d24df1c)" style="fill: #6c17b9"/>
   </g>
   <g id="patch_124">
    <path d="M 285.517177 26913.9024 
L 287.686634 26913.9024 
L 287.686634 122.457625 
L 285.517177 122.457625 
z
" clip-path="url(#p8a4d24df1c)" style="fill: #6c17b9"/>
   </g>
   <g id="patch_125">
    <path d="M 287.325058 26913.9024 
L 289.494515 26913.9024 
L 289.494515 120.444464 
L 287.325058 120.444464 
z
" clip-path="url(#p8a4d24df1c)" style="fill: #6c17b9"/>
   </g>
   <g id="patch_126">
    <path d="M 289.132938 26913.9024 
L 291.302395 26913.9024 
L 291.302395 119.098763 
L 289.132938 119.098763 
z
" clip-path="url(#p8a4d24df1c)" style="fill: #6c17b9"/>
   </g>
   <g id="patch_127">
    <path d="M 290.940819 26913.9024 
L 293.110276 26913.9024 
L 293.110276 119.953407 
L 290.940819 119.953407 
z
" clip-path="url(#p8a4d24df1c)" style="fill: #6c17b9"/>
   </g>
   <g id="patch_128">
    <path d="M 292.748699 26913.9024 
L 294.918156 26913.9024 
L 294.918156 94.90191 
L 292.748699 94.90191 
z
" clip-path="url(#p8a4d24df1c)" style="fill: #6c17b9"/>
   </g>
   <g id="patch_129">
    <path d="M 294.55658 26913.9024 
L 296.726037 26913.9024 
L 296.726037 92.828097 
L 294.55658 92.828097 
z
" clip-path="url(#p8a4d24df1c)" style="fill: #6c17b9"/>
   </g>
   <g id="patch_130">
    <path d="M 296.36446 26913.9024 
L 298.533917 26913.9024 
L 298.533917 118.346268 
L 296.36446 118.346268 
z
" clip-path="url(#p8a4d24df1c)" style="fill: #6c17b9"/>
   </g>
   <g id="patch_131">
    <path d="M 298.172341 26913.9024 
L 300.341798 26913.9024 
L 300.341798 118.488235 
L 298.172341 118.488235 
z
" clip-path="url(#p8a4d24df1c)" style="fill: #6c17b9"/>
   </g>
   <g id="patch_132">
    <path d="M 299.980221 26913.9024 
L 302.149678 26913.9024 
L 302.149678 122.97275 
L 299.980221 122.97275 
z
" clip-path="url(#p8a4d24df1c)" style="fill: #6c17b9"/>
   </g>
   <g id="patch_133">
    <path d="M 301.788102 26913.9024 
L 303.957559 26913.9024 
L 303.957559 118.691385 
L 301.788102 118.691385 
z
" clip-path="url(#p8a4d24df1c)" style="fill: #6c17b9"/>
   </g>
   <g id="patch_134">
    <path d="M 303.595982 26913.9024 
L 305.765439 26913.9024 
L 305.765439 119.482549 
L 303.595982 119.482549 
z
" clip-path="url(#p8a4d24df1c)" style="fill: #6c17b9"/>
   </g>
   <g id="patch_135">
    <path d="M 305.403863 26913.9024 
L 307.57332 26913.9024 
L 307.57332 119.026183 
L 305.403863 119.026183 
z
" clip-path="url(#p8a4d24df1c)" style="fill: #6c17b9"/>
   </g>
   <g id="patch_136">
    <path d="M 307.211743 26913.9024 
L 309.3812 26913.9024 
L 309.3812 119.127118 
L 307.211743 119.127118 
z
" clip-path="url(#p8a4d24df1c)" style="fill: #6c17b9"/>
   </g>
   <g id="patch_137">
    <path d="M 309.019624 26913.9024 
L 311.189081 26913.9024 
L 311.189081 89.478023 
L 309.019624 89.478023 
z
" clip-path="url(#p8a4d24df1c)" style="fill: #6c17b9"/>
   </g>
   <g id="patch_138">
    <path d="M 310.827505 26913.9024 
L 312.996961 26913.9024 
L 312.996961 85.753234 
L 310.827505 85.753234 
z
" clip-path="url(#p8a4d24df1c)" style="fill: #6c17b9"/>
   </g>
   <g id="patch_139">
    <path d="M 312.635385 26913.9024 
L 314.804842 26913.9024 
L 314.804842 78.951823 
L 312.635385 78.951823 
z
" clip-path="url(#p8a4d24df1c)" style="fill: #6c17b9"/>
   </g>
   <g id="patch_140">
    <path d="M 314.443266 26913.9024 
L 316.612722 26913.9024 
L 316.612722 75.466566 
L 314.443266 75.466566 
z
" clip-path="url(#p8a4d24df1c)" style="fill: #6c17b9"/>
   </g>
   <g id="patch_141">
    <path d="M 316.251146 26913.9024 
L 318.420603 26913.9024 
L 318.420603 62.238094 
L 316.251146 62.238094 
z
" clip-path="url(#p8a4d24df1c)" style="fill: #6c17b9"/>
   </g>
   <g id="patch_142">
    <path d="M 318.059027 26913.9024 
L 320.228483 26913.9024 
L 320.228483 133.372025 
L 318.059027 133.372025 
z
" clip-path="url(#p8a4d24df1c)" style="fill: #6c17b9"/>
   </g>
   <g id="patch_143">
    <path d="M 319.866907 26913.9024 
L 322.036364 26913.9024 
L 322.036364 65.479333 
L 319.866907 65.479333 
z
" clip-path="url(#p8a4d24df1c)" style="fill: #6c17b9"/>
   </g>
   <g id="matplotlib.axis_1">
    <g id="text_1">
     <!-- Hyperparameter Configurations -->
     <g transform="translate(83.065 187.821812) scale(0.14 -0.14)">
      <defs>
       <path id="DejaVuSans-48" d="M 628 4666 
L 1259 4666 
L 1259 2753 
L 3553 2753 
L 3553 4666 
L 4184 4666 
L 4184 0 
L 3553 0 
L 3553 2222 
L 1259 2222 
L 1259 0 
L 628 0 
L 628 4666 
z
" transform="scale(0.015625)"/>
       <path id="DejaVuSans-79" d="M 2059 -325 
Q 1816 -950 1584 -1140 
Q 1353 -1331 966 -1331 
L 506 -1331 
L 506 -850 
L 844 -850 
Q 1081 -850 1212 -737 
Q 1344 -625 1503 -206 
L 1606 56 
L 191 3500 
L 800 3500 
L 1894 763 
L 2988 3500 
L 3597 3500 
L 2059 -325 
z
" transform="scale(0.015625)"/>
       <path id="DejaVuSans-70" d="M 1159 525 
L 1159 -1331 
L 581 -1331 
L 581 3500 
L 1159 3500 
L 1159 2969 
Q 1341 3281 1617 3432 
Q 1894 3584 2278 3584 
Q 2916 3584 3314 3078 
Q 3713 2572 3713 1747 
Q 3713 922 3314 415 
Q 2916 -91 2278 -91 
Q 1894 -91 1617 61 
Q 1341 213 1159 525 
z
M 3116 1747 
Q 3116 2381 2855 2742 
Q 2594 3103 2138 3103 
Q 1681 3103 1420 2742 
Q 1159 2381 1159 1747 
Q 1159 1113 1420 752 
Q 1681 391 2138 391 
Q 2594 391 2855 752 
Q 3116 1113 3116 1747 
z
" transform="scale(0.015625)"/>
       <path id="DejaVuSans-65" d="M 3597 1894 
L 3597 1613 
L 953 1613 
Q 991 1019 1311 708 
Q 1631 397 2203 397 
Q 2534 397 2845 478 
Q 3156 559 3463 722 
L 3463 178 
Q 3153 47 2828 -22 
Q 2503 -91 2169 -91 
Q 1331 -91 842 396 
Q 353 884 353 1716 
Q 353 2575 817 3079 
Q 1281 3584 2069 3584 
Q 2775 3584 3186 3129 
Q 3597 2675 3597 1894 
z
M 3022 2063 
Q 3016 2534 2758 2815 
Q 2500 3097 2075 3097 
Q 1594 3097 1305 2825 
Q 1016 2553 972 2059 
L 3022 2063 
z
" transform="scale(0.015625)"/>
       <path id="DejaVuSans-72" d="M 2631 2963 
Q 2534 3019 2420 3045 
Q 2306 3072 2169 3072 
Q 1681 3072 1420 2755 
Q 1159 2438 1159 1844 
L 1159 0 
L 581 0 
L 581 3500 
L 1159 3500 
L 1159 2956 
Q 1341 3275 1631 3429 
Q 1922 3584 2338 3584 
Q 2397 3584 2469 3576 
Q 2541 3569 2628 3553 
L 2631 2963 
z
" transform="scale(0.015625)"/>
       <path id="DejaVuSans-61" d="M 2194 1759 
Q 1497 1759 1228 1600 
Q 959 1441 959 1056 
Q 959 750 1161 570 
Q 1363 391 1709 391 
Q 2188 391 2477 730 
Q 2766 1069 2766 1631 
L 2766 1759 
L 2194 1759 
z
M 3341 1997 
L 3341 0 
L 2766 0 
L 2766 531 
Q 2569 213 2275 61 
Q 1981 -91 1556 -91 
Q 1019 -91 701 211 
Q 384 513 384 1019 
Q 384 1609 779 1909 
Q 1175 2209 1959 2209 
L 2766 2209 
L 2766 2266 
Q 2766 2663 2505 2880 
Q 2244 3097 1772 3097 
Q 1472 3097 1187 3025 
Q 903 2953 641 2809 
L 641 3341 
Q 956 3463 1253 3523 
Q 1550 3584 1831 3584 
Q 2591 3584 2966 3190 
Q 3341 2797 3341 1997 
z
" transform="scale(0.015625)"/>
       <path id="DejaVuSans-6d" d="M 3328 2828 
Q 3544 3216 3844 3400 
Q 4144 3584 4550 3584 
Q 5097 3584 5394 3201 
Q 5691 2819 5691 2113 
L 5691 0 
L 5113 0 
L 5113 2094 
Q 5113 2597 4934 2840 
Q 4756 3084 4391 3084 
Q 3944 3084 3684 2787 
Q 3425 2491 3425 1978 
L 3425 0 
L 2847 0 
L 2847 2094 
Q 2847 2600 2669 2842 
Q 2491 3084 2119 3084 
Q 1678 3084 1418 2786 
Q 1159 2488 1159 1978 
L 1159 0 
L 581 0 
L 581 3500 
L 1159 3500 
L 1159 2956 
Q 1356 3278 1631 3431 
Q 1906 3584 2284 3584 
Q 2666 3584 2933 3390 
Q 3200 3197 3328 2828 
z
" transform="scale(0.015625)"/>
       <path id="DejaVuSans-74" d="M 1172 4494 
L 1172 3500 
L 2356 3500 
L 2356 3053 
L 1172 3053 
L 1172 1153 
Q 1172 725 1289 603 
Q 1406 481 1766 481 
L 2356 481 
L 2356 0 
L 1766 0 
Q 1100 0 847 248 
Q 594 497 594 1153 
L 594 3053 
L 172 3053 
L 172 3500 
L 594 3500 
L 594 4494 
L 1172 4494 
z
" transform="scale(0.015625)"/>
       <path id="DejaVuSans-20" transform="scale(0.015625)"/>
       <path id="DejaVuSans-43" d="M 4122 4306 
L 4122 3641 
Q 3803 3938 3442 4084 
Q 3081 4231 2675 4231 
Q 1875 4231 1450 3742 
Q 1025 3253 1025 2328 
Q 1025 1406 1450 917 
Q 1875 428 2675 428 
Q 3081 428 3442 575 
Q 3803 722 4122 1019 
L 4122 359 
Q 3791 134 3420 21 
Q 3050 -91 2638 -91 
Q 1578 -91 968 557 
Q 359 1206 359 2328 
Q 359 3453 968 4101 
Q 1578 4750 2638 4750 
Q 3056 4750 3426 4639 
Q 3797 4528 4122 4306 
z
" transform="scale(0.015625)"/>
       <path id="DejaVuSans-6f" d="M 1959 3097 
Q 1497 3097 1228 2736 
Q 959 2375 959 1747 
Q 959 1119 1226 758 
Q 1494 397 1959 397 
Q 2419 397 2687 759 
Q 2956 1122 2956 1747 
Q 2956 2369 2687 2733 
Q 2419 3097 1959 3097 
z
M 1959 3584 
Q 2709 3584 3137 3096 
Q 3566 2609 3566 1747 
Q 3566 888 3137 398 
Q 2709 -91 1959 -91 
Q 1206 -91 779 398 
Q 353 888 353 1747 
Q 353 2609 779 3096 
Q 1206 3584 1959 3584 
z
" transform="scale(0.015625)"/>
       <path id="DejaVuSans-6e" d="M 3513 2113 
L 3513 0 
L 2938 0 
L 2938 2094 
Q 2938 2591 2744 2837 
Q 2550 3084 2163 3084 
Q 1697 3084 1428 2787 
Q 1159 2491 1159 1978 
L 1159 0 
L 581 0 
L 581 3500 
L 1159 3500 
L 1159 2956 
Q 1366 3272 1645 3428 
Q 1925 3584 2291 3584 
Q 2894 3584 3203 3211 
Q 3513 2838 3513 2113 
z
" transform="scale(0.015625)"/>
       <path id="DejaVuSans-66" d="M 2375 4863 
L 2375 4384 
L 1825 4384 
Q 1516 4384 1395 4259 
Q 1275 4134 1275 3809 
L 1275 3500 
L 2222 3500 
L 2222 3053 
L 1275 3053 
L 1275 0 
L 697 0 
L 697 3053 
L 147 3053 
L 147 3500 
L 697 3500 
L 697 3744 
Q 697 4328 969 4595 
Q 1241 4863 1831 4863 
L 2375 4863 
z
" transform="scale(0.015625)"/>
       <path id="DejaVuSans-69" d="M 603 3500 
L 1178 3500 
L 1178 0 
L 603 0 
L 603 3500 
z
M 603 4863 
L 1178 4863 
L 1178 4134 
L 603 4134 
L 603 4863 
z
" transform="scale(0.015625)"/>
       <path id="DejaVuSans-67" d="M 2906 1791 
Q 2906 2416 2648 2759 
Q 2391 3103 1925 3103 
Q 1463 3103 1205 2759 
Q 947 2416 947 1791 
Q 947 1169 1205 825 
Q 1463 481 1925 481 
Q 2391 481 2648 825 
Q 2906 1169 2906 1791 
z
M 3481 434 
Q 3481 -459 3084 -895 
Q 2688 -1331 1869 -1331 
Q 1566 -1331 1297 -1286 
Q 1028 -1241 775 -1147 
L 775 -588 
Q 1028 -725 1275 -790 
Q 1522 -856 1778 -856 
Q 2344 -856 2625 -561 
Q 2906 -266 2906 331 
L 2906 616 
Q 2728 306 2450 153 
Q 2172 0 1784 0 
Q 1141 0 747 490 
Q 353 981 353 1791 
Q 353 2603 747 3093 
Q 1141 3584 1784 3584 
Q 2172 3584 2450 3431 
Q 2728 3278 2906 2969 
L 2906 3500 
L 3481 3500 
L 3481 434 
z
" transform="scale(0.015625)"/>
       <path id="DejaVuSans-75" d="M 544 1381 
L 544 3500 
L 1119 3500 
L 1119 1403 
Q 1119 906 1312 657 
Q 1506 409 1894 409 
Q 2359 409 2629 706 
Q 2900 1003 2900 1516 
L 2900 3500 
L 3475 3500 
L 3475 0 
L 2900 0 
L 2900 538 
Q 2691 219 2414 64 
Q 2138 -91 1772 -91 
Q 1169 -91 856 284 
Q 544 659 544 1381 
z
M 1991 3584 
L 1991 3584 
z
" transform="scale(0.015625)"/>
       <path id="DejaVuSans-73" d="M 2834 3397 
L 2834 2853 
Q 2591 2978 2328 3040 
Q 2066 3103 1784 3103 
Q 1356 3103 1142 2972 
Q 928 2841 928 2578 
Q 928 2378 1081 2264 
Q 1234 2150 1697 2047 
L 1894 2003 
Q 2506 1872 2764 1633 
Q 3022 1394 3022 966 
Q 3022 478 2636 193 
Q 2250 -91 1575 -91 
Q 1294 -91 989 -36 
Q 684 19 347 128 
L 347 722 
Q 666 556 975 473 
Q 1284 391 1588 391 
Q 1994 391 2212 530 
Q 2431 669 2431 922 
Q 2431 1156 2273 1281 
Q 2116 1406 1581 1522 
L 1381 1569 
Q 847 1681 609 1914 
Q 372 2147 372 2553 
Q 372 3047 722 3315 
Q 1072 3584 1716 3584 
Q 2034 3584 2315 3537 
Q 2597 3491 2834 3397 
z
" transform="scale(0.015625)"/>
      </defs>
      <use xlink:href="#DejaVuSans-48"/>
      <use xlink:href="#DejaVuSans-79" x="75.195312"/>
      <use xlink:href="#DejaVuSans-70" x="134.375"/>
      <use xlink:href="#DejaVuSans-65" x="197.851562"/>
      <use xlink:href="#DejaVuSans-72" x="259.375"/>
      <use xlink:href="#DejaVuSans-70" x="300.488281"/>
      <use xlink:href="#DejaVuSans-61" x="363.964844"/>
      <use xlink:href="#DejaVuSans-72" x="425.244141"/>
      <use xlink:href="#DejaVuSans-61" x="466.357422"/>
      <use xlink:href="#DejaVuSans-6d" x="527.636719"/>
      <use xlink:href="#DejaVuSans-65" x="625.048828"/>
      <use xlink:href="#DejaVuSans-74" x="686.572266"/>
      <use xlink:href="#DejaVuSans-65" x="725.78125"/>
      <use xlink:href="#DejaVuSans-72" x="787.304688"/>
      <use xlink:href="#DejaVuSans-20" x="828.417969"/>
      <use xlink:href="#DejaVuSans-43" x="860.205078"/>
      <use xlink:href="#DejaVuSans-6f" x="930.029297"/>
      <use xlink:href="#DejaVuSans-6e" x="991.210938"/>
      <use xlink:href="#DejaVuSans-66" x="1054.589844"/>
      <use xlink:href="#DejaVuSans-69" x="1089.794922"/>
      <use xlink:href="#DejaVuSans-67" x="1117.578125"/>
      <use xlink:href="#DejaVuSans-75" x="1181.054688"/>
      <use xlink:href="#DejaVuSans-72" x="1244.433594"/>
      <use xlink:href="#DejaVuSans-61" x="1285.546875"/>
      <use xlink:href="#DejaVuSans-74" x="1346.826172"/>
      <use xlink:href="#DejaVuSans-69" x="1386.035156"/>
      <use xlink:href="#DejaVuSans-6f" x="1413.818359"/>
      <use xlink:href="#DejaVuSans-6e" x="1475"/>
      <use xlink:href="#DejaVuSans-73" x="1538.378906"/>
     </g>
    </g>
   </g>
   <g id="matplotlib.axis_2">
    <g id="ytick_1">
     <g id="line2d_1">
      <defs>
       <path id="ma41c3f6c82" d="M 0 0 
L -3.5 0 
" style="stroke: #000000; stroke-width: 0.8"/>
      </defs>
      <g>
       <use xlink:href="#ma41c3f6c82" x="54" y="167.184" style="stroke: #000000; stroke-width: 0.8"/>
      </g>
     </g>
     <g id="text_2">
      <!-- $\mathdefault{10^{-3}}$ -->
      <g transform="translate(23.5 170.983219) scale(0.1 -0.1)">
       <defs>
        <path id="DejaVuSans-31" d="M 794 531 
L 1825 531 
L 1825 4091 
L 703 3866 
L 703 4441 
L 1819 4666 
L 2450 4666 
L 2450 531 
L 3481 531 
L 3481 0 
L 794 0 
L 794 531 
z
" transform="scale(0.015625)"/>
        <path id="DejaVuSans-30" d="M 2034 4250 
Q 1547 4250 1301 3770 
Q 1056 3291 1056 2328 
Q 1056 1369 1301 889 
Q 1547 409 2034 409 
Q 2525 409 2770 889 
Q 3016 1369 3016 2328 
Q 3016 3291 2770 3770 
Q 2525 4250 2034 4250 
z
M 2034 4750 
Q 2819 4750 3233 4129 
Q 3647 3509 3647 2328 
Q 3647 1150 3233 529 
Q 2819 -91 2034 -91 
Q 1250 -91 836 529 
Q 422 1150 422 2328 
Q 422 3509 836 4129 
Q 1250 4750 2034 4750 
z
" transform="scale(0.015625)"/>
        <path id="DejaVuSans-2212" d="M 678 2272 
L 4684 2272 
L 4684 1741 
L 678 1741 
L 678 2272 
z
" transform="scale(0.015625)"/>
        <path id="DejaVuSans-33" d="M 2597 2516 
Q 3050 2419 3304 2112 
Q 3559 1806 3559 1356 
Q 3559 666 3084 287 
Q 2609 -91 1734 -91 
Q 1441 -91 1130 -33 
Q 819 25 488 141 
L 488 750 
Q 750 597 1062 519 
Q 1375 441 1716 441 
Q 2309 441 2620 675 
Q 2931 909 2931 1356 
Q 2931 1769 2642 2001 
Q 2353 2234 1838 2234 
L 1294 2234 
L 1294 2753 
L 1863 2753 
Q 2328 2753 2575 2939 
Q 2822 3125 2822 3475 
Q 2822 3834 2567 4026 
Q 2313 4219 1838 4219 
Q 1578 4219 1281 4162 
Q 984 4106 628 3988 
L 628 4550 
Q 988 4650 1302 4700 
Q 1616 4750 1894 4750 
Q 2613 4750 3031 4423 
Q 3450 4097 3450 3541 
Q 3450 3153 3228 2886 
Q 3006 2619 2597 2516 
z
" transform="scale(0.015625)"/>
       </defs>
       <use xlink:href="#DejaVuSans-31" transform="translate(0 0.765625)"/>
       <use xlink:href="#DejaVuSans-30" transform="translate(63.623047 0.765625)"/>
       <use xlink:href="#DejaVuSans-2212" transform="translate(128.203125 39.046875) scale(0.7)"/>
       <use xlink:href="#DejaVuSans-33" transform="translate(186.855469 39.046875) scale(0.7)"/>
      </g>
     </g>
    </g>
    <g id="ytick_2">
     <g id="line2d_2">
      <g>
       <use xlink:href="#ma41c3f6c82" x="54" y="140.3568" style="stroke: #000000; stroke-width: 0.8"/>
      </g>
     </g>
     <g id="text_3">
      <!-- $\mathdefault{10^{-2}}$ -->
      <g transform="translate(23.5 144.156019) scale(0.1 -0.1)">
       <defs>
        <path id="DejaVuSans-32" d="M 1228 531 
L 3431 531 
L 3431 0 
L 469 0 
L 469 531 
Q 828 903 1448 1529 
Q 2069 2156 2228 2338 
Q 2531 2678 2651 2914 
Q 2772 3150 2772 3378 
Q 2772 3750 2511 3984 
Q 2250 4219 1831 4219 
Q 1534 4219 1204 4116 
Q 875 4013 500 3803 
L 500 4441 
Q 881 4594 1212 4672 
Q 1544 4750 1819 4750 
Q 2544 4750 2975 4387 
Q 3406 4025 3406 3419 
Q 3406 3131 3298 2873 
Q 3191 2616 2906 2266 
Q 2828 2175 2409 1742 
Q 1991 1309 1228 531 
z
" transform="scale(0.015625)"/>
       </defs>
       <use xlink:href="#DejaVuSans-31" transform="translate(0 0.765625)"/>
       <use xlink:href="#DejaVuSans-30" transform="translate(63.623047 0.765625)"/>
       <use xlink:href="#DejaVuSans-2212" transform="translate(128.203125 39.046875) scale(0.7)"/>
       <use xlink:href="#DejaVuSans-32" transform="translate(186.855469 39.046875) scale(0.7)"/>
      </g>
     </g>
    </g>
    <g id="ytick_3">
     <g id="line2d_3">
      <g>
       <use xlink:href="#ma41c3f6c82" x="54" y="113.5296" style="stroke: #000000; stroke-width: 0.8"/>
      </g>
     </g>
     <g id="text_4">
      <!-- $\mathdefault{10^{-1}}$ -->
      <g transform="translate(23.5 117.328819) scale(0.1 -0.1)">
       <use xlink:href="#DejaVuSans-31" transform="translate(0 0.684375)"/>
       <use xlink:href="#DejaVuSans-30" transform="translate(63.623047 0.684375)"/>
       <use xlink:href="#DejaVuSans-2212" transform="translate(128.203125 38.965625) scale(0.7)"/>
       <use xlink:href="#DejaVuSans-31" transform="translate(186.855469 38.965625) scale(0.7)"/>
      </g>
     </g>
    </g>
    <g id="ytick_4">
     <g id="line2d_4">
      <g>
       <use xlink:href="#ma41c3f6c82" x="54" y="86.7024" style="stroke: #000000; stroke-width: 0.8"/>
      </g>
     </g>
     <g id="text_5">
      <!-- $\mathdefault{10^{0}}$ -->
      <g transform="translate(29.4 90.501619) scale(0.1 -0.1)">
       <use xlink:href="#DejaVuSans-31" transform="translate(0 0.765625)"/>
       <use xlink:href="#DejaVuSans-30" transform="translate(63.623047 0.765625)"/>
       <use xlink:href="#DejaVuSans-30" transform="translate(128.203125 39.046875) scale(0.7)"/>
      </g>
     </g>
    </g>
    <g id="ytick_5">
     <g id="line2d_5">
      <g>
       <use xlink:href="#ma41c3f6c82" x="54" y="59.8752" style="stroke: #000000; stroke-width: 0.8"/>
      </g>
     </g>
     <g id="text_6">
      <!-- $\mathdefault{10^{1}}$ -->
      <g transform="translate(29.4 63.674419) scale(0.1 -0.1)">
       <use xlink:href="#DejaVuSans-31" transform="translate(0 0.684375)"/>
       <use xlink:href="#DejaVuSans-30" transform="translate(63.623047 0.684375)"/>
       <use xlink:href="#DejaVuSans-31" transform="translate(128.203125 38.965625) scale(0.7)"/>
      </g>
     </g>
    </g>
    <g id="ytick_6">
     <g id="line2d_6">
      <g>
       <use xlink:href="#ma41c3f6c82" x="54" y="33.048" style="stroke: #000000; stroke-width: 0.8"/>
      </g>
     </g>
     <g id="text_7">
      <!-- $\mathdefault{10^{2}}$ -->
      <g transform="translate(29.4 36.847219) scale(0.1 -0.1)">
       <use xlink:href="#DejaVuSans-31" transform="translate(0 0.765625)"/>
       <use xlink:href="#DejaVuSans-30" transform="translate(63.623047 0.765625)"/>
       <use xlink:href="#DejaVuSans-32" transform="translate(128.203125 39.046875) scale(0.7)"/>
      </g>
     </g>
    </g>
    <g id="ytick_7">
     <g id="line2d_7">
      <defs>
       <path id="m9920c68f4c" d="M 0 0 
L -2 0 
" style="stroke: #000000; stroke-width: 0.6"/>
      </defs>
      <g>
       <use xlink:href="#m9920c68f4c" x="54" y="159.108208" style="stroke: #000000; stroke-width: 0.6"/>
      </g>
     </g>
    </g>
    <g id="ytick_8">
     <g id="line2d_8">
      <g>
       <use xlink:href="#m9920c68f4c" x="54" y="154.384173" style="stroke: #000000; stroke-width: 0.6"/>
      </g>
     </g>
    </g>
    <g id="ytick_9">
     <g id="line2d_9">
      <g>
       <use xlink:href="#m9920c68f4c" x="54" y="151.032416" style="stroke: #000000; stroke-width: 0.6"/>
      </g>
     </g>
    </g>
    <g id="ytick_10">
     <g id="line2d_10">
      <g>
       <use xlink:href="#m9920c68f4c" x="54" y="148.432592" style="stroke: #000000; stroke-width: 0.6"/>
      </g>
     </g>
    </g>
    <g id="ytick_11">
     <g id="line2d_11">
      <g>
       <use xlink:href="#m9920c68f4c" x="54" y="146.308381" style="stroke: #000000; stroke-width: 0.6"/>
      </g>
     </g>
    </g>
    <g id="ytick_12">
     <g id="line2d_12">
      <g>
       <use xlink:href="#m9920c68f4c" x="54" y="144.512386" style="stroke: #000000; stroke-width: 0.6"/>
      </g>
     </g>
    </g>
    <g id="ytick_13">
     <g id="line2d_13">
      <g>
       <use xlink:href="#m9920c68f4c" x="54" y="142.956624" style="stroke: #000000; stroke-width: 0.6"/>
      </g>
     </g>
    </g>
    <g id="ytick_14">
     <g id="line2d_14">
      <g>
       <use xlink:href="#m9920c68f4c" x="54" y="141.584345" style="stroke: #000000; stroke-width: 0.6"/>
      </g>
     </g>
    </g>
    <g id="ytick_15">
     <g id="line2d_15">
      <g>
       <use xlink:href="#m9920c68f4c" x="54" y="132.281008" style="stroke: #000000; stroke-width: 0.6"/>
      </g>
     </g>
    </g>
    <g id="ytick_16">
     <g id="line2d_16">
      <g>
       <use xlink:href="#m9920c68f4c" x="54" y="127.556973" style="stroke: #000000; stroke-width: 0.6"/>
      </g>
     </g>
    </g>
    <g id="ytick_17">
     <g id="line2d_17">
      <g>
       <use xlink:href="#m9920c68f4c" x="54" y="124.205216" style="stroke: #000000; stroke-width: 0.6"/>
      </g>
     </g>
    </g>
    <g id="ytick_18">
     <g id="line2d_18">
      <g>
       <use xlink:href="#m9920c68f4c" x="54" y="121.605392" style="stroke: #000000; stroke-width: 0.6"/>
      </g>
     </g>
    </g>
    <g id="ytick_19">
     <g id="line2d_19">
      <g>
       <use xlink:href="#m9920c68f4c" x="54" y="119.481181" style="stroke: #000000; stroke-width: 0.6"/>
      </g>
     </g>
    </g>
    <g id="ytick_20">
     <g id="line2d_20">
      <g>
       <use xlink:href="#m9920c68f4c" x="54" y="117.685186" style="stroke: #000000; stroke-width: 0.6"/>
      </g>
     </g>
    </g>
    <g id="ytick_21">
     <g id="line2d_21">
      <g>
       <use xlink:href="#m9920c68f4c" x="54" y="116.129424" style="stroke: #000000; stroke-width: 0.6"/>
      </g>
     </g>
    </g>
    <g id="ytick_22">
     <g id="line2d_22">
      <g>
       <use xlink:href="#m9920c68f4c" x="54" y="114.757145" style="stroke: #000000; stroke-width: 0.6"/>
      </g>
     </g>
    </g>
    <g id="ytick_23">
     <g id="line2d_23">
      <g>
       <use xlink:href="#m9920c68f4c" x="54" y="105.453808" style="stroke: #000000; stroke-width: 0.6"/>
      </g>
     </g>
    </g>
    <g id="ytick_24">
     <g id="line2d_24">
      <g>
       <use xlink:href="#m9920c68f4c" x="54" y="100.729773" style="stroke: #000000; stroke-width: 0.6"/>
      </g>
     </g>
    </g>
    <g id="ytick_25">
     <g id="line2d_25">
      <g>
       <use xlink:href="#m9920c68f4c" x="54" y="97.378016" style="stroke: #000000; stroke-width: 0.6"/>
      </g>
     </g>
    </g>
    <g id="ytick_26">
     <g id="line2d_26">
      <g>
       <use xlink:href="#m9920c68f4c" x="54" y="94.778192" style="stroke: #000000; stroke-width: 0.6"/>
      </g>
     </g>
    </g>
    <g id="ytick_27">
     <g id="line2d_27">
      <g>
       <use xlink:href="#m9920c68f4c" x="54" y="92.653981" style="stroke: #000000; stroke-width: 0.6"/>
      </g>
     </g>
    </g>
    <g id="ytick_28">
     <g id="line2d_28">
      <g>
       <use xlink:href="#m9920c68f4c" x="54" y="90.857986" style="stroke: #000000; stroke-width: 0.6"/>
      </g>
     </g>
    </g>
    <g id="ytick_29">
     <g id="line2d_29">
      <g>
       <use xlink:href="#m9920c68f4c" x="54" y="89.302224" style="stroke: #000000; stroke-width: 0.6"/>
      </g>
     </g>
    </g>
    <g id="ytick_30">
     <g id="line2d_30">
      <g>
       <use xlink:href="#m9920c68f4c" x="54" y="87.929945" style="stroke: #000000; stroke-width: 0.6"/>
      </g>
     </g>
    </g>
    <g id="ytick_31">
     <g id="line2d_31">
      <g>
       <use xlink:href="#m9920c68f4c" x="54" y="78.626608" style="stroke: #000000; stroke-width: 0.6"/>
      </g>
     </g>
    </g>
    <g id="ytick_32">
     <g id="line2d_32">
      <g>
       <use xlink:href="#m9920c68f4c" x="54" y="73.902573" style="stroke: #000000; stroke-width: 0.6"/>
      </g>
     </g>
    </g>
    <g id="ytick_33">
     <g id="line2d_33">
      <g>
       <use xlink:href="#m9920c68f4c" x="54" y="70.550816" style="stroke: #000000; stroke-width: 0.6"/>
      </g>
     </g>
    </g>
    <g id="ytick_34">
     <g id="line2d_34">
      <g>
       <use xlink:href="#m9920c68f4c" x="54" y="67.950992" style="stroke: #000000; stroke-width: 0.6"/>
      </g>
     </g>
    </g>
    <g id="ytick_35">
     <g id="line2d_35">
      <g>
       <use xlink:href="#m9920c68f4c" x="54" y="65.826781" style="stroke: #000000; stroke-width: 0.6"/>
      </g>
     </g>
    </g>
    <g id="ytick_36">
     <g id="line2d_36">
      <g>
       <use xlink:href="#m9920c68f4c" x="54" y="64.030786" style="stroke: #000000; stroke-width: 0.6"/>
      </g>
     </g>
    </g>
    <g id="ytick_37">
     <g id="line2d_37">
      <g>
       <use xlink:href="#m9920c68f4c" x="54" y="62.475024" style="stroke: #000000; stroke-width: 0.6"/>
      </g>
     </g>
    </g>
    <g id="ytick_38">
     <g id="line2d_38">
      <g>
       <use xlink:href="#m9920c68f4c" x="54" y="61.102745" style="stroke: #000000; stroke-width: 0.6"/>
      </g>
     </g>
    </g>
    <g id="ytick_39">
     <g id="line2d_39">
      <g>
       <use xlink:href="#m9920c68f4c" x="54" y="51.799408" style="stroke: #000000; stroke-width: 0.6"/>
      </g>
     </g>
    </g>
    <g id="ytick_40">
     <g id="line2d_40">
      <g>
       <use xlink:href="#m9920c68f4c" x="54" y="47.075373" style="stroke: #000000; stroke-width: 0.6"/>
      </g>
     </g>
    </g>
    <g id="ytick_41">
     <g id="line2d_41">
      <g>
       <use xlink:href="#m9920c68f4c" x="54" y="43.723616" style="stroke: #000000; stroke-width: 0.6"/>
      </g>
     </g>
    </g>
    <g id="ytick_42">
     <g id="line2d_42">
      <g>
       <use xlink:href="#m9920c68f4c" x="54" y="41.123792" style="stroke: #000000; stroke-width: 0.6"/>
      </g>
     </g>
    </g>
    <g id="ytick_43">
     <g id="line2d_43">
      <g>
       <use xlink:href="#m9920c68f4c" x="54" y="38.999581" style="stroke: #000000; stroke-width: 0.6"/>
      </g>
     </g>
    </g>
    <g id="ytick_44">
     <g id="line2d_44">
      <g>
       <use xlink:href="#m9920c68f4c" x="54" y="37.203586" style="stroke: #000000; stroke-width: 0.6"/>
      </g>
     </g>
    </g>
    <g id="ytick_45">
     <g id="line2d_45">
      <g>
       <use xlink:href="#m9920c68f4c" x="54" y="35.647824" style="stroke: #000000; stroke-width: 0.6"/>
      </g>
     </g>
    </g>
    <g id="ytick_46">
     <g id="line2d_46">
      <g>
       <use xlink:href="#m9920c68f4c" x="54" y="34.275545" style="stroke: #000000; stroke-width: 0.6"/>
      </g>
     </g>
    </g>
    <g id="text_8">
     <!-- MSE -->
     <g transform="translate(16.588437 115.022719) rotate(-90) scale(0.14 -0.14)">
      <defs>
       <path id="DejaVuSans-4d" d="M 628 4666 
L 1569 4666 
L 2759 1491 
L 3956 4666 
L 4897 4666 
L 4897 0 
L 4281 0 
L 4281 4097 
L 3078 897 
L 2444 897 
L 1241 4097 
L 1241 0 
L 628 0 
L 628 4666 
z
" transform="scale(0.015625)"/>
       <path id="DejaVuSans-53" d="M 3425 4513 
L 3425 3897 
Q 3066 4069 2747 4153 
Q 2428 4238 2131 4238 
Q 1616 4238 1336 4038 
Q 1056 3838 1056 3469 
Q 1056 3159 1242 3001 
Q 1428 2844 1947 2747 
L 2328 2669 
Q 3034 2534 3370 2195 
Q 3706 1856 3706 1288 
Q 3706 609 3251 259 
Q 2797 -91 1919 -91 
Q 1588 -91 1214 -16 
Q 841 59 441 206 
L 441 856 
Q 825 641 1194 531 
Q 1563 422 1919 422 
Q 2459 422 2753 634 
Q 3047 847 3047 1241 
Q 3047 1584 2836 1778 
Q 2625 1972 2144 2069 
L 1759 2144 
Q 1053 2284 737 2584 
Q 422 2884 422 3419 
Q 422 4038 858 4394 
Q 1294 4750 2059 4750 
Q 2388 4750 2728 4690 
Q 3069 4631 3425 4513 
z
" transform="scale(0.015625)"/>
       <path id="DejaVuSans-45" d="M 628 4666 
L 3578 4666 
L 3578 4134 
L 1259 4134 
L 1259 2753 
L 3481 2753 
L 3481 2222 
L 1259 2222 
L 1259 531 
L 3634 531 
L 3634 0 
L 628 0 
L 628 4666 
z
" transform="scale(0.015625)"/>
      </defs>
      <use xlink:href="#DejaVuSans-4d"/>
      <use xlink:href="#DejaVuSans-53" x="86.279297"/>
      <use xlink:href="#DejaVuSans-45" x="149.755859"/>
     </g>
    </g>
   </g>
   <g id="line2d_47">
    <path d="M 67.848365 159.46748 
L 69.656245 146.026297 
L 71.464126 129.138474 
L 73.272006 128.81494 
L 76.887767 128.389623 
L 78.695648 126.331043 
L 82.311409 125.894789 
L 84.119289 123.92747 
L 89.542931 123.656551 
L 91.350811 122.830504 
L 94.966572 122.716057 
L 96.774453 122.526069 
L 98.582333 122.489934 
L 104.005975 122.052848 
L 105.813855 121.739854 
L 109.429616 121.364239 
L 111.237497 120.662929 
L 113.045377 120.64689 
L 116.661138 120.335206 
L 118.469019 119.597619 
L 122.08478 118.648577 
L 123.89266 118.433783 
L 129.316302 118.296847 
L 131.124182 118.019708 
L 132.932063 117.912504 
L 134.739943 117.584648 
L 136.547824 116.664957 
L 138.355704 116.626058 
L 140.163585 115.795791 
L 141.971465 115.396963 
L 143.779346 115.352009 
L 145.587226 115.020093 
L 147.395107 113.450499 
L 149.202987 113.174824 
L 151.010868 112.600137 
L 152.818748 112.534244 
L 154.626629 112.11721 
L 156.434509 110.644818 
L 158.24239 107.36933 
L 160.05027 107.101438 
L 161.858151 106.550558 
L 169.089673 106.202327 
L 170.897553 106.061008 
L 172.705434 105.701138 
L 176.321195 105.534209 
L 179.936956 105.182605 
L 181.744836 105.126672 
L 185.360597 104.676639 
L 187.168478 104.413813 
L 188.976358 103.91715 
L 192.592119 103.735885 
L 199.823642 103.320843 
L 201.631522 103.28843 
L 203.439403 102.766793 
L 205.247283 102.54415 
L 207.055164 101.457432 
L 210.670925 101.380786 
L 212.478805 101.240499 
L 214.286686 100.736183 
L 219.710327 100.586996 
L 221.518208 99.633948 
L 223.326088 99.503538 
L 225.133969 98.827435 
L 234.173371 98.636146 
L 235.981252 97.755898 
L 237.789132 97.7431 
L 239.597013 96.025486 
L 241.404893 95.168783 
L 245.020654 94.656543 
L 246.828535 93.928949 
L 250.444296 93.713558 
L 252.252176 93.669593 
L 254.060057 93.043702 
L 257.675818 92.68914 
L 259.483698 92.139728 
L 261.291579 92.102601 
L 263.099459 91.807452 
L 264.90734 91.712477 
L 266.71522 91.449987 
L 268.523101 91.442131 
L 275.754623 90.894247 
L 277.562503 90.046906 
L 279.370384 89.941943 
L 281.178264 88.914802 
L 282.986145 88.49278 
L 284.794025 88.394936 
L 286.601906 87.739864 
L 288.409786 86.341286 
L 290.217667 85.446066 
L 292.025547 83.760877 
L 293.833428 83.273367 
L 295.641308 82.271241 
L 299.257069 81.869859 
L 301.06495 81.223041 
L 302.87283 80.061428 
L 306.488591 79.255677 
L 308.296472 79.036004 
L 310.104352 78.560794 
L 311.912233 75.793759 
L 313.720113 67.725734 
L 315.527994 67.655318 
L 317.335874 55.060953 
L 319.143755 55.060928 
L 320.951635 54.283705 
L 320.951635 54.283705 
" clip-path="url(#p8a4d24df1c)" style="fill: none; stroke: #1db8f7; stroke-width: 1.5; stroke-linecap: square"/>
   </g>
   <g id="line2d_48">
    <path d="M 67.848365 55.060953 
L 320.951635 55.060953 
" clip-path="url(#p8a4d24df1c)" style="fill: none; stroke-dasharray: 4.5,4.5; stroke-dashoffset: 0; stroke: #1db8f7; stroke-width: 1.5"/>
   </g>
   <g id="line2d_49">
    <path d="M 67.848365 62.238094 
L 320.951635 62.238094 
" clip-path="url(#p8a4d24df1c)" style="fill: none; stroke-dasharray: 4.5,4.5; stroke-dashoffset: 0; stroke: #6c17b9; stroke-width: 1.5"/>
   </g>
   <g id="patch_144">
    <path d="M 54 167.184 
L 54 33.048 
" style="fill: none; stroke: #000000; stroke-width: 0.8; stroke-linejoin: miter; stroke-linecap: square"/>
   </g>
   <g id="patch_145">
    <path d="M 334.8 167.184 
L 334.8 33.048 
" style="fill: none; stroke: #000000; stroke-width: 0.8; stroke-linejoin: miter; stroke-linecap: square"/>
   </g>
   <g id="patch_146">
    <path d="M 54 167.184 
L 334.8 167.184 
" style="fill: none; stroke: #000000; stroke-width: 0.8; stroke-linejoin: miter; stroke-linecap: square"/>
   </g>
   <g id="patch_147">
    <path d="M 54 33.048 
L 334.8 33.048 
" style="fill: none; stroke: #000000; stroke-width: 0.8; stroke-linejoin: miter; stroke-linecap: square"/>
   </g>
  </g>
  <g id="text_9">
   <!-- SARIMA Configurations For Case 1 -->
   <g transform="translate(9.0625 21.028875) scale(0.2 -0.2)">
    <defs>
     <path id="DejaVuSans-41" d="M 2188 4044 
L 1331 1722 
L 3047 1722 
L 2188 4044 
z
M 1831 4666 
L 2547 4666 
L 4325 0 
L 3669 0 
L 3244 1197 
L 1141 1197 
L 716 0 
L 50 0 
L 1831 4666 
z
" transform="scale(0.015625)"/>
     <path id="DejaVuSans-52" d="M 2841 2188 
Q 3044 2119 3236 1894 
Q 3428 1669 3622 1275 
L 4263 0 
L 3584 0 
L 2988 1197 
Q 2756 1666 2539 1819 
Q 2322 1972 1947 1972 
L 1259 1972 
L 1259 0 
L 628 0 
L 628 4666 
L 2053 4666 
Q 2853 4666 3247 4331 
Q 3641 3997 3641 3322 
Q 3641 2881 3436 2590 
Q 3231 2300 2841 2188 
z
M 1259 4147 
L 1259 2491 
L 2053 2491 
Q 2509 2491 2742 2702 
Q 2975 2913 2975 3322 
Q 2975 3731 2742 3939 
Q 2509 4147 2053 4147 
L 1259 4147 
z
" transform="scale(0.015625)"/>
     <path id="DejaVuSans-49" d="M 628 4666 
L 1259 4666 
L 1259 0 
L 628 0 
L 628 4666 
z
" transform="scale(0.015625)"/>
     <path id="DejaVuSans-46" d="M 628 4666 
L 3309 4666 
L 3309 4134 
L 1259 4134 
L 1259 2759 
L 3109 2759 
L 3109 2228 
L 1259 2228 
L 1259 0 
L 628 0 
L 628 4666 
z
" transform="scale(0.015625)"/>
    </defs>
    <use xlink:href="#DejaVuSans-53"/>
    <use xlink:href="#DejaVuSans-41" x="65.351562"/>
    <use xlink:href="#DejaVuSans-52" x="133.759766"/>
    <use xlink:href="#DejaVuSans-49" x="203.242188"/>
    <use xlink:href="#DejaVuSans-4d" x="232.734375"/>
    <use xlink:href="#DejaVuSans-41" x="319.013672"/>
    <use xlink:href="#DejaVuSans-20" x="387.421875"/>
    <use xlink:href="#DejaVuSans-43" x="419.208984"/>
    <use xlink:href="#DejaVuSans-6f" x="489.033203"/>
    <use xlink:href="#DejaVuSans-6e" x="550.214844"/>
    <use xlink:href="#DejaVuSans-66" x="613.59375"/>
    <use xlink:href="#DejaVuSans-69" x="648.798828"/>
    <use xlink:href="#DejaVuSans-67" x="676.582031"/>
    <use xlink:href="#DejaVuSans-75" x="740.058594"/>
    <use xlink:href="#DejaVuSans-72" x="803.4375"/>
    <use xlink:href="#DejaVuSans-61" x="844.550781"/>
    <use xlink:href="#DejaVuSans-74" x="905.830078"/>
    <use xlink:href="#DejaVuSans-69" x="945.039062"/>
    <use xlink:href="#DejaVuSans-6f" x="972.822266"/>
    <use xlink:href="#DejaVuSans-6e" x="1034.003906"/>
    <use xlink:href="#DejaVuSans-73" x="1097.382812"/>
    <use xlink:href="#DejaVuSans-20" x="1149.482422"/>
    <use xlink:href="#DejaVuSans-46" x="1181.269531"/>
    <use xlink:href="#DejaVuSans-6f" x="1235.164062"/>
    <use xlink:href="#DejaVuSans-72" x="1296.345703"/>
    <use xlink:href="#DejaVuSans-20" x="1337.458984"/>
    <use xlink:href="#DejaVuSans-43" x="1369.246094"/>
    <use xlink:href="#DejaVuSans-61" x="1439.070312"/>
    <use xlink:href="#DejaVuSans-73" x="1500.349609"/>
    <use xlink:href="#DejaVuSans-65" x="1552.449219"/>
    <use xlink:href="#DejaVuSans-20" x="1613.972656"/>
    <use xlink:href="#DejaVuSans-31" x="1645.759766"/>
   </g>
  </g>
 </g>
 <defs>
  <clipPath id="p8a4d24df1c">
   <rect x="54" y="33.048" width="280.8" height="134.136"/>
  </clipPath>
 </defs>
</svg>
