<?xml version="1.0" encoding="utf-8" standalone="no"?>
<!DOCTYPE svg PUBLIC "-//W3C//DTD SVG 1.1//EN"
  "http://www.w3.org/Graphics/SVG/1.1/DTD/svg11.dtd">
<svg xmlns:xlink="http://www.w3.org/1999/xlink" width="360pt" height="194.4pt" viewBox="0 0 360 194.4" xmlns="http://www.w3.org/2000/svg" version="1.1">
 <metadata>
  <rdf:RDF xmlns:dc="http://purl.org/dc/elements/1.1/" xmlns:cc="http://creativecommons.org/ns#" xmlns:rdf="http://www.w3.org/1999/02/22-rdf-syntax-ns#">
   <cc:Work>
    <dc:type rdf:resource="http://purl.org/dc/dcmitype/StillImage"/>
    <dc:date>2024-09-05T16:14:34.309162</dc:date>
    <dc:format>image/svg+xml</dc:format>
    <dc:creator>
     <cc:Agent>
      <dc:title>Matplotlib v3.9.1.post1, https://matplotlib.org/</dc:title>
     </cc:Agent>
    </dc:creator>
   </cc:Work>
  </rdf:RDF>
 </metadata>
 <defs>
  <style type="text/css">*{stroke-linejoin: round; stroke-linecap: butt}</style>
 </defs>
 <g id="figure_1">
  <g id="patch_1">
   <path d="M 0 194.4 
L 360 194.4 
L 360 0 
L 0 0 
z
" style="fill: #ffffff"/>
  </g>
  <g id="axes_1">
   <g id="patch_2">
    <path d="M 54 167.184 
L 334.8 167.184 
L 334.8 33.048 
L 54 33.048 
z
" style="fill: #ffffff"/>
   </g>
   <g id="patch_3">
    <path d="M 66.763636 33634.116 
L 71.610587 33634.116 
L 71.610587 133.913872 
L 66.763636 133.913872 
z
" clip-path="url(#p55434190f8)" style="fill: #6c17b9"/>
   </g>
   <g id="patch_4">
    <path d="M 70.802762 33634.116 
L 75.649712 33634.116 
L 75.649712 132.152923 
L 70.802762 132.152923 
z
" clip-path="url(#p55434190f8)" style="fill: #6c17b9"/>
   </g>
   <g id="patch_5">
    <path d="M 74.841887 33634.116 
L 79.688838 33634.116 
L 79.688838 128.002186 
L 74.841887 128.002186 
z
" clip-path="url(#p55434190f8)" style="fill: #6c17b9"/>
   </g>
   <g id="patch_6">
    <path d="M 78.881013 33634.116 
L 83.727963 33634.116 
L 83.727963 123.671679 
L 78.881013 123.671679 
z
" clip-path="url(#p55434190f8)" style="fill: #6c17b9"/>
   </g>
   <g id="patch_7">
    <path d="M 82.920138 33634.116 
L 87.767089 33634.116 
L 87.767089 116.839693 
L 82.920138 116.839693 
z
" clip-path="url(#p55434190f8)" style="fill: #6c17b9"/>
   </g>
   <g id="patch_8">
    <path d="M 86.959264 33634.116 
L 91.806214 33634.116 
L 91.806214 126.426834 
L 86.959264 126.426834 
z
" clip-path="url(#p55434190f8)" style="fill: #6c17b9"/>
   </g>
   <g id="patch_9">
    <path d="M 90.998389 33634.116 
L 95.845339 33634.116 
L 95.845339 126.066372 
L 90.998389 126.066372 
z
" clip-path="url(#p55434190f8)" style="fill: #6c17b9"/>
   </g>
   <g id="patch_10">
    <path d="M 95.037514 33634.116 
L 99.884465 33634.116 
L 99.884465 125.124829 
L 95.037514 125.124829 
z
" clip-path="url(#p55434190f8)" style="fill: #6c17b9"/>
   </g>
   <g id="patch_11">
    <path d="M 99.07664 33634.116 
L 103.92359 33634.116 
L 103.92359 114.24949 
L 99.07664 114.24949 
z
" clip-path="url(#p55434190f8)" style="fill: #6c17b9"/>
   </g>
   <g id="patch_12">
    <path d="M 103.115765 33634.116 
L 107.962716 33634.116 
L 107.962716 118.833765 
L 103.115765 118.833765 
z
" clip-path="url(#p55434190f8)" style="fill: #6c17b9"/>
   </g>
   <g id="patch_13">
    <path d="M 107.154891 33634.116 
L 112.001841 33634.116 
L 112.001841 130.365656 
L 107.154891 130.365656 
z
" clip-path="url(#p55434190f8)" style="fill: #6c17b9"/>
   </g>
   <g id="patch_14">
    <path d="M 111.194016 33634.116 
L 116.040967 33634.116 
L 116.040967 125.104695 
L 111.194016 125.104695 
z
" clip-path="url(#p55434190f8)" style="fill: #6c17b9"/>
   </g>
   <g id="patch_15">
    <path d="M 115.233142 33634.116 
L 120.080092 33634.116 
L 120.080092 123.190152 
L 115.233142 123.190152 
z
" clip-path="url(#p55434190f8)" style="fill: #6c17b9"/>
   </g>
   <g id="patch_16">
    <path d="M 119.272267 33634.116 
L 124.119217 33634.116 
L 124.119217 132.16126 
L 119.272267 132.16126 
z
" clip-path="url(#p55434190f8)" style="fill: #6c17b9"/>
   </g>
   <g id="patch_17">
    <path d="M 123.311392 33634.116 
L 128.158343 33634.116 
L 128.158343 116.883188 
L 123.311392 116.883188 
z
" clip-path="url(#p55434190f8)" style="fill: #6c17b9"/>
   </g>
   <g id="patch_18">
    <path d="M 127.350518 33634.116 
L 132.197468 33634.116 
L 132.197468 117.189139 
L 127.350518 117.189139 
z
" clip-path="url(#p55434190f8)" style="fill: #6c17b9"/>
   </g>
   <g id="patch_19">
    <path d="M 131.389643 33634.116 
L 136.236594 33634.116 
L 136.236594 120.844079 
L 131.389643 120.844079 
z
" clip-path="url(#p55434190f8)" style="fill: #6c17b9"/>
   </g>
   <g id="patch_20">
    <path d="M 135.428769 33634.116 
L 140.275719 33634.116 
L 140.275719 109.357814 
L 135.428769 109.357814 
z
" clip-path="url(#p55434190f8)" style="fill: #6c17b9"/>
   </g>
   <g id="patch_21">
    <path d="M 139.467894 33634.116 
L 144.314845 33634.116 
L 144.314845 114.20705 
L 139.467894 114.20705 
z
" clip-path="url(#p55434190f8)" style="fill: #6c17b9"/>
   </g>
   <g id="patch_22">
    <path d="M 143.50702 33634.116 
L 148.35397 33634.116 
L 148.35397 110.829775 
L 143.50702 110.829775 
z
" clip-path="url(#p55434190f8)" style="fill: #6c17b9"/>
   </g>
   <g id="patch_23">
    <path d="M 147.546145 33634.116 
L 152.393096 33634.116 
L 152.393096 123.740332 
L 147.546145 123.740332 
z
" clip-path="url(#p55434190f8)" style="fill: #6c17b9"/>
   </g>
   <g id="patch_24">
    <path d="M 151.58527 33634.116 
L 156.432221 33634.116 
L 156.432221 117.508245 
L 151.58527 117.508245 
z
" clip-path="url(#p55434190f8)" style="fill: #6c17b9"/>
   </g>
   <g id="patch_25">
    <path d="M 155.624396 33634.116 
L 160.471346 33634.116 
L 160.471346 129.801922 
L 155.624396 129.801922 
z
" clip-path="url(#p55434190f8)" style="fill: #6c17b9"/>
   </g>
   <g id="patch_26">
    <path d="M 159.663521 33634.116 
L 164.510472 33634.116 
L 164.510472 127.389775 
L 159.663521 127.389775 
z
" clip-path="url(#p55434190f8)" style="fill: #6c17b9"/>
   </g>
   <g id="patch_27">
    <path d="M 163.702647 33634.116 
L 168.549597 33634.116 
L 168.549597 116.089894 
L 163.702647 116.089894 
z
" clip-path="url(#p55434190f8)" style="fill: #6c17b9"/>
   </g>
   <g id="patch_28">
    <path d="M 167.741772 33634.116 
L 172.588723 33634.116 
L 172.588723 119.80376 
L 167.741772 119.80376 
z
" clip-path="url(#p55434190f8)" style="fill: #6c17b9"/>
   </g>
   <g id="patch_29">
    <path d="M 171.780898 33634.116 
L 176.627848 33634.116 
L 176.627848 115.692916 
L 171.780898 115.692916 
z
" clip-path="url(#p55434190f8)" style="fill: #6c17b9"/>
   </g>
   <g id="patch_30">
    <path d="M 175.820023 33634.116 
L 180.666974 33634.116 
L 180.666974 114.103699 
L 175.820023 114.103699 
z
" clip-path="url(#p55434190f8)" style="fill: #6c17b9"/>
   </g>
   <g id="patch_31">
    <path d="M 179.859148 33634.116 
L 184.706099 33634.116 
L 184.706099 95.244839 
L 179.859148 95.244839 
z
" clip-path="url(#p55434190f8)" style="fill: #6c17b9"/>
   </g>
   <g id="patch_32">
    <path d="M 183.898274 33634.116 
L 188.745224 33634.116 
L 188.745224 105.130635 
L 183.898274 105.130635 
z
" clip-path="url(#p55434190f8)" style="fill: #6c17b9"/>
   </g>
   <g id="patch_33">
    <path d="M 187.937399 33634.116 
L 192.78435 33634.116 
L 192.78435 125.235876 
L 187.937399 125.235876 
z
" clip-path="url(#p55434190f8)" style="fill: #6c17b9"/>
   </g>
   <g id="patch_34">
    <path d="M 191.976525 33634.116 
L 196.823475 33634.116 
L 196.823475 110.354457 
L 191.976525 110.354457 
z
" clip-path="url(#p55434190f8)" style="fill: #6c17b9"/>
   </g>
   <g id="patch_35">
    <path d="M 196.01565 33634.116 
L 200.862601 33634.116 
L 200.862601 98.472502 
L 196.01565 98.472502 
z
" clip-path="url(#p55434190f8)" style="fill: #6c17b9"/>
   </g>
   <g id="patch_36">
    <path d="M 200.054776 33634.116 
L 204.901726 33634.116 
L 204.901726 116.630453 
L 200.054776 116.630453 
z
" clip-path="url(#p55434190f8)" style="fill: #6c17b9"/>
   </g>
   <g id="patch_37">
    <path d="M 204.093901 33634.116 
L 208.940852 33634.116 
L 208.940852 133.093895 
L 204.093901 133.093895 
z
" clip-path="url(#p55434190f8)" style="fill: #6c17b9"/>
   </g>
   <g id="patch_38">
    <path d="M 208.133026 33634.116 
L 212.979977 33634.116 
L 212.979977 124.739304 
L 208.133026 124.739304 
z
" clip-path="url(#p55434190f8)" style="fill: #6c17b9"/>
   </g>
   <g id="patch_39">
    <path d="M 212.172152 33634.116 
L 217.019102 33634.116 
L 217.019102 110.87405 
L 212.172152 110.87405 
z
" clip-path="url(#p55434190f8)" style="fill: #6c17b9"/>
   </g>
   <g id="patch_40">
    <path d="M 216.211277 33634.116 
L 221.058228 33634.116 
L 221.058228 117.165394 
L 216.211277 117.165394 
z
" clip-path="url(#p55434190f8)" style="fill: #6c17b9"/>
   </g>
   <g id="patch_41">
    <path d="M 220.250403 33634.116 
L 225.097353 33634.116 
L 225.097353 119.039861 
L 220.250403 119.039861 
z
" clip-path="url(#p55434190f8)" style="fill: #6c17b9"/>
   </g>
   <g id="patch_42">
    <path d="M 224.289528 33634.116 
L 229.136479 33634.116 
L 229.136479 123.38523 
L 224.289528 123.38523 
z
" clip-path="url(#p55434190f8)" style="fill: #6c17b9"/>
   </g>
   <g id="patch_43">
    <path d="M 228.328654 33634.116 
L 233.175604 33634.116 
L 233.175604 106.672265 
L 228.328654 106.672265 
z
" clip-path="url(#p55434190f8)" style="fill: #6c17b9"/>
   </g>
   <g id="patch_44">
    <path d="M 232.367779 33634.116 
L 237.21473 33634.116 
L 237.21473 119.504602 
L 232.367779 119.504602 
z
" clip-path="url(#p55434190f8)" style="fill: #6c17b9"/>
   </g>
   <g id="patch_45">
    <path d="M 236.406904 33634.116 
L 241.253855 33634.116 
L 241.253855 110.650684 
L 236.406904 110.650684 
z
" clip-path="url(#p55434190f8)" style="fill: #6c17b9"/>
   </g>
   <g id="patch_46">
    <path d="M 240.44603 33634.116 
L 245.29298 33634.116 
L 245.29298 112.033644 
L 240.44603 112.033644 
z
" clip-path="url(#p55434190f8)" style="fill: #6c17b9"/>
   </g>
   <g id="patch_47">
    <path d="M 244.485155 33634.116 
L 249.332106 33634.116 
L 249.332106 118.569912 
L 244.485155 118.569912 
z
" clip-path="url(#p55434190f8)" style="fill: #6c17b9"/>
   </g>
   <g id="patch_48">
    <path d="M 248.524281 33634.116 
L 253.371231 33634.116 
L 253.371231 109.147138 
L 248.524281 109.147138 
z
" clip-path="url(#p55434190f8)" style="fill: #6c17b9"/>
   </g>
   <g id="patch_49">
    <path d="M 252.563406 33634.116 
L 257.410357 33634.116 
L 257.410357 113.59323 
L 252.563406 113.59323 
z
" clip-path="url(#p55434190f8)" style="fill: #6c17b9"/>
   </g>
   <g id="patch_50">
    <path d="M 256.602532 33634.116 
L 261.449482 33634.116 
L 261.449482 107.936703 
L 256.602532 107.936703 
z
" clip-path="url(#p55434190f8)" style="fill: #6c17b9"/>
   </g>
   <g id="patch_51">
    <path d="M 260.641657 33634.116 
L 265.488608 33634.116 
L 265.488608 105.053318 
L 260.641657 105.053318 
z
" clip-path="url(#p55434190f8)" style="fill: #6c17b9"/>
   </g>
   <g id="patch_52">
    <path d="M 264.680783 33634.116 
L 269.527733 33634.116 
L 269.527733 99.015002 
L 264.680783 99.015002 
z
" clip-path="url(#p55434190f8)" style="fill: #6c17b9"/>
   </g>
   <g id="patch_53">
    <path d="M 268.719908 33634.116 
L 273.566858 33634.116 
L 273.566858 111.250514 
L 268.719908 111.250514 
z
" clip-path="url(#p55434190f8)" style="fill: #6c17b9"/>
   </g>
   <g id="patch_54">
    <path d="M 272.759033 33634.116 
L 277.605984 33634.116 
L 277.605984 110.845274 
L 272.759033 110.845274 
z
" clip-path="url(#p55434190f8)" style="fill: #6c17b9"/>
   </g>
   <g id="patch_55">
    <path d="M 276.798159 33634.116 
L 281.645109 33634.116 
L 281.645109 121.861791 
L 276.798159 121.861791 
z
" clip-path="url(#p55434190f8)" style="fill: #6c17b9"/>
   </g>
   <g id="patch_56">
    <path d="M 280.837284 33634.116 
L 285.684235 33634.116 
L 285.684235 108.049382 
L 280.837284 108.049382 
z
" clip-path="url(#p55434190f8)" style="fill: #6c17b9"/>
   </g>
   <g id="patch_57">
    <path d="M 284.87641 33634.116 
L 289.72336 33634.116 
L 289.72336 111.309882 
L 284.87641 111.309882 
z
" clip-path="url(#p55434190f8)" style="fill: #6c17b9"/>
   </g>
   <g id="patch_58">
    <path d="M 288.915535 33634.116 
L 293.762486 33634.116 
L 293.762486 121.249653 
L 288.915535 121.249653 
z
" clip-path="url(#p55434190f8)" style="fill: #6c17b9"/>
   </g>
   <g id="patch_59">
    <path d="M 292.954661 33634.116 
L 297.801611 33634.116 
L 297.801611 114.274439 
L 292.954661 114.274439 
z
" clip-path="url(#p55434190f8)" style="fill: #6c17b9"/>
   </g>
   <g id="patch_60">
    <path d="M 296.993786 33634.116 
L 301.840736 33634.116 
L 301.840736 115.399462 
L 296.993786 115.399462 
z
" clip-path="url(#p55434190f8)" style="fill: #6c17b9"/>
   </g>
   <g id="patch_61">
    <path d="M 301.032911 33634.116 
L 305.879862 33634.116 
L 305.879862 120.379666 
L 301.032911 120.379666 
z
" clip-path="url(#p55434190f8)" style="fill: #6c17b9"/>
   </g>
   <g id="patch_62">
    <path d="M 305.072037 33634.116 
L 309.918987 33634.116 
L 309.918987 108.93149 
L 305.072037 108.93149 
z
" clip-path="url(#p55434190f8)" style="fill: #6c17b9"/>
   </g>
   <g id="patch_63">
    <path d="M 309.111162 33634.116 
L 313.958113 33634.116 
L 313.958113 113.141167 
L 309.111162 113.141167 
z
" clip-path="url(#p55434190f8)" style="fill: #6c17b9"/>
   </g>
   <g id="patch_64">
    <path d="M 313.150288 33634.116 
L 317.997238 33634.116 
L 317.997238 113.364835 
L 313.150288 113.364835 
z
" clip-path="url(#p55434190f8)" style="fill: #6c17b9"/>
   </g>
   <g id="patch_65">
    <path d="M 317.189413 33634.116 
L 322.036364 33634.116 
L 322.036364 114.597675 
L 317.189413 114.597675 
z
" clip-path="url(#p55434190f8)" style="fill: #6c17b9"/>
   </g>
   <g id="matplotlib.axis_1">
    <g id="text_1">
     <!-- Hyperparameter Configurations -->
     <g transform="translate(83.065 187.821812) scale(0.14 -0.14)">
      <defs>
       <path id="DejaVuSans-48" d="M 628 4666 
L 1259 4666 
L 1259 2753 
L 3553 2753 
L 3553 4666 
L 4184 4666 
L 4184 0 
L 3553 0 
L 3553 2222 
L 1259 2222 
L 1259 0 
L 628 0 
L 628 4666 
z
" transform="scale(0.015625)"/>
       <path id="DejaVuSans-79" d="M 2059 -325 
Q 1816 -950 1584 -1140 
Q 1353 -1331 966 -1331 
L 506 -1331 
L 506 -850 
L 844 -850 
Q 1081 -850 1212 -737 
Q 1344 -625 1503 -206 
L 1606 56 
L 191 3500 
L 800 3500 
L 1894 763 
L 2988 3500 
L 3597 3500 
L 2059 -325 
z
" transform="scale(0.015625)"/>
       <path id="DejaVuSans-70" d="M 1159 525 
L 1159 -1331 
L 581 -1331 
L 581 3500 
L 1159 3500 
L 1159 2969 
Q 1341 3281 1617 3432 
Q 1894 3584 2278 3584 
Q 2916 3584 3314 3078 
Q 3713 2572 3713 1747 
Q 3713 922 3314 415 
Q 2916 -91 2278 -91 
Q 1894 -91 1617 61 
Q 1341 213 1159 525 
z
M 3116 1747 
Q 3116 2381 2855 2742 
Q 2594 3103 2138 3103 
Q 1681 3103 1420 2742 
Q 1159 2381 1159 1747 
Q 1159 1113 1420 752 
Q 1681 391 2138 391 
Q 2594 391 2855 752 
Q 3116 1113 3116 1747 
z
" transform="scale(0.015625)"/>
       <path id="DejaVuSans-65" d="M 3597 1894 
L 3597 1613 
L 953 1613 
Q 991 1019 1311 708 
Q 1631 397 2203 397 
Q 2534 397 2845 478 
Q 3156 559 3463 722 
L 3463 178 
Q 3153 47 2828 -22 
Q 2503 -91 2169 -91 
Q 1331 -91 842 396 
Q 353 884 353 1716 
Q 353 2575 817 3079 
Q 1281 3584 2069 3584 
Q 2775 3584 3186 3129 
Q 3597 2675 3597 1894 
z
M 3022 2063 
Q 3016 2534 2758 2815 
Q 2500 3097 2075 3097 
Q 1594 3097 1305 2825 
Q 1016 2553 972 2059 
L 3022 2063 
z
" transform="scale(0.015625)"/>
       <path id="DejaVuSans-72" d="M 2631 2963 
Q 2534 3019 2420 3045 
Q 2306 3072 2169 3072 
Q 1681 3072 1420 2755 
Q 1159 2438 1159 1844 
L 1159 0 
L 581 0 
L 581 3500 
L 1159 3500 
L 1159 2956 
Q 1341 3275 1631 3429 
Q 1922 3584 2338 3584 
Q 2397 3584 2469 3576 
Q 2541 3569 2628 3553 
L 2631 2963 
z
" transform="scale(0.015625)"/>
       <path id="DejaVuSans-61" d="M 2194 1759 
Q 1497 1759 1228 1600 
Q 959 1441 959 1056 
Q 959 750 1161 570 
Q 1363 391 1709 391 
Q 2188 391 2477 730 
Q 2766 1069 2766 1631 
L 2766 1759 
L 2194 1759 
z
M 3341 1997 
L 3341 0 
L 2766 0 
L 2766 531 
Q 2569 213 2275 61 
Q 1981 -91 1556 -91 
Q 1019 -91 701 211 
Q 384 513 384 1019 
Q 384 1609 779 1909 
Q 1175 2209 1959 2209 
L 2766 2209 
L 2766 2266 
Q 2766 2663 2505 2880 
Q 2244 3097 1772 3097 
Q 1472 3097 1187 3025 
Q 903 2953 641 2809 
L 641 3341 
Q 956 3463 1253 3523 
Q 1550 3584 1831 3584 
Q 2591 3584 2966 3190 
Q 3341 2797 3341 1997 
z
" transform="scale(0.015625)"/>
       <path id="DejaVuSans-6d" d="M 3328 2828 
Q 3544 3216 3844 3400 
Q 4144 3584 4550 3584 
Q 5097 3584 5394 3201 
Q 5691 2819 5691 2113 
L 5691 0 
L 5113 0 
L 5113 2094 
Q 5113 2597 4934 2840 
Q 4756 3084 4391 3084 
Q 3944 3084 3684 2787 
Q 3425 2491 3425 1978 
L 3425 0 
L 2847 0 
L 2847 2094 
Q 2847 2600 2669 2842 
Q 2491 3084 2119 3084 
Q 1678 3084 1418 2786 
Q 1159 2488 1159 1978 
L 1159 0 
L 581 0 
L 581 3500 
L 1159 3500 
L 1159 2956 
Q 1356 3278 1631 3431 
Q 1906 3584 2284 3584 
Q 2666 3584 2933 3390 
Q 3200 3197 3328 2828 
z
" transform="scale(0.015625)"/>
       <path id="DejaVuSans-74" d="M 1172 4494 
L 1172 3500 
L 2356 3500 
L 2356 3053 
L 1172 3053 
L 1172 1153 
Q 1172 725 1289 603 
Q 1406 481 1766 481 
L 2356 481 
L 2356 0 
L 1766 0 
Q 1100 0 847 248 
Q 594 497 594 1153 
L 594 3053 
L 172 3053 
L 172 3500 
L 594 3500 
L 594 4494 
L 1172 4494 
z
" transform="scale(0.015625)"/>
       <path id="DejaVuSans-20" transform="scale(0.015625)"/>
       <path id="DejaVuSans-43" d="M 4122 4306 
L 4122 3641 
Q 3803 3938 3442 4084 
Q 3081 4231 2675 4231 
Q 1875 4231 1450 3742 
Q 1025 3253 1025 2328 
Q 1025 1406 1450 917 
Q 1875 428 2675 428 
Q 3081 428 3442 575 
Q 3803 722 4122 1019 
L 4122 359 
Q 3791 134 3420 21 
Q 3050 -91 2638 -91 
Q 1578 -91 968 557 
Q 359 1206 359 2328 
Q 359 3453 968 4101 
Q 1578 4750 2638 4750 
Q 3056 4750 3426 4639 
Q 3797 4528 4122 4306 
z
" transform="scale(0.015625)"/>
       <path id="DejaVuSans-6f" d="M 1959 3097 
Q 1497 3097 1228 2736 
Q 959 2375 959 1747 
Q 959 1119 1226 758 
Q 1494 397 1959 397 
Q 2419 397 2687 759 
Q 2956 1122 2956 1747 
Q 2956 2369 2687 2733 
Q 2419 3097 1959 3097 
z
M 1959 3584 
Q 2709 3584 3137 3096 
Q 3566 2609 3566 1747 
Q 3566 888 3137 398 
Q 2709 -91 1959 -91 
Q 1206 -91 779 398 
Q 353 888 353 1747 
Q 353 2609 779 3096 
Q 1206 3584 1959 3584 
z
" transform="scale(0.015625)"/>
       <path id="DejaVuSans-6e" d="M 3513 2113 
L 3513 0 
L 2938 0 
L 2938 2094 
Q 2938 2591 2744 2837 
Q 2550 3084 2163 3084 
Q 1697 3084 1428 2787 
Q 1159 2491 1159 1978 
L 1159 0 
L 581 0 
L 581 3500 
L 1159 3500 
L 1159 2956 
Q 1366 3272 1645 3428 
Q 1925 3584 2291 3584 
Q 2894 3584 3203 3211 
Q 3513 2838 3513 2113 
z
" transform="scale(0.015625)"/>
       <path id="DejaVuSans-66" d="M 2375 4863 
L 2375 4384 
L 1825 4384 
Q 1516 4384 1395 4259 
Q 1275 4134 1275 3809 
L 1275 3500 
L 2222 3500 
L 2222 3053 
L 1275 3053 
L 1275 0 
L 697 0 
L 697 3053 
L 147 3053 
L 147 3500 
L 697 3500 
L 697 3744 
Q 697 4328 969 4595 
Q 1241 4863 1831 4863 
L 2375 4863 
z
" transform="scale(0.015625)"/>
       <path id="DejaVuSans-69" d="M 603 3500 
L 1178 3500 
L 1178 0 
L 603 0 
L 603 3500 
z
M 603 4863 
L 1178 4863 
L 1178 4134 
L 603 4134 
L 603 4863 
z
" transform="scale(0.015625)"/>
       <path id="DejaVuSans-67" d="M 2906 1791 
Q 2906 2416 2648 2759 
Q 2391 3103 1925 3103 
Q 1463 3103 1205 2759 
Q 947 2416 947 1791 
Q 947 1169 1205 825 
Q 1463 481 1925 481 
Q 2391 481 2648 825 
Q 2906 1169 2906 1791 
z
M 3481 434 
Q 3481 -459 3084 -895 
Q 2688 -1331 1869 -1331 
Q 1566 -1331 1297 -1286 
Q 1028 -1241 775 -1147 
L 775 -588 
Q 1028 -725 1275 -790 
Q 1522 -856 1778 -856 
Q 2344 -856 2625 -561 
Q 2906 -266 2906 331 
L 2906 616 
Q 2728 306 2450 153 
Q 2172 0 1784 0 
Q 1141 0 747 490 
Q 353 981 353 1791 
Q 353 2603 747 3093 
Q 1141 3584 1784 3584 
Q 2172 3584 2450 3431 
Q 2728 3278 2906 2969 
L 2906 3500 
L 3481 3500 
L 3481 434 
z
" transform="scale(0.015625)"/>
       <path id="DejaVuSans-75" d="M 544 1381 
L 544 3500 
L 1119 3500 
L 1119 1403 
Q 1119 906 1312 657 
Q 1506 409 1894 409 
Q 2359 409 2629 706 
Q 2900 1003 2900 1516 
L 2900 3500 
L 3475 3500 
L 3475 0 
L 2900 0 
L 2900 538 
Q 2691 219 2414 64 
Q 2138 -91 1772 -91 
Q 1169 -91 856 284 
Q 544 659 544 1381 
z
M 1991 3584 
L 1991 3584 
z
" transform="scale(0.015625)"/>
       <path id="DejaVuSans-73" d="M 2834 3397 
L 2834 2853 
Q 2591 2978 2328 3040 
Q 2066 3103 1784 3103 
Q 1356 3103 1142 2972 
Q 928 2841 928 2578 
Q 928 2378 1081 2264 
Q 1234 2150 1697 2047 
L 1894 2003 
Q 2506 1872 2764 1633 
Q 3022 1394 3022 966 
Q 3022 478 2636 193 
Q 2250 -91 1575 -91 
Q 1294 -91 989 -36 
Q 684 19 347 128 
L 347 722 
Q 666 556 975 473 
Q 1284 391 1588 391 
Q 1994 391 2212 530 
Q 2431 669 2431 922 
Q 2431 1156 2273 1281 
Q 2116 1406 1581 1522 
L 1381 1569 
Q 847 1681 609 1914 
Q 372 2147 372 2553 
Q 372 3047 722 3315 
Q 1072 3584 1716 3584 
Q 2034 3584 2315 3537 
Q 2597 3491 2834 3397 
z
" transform="scale(0.015625)"/>
      </defs>
      <use xlink:href="#DejaVuSans-48"/>
      <use xlink:href="#DejaVuSans-79" x="75.195312"/>
      <use xlink:href="#DejaVuSans-70" x="134.375"/>
      <use xlink:href="#DejaVuSans-65" x="197.851562"/>
      <use xlink:href="#DejaVuSans-72" x="259.375"/>
      <use xlink:href="#DejaVuSans-70" x="300.488281"/>
      <use xlink:href="#DejaVuSans-61" x="363.964844"/>
      <use xlink:href="#DejaVuSans-72" x="425.244141"/>
      <use xlink:href="#DejaVuSans-61" x="466.357422"/>
      <use xlink:href="#DejaVuSans-6d" x="527.636719"/>
      <use xlink:href="#DejaVuSans-65" x="625.048828"/>
      <use xlink:href="#DejaVuSans-74" x="686.572266"/>
      <use xlink:href="#DejaVuSans-65" x="725.78125"/>
      <use xlink:href="#DejaVuSans-72" x="787.304688"/>
      <use xlink:href="#DejaVuSans-20" x="828.417969"/>
      <use xlink:href="#DejaVuSans-43" x="860.205078"/>
      <use xlink:href="#DejaVuSans-6f" x="930.029297"/>
      <use xlink:href="#DejaVuSans-6e" x="991.210938"/>
      <use xlink:href="#DejaVuSans-66" x="1054.589844"/>
      <use xlink:href="#DejaVuSans-69" x="1089.794922"/>
      <use xlink:href="#DejaVuSans-67" x="1117.578125"/>
      <use xlink:href="#DejaVuSans-75" x="1181.054688"/>
      <use xlink:href="#DejaVuSans-72" x="1244.433594"/>
      <use xlink:href="#DejaVuSans-61" x="1285.546875"/>
      <use xlink:href="#DejaVuSans-74" x="1346.826172"/>
      <use xlink:href="#DejaVuSans-69" x="1386.035156"/>
      <use xlink:href="#DejaVuSans-6f" x="1413.818359"/>
      <use xlink:href="#DejaVuSans-6e" x="1475"/>
      <use xlink:href="#DejaVuSans-73" x="1538.378906"/>
     </g>
    </g>
   </g>
   <g id="matplotlib.axis_2">
    <g id="ytick_1">
     <g id="line2d_1">
      <defs>
       <path id="m5526cf4a84" d="M 0 0 
L -3.5 0 
" style="stroke: #000000; stroke-width: 0.8"/>
      </defs>
      <g>
       <use xlink:href="#m5526cf4a84" x="54" y="167.184" style="stroke: #000000; stroke-width: 0.8"/>
      </g>
     </g>
     <g id="text_2">
      <!-- $\mathdefault{10^{-2}}$ -->
      <g transform="translate(23.5 170.983219) scale(0.1 -0.1)">
       <defs>
        <path id="DejaVuSans-31" d="M 794 531 
L 1825 531 
L 1825 4091 
L 703 3866 
L 703 4441 
L 1819 4666 
L 2450 4666 
L 2450 531 
L 3481 531 
L 3481 0 
L 794 0 
L 794 531 
z
" transform="scale(0.015625)"/>
        <path id="DejaVuSans-30" d="M 2034 4250 
Q 1547 4250 1301 3770 
Q 1056 3291 1056 2328 
Q 1056 1369 1301 889 
Q 1547 409 2034 409 
Q 2525 409 2770 889 
Q 3016 1369 3016 2328 
Q 3016 3291 2770 3770 
Q 2525 4250 2034 4250 
z
M 2034 4750 
Q 2819 4750 3233 4129 
Q 3647 3509 3647 2328 
Q 3647 1150 3233 529 
Q 2819 -91 2034 -91 
Q 1250 -91 836 529 
Q 422 1150 422 2328 
Q 422 3509 836 4129 
Q 1250 4750 2034 4750 
z
" transform="scale(0.015625)"/>
        <path id="DejaVuSans-2212" d="M 678 2272 
L 4684 2272 
L 4684 1741 
L 678 1741 
L 678 2272 
z
" transform="scale(0.015625)"/>
        <path id="DejaVuSans-32" d="M 1228 531 
L 3431 531 
L 3431 0 
L 469 0 
L 469 531 
Q 828 903 1448 1529 
Q 2069 2156 2228 2338 
Q 2531 2678 2651 2914 
Q 2772 3150 2772 3378 
Q 2772 3750 2511 3984 
Q 2250 4219 1831 4219 
Q 1534 4219 1204 4116 
Q 875 4013 500 3803 
L 500 4441 
Q 881 4594 1212 4672 
Q 1544 4750 1819 4750 
Q 2544 4750 2975 4387 
Q 3406 4025 3406 3419 
Q 3406 3131 3298 2873 
Q 3191 2616 2906 2266 
Q 2828 2175 2409 1742 
Q 1991 1309 1228 531 
z
" transform="scale(0.015625)"/>
       </defs>
       <use xlink:href="#DejaVuSans-31" transform="translate(0 0.765625)"/>
       <use xlink:href="#DejaVuSans-30" transform="translate(63.623047 0.765625)"/>
       <use xlink:href="#DejaVuSans-2212" transform="translate(128.203125 39.046875) scale(0.7)"/>
       <use xlink:href="#DejaVuSans-32" transform="translate(186.855469 39.046875) scale(0.7)"/>
      </g>
     </g>
    </g>
    <g id="ytick_2">
     <g id="line2d_2">
      <g>
       <use xlink:href="#m5526cf4a84" x="54" y="133.65" style="stroke: #000000; stroke-width: 0.8"/>
      </g>
     </g>
     <g id="text_3">
      <!-- $\mathdefault{10^{-1}}$ -->
      <g transform="translate(23.5 137.449219) scale(0.1 -0.1)">
       <use xlink:href="#DejaVuSans-31" transform="translate(0 0.684375)"/>
       <use xlink:href="#DejaVuSans-30" transform="translate(63.623047 0.684375)"/>
       <use xlink:href="#DejaVuSans-2212" transform="translate(128.203125 38.965625) scale(0.7)"/>
       <use xlink:href="#DejaVuSans-31" transform="translate(186.855469 38.965625) scale(0.7)"/>
      </g>
     </g>
    </g>
    <g id="ytick_3">
     <g id="line2d_3">
      <g>
       <use xlink:href="#m5526cf4a84" x="54" y="100.116" style="stroke: #000000; stroke-width: 0.8"/>
      </g>
     </g>
     <g id="text_4">
      <!-- $\mathdefault{10^{0}}$ -->
      <g transform="translate(29.4 103.915219) scale(0.1 -0.1)">
       <use xlink:href="#DejaVuSans-31" transform="translate(0 0.765625)"/>
       <use xlink:href="#DejaVuSans-30" transform="translate(63.623047 0.765625)"/>
       <use xlink:href="#DejaVuSans-30" transform="translate(128.203125 39.046875) scale(0.7)"/>
      </g>
     </g>
    </g>
    <g id="ytick_4">
     <g id="line2d_4">
      <g>
       <use xlink:href="#m5526cf4a84" x="54" y="66.582" style="stroke: #000000; stroke-width: 0.8"/>
      </g>
     </g>
     <g id="text_5">
      <!-- $\mathdefault{10^{1}}$ -->
      <g transform="translate(29.4 70.381219) scale(0.1 -0.1)">
       <use xlink:href="#DejaVuSans-31" transform="translate(0 0.684375)"/>
       <use xlink:href="#DejaVuSans-30" transform="translate(63.623047 0.684375)"/>
       <use xlink:href="#DejaVuSans-31" transform="translate(128.203125 38.965625) scale(0.7)"/>
      </g>
     </g>
    </g>
    <g id="ytick_5">
     <g id="line2d_5">
      <g>
       <use xlink:href="#m5526cf4a84" x="54" y="33.048" style="stroke: #000000; stroke-width: 0.8"/>
      </g>
     </g>
     <g id="text_6">
      <!-- $\mathdefault{10^{2}}$ -->
      <g transform="translate(29.4 36.847219) scale(0.1 -0.1)">
       <use xlink:href="#DejaVuSans-31" transform="translate(0 0.765625)"/>
       <use xlink:href="#DejaVuSans-30" transform="translate(63.623047 0.765625)"/>
       <use xlink:href="#DejaVuSans-32" transform="translate(128.203125 39.046875) scale(0.7)"/>
      </g>
     </g>
    </g>
    <g id="ytick_6">
     <g id="line2d_6">
      <defs>
       <path id="m113af5a567" d="M 0 0 
L -2 0 
" style="stroke: #000000; stroke-width: 0.6"/>
      </defs>
      <g>
       <use xlink:href="#m113af5a567" x="54" y="157.08926" style="stroke: #000000; stroke-width: 0.6"/>
      </g>
     </g>
    </g>
    <g id="ytick_7">
     <g id="line2d_7">
      <g>
       <use xlink:href="#m113af5a567" x="54" y="151.184216" style="stroke: #000000; stroke-width: 0.6"/>
      </g>
     </g>
    </g>
    <g id="ytick_8">
     <g id="line2d_8">
      <g>
       <use xlink:href="#m113af5a567" x="54" y="146.99452" style="stroke: #000000; stroke-width: 0.6"/>
      </g>
     </g>
    </g>
    <g id="ytick_9">
     <g id="line2d_9">
      <g>
       <use xlink:href="#m113af5a567" x="54" y="143.74474" style="stroke: #000000; stroke-width: 0.6"/>
      </g>
     </g>
    </g>
    <g id="ytick_10">
     <g id="line2d_10">
      <g>
       <use xlink:href="#m113af5a567" x="54" y="141.089476" style="stroke: #000000; stroke-width: 0.6"/>
      </g>
     </g>
    </g>
    <g id="ytick_11">
     <g id="line2d_11">
      <g>
       <use xlink:href="#m113af5a567" x="54" y="138.844482" style="stroke: #000000; stroke-width: 0.6"/>
      </g>
     </g>
    </g>
    <g id="ytick_12">
     <g id="line2d_12">
      <g>
       <use xlink:href="#m113af5a567" x="54" y="136.89978" style="stroke: #000000; stroke-width: 0.6"/>
      </g>
     </g>
    </g>
    <g id="ytick_13">
     <g id="line2d_13">
      <g>
       <use xlink:href="#m113af5a567" x="54" y="135.184432" style="stroke: #000000; stroke-width: 0.6"/>
      </g>
     </g>
    </g>
    <g id="ytick_14">
     <g id="line2d_14">
      <g>
       <use xlink:href="#m113af5a567" x="54" y="123.55526" style="stroke: #000000; stroke-width: 0.6"/>
      </g>
     </g>
    </g>
    <g id="ytick_15">
     <g id="line2d_15">
      <g>
       <use xlink:href="#m113af5a567" x="54" y="117.650216" style="stroke: #000000; stroke-width: 0.6"/>
      </g>
     </g>
    </g>
    <g id="ytick_16">
     <g id="line2d_16">
      <g>
       <use xlink:href="#m113af5a567" x="54" y="113.46052" style="stroke: #000000; stroke-width: 0.6"/>
      </g>
     </g>
    </g>
    <g id="ytick_17">
     <g id="line2d_17">
      <g>
       <use xlink:href="#m113af5a567" x="54" y="110.21074" style="stroke: #000000; stroke-width: 0.6"/>
      </g>
     </g>
    </g>
    <g id="ytick_18">
     <g id="line2d_18">
      <g>
       <use xlink:href="#m113af5a567" x="54" y="107.555476" style="stroke: #000000; stroke-width: 0.6"/>
      </g>
     </g>
    </g>
    <g id="ytick_19">
     <g id="line2d_19">
      <g>
       <use xlink:href="#m113af5a567" x="54" y="105.310482" style="stroke: #000000; stroke-width: 0.6"/>
      </g>
     </g>
    </g>
    <g id="ytick_20">
     <g id="line2d_20">
      <g>
       <use xlink:href="#m113af5a567" x="54" y="103.36578" style="stroke: #000000; stroke-width: 0.6"/>
      </g>
     </g>
    </g>
    <g id="ytick_21">
     <g id="line2d_21">
      <g>
       <use xlink:href="#m113af5a567" x="54" y="101.650432" style="stroke: #000000; stroke-width: 0.6"/>
      </g>
     </g>
    </g>
    <g id="ytick_22">
     <g id="line2d_22">
      <g>
       <use xlink:href="#m113af5a567" x="54" y="90.02126" style="stroke: #000000; stroke-width: 0.6"/>
      </g>
     </g>
    </g>
    <g id="ytick_23">
     <g id="line2d_23">
      <g>
       <use xlink:href="#m113af5a567" x="54" y="84.116216" style="stroke: #000000; stroke-width: 0.6"/>
      </g>
     </g>
    </g>
    <g id="ytick_24">
     <g id="line2d_24">
      <g>
       <use xlink:href="#m113af5a567" x="54" y="79.92652" style="stroke: #000000; stroke-width: 0.6"/>
      </g>
     </g>
    </g>
    <g id="ytick_25">
     <g id="line2d_25">
      <g>
       <use xlink:href="#m113af5a567" x="54" y="76.67674" style="stroke: #000000; stroke-width: 0.6"/>
      </g>
     </g>
    </g>
    <g id="ytick_26">
     <g id="line2d_26">
      <g>
       <use xlink:href="#m113af5a567" x="54" y="74.021476" style="stroke: #000000; stroke-width: 0.6"/>
      </g>
     </g>
    </g>
    <g id="ytick_27">
     <g id="line2d_27">
      <g>
       <use xlink:href="#m113af5a567" x="54" y="71.776482" style="stroke: #000000; stroke-width: 0.6"/>
      </g>
     </g>
    </g>
    <g id="ytick_28">
     <g id="line2d_28">
      <g>
       <use xlink:href="#m113af5a567" x="54" y="69.83178" style="stroke: #000000; stroke-width: 0.6"/>
      </g>
     </g>
    </g>
    <g id="ytick_29">
     <g id="line2d_29">
      <g>
       <use xlink:href="#m113af5a567" x="54" y="68.116432" style="stroke: #000000; stroke-width: 0.6"/>
      </g>
     </g>
    </g>
    <g id="ytick_30">
     <g id="line2d_30">
      <g>
       <use xlink:href="#m113af5a567" x="54" y="56.48726" style="stroke: #000000; stroke-width: 0.6"/>
      </g>
     </g>
    </g>
    <g id="ytick_31">
     <g id="line2d_31">
      <g>
       <use xlink:href="#m113af5a567" x="54" y="50.582216" style="stroke: #000000; stroke-width: 0.6"/>
      </g>
     </g>
    </g>
    <g id="ytick_32">
     <g id="line2d_32">
      <g>
       <use xlink:href="#m113af5a567" x="54" y="46.39252" style="stroke: #000000; stroke-width: 0.6"/>
      </g>
     </g>
    </g>
    <g id="ytick_33">
     <g id="line2d_33">
      <g>
       <use xlink:href="#m113af5a567" x="54" y="43.14274" style="stroke: #000000; stroke-width: 0.6"/>
      </g>
     </g>
    </g>
    <g id="ytick_34">
     <g id="line2d_34">
      <g>
       <use xlink:href="#m113af5a567" x="54" y="40.487476" style="stroke: #000000; stroke-width: 0.6"/>
      </g>
     </g>
    </g>
    <g id="ytick_35">
     <g id="line2d_35">
      <g>
       <use xlink:href="#m113af5a567" x="54" y="38.242482" style="stroke: #000000; stroke-width: 0.6"/>
      </g>
     </g>
    </g>
    <g id="ytick_36">
     <g id="line2d_36">
      <g>
       <use xlink:href="#m113af5a567" x="54" y="36.29778" style="stroke: #000000; stroke-width: 0.6"/>
      </g>
     </g>
    </g>
    <g id="ytick_37">
     <g id="line2d_37">
      <g>
       <use xlink:href="#m113af5a567" x="54" y="34.582432" style="stroke: #000000; stroke-width: 0.6"/>
      </g>
     </g>
    </g>
    <g id="text_7">
     <!-- MSE -->
     <g transform="translate(16.588437 115.022719) rotate(-90) scale(0.14 -0.14)">
      <defs>
       <path id="DejaVuSans-4d" d="M 628 4666 
L 1569 4666 
L 2759 1491 
L 3956 4666 
L 4897 4666 
L 4897 0 
L 4281 0 
L 4281 4097 
L 3078 897 
L 2444 897 
L 1241 4097 
L 1241 0 
L 628 0 
L 628 4666 
z
" transform="scale(0.015625)"/>
       <path id="DejaVuSans-53" d="M 3425 4513 
L 3425 3897 
Q 3066 4069 2747 4153 
Q 2428 4238 2131 4238 
Q 1616 4238 1336 4038 
Q 1056 3838 1056 3469 
Q 1056 3159 1242 3001 
Q 1428 2844 1947 2747 
L 2328 2669 
Q 3034 2534 3370 2195 
Q 3706 1856 3706 1288 
Q 3706 609 3251 259 
Q 2797 -91 1919 -91 
Q 1588 -91 1214 -16 
Q 841 59 441 206 
L 441 856 
Q 825 641 1194 531 
Q 1563 422 1919 422 
Q 2459 422 2753 634 
Q 3047 847 3047 1241 
Q 3047 1584 2836 1778 
Q 2625 1972 2144 2069 
L 1759 2144 
Q 1053 2284 737 2584 
Q 422 2884 422 3419 
Q 422 4038 858 4394 
Q 1294 4750 2059 4750 
Q 2388 4750 2728 4690 
Q 3069 4631 3425 4513 
z
" transform="scale(0.015625)"/>
       <path id="DejaVuSans-45" d="M 628 4666 
L 3578 4666 
L 3578 4134 
L 1259 4134 
L 1259 2753 
L 3481 2753 
L 3481 2222 
L 1259 2222 
L 1259 531 
L 3634 531 
L 3634 0 
L 628 0 
L 628 4666 
z
" transform="scale(0.015625)"/>
      </defs>
      <use xlink:href="#DejaVuSans-4d"/>
      <use xlink:href="#DejaVuSans-53" x="86.279297"/>
      <use xlink:href="#DejaVuSans-45" x="149.755859"/>
     </g>
    </g>
   </g>
   <g id="line2d_38">
    <path d="M 69.187112 121.513075 
L 73.226237 118.656814 
L 77.265362 118.296683 
L 81.304488 117.062644 
L 85.343613 116.950291 
L 89.382739 116.92285 
L 93.421864 116.832515 
L 97.46099 116.442297 
L 101.500115 116.423265 
L 105.539241 116.341117 
L 109.578366 115.873892 
L 113.617491 115.867419 
L 117.656617 115.195392 
L 121.695742 114.662132 
L 125.734868 114.377435 
L 129.773993 114.29468 
L 133.813119 114.090547 
L 137.852244 113.978715 
L 141.891369 113.955642 
L 145.930495 113.012568 
L 149.96962 112.966823 
L 154.008746 112.817692 
L 158.047871 112.669024 
L 162.086997 112.25858 
L 166.126122 112.228296 
L 170.165247 111.689183 
L 174.204373 111.523343 
L 178.243498 110.41226 
L 182.282624 109.83129 
L 186.321749 109.691661 
L 190.360875 108.949353 
L 194.4 108.798969 
L 198.439125 108.512724 
L 202.478251 108.05101 
L 206.517376 107.751236 
L 210.556502 107.704883 
L 214.595627 107.431153 
L 218.634753 107.261563 
L 222.673878 107.195959 
L 226.713003 106.47042 
L 230.752129 106.265147 
L 234.791254 106.151913 
L 238.83038 105.80339 
L 242.869505 105.72385 
L 246.908631 105.703421 
L 250.947756 105.638311 
L 254.986881 105.1877 
L 259.026007 104.925156 
L 263.065132 104.64701 
L 267.104258 104.103992 
L 271.143383 104.061436 
L 275.182509 103.638112 
L 279.221634 103.06242 
L 283.260759 102.883331 
L 287.299885 102.846337 
L 291.33901 102.832014 
L 295.378136 101.56077 
L 299.417261 101.53315 
L 303.456387 101.060053 
L 307.495512 100.63846 
L 311.534638 99.748366 
L 315.573763 98.313525 
L 319.612888 97.761676 
" clip-path="url(#p55434190f8)" style="fill: none; stroke: #1db8f7; stroke-width: 1.5; stroke-linecap: square"/>
   </g>
   <g id="line2d_39">
    <path d="M 69.187112 60.564191 
L 319.612888 60.564191 
" clip-path="url(#p55434190f8)" style="fill: none; stroke-dasharray: 4.5,4.5; stroke-dashoffset: 0; stroke: #1db8f7; stroke-width: 1.5"/>
   </g>
   <g id="line2d_40">
    <path d="M 69.187112 69.535617 
L 319.612888 69.535617 
" clip-path="url(#p55434190f8)" style="fill: none; stroke-dasharray: 4.5,4.5; stroke-dashoffset: 0; stroke: #6c17b9; stroke-width: 1.5"/>
   </g>
   <g id="patch_66">
    <path d="M 54 167.184 
L 54 33.048 
" style="fill: none; stroke: #000000; stroke-width: 0.8; stroke-linejoin: miter; stroke-linecap: square"/>
   </g>
   <g id="patch_67">
    <path d="M 334.8 167.184 
L 334.8 33.048 
" style="fill: none; stroke: #000000; stroke-width: 0.8; stroke-linejoin: miter; stroke-linecap: square"/>
   </g>
   <g id="patch_68">
    <path d="M 54 167.184 
L 334.8 167.184 
" style="fill: none; stroke: #000000; stroke-width: 0.8; stroke-linejoin: miter; stroke-linecap: square"/>
   </g>
   <g id="patch_69">
    <path d="M 54 33.048 
L 334.8 33.048 
" style="fill: none; stroke: #000000; stroke-width: 0.8; stroke-linejoin: miter; stroke-linecap: square"/>
   </g>
  </g>
  <g id="text_8">
   <!-- LSTM Configurations For Case 1 -->
   <g transform="translate(21.15 21.028875) scale(0.2 -0.2)">
    <defs>
     <path id="DejaVuSans-4c" d="M 628 4666 
L 1259 4666 
L 1259 531 
L 3531 531 
L 3531 0 
L 628 0 
L 628 4666 
z
" transform="scale(0.015625)"/>
     <path id="DejaVuSans-54" d="M -19 4666 
L 3928 4666 
L 3928 4134 
L 2272 4134 
L 2272 0 
L 1638 0 
L 1638 4134 
L -19 4134 
L -19 4666 
z
" transform="scale(0.015625)"/>
     <path id="DejaVuSans-46" d="M 628 4666 
L 3309 4666 
L 3309 4134 
L 1259 4134 
L 1259 2759 
L 3109 2759 
L 3109 2228 
L 1259 2228 
L 1259 0 
L 628 0 
L 628 4666 
z
" transform="scale(0.015625)"/>
    </defs>
    <use xlink:href="#DejaVuSans-4c"/>
    <use xlink:href="#DejaVuSans-53" x="55.712891"/>
    <use xlink:href="#DejaVuSans-54" x="119.189453"/>
    <use xlink:href="#DejaVuSans-4d" x="180.273438"/>
    <use xlink:href="#DejaVuSans-20" x="266.552734"/>
    <use xlink:href="#DejaVuSans-43" x="298.339844"/>
    <use xlink:href="#DejaVuSans-6f" x="368.164062"/>
    <use xlink:href="#DejaVuSans-6e" x="429.345703"/>
    <use xlink:href="#DejaVuSans-66" x="492.724609"/>
    <use xlink:href="#DejaVuSans-69" x="527.929688"/>
    <use xlink:href="#DejaVuSans-67" x="555.712891"/>
    <use xlink:href="#DejaVuSans-75" x="619.189453"/>
    <use xlink:href="#DejaVuSans-72" x="682.568359"/>
    <use xlink:href="#DejaVuSans-61" x="723.681641"/>
    <use xlink:href="#DejaVuSans-74" x="784.960938"/>
    <use xlink:href="#DejaVuSans-69" x="824.169922"/>
    <use xlink:href="#DejaVuSans-6f" x="851.953125"/>
    <use xlink:href="#DejaVuSans-6e" x="913.134766"/>
    <use xlink:href="#DejaVuSans-73" x="976.513672"/>
    <use xlink:href="#DejaVuSans-20" x="1028.613281"/>
    <use xlink:href="#DejaVuSans-46" x="1060.400391"/>
    <use xlink:href="#DejaVuSans-6f" x="1114.294922"/>
    <use xlink:href="#DejaVuSans-72" x="1175.476562"/>
    <use xlink:href="#DejaVuSans-20" x="1216.589844"/>
    <use xlink:href="#DejaVuSans-43" x="1248.376953"/>
    <use xlink:href="#DejaVuSans-61" x="1318.201172"/>
    <use xlink:href="#DejaVuSans-73" x="1379.480469"/>
    <use xlink:href="#DejaVuSans-65" x="1431.580078"/>
    <use xlink:href="#DejaVuSans-20" x="1493.103516"/>
    <use xlink:href="#DejaVuSans-31" x="1524.890625"/>
   </g>
  </g>
 </g>
 <defs>
  <clipPath id="p55434190f8">
   <rect x="54" y="33.048" width="280.8" height="134.136"/>
  </clipPath>
 </defs>
</svg>
