<?xml version="1.0" encoding="utf-8" standalone="no"?>
<!DOCTYPE svg PUBLIC "-//W3C//DTD SVG 1.1//EN"
  "http://www.w3.org/Graphics/SVG/1.1/DTD/svg11.dtd">
<svg xmlns:xlink="http://www.w3.org/1999/xlink" width="360pt" height="194.4pt" viewBox="0 0 360 194.4" xmlns="http://www.w3.org/2000/svg" version="1.1">
 <metadata>
  <rdf:RDF xmlns:dc="http://purl.org/dc/elements/1.1/" xmlns:cc="http://creativecommons.org/ns#" xmlns:rdf="http://www.w3.org/1999/02/22-rdf-syntax-ns#">
   <cc:Work>
    <dc:type rdf:resource="http://purl.org/dc/dcmitype/StillImage"/>
    <dc:date>2024-09-05T16:14:39.980053</dc:date>
    <dc:format>image/svg+xml</dc:format>
    <dc:creator>
     <cc:Agent>
      <dc:title>Matplotlib v3.9.1.post1, https://matplotlib.org/</dc:title>
     </cc:Agent>
    </dc:creator>
   </cc:Work>
  </rdf:RDF>
 </metadata>
 <defs>
  <style type="text/css">*{stroke-linejoin: round; stroke-linecap: butt}</style>
 </defs>
 <g id="figure_1">
  <g id="patch_1">
   <path d="M 0 194.4 
L 360 194.4 
L 360 0 
L 0 0 
z
" style="fill: #ffffff"/>
  </g>
  <g id="axes_1">
   <g id="patch_2">
    <path d="M 54 167.184 
L 334.8 167.184 
L 334.8 33.048 
L 54 33.048 
z
" style="fill: #ffffff"/>
   </g>
   <g id="patch_3">
    <path d="M 66.763636 26913.9024 
L 71.610587 26913.9024 
L 71.610587 104.950374 
L 66.763636 104.950374 
z
" clip-path="url(#p839e5ea793)" style="fill: #6c17b9"/>
   </g>
   <g id="patch_4">
    <path d="M 70.802762 26913.9024 
L 75.649712 26913.9024 
L 75.649712 108.452136 
L 70.802762 108.452136 
z
" clip-path="url(#p839e5ea793)" style="fill: #6c17b9"/>
   </g>
   <g id="patch_5">
    <path d="M 74.841887 26913.9024 
L 79.688838 26913.9024 
L 79.688838 120.774624 
L 74.841887 120.774624 
z
" clip-path="url(#p839e5ea793)" style="fill: #6c17b9"/>
   </g>
   <g id="patch_6">
    <path d="M 78.881013 26913.9024 
L 83.727963 26913.9024 
L 83.727963 118.631531 
L 78.881013 118.631531 
z
" clip-path="url(#p839e5ea793)" style="fill: #6c17b9"/>
   </g>
   <g id="patch_7">
    <path d="M 82.920138 26913.9024 
L 87.767089 26913.9024 
L 87.767089 101.856886 
L 82.920138 101.856886 
z
" clip-path="url(#p839e5ea793)" style="fill: #6c17b9"/>
   </g>
   <g id="patch_8">
    <path d="M 86.959264 26913.9024 
L 91.806214 26913.9024 
L 91.806214 111.010914 
L 86.959264 111.010914 
z
" clip-path="url(#p839e5ea793)" style="fill: #6c17b9"/>
   </g>
   <g id="patch_9">
    <path d="M 90.998389 26913.9024 
L 95.845339 26913.9024 
L 95.845339 104.49469 
L 90.998389 104.49469 
z
" clip-path="url(#p839e5ea793)" style="fill: #6c17b9"/>
   </g>
   <g id="patch_10">
    <path d="M 95.037514 26913.9024 
L 99.884465 26913.9024 
L 99.884465 111.690794 
L 95.037514 111.690794 
z
" clip-path="url(#p839e5ea793)" style="fill: #6c17b9"/>
   </g>
   <g id="patch_11">
    <path d="M 99.07664 26913.9024 
L 103.92359 26913.9024 
L 103.92359 118.894448 
L 99.07664 118.894448 
z
" clip-path="url(#p839e5ea793)" style="fill: #6c17b9"/>
   </g>
   <g id="patch_12">
    <path d="M 103.115765 26913.9024 
L 107.962716 26913.9024 
L 107.962716 109.075797 
L 103.115765 109.075797 
z
" clip-path="url(#p839e5ea793)" style="fill: #6c17b9"/>
   </g>
   <g id="patch_13">
    <path d="M 107.154891 26913.9024 
L 112.001841 26913.9024 
L 112.001841 100.155817 
L 107.154891 100.155817 
z
" clip-path="url(#p839e5ea793)" style="fill: #6c17b9"/>
   </g>
   <g id="patch_14">
    <path d="M 111.194016 26913.9024 
L 116.040967 26913.9024 
L 116.040967 104.173102 
L 111.194016 104.173102 
z
" clip-path="url(#p839e5ea793)" style="fill: #6c17b9"/>
   </g>
   <g id="patch_15">
    <path d="M 115.233142 26913.9024 
L 120.080092 26913.9024 
L 120.080092 140.417485 
L 115.233142 140.417485 
z
" clip-path="url(#p839e5ea793)" style="fill: #6c17b9"/>
   </g>
   <g id="patch_16">
    <path d="M 119.272267 26913.9024 
L 124.119217 26913.9024 
L 124.119217 101.686061 
L 119.272267 101.686061 
z
" clip-path="url(#p839e5ea793)" style="fill: #6c17b9"/>
   </g>
   <g id="patch_17">
    <path d="M 123.311392 26913.9024 
L 128.158343 26913.9024 
L 128.158343 124.011968 
L 123.311392 124.011968 
z
" clip-path="url(#p839e5ea793)" style="fill: #6c17b9"/>
   </g>
   <g id="patch_18">
    <path d="M 127.350518 26913.9024 
L 132.197468 26913.9024 
L 132.197468 108.55369 
L 127.350518 108.55369 
z
" clip-path="url(#p839e5ea793)" style="fill: #6c17b9"/>
   </g>
   <g id="patch_19">
    <path d="M 131.389643 26913.9024 
L 136.236594 26913.9024 
L 136.236594 101.06651 
L 131.389643 101.06651 
z
" clip-path="url(#p839e5ea793)" style="fill: #6c17b9"/>
   </g>
   <g id="patch_20">
    <path d="M 135.428769 26913.9024 
L 140.275719 26913.9024 
L 140.275719 88.634037 
L 135.428769 88.634037 
z
" clip-path="url(#p839e5ea793)" style="fill: #6c17b9"/>
   </g>
   <g id="patch_21">
    <path d="M 139.467894 26913.9024 
L 144.314845 26913.9024 
L 144.314845 93.469319 
L 139.467894 93.469319 
z
" clip-path="url(#p839e5ea793)" style="fill: #6c17b9"/>
   </g>
   <g id="patch_22">
    <path d="M 143.50702 26913.9024 
L 148.35397 26913.9024 
L 148.35397 96.356555 
L 143.50702 96.356555 
z
" clip-path="url(#p839e5ea793)" style="fill: #6c17b9"/>
   </g>
   <g id="patch_23">
    <path d="M 147.546145 26913.9024 
L 152.393096 26913.9024 
L 152.393096 84.210161 
L 147.546145 84.210161 
z
" clip-path="url(#p839e5ea793)" style="fill: #6c17b9"/>
   </g>
   <g id="patch_24">
    <path d="M 151.58527 26913.9024 
L 156.432221 26913.9024 
L 156.432221 93.399593 
L 151.58527 93.399593 
z
" clip-path="url(#p839e5ea793)" style="fill: #6c17b9"/>
   </g>
   <g id="patch_25">
    <path d="M 155.624396 26913.9024 
L 160.471346 26913.9024 
L 160.471346 122.482234 
L 155.624396 122.482234 
z
" clip-path="url(#p839e5ea793)" style="fill: #6c17b9"/>
   </g>
   <g id="patch_26">
    <path d="M 159.663521 26913.9024 
L 164.510472 26913.9024 
L 164.510472 78.029952 
L 159.663521 78.029952 
z
" clip-path="url(#p839e5ea793)" style="fill: #6c17b9"/>
   </g>
   <g id="patch_27">
    <path d="M 163.702647 26913.9024 
L 168.549597 26913.9024 
L 168.549597 110.855693 
L 163.702647 110.855693 
z
" clip-path="url(#p839e5ea793)" style="fill: #6c17b9"/>
   </g>
   <g id="patch_28">
    <path d="M 167.741772 26913.9024 
L 172.588723 26913.9024 
L 172.588723 85.889242 
L 167.741772 85.889242 
z
" clip-path="url(#p839e5ea793)" style="fill: #6c17b9"/>
   </g>
   <g id="patch_29">
    <path d="M 171.780898 26913.9024 
L 176.627848 26913.9024 
L 176.627848 100.615885 
L 171.780898 100.615885 
z
" clip-path="url(#p839e5ea793)" style="fill: #6c17b9"/>
   </g>
   <g id="patch_30">
    <path d="M 175.820023 26913.9024 
L 180.666974 26913.9024 
L 180.666974 86.648512 
L 175.820023 86.648512 
z
" clip-path="url(#p839e5ea793)" style="fill: #6c17b9"/>
   </g>
   <g id="patch_31">
    <path d="M 179.859148 26913.9024 
L 184.706099 26913.9024 
L 184.706099 100.720857 
L 179.859148 100.720857 
z
" clip-path="url(#p839e5ea793)" style="fill: #6c17b9"/>
   </g>
   <g id="patch_32">
    <path d="M 183.898274 26913.9024 
L 188.745224 26913.9024 
L 188.745224 88.165402 
L 183.898274 88.165402 
z
" clip-path="url(#p839e5ea793)" style="fill: #6c17b9"/>
   </g>
   <g id="patch_33">
    <path d="M 187.937399 26913.9024 
L 192.78435 26913.9024 
L 192.78435 94.978601 
L 187.937399 94.978601 
z
" clip-path="url(#p839e5ea793)" style="fill: #6c17b9"/>
   </g>
   <g id="patch_34">
    <path d="M 191.976525 26913.9024 
L 196.823475 26913.9024 
L 196.823475 77.26139 
L 191.976525 77.26139 
z
" clip-path="url(#p839e5ea793)" style="fill: #6c17b9"/>
   </g>
   <g id="patch_35">
    <path d="M 196.01565 26913.9024 
L 200.862601 26913.9024 
L 200.862601 96.218057 
L 196.01565 96.218057 
z
" clip-path="url(#p839e5ea793)" style="fill: #6c17b9"/>
   </g>
   <g id="patch_36">
    <path d="M 200.054776 26913.9024 
L 204.901726 26913.9024 
L 204.901726 78.757442 
L 200.054776 78.757442 
z
" clip-path="url(#p839e5ea793)" style="fill: #6c17b9"/>
   </g>
   <g id="patch_37">
    <path d="M 204.093901 26913.9024 
L 208.940852 26913.9024 
L 208.940852 94.669131 
L 204.093901 94.669131 
z
" clip-path="url(#p839e5ea793)" style="fill: #6c17b9"/>
   </g>
   <g id="patch_38">
    <path d="M 208.133026 26913.9024 
L 212.979977 26913.9024 
L 212.979977 83.591044 
L 208.133026 83.591044 
z
" clip-path="url(#p839e5ea793)" style="fill: #6c17b9"/>
   </g>
   <g id="patch_39">
    <path d="M 212.172152 26913.9024 
L 217.019102 26913.9024 
L 217.019102 104.725419 
L 212.172152 104.725419 
z
" clip-path="url(#p839e5ea793)" style="fill: #6c17b9"/>
   </g>
   <g id="patch_40">
    <path d="M 216.211277 26913.9024 
L 221.058228 26913.9024 
L 221.058228 74.047351 
L 216.211277 74.047351 
z
" clip-path="url(#p839e5ea793)" style="fill: #6c17b9"/>
   </g>
   <g id="patch_41">
    <path d="M 220.250403 26913.9024 
L 225.097353 26913.9024 
L 225.097353 75.466223 
L 220.250403 75.466223 
z
" clip-path="url(#p839e5ea793)" style="fill: #6c17b9"/>
   </g>
   <g id="patch_42">
    <path d="M 224.289528 26913.9024 
L 229.136479 26913.9024 
L 229.136479 96.598473 
L 224.289528 96.598473 
z
" clip-path="url(#p839e5ea793)" style="fill: #6c17b9"/>
   </g>
   <g id="patch_43">
    <path d="M 228.328654 26913.9024 
L 233.175604 26913.9024 
L 233.175604 93.725916 
L 228.328654 93.725916 
z
" clip-path="url(#p839e5ea793)" style="fill: #6c17b9"/>
   </g>
   <g id="patch_44">
    <path d="M 232.367779 26913.9024 
L 237.21473 26913.9024 
L 237.21473 86.576577 
L 232.367779 86.576577 
z
" clip-path="url(#p839e5ea793)" style="fill: #6c17b9"/>
   </g>
   <g id="patch_45">
    <path d="M 236.406904 26913.9024 
L 241.253855 26913.9024 
L 241.253855 82.356155 
L 236.406904 82.356155 
z
" clip-path="url(#p839e5ea793)" style="fill: #6c17b9"/>
   </g>
   <g id="patch_46">
    <path d="M 240.44603 26913.9024 
L 245.29298 26913.9024 
L 245.29298 87.559544 
L 240.44603 87.559544 
z
" clip-path="url(#p839e5ea793)" style="fill: #6c17b9"/>
   </g>
   <g id="patch_47">
    <path d="M 244.485155 26913.9024 
L 249.332106 26913.9024 
L 249.332106 88.428123 
L 244.485155 88.428123 
z
" clip-path="url(#p839e5ea793)" style="fill: #6c17b9"/>
   </g>
   <g id="patch_48">
    <path d="M 248.524281 26913.9024 
L 253.371231 26913.9024 
L 253.371231 78.158523 
L 248.524281 78.158523 
z
" clip-path="url(#p839e5ea793)" style="fill: #6c17b9"/>
   </g>
   <g id="patch_49">
    <path d="M 252.563406 26913.9024 
L 257.410357 26913.9024 
L 257.410357 84.925245 
L 252.563406 84.925245 
z
" clip-path="url(#p839e5ea793)" style="fill: #6c17b9"/>
   </g>
   <g id="patch_50">
    <path d="M 256.602532 26913.9024 
L 261.449482 26913.9024 
L 261.449482 90.677268 
L 256.602532 90.677268 
z
" clip-path="url(#p839e5ea793)" style="fill: #6c17b9"/>
   </g>
   <g id="patch_51">
    <path d="M 260.641657 26913.9024 
L 265.488608 26913.9024 
L 265.488608 71.477902 
L 260.641657 71.477902 
z
" clip-path="url(#p839e5ea793)" style="fill: #6c17b9"/>
   </g>
   <g id="patch_52">
    <path d="M 264.680783 26913.9024 
L 269.527733 26913.9024 
L 269.527733 80.228207 
L 264.680783 80.228207 
z
" clip-path="url(#p839e5ea793)" style="fill: #6c17b9"/>
   </g>
   <g id="patch_53">
    <path d="M 268.719908 26913.9024 
L 273.566858 26913.9024 
L 273.566858 98.467181 
L 268.719908 98.467181 
z
" clip-path="url(#p839e5ea793)" style="fill: #6c17b9"/>
   </g>
   <g id="patch_54">
    <path d="M 272.759033 26913.9024 
L 277.605984 26913.9024 
L 277.605984 76.786949 
L 272.759033 76.786949 
z
" clip-path="url(#p839e5ea793)" style="fill: #6c17b9"/>
   </g>
   <g id="patch_55">
    <path d="M 276.798159 26913.9024 
L 281.645109 26913.9024 
L 281.645109 75.846456 
L 276.798159 75.846456 
z
" clip-path="url(#p839e5ea793)" style="fill: #6c17b9"/>
   </g>
   <g id="patch_56">
    <path d="M 280.837284 26913.9024 
L 285.684235 26913.9024 
L 285.684235 77.72635 
L 280.837284 77.72635 
z
" clip-path="url(#p839e5ea793)" style="fill: #6c17b9"/>
   </g>
   <g id="patch_57">
    <path d="M 284.87641 26913.9024 
L 289.72336 26913.9024 
L 289.72336 85.739096 
L 284.87641 85.739096 
z
" clip-path="url(#p839e5ea793)" style="fill: #6c17b9"/>
   </g>
   <g id="patch_58">
    <path d="M 288.915535 26913.9024 
L 293.762486 26913.9024 
L 293.762486 79.117546 
L 288.915535 79.117546 
z
" clip-path="url(#p839e5ea793)" style="fill: #6c17b9"/>
   </g>
   <g id="patch_59">
    <path d="M 292.954661 26913.9024 
L 297.801611 26913.9024 
L 297.801611 71.589717 
L 292.954661 71.589717 
z
" clip-path="url(#p839e5ea793)" style="fill: #6c17b9"/>
   </g>
   <g id="patch_60">
    <path d="M 296.993786 26913.9024 
L 301.840736 26913.9024 
L 301.840736 81.776409 
L 296.993786 81.776409 
z
" clip-path="url(#p839e5ea793)" style="fill: #6c17b9"/>
   </g>
   <g id="patch_61">
    <path d="M 301.032911 26913.9024 
L 305.879862 26913.9024 
L 305.879862 81.986529 
L 301.032911 81.986529 
z
" clip-path="url(#p839e5ea793)" style="fill: #6c17b9"/>
   </g>
   <g id="patch_62">
    <path d="M 305.072037 26913.9024 
L 309.918987 26913.9024 
L 309.918987 78.102516 
L 305.072037 78.102516 
z
" clip-path="url(#p839e5ea793)" style="fill: #6c17b9"/>
   </g>
   <g id="patch_63">
    <path d="M 309.111162 26913.9024 
L 313.958113 26913.9024 
L 313.958113 87.621054 
L 309.111162 87.621054 
z
" clip-path="url(#p839e5ea793)" style="fill: #6c17b9"/>
   </g>
   <g id="patch_64">
    <path d="M 313.150288 26913.9024 
L 317.997238 26913.9024 
L 317.997238 81.064288 
L 313.150288 81.064288 
z
" clip-path="url(#p839e5ea793)" style="fill: #6c17b9"/>
   </g>
   <g id="patch_65">
    <path d="M 317.189413 26913.9024 
L 322.036364 26913.9024 
L 322.036364 85.005292 
L 317.189413 85.005292 
z
" clip-path="url(#p839e5ea793)" style="fill: #6c17b9"/>
   </g>
   <g id="matplotlib.axis_1">
    <g id="text_1">
     <!-- Hyperparameter Configurations -->
     <g transform="translate(83.065 187.821812) scale(0.14 -0.14)">
      <defs>
       <path id="DejaVuSans-48" d="M 628 4666 
L 1259 4666 
L 1259 2753 
L 3553 2753 
L 3553 4666 
L 4184 4666 
L 4184 0 
L 3553 0 
L 3553 2222 
L 1259 2222 
L 1259 0 
L 628 0 
L 628 4666 
z
" transform="scale(0.015625)"/>
       <path id="DejaVuSans-79" d="M 2059 -325 
Q 1816 -950 1584 -1140 
Q 1353 -1331 966 -1331 
L 506 -1331 
L 506 -850 
L 844 -850 
Q 1081 -850 1212 -737 
Q 1344 -625 1503 -206 
L 1606 56 
L 191 3500 
L 800 3500 
L 1894 763 
L 2988 3500 
L 3597 3500 
L 2059 -325 
z
" transform="scale(0.015625)"/>
       <path id="DejaVuSans-70" d="M 1159 525 
L 1159 -1331 
L 581 -1331 
L 581 3500 
L 1159 3500 
L 1159 2969 
Q 1341 3281 1617 3432 
Q 1894 3584 2278 3584 
Q 2916 3584 3314 3078 
Q 3713 2572 3713 1747 
Q 3713 922 3314 415 
Q 2916 -91 2278 -91 
Q 1894 -91 1617 61 
Q 1341 213 1159 525 
z
M 3116 1747 
Q 3116 2381 2855 2742 
Q 2594 3103 2138 3103 
Q 1681 3103 1420 2742 
Q 1159 2381 1159 1747 
Q 1159 1113 1420 752 
Q 1681 391 2138 391 
Q 2594 391 2855 752 
Q 3116 1113 3116 1747 
z
" transform="scale(0.015625)"/>
       <path id="DejaVuSans-65" d="M 3597 1894 
L 3597 1613 
L 953 1613 
Q 991 1019 1311 708 
Q 1631 397 2203 397 
Q 2534 397 2845 478 
Q 3156 559 3463 722 
L 3463 178 
Q 3153 47 2828 -22 
Q 2503 -91 2169 -91 
Q 1331 -91 842 396 
Q 353 884 353 1716 
Q 353 2575 817 3079 
Q 1281 3584 2069 3584 
Q 2775 3584 3186 3129 
Q 3597 2675 3597 1894 
z
M 3022 2063 
Q 3016 2534 2758 2815 
Q 2500 3097 2075 3097 
Q 1594 3097 1305 2825 
Q 1016 2553 972 2059 
L 3022 2063 
z
" transform="scale(0.015625)"/>
       <path id="DejaVuSans-72" d="M 2631 2963 
Q 2534 3019 2420 3045 
Q 2306 3072 2169 3072 
Q 1681 3072 1420 2755 
Q 1159 2438 1159 1844 
L 1159 0 
L 581 0 
L 581 3500 
L 1159 3500 
L 1159 2956 
Q 1341 3275 1631 3429 
Q 1922 3584 2338 3584 
Q 2397 3584 2469 3576 
Q 2541 3569 2628 3553 
L 2631 2963 
z
" transform="scale(0.015625)"/>
       <path id="DejaVuSans-61" d="M 2194 1759 
Q 1497 1759 1228 1600 
Q 959 1441 959 1056 
Q 959 750 1161 570 
Q 1363 391 1709 391 
Q 2188 391 2477 730 
Q 2766 1069 2766 1631 
L 2766 1759 
L 2194 1759 
z
M 3341 1997 
L 3341 0 
L 2766 0 
L 2766 531 
Q 2569 213 2275 61 
Q 1981 -91 1556 -91 
Q 1019 -91 701 211 
Q 384 513 384 1019 
Q 384 1609 779 1909 
Q 1175 2209 1959 2209 
L 2766 2209 
L 2766 2266 
Q 2766 2663 2505 2880 
Q 2244 3097 1772 3097 
Q 1472 3097 1187 3025 
Q 903 2953 641 2809 
L 641 3341 
Q 956 3463 1253 3523 
Q 1550 3584 1831 3584 
Q 2591 3584 2966 3190 
Q 3341 2797 3341 1997 
z
" transform="scale(0.015625)"/>
       <path id="DejaVuSans-6d" d="M 3328 2828 
Q 3544 3216 3844 3400 
Q 4144 3584 4550 3584 
Q 5097 3584 5394 3201 
Q 5691 2819 5691 2113 
L 5691 0 
L 5113 0 
L 5113 2094 
Q 5113 2597 4934 2840 
Q 4756 3084 4391 3084 
Q 3944 3084 3684 2787 
Q 3425 2491 3425 1978 
L 3425 0 
L 2847 0 
L 2847 2094 
Q 2847 2600 2669 2842 
Q 2491 3084 2119 3084 
Q 1678 3084 1418 2786 
Q 1159 2488 1159 1978 
L 1159 0 
L 581 0 
L 581 3500 
L 1159 3500 
L 1159 2956 
Q 1356 3278 1631 3431 
Q 1906 3584 2284 3584 
Q 2666 3584 2933 3390 
Q 3200 3197 3328 2828 
z
" transform="scale(0.015625)"/>
       <path id="DejaVuSans-74" d="M 1172 4494 
L 1172 3500 
L 2356 3500 
L 2356 3053 
L 1172 3053 
L 1172 1153 
Q 1172 725 1289 603 
Q 1406 481 1766 481 
L 2356 481 
L 2356 0 
L 1766 0 
Q 1100 0 847 248 
Q 594 497 594 1153 
L 594 3053 
L 172 3053 
L 172 3500 
L 594 3500 
L 594 4494 
L 1172 4494 
z
" transform="scale(0.015625)"/>
       <path id="DejaVuSans-20" transform="scale(0.015625)"/>
       <path id="DejaVuSans-43" d="M 4122 4306 
L 4122 3641 
Q 3803 3938 3442 4084 
Q 3081 4231 2675 4231 
Q 1875 4231 1450 3742 
Q 1025 3253 1025 2328 
Q 1025 1406 1450 917 
Q 1875 428 2675 428 
Q 3081 428 3442 575 
Q 3803 722 4122 1019 
L 4122 359 
Q 3791 134 3420 21 
Q 3050 -91 2638 -91 
Q 1578 -91 968 557 
Q 359 1206 359 2328 
Q 359 3453 968 4101 
Q 1578 4750 2638 4750 
Q 3056 4750 3426 4639 
Q 3797 4528 4122 4306 
z
" transform="scale(0.015625)"/>
       <path id="DejaVuSans-6f" d="M 1959 3097 
Q 1497 3097 1228 2736 
Q 959 2375 959 1747 
Q 959 1119 1226 758 
Q 1494 397 1959 397 
Q 2419 397 2687 759 
Q 2956 1122 2956 1747 
Q 2956 2369 2687 2733 
Q 2419 3097 1959 3097 
z
M 1959 3584 
Q 2709 3584 3137 3096 
Q 3566 2609 3566 1747 
Q 3566 888 3137 398 
Q 2709 -91 1959 -91 
Q 1206 -91 779 398 
Q 353 888 353 1747 
Q 353 2609 779 3096 
Q 1206 3584 1959 3584 
z
" transform="scale(0.015625)"/>
       <path id="DejaVuSans-6e" d="M 3513 2113 
L 3513 0 
L 2938 0 
L 2938 2094 
Q 2938 2591 2744 2837 
Q 2550 3084 2163 3084 
Q 1697 3084 1428 2787 
Q 1159 2491 1159 1978 
L 1159 0 
L 581 0 
L 581 3500 
L 1159 3500 
L 1159 2956 
Q 1366 3272 1645 3428 
Q 1925 3584 2291 3584 
Q 2894 3584 3203 3211 
Q 3513 2838 3513 2113 
z
" transform="scale(0.015625)"/>
       <path id="DejaVuSans-66" d="M 2375 4863 
L 2375 4384 
L 1825 4384 
Q 1516 4384 1395 4259 
Q 1275 4134 1275 3809 
L 1275 3500 
L 2222 3500 
L 2222 3053 
L 1275 3053 
L 1275 0 
L 697 0 
L 697 3053 
L 147 3053 
L 147 3500 
L 697 3500 
L 697 3744 
Q 697 4328 969 4595 
Q 1241 4863 1831 4863 
L 2375 4863 
z
" transform="scale(0.015625)"/>
       <path id="DejaVuSans-69" d="M 603 3500 
L 1178 3500 
L 1178 0 
L 603 0 
L 603 3500 
z
M 603 4863 
L 1178 4863 
L 1178 4134 
L 603 4134 
L 603 4863 
z
" transform="scale(0.015625)"/>
       <path id="DejaVuSans-67" d="M 2906 1791 
Q 2906 2416 2648 2759 
Q 2391 3103 1925 3103 
Q 1463 3103 1205 2759 
Q 947 2416 947 1791 
Q 947 1169 1205 825 
Q 1463 481 1925 481 
Q 2391 481 2648 825 
Q 2906 1169 2906 1791 
z
M 3481 434 
Q 3481 -459 3084 -895 
Q 2688 -1331 1869 -1331 
Q 1566 -1331 1297 -1286 
Q 1028 -1241 775 -1147 
L 775 -588 
Q 1028 -725 1275 -790 
Q 1522 -856 1778 -856 
Q 2344 -856 2625 -561 
Q 2906 -266 2906 331 
L 2906 616 
Q 2728 306 2450 153 
Q 2172 0 1784 0 
Q 1141 0 747 490 
Q 353 981 353 1791 
Q 353 2603 747 3093 
Q 1141 3584 1784 3584 
Q 2172 3584 2450 3431 
Q 2728 3278 2906 2969 
L 2906 3500 
L 3481 3500 
L 3481 434 
z
" transform="scale(0.015625)"/>
       <path id="DejaVuSans-75" d="M 544 1381 
L 544 3500 
L 1119 3500 
L 1119 1403 
Q 1119 906 1312 657 
Q 1506 409 1894 409 
Q 2359 409 2629 706 
Q 2900 1003 2900 1516 
L 2900 3500 
L 3475 3500 
L 3475 0 
L 2900 0 
L 2900 538 
Q 2691 219 2414 64 
Q 2138 -91 1772 -91 
Q 1169 -91 856 284 
Q 544 659 544 1381 
z
M 1991 3584 
L 1991 3584 
z
" transform="scale(0.015625)"/>
       <path id="DejaVuSans-73" d="M 2834 3397 
L 2834 2853 
Q 2591 2978 2328 3040 
Q 2066 3103 1784 3103 
Q 1356 3103 1142 2972 
Q 928 2841 928 2578 
Q 928 2378 1081 2264 
Q 1234 2150 1697 2047 
L 1894 2003 
Q 2506 1872 2764 1633 
Q 3022 1394 3022 966 
Q 3022 478 2636 193 
Q 2250 -91 1575 -91 
Q 1294 -91 989 -36 
Q 684 19 347 128 
L 347 722 
Q 666 556 975 473 
Q 1284 391 1588 391 
Q 1994 391 2212 530 
Q 2431 669 2431 922 
Q 2431 1156 2273 1281 
Q 2116 1406 1581 1522 
L 1381 1569 
Q 847 1681 609 1914 
Q 372 2147 372 2553 
Q 372 3047 722 3315 
Q 1072 3584 1716 3584 
Q 2034 3584 2315 3537 
Q 2597 3491 2834 3397 
z
" transform="scale(0.015625)"/>
      </defs>
      <use xlink:href="#DejaVuSans-48"/>
      <use xlink:href="#DejaVuSans-79" x="75.195312"/>
      <use xlink:href="#DejaVuSans-70" x="134.375"/>
      <use xlink:href="#DejaVuSans-65" x="197.851562"/>
      <use xlink:href="#DejaVuSans-72" x="259.375"/>
      <use xlink:href="#DejaVuSans-70" x="300.488281"/>
      <use xlink:href="#DejaVuSans-61" x="363.964844"/>
      <use xlink:href="#DejaVuSans-72" x="425.244141"/>
      <use xlink:href="#DejaVuSans-61" x="466.357422"/>
      <use xlink:href="#DejaVuSans-6d" x="527.636719"/>
      <use xlink:href="#DejaVuSans-65" x="625.048828"/>
      <use xlink:href="#DejaVuSans-74" x="686.572266"/>
      <use xlink:href="#DejaVuSans-65" x="725.78125"/>
      <use xlink:href="#DejaVuSans-72" x="787.304688"/>
      <use xlink:href="#DejaVuSans-20" x="828.417969"/>
      <use xlink:href="#DejaVuSans-43" x="860.205078"/>
      <use xlink:href="#DejaVuSans-6f" x="930.029297"/>
      <use xlink:href="#DejaVuSans-6e" x="991.210938"/>
      <use xlink:href="#DejaVuSans-66" x="1054.589844"/>
      <use xlink:href="#DejaVuSans-69" x="1089.794922"/>
      <use xlink:href="#DejaVuSans-67" x="1117.578125"/>
      <use xlink:href="#DejaVuSans-75" x="1181.054688"/>
      <use xlink:href="#DejaVuSans-72" x="1244.433594"/>
      <use xlink:href="#DejaVuSans-61" x="1285.546875"/>
      <use xlink:href="#DejaVuSans-74" x="1346.826172"/>
      <use xlink:href="#DejaVuSans-69" x="1386.035156"/>
      <use xlink:href="#DejaVuSans-6f" x="1413.818359"/>
      <use xlink:href="#DejaVuSans-6e" x="1475"/>
      <use xlink:href="#DejaVuSans-73" x="1538.378906"/>
     </g>
    </g>
   </g>
   <g id="matplotlib.axis_2">
    <g id="ytick_1">
     <g id="line2d_1">
      <defs>
       <path id="mb27bf68180" d="M 0 0 
L -3.5 0 
" style="stroke: #000000; stroke-width: 0.8"/>
      </defs>
      <g>
       <use xlink:href="#mb27bf68180" x="54" y="167.184" style="stroke: #000000; stroke-width: 0.8"/>
      </g>
     </g>
     <g id="text_2">
      <!-- $\mathdefault{10^{-3}}$ -->
      <g transform="translate(23.5 170.983219) scale(0.1 -0.1)">
       <defs>
        <path id="DejaVuSans-31" d="M 794 531 
L 1825 531 
L 1825 4091 
L 703 3866 
L 703 4441 
L 1819 4666 
L 2450 4666 
L 2450 531 
L 3481 531 
L 3481 0 
L 794 0 
L 794 531 
z
" transform="scale(0.015625)"/>
        <path id="DejaVuSans-30" d="M 2034 4250 
Q 1547 4250 1301 3770 
Q 1056 3291 1056 2328 
Q 1056 1369 1301 889 
Q 1547 409 2034 409 
Q 2525 409 2770 889 
Q 3016 1369 3016 2328 
Q 3016 3291 2770 3770 
Q 2525 4250 2034 4250 
z
M 2034 4750 
Q 2819 4750 3233 4129 
Q 3647 3509 3647 2328 
Q 3647 1150 3233 529 
Q 2819 -91 2034 -91 
Q 1250 -91 836 529 
Q 422 1150 422 2328 
Q 422 3509 836 4129 
Q 1250 4750 2034 4750 
z
" transform="scale(0.015625)"/>
        <path id="DejaVuSans-2212" d="M 678 2272 
L 4684 2272 
L 4684 1741 
L 678 1741 
L 678 2272 
z
" transform="scale(0.015625)"/>
        <path id="DejaVuSans-33" d="M 2597 2516 
Q 3050 2419 3304 2112 
Q 3559 1806 3559 1356 
Q 3559 666 3084 287 
Q 2609 -91 1734 -91 
Q 1441 -91 1130 -33 
Q 819 25 488 141 
L 488 750 
Q 750 597 1062 519 
Q 1375 441 1716 441 
Q 2309 441 2620 675 
Q 2931 909 2931 1356 
Q 2931 1769 2642 2001 
Q 2353 2234 1838 2234 
L 1294 2234 
L 1294 2753 
L 1863 2753 
Q 2328 2753 2575 2939 
Q 2822 3125 2822 3475 
Q 2822 3834 2567 4026 
Q 2313 4219 1838 4219 
Q 1578 4219 1281 4162 
Q 984 4106 628 3988 
L 628 4550 
Q 988 4650 1302 4700 
Q 1616 4750 1894 4750 
Q 2613 4750 3031 4423 
Q 3450 4097 3450 3541 
Q 3450 3153 3228 2886 
Q 3006 2619 2597 2516 
z
" transform="scale(0.015625)"/>
       </defs>
       <use xlink:href="#DejaVuSans-31" transform="translate(0 0.765625)"/>
       <use xlink:href="#DejaVuSans-30" transform="translate(63.623047 0.765625)"/>
       <use xlink:href="#DejaVuSans-2212" transform="translate(128.203125 39.046875) scale(0.7)"/>
       <use xlink:href="#DejaVuSans-33" transform="translate(186.855469 39.046875) scale(0.7)"/>
      </g>
     </g>
    </g>
    <g id="ytick_2">
     <g id="line2d_2">
      <g>
       <use xlink:href="#mb27bf68180" x="54" y="140.3568" style="stroke: #000000; stroke-width: 0.8"/>
      </g>
     </g>
     <g id="text_3">
      <!-- $\mathdefault{10^{-2}}$ -->
      <g transform="translate(23.5 144.156019) scale(0.1 -0.1)">
       <defs>
        <path id="DejaVuSans-32" d="M 1228 531 
L 3431 531 
L 3431 0 
L 469 0 
L 469 531 
Q 828 903 1448 1529 
Q 2069 2156 2228 2338 
Q 2531 2678 2651 2914 
Q 2772 3150 2772 3378 
Q 2772 3750 2511 3984 
Q 2250 4219 1831 4219 
Q 1534 4219 1204 4116 
Q 875 4013 500 3803 
L 500 4441 
Q 881 4594 1212 4672 
Q 1544 4750 1819 4750 
Q 2544 4750 2975 4387 
Q 3406 4025 3406 3419 
Q 3406 3131 3298 2873 
Q 3191 2616 2906 2266 
Q 2828 2175 2409 1742 
Q 1991 1309 1228 531 
z
" transform="scale(0.015625)"/>
       </defs>
       <use xlink:href="#DejaVuSans-31" transform="translate(0 0.765625)"/>
       <use xlink:href="#DejaVuSans-30" transform="translate(63.623047 0.765625)"/>
       <use xlink:href="#DejaVuSans-2212" transform="translate(128.203125 39.046875) scale(0.7)"/>
       <use xlink:href="#DejaVuSans-32" transform="translate(186.855469 39.046875) scale(0.7)"/>
      </g>
     </g>
    </g>
    <g id="ytick_3">
     <g id="line2d_3">
      <g>
       <use xlink:href="#mb27bf68180" x="54" y="113.5296" style="stroke: #000000; stroke-width: 0.8"/>
      </g>
     </g>
     <g id="text_4">
      <!-- $\mathdefault{10^{-1}}$ -->
      <g transform="translate(23.5 117.328819) scale(0.1 -0.1)">
       <use xlink:href="#DejaVuSans-31" transform="translate(0 0.684375)"/>
       <use xlink:href="#DejaVuSans-30" transform="translate(63.623047 0.684375)"/>
       <use xlink:href="#DejaVuSans-2212" transform="translate(128.203125 38.965625) scale(0.7)"/>
       <use xlink:href="#DejaVuSans-31" transform="translate(186.855469 38.965625) scale(0.7)"/>
      </g>
     </g>
    </g>
    <g id="ytick_4">
     <g id="line2d_4">
      <g>
       <use xlink:href="#mb27bf68180" x="54" y="86.7024" style="stroke: #000000; stroke-width: 0.8"/>
      </g>
     </g>
     <g id="text_5">
      <!-- $\mathdefault{10^{0}}$ -->
      <g transform="translate(29.4 90.501619) scale(0.1 -0.1)">
       <use xlink:href="#DejaVuSans-31" transform="translate(0 0.765625)"/>
       <use xlink:href="#DejaVuSans-30" transform="translate(63.623047 0.765625)"/>
       <use xlink:href="#DejaVuSans-30" transform="translate(128.203125 39.046875) scale(0.7)"/>
      </g>
     </g>
    </g>
    <g id="ytick_5">
     <g id="line2d_5">
      <g>
       <use xlink:href="#mb27bf68180" x="54" y="59.8752" style="stroke: #000000; stroke-width: 0.8"/>
      </g>
     </g>
     <g id="text_6">
      <!-- $\mathdefault{10^{1}}$ -->
      <g transform="translate(29.4 63.674419) scale(0.1 -0.1)">
       <use xlink:href="#DejaVuSans-31" transform="translate(0 0.684375)"/>
       <use xlink:href="#DejaVuSans-30" transform="translate(63.623047 0.684375)"/>
       <use xlink:href="#DejaVuSans-31" transform="translate(128.203125 38.965625) scale(0.7)"/>
      </g>
     </g>
    </g>
    <g id="ytick_6">
     <g id="line2d_6">
      <g>
       <use xlink:href="#mb27bf68180" x="54" y="33.048" style="stroke: #000000; stroke-width: 0.8"/>
      </g>
     </g>
     <g id="text_7">
      <!-- $\mathdefault{10^{2}}$ -->
      <g transform="translate(29.4 36.847219) scale(0.1 -0.1)">
       <use xlink:href="#DejaVuSans-31" transform="translate(0 0.765625)"/>
       <use xlink:href="#DejaVuSans-30" transform="translate(63.623047 0.765625)"/>
       <use xlink:href="#DejaVuSans-32" transform="translate(128.203125 39.046875) scale(0.7)"/>
      </g>
     </g>
    </g>
    <g id="ytick_7">
     <g id="line2d_7">
      <defs>
       <path id="m4e5b4a4be7" d="M 0 0 
L -2 0 
" style="stroke: #000000; stroke-width: 0.6"/>
      </defs>
      <g>
       <use xlink:href="#m4e5b4a4be7" x="54" y="159.108208" style="stroke: #000000; stroke-width: 0.6"/>
      </g>
     </g>
    </g>
    <g id="ytick_8">
     <g id="line2d_8">
      <g>
       <use xlink:href="#m4e5b4a4be7" x="54" y="154.384173" style="stroke: #000000; stroke-width: 0.6"/>
      </g>
     </g>
    </g>
    <g id="ytick_9">
     <g id="line2d_9">
      <g>
       <use xlink:href="#m4e5b4a4be7" x="54" y="151.032416" style="stroke: #000000; stroke-width: 0.6"/>
      </g>
     </g>
    </g>
    <g id="ytick_10">
     <g id="line2d_10">
      <g>
       <use xlink:href="#m4e5b4a4be7" x="54" y="148.432592" style="stroke: #000000; stroke-width: 0.6"/>
      </g>
     </g>
    </g>
    <g id="ytick_11">
     <g id="line2d_11">
      <g>
       <use xlink:href="#m4e5b4a4be7" x="54" y="146.308381" style="stroke: #000000; stroke-width: 0.6"/>
      </g>
     </g>
    </g>
    <g id="ytick_12">
     <g id="line2d_12">
      <g>
       <use xlink:href="#m4e5b4a4be7" x="54" y="144.512386" style="stroke: #000000; stroke-width: 0.6"/>
      </g>
     </g>
    </g>
    <g id="ytick_13">
     <g id="line2d_13">
      <g>
       <use xlink:href="#m4e5b4a4be7" x="54" y="142.956624" style="stroke: #000000; stroke-width: 0.6"/>
      </g>
     </g>
    </g>
    <g id="ytick_14">
     <g id="line2d_14">
      <g>
       <use xlink:href="#m4e5b4a4be7" x="54" y="141.584345" style="stroke: #000000; stroke-width: 0.6"/>
      </g>
     </g>
    </g>
    <g id="ytick_15">
     <g id="line2d_15">
      <g>
       <use xlink:href="#m4e5b4a4be7" x="54" y="132.281008" style="stroke: #000000; stroke-width: 0.6"/>
      </g>
     </g>
    </g>
    <g id="ytick_16">
     <g id="line2d_16">
      <g>
       <use xlink:href="#m4e5b4a4be7" x="54" y="127.556973" style="stroke: #000000; stroke-width: 0.6"/>
      </g>
     </g>
    </g>
    <g id="ytick_17">
     <g id="line2d_17">
      <g>
       <use xlink:href="#m4e5b4a4be7" x="54" y="124.205216" style="stroke: #000000; stroke-width: 0.6"/>
      </g>
     </g>
    </g>
    <g id="ytick_18">
     <g id="line2d_18">
      <g>
       <use xlink:href="#m4e5b4a4be7" x="54" y="121.605392" style="stroke: #000000; stroke-width: 0.6"/>
      </g>
     </g>
    </g>
    <g id="ytick_19">
     <g id="line2d_19">
      <g>
       <use xlink:href="#m4e5b4a4be7" x="54" y="119.481181" style="stroke: #000000; stroke-width: 0.6"/>
      </g>
     </g>
    </g>
    <g id="ytick_20">
     <g id="line2d_20">
      <g>
       <use xlink:href="#m4e5b4a4be7" x="54" y="117.685186" style="stroke: #000000; stroke-width: 0.6"/>
      </g>
     </g>
    </g>
    <g id="ytick_21">
     <g id="line2d_21">
      <g>
       <use xlink:href="#m4e5b4a4be7" x="54" y="116.129424" style="stroke: #000000; stroke-width: 0.6"/>
      </g>
     </g>
    </g>
    <g id="ytick_22">
     <g id="line2d_22">
      <g>
       <use xlink:href="#m4e5b4a4be7" x="54" y="114.757145" style="stroke: #000000; stroke-width: 0.6"/>
      </g>
     </g>
    </g>
    <g id="ytick_23">
     <g id="line2d_23">
      <g>
       <use xlink:href="#m4e5b4a4be7" x="54" y="105.453808" style="stroke: #000000; stroke-width: 0.6"/>
      </g>
     </g>
    </g>
    <g id="ytick_24">
     <g id="line2d_24">
      <g>
       <use xlink:href="#m4e5b4a4be7" x="54" y="100.729773" style="stroke: #000000; stroke-width: 0.6"/>
      </g>
     </g>
    </g>
    <g id="ytick_25">
     <g id="line2d_25">
      <g>
       <use xlink:href="#m4e5b4a4be7" x="54" y="97.378016" style="stroke: #000000; stroke-width: 0.6"/>
      </g>
     </g>
    </g>
    <g id="ytick_26">
     <g id="line2d_26">
      <g>
       <use xlink:href="#m4e5b4a4be7" x="54" y="94.778192" style="stroke: #000000; stroke-width: 0.6"/>
      </g>
     </g>
    </g>
    <g id="ytick_27">
     <g id="line2d_27">
      <g>
       <use xlink:href="#m4e5b4a4be7" x="54" y="92.653981" style="stroke: #000000; stroke-width: 0.6"/>
      </g>
     </g>
    </g>
    <g id="ytick_28">
     <g id="line2d_28">
      <g>
       <use xlink:href="#m4e5b4a4be7" x="54" y="90.857986" style="stroke: #000000; stroke-width: 0.6"/>
      </g>
     </g>
    </g>
    <g id="ytick_29">
     <g id="line2d_29">
      <g>
       <use xlink:href="#m4e5b4a4be7" x="54" y="89.302224" style="stroke: #000000; stroke-width: 0.6"/>
      </g>
     </g>
    </g>
    <g id="ytick_30">
     <g id="line2d_30">
      <g>
       <use xlink:href="#m4e5b4a4be7" x="54" y="87.929945" style="stroke: #000000; stroke-width: 0.6"/>
      </g>
     </g>
    </g>
    <g id="ytick_31">
     <g id="line2d_31">
      <g>
       <use xlink:href="#m4e5b4a4be7" x="54" y="78.626608" style="stroke: #000000; stroke-width: 0.6"/>
      </g>
     </g>
    </g>
    <g id="ytick_32">
     <g id="line2d_32">
      <g>
       <use xlink:href="#m4e5b4a4be7" x="54" y="73.902573" style="stroke: #000000; stroke-width: 0.6"/>
      </g>
     </g>
    </g>
    <g id="ytick_33">
     <g id="line2d_33">
      <g>
       <use xlink:href="#m4e5b4a4be7" x="54" y="70.550816" style="stroke: #000000; stroke-width: 0.6"/>
      </g>
     </g>
    </g>
    <g id="ytick_34">
     <g id="line2d_34">
      <g>
       <use xlink:href="#m4e5b4a4be7" x="54" y="67.950992" style="stroke: #000000; stroke-width: 0.6"/>
      </g>
     </g>
    </g>
    <g id="ytick_35">
     <g id="line2d_35">
      <g>
       <use xlink:href="#m4e5b4a4be7" x="54" y="65.826781" style="stroke: #000000; stroke-width: 0.6"/>
      </g>
     </g>
    </g>
    <g id="ytick_36">
     <g id="line2d_36">
      <g>
       <use xlink:href="#m4e5b4a4be7" x="54" y="64.030786" style="stroke: #000000; stroke-width: 0.6"/>
      </g>
     </g>
    </g>
    <g id="ytick_37">
     <g id="line2d_37">
      <g>
       <use xlink:href="#m4e5b4a4be7" x="54" y="62.475024" style="stroke: #000000; stroke-width: 0.6"/>
      </g>
     </g>
    </g>
    <g id="ytick_38">
     <g id="line2d_38">
      <g>
       <use xlink:href="#m4e5b4a4be7" x="54" y="61.102745" style="stroke: #000000; stroke-width: 0.6"/>
      </g>
     </g>
    </g>
    <g id="ytick_39">
     <g id="line2d_39">
      <g>
       <use xlink:href="#m4e5b4a4be7" x="54" y="51.799408" style="stroke: #000000; stroke-width: 0.6"/>
      </g>
     </g>
    </g>
    <g id="ytick_40">
     <g id="line2d_40">
      <g>
       <use xlink:href="#m4e5b4a4be7" x="54" y="47.075373" style="stroke: #000000; stroke-width: 0.6"/>
      </g>
     </g>
    </g>
    <g id="ytick_41">
     <g id="line2d_41">
      <g>
       <use xlink:href="#m4e5b4a4be7" x="54" y="43.723616" style="stroke: #000000; stroke-width: 0.6"/>
      </g>
     </g>
    </g>
    <g id="ytick_42">
     <g id="line2d_42">
      <g>
       <use xlink:href="#m4e5b4a4be7" x="54" y="41.123792" style="stroke: #000000; stroke-width: 0.6"/>
      </g>
     </g>
    </g>
    <g id="ytick_43">
     <g id="line2d_43">
      <g>
       <use xlink:href="#m4e5b4a4be7" x="54" y="38.999581" style="stroke: #000000; stroke-width: 0.6"/>
      </g>
     </g>
    </g>
    <g id="ytick_44">
     <g id="line2d_44">
      <g>
       <use xlink:href="#m4e5b4a4be7" x="54" y="37.203586" style="stroke: #000000; stroke-width: 0.6"/>
      </g>
     </g>
    </g>
    <g id="ytick_45">
     <g id="line2d_45">
      <g>
       <use xlink:href="#m4e5b4a4be7" x="54" y="35.647824" style="stroke: #000000; stroke-width: 0.6"/>
      </g>
     </g>
    </g>
    <g id="ytick_46">
     <g id="line2d_46">
      <g>
       <use xlink:href="#m4e5b4a4be7" x="54" y="34.275545" style="stroke: #000000; stroke-width: 0.6"/>
      </g>
     </g>
    </g>
    <g id="text_8">
     <!-- MSE -->
     <g transform="translate(16.588437 115.022719) rotate(-90) scale(0.14 -0.14)">
      <defs>
       <path id="DejaVuSans-4d" d="M 628 4666 
L 1569 4666 
L 2759 1491 
L 3956 4666 
L 4897 4666 
L 4897 0 
L 4281 0 
L 4281 4097 
L 3078 897 
L 2444 897 
L 1241 4097 
L 1241 0 
L 628 0 
L 628 4666 
z
" transform="scale(0.015625)"/>
       <path id="DejaVuSans-53" d="M 3425 4513 
L 3425 3897 
Q 3066 4069 2747 4153 
Q 2428 4238 2131 4238 
Q 1616 4238 1336 4038 
Q 1056 3838 1056 3469 
Q 1056 3159 1242 3001 
Q 1428 2844 1947 2747 
L 2328 2669 
Q 3034 2534 3370 2195 
Q 3706 1856 3706 1288 
Q 3706 609 3251 259 
Q 2797 -91 1919 -91 
Q 1588 -91 1214 -16 
Q 841 59 441 206 
L 441 856 
Q 825 641 1194 531 
Q 1563 422 1919 422 
Q 2459 422 2753 634 
Q 3047 847 3047 1241 
Q 3047 1584 2836 1778 
Q 2625 1972 2144 2069 
L 1759 2144 
Q 1053 2284 737 2584 
Q 422 2884 422 3419 
Q 422 4038 858 4394 
Q 1294 4750 2059 4750 
Q 2388 4750 2728 4690 
Q 3069 4631 3425 4513 
z
" transform="scale(0.015625)"/>
       <path id="DejaVuSans-45" d="M 628 4666 
L 3578 4666 
L 3578 4134 
L 1259 4134 
L 1259 2753 
L 3481 2753 
L 3481 2222 
L 1259 2222 
L 1259 531 
L 3634 531 
L 3634 0 
L 628 0 
L 628 4666 
z
" transform="scale(0.015625)"/>
      </defs>
      <use xlink:href="#DejaVuSans-4d"/>
      <use xlink:href="#DejaVuSans-53" x="86.279297"/>
      <use xlink:href="#DejaVuSans-45" x="149.755859"/>
     </g>
    </g>
   </g>
   <g id="line2d_47">
    <path d="M 69.187112 145.793014 
L 73.226237 144.450191 
L 77.265362 143.433494 
L 81.304488 139.943005 
L 85.343613 112.875671 
L 89.382739 112.135666 
L 93.421864 109.327254 
L 97.46099 107.913176 
L 101.500115 107.352792 
L 105.539241 106.972763 
L 109.578366 104.839772 
L 113.617491 103.85361 
L 117.656617 103.224817 
L 121.695742 103.022094 
L 125.734868 101.994571 
L 129.773993 100.703321 
L 133.813119 99.66093 
L 137.852244 99.061265 
L 141.891369 98.415598 
L 145.930495 98.3146 
L 149.96962 97.617606 
L 154.008746 97.231711 
L 158.047871 96.857641 
L 162.086997 96.783979 
L 166.126122 96.241818 
L 170.165247 95.953203 
L 174.204373 95.741203 
L 178.243498 95.693142 
L 182.282624 95.399868 
L 186.321749 95.24587 
L 190.360875 94.931402 
L 194.4 94.835821 
L 198.439125 94.463057 
L 202.478251 94.455882 
L 206.517376 94.383285 
L 210.556502 94.104183 
L 214.595627 93.251265 
L 218.634753 92.775899 
L 222.673878 92.083088 
L 226.713003 92.062388 
L 230.752129 91.907329 
L 234.791254 91.429491 
L 238.83038 91.404276 
L 242.869505 91.034265 
L 246.908631 90.810899 
L 250.947756 90.753944 
L 254.986881 90.676153 
L 259.026007 90.217347 
L 263.065132 90.21123 
L 267.104258 90.13913 
L 271.143383 89.854069 
L 275.182509 89.686507 
L 279.221634 89.419644 
L 283.260759 89.31033 
L 287.299885 89.289193 
L 291.33901 88.974761 
L 295.378136 88.883212 
L 299.417261 88.872315 
L 303.456387 88.592451 
L 307.495512 87.842855 
L 311.534638 87.812481 
L 315.573763 87.803566 
L 319.612888 87.609102 
" clip-path="url(#p839e5ea793)" style="fill: none; stroke: #1db8f7; stroke-width: 1.5; stroke-linecap: square"/>
   </g>
   <g id="line2d_48">
    <path d="M 69.187112 50.370174 
L 319.612888 50.370174 
" clip-path="url(#p839e5ea793)" style="fill: none; stroke-dasharray: 4.5,4.5; stroke-dashoffset: 0; stroke: #1db8f7; stroke-width: 1.5"/>
   </g>
   <g id="line2d_49">
    <path d="M 69.187112 57.583346 
L 319.612888 57.583346 
" clip-path="url(#p839e5ea793)" style="fill: none; stroke-dasharray: 4.5,4.5; stroke-dashoffset: 0; stroke: #6c17b9; stroke-width: 1.5"/>
   </g>
   <g id="patch_66">
    <path d="M 54 167.184 
L 54 33.048 
" style="fill: none; stroke: #000000; stroke-width: 0.8; stroke-linejoin: miter; stroke-linecap: square"/>
   </g>
   <g id="patch_67">
    <path d="M 334.8 167.184 
L 334.8 33.048 
" style="fill: none; stroke: #000000; stroke-width: 0.8; stroke-linejoin: miter; stroke-linecap: square"/>
   </g>
   <g id="patch_68">
    <path d="M 54 167.184 
L 334.8 167.184 
" style="fill: none; stroke: #000000; stroke-width: 0.8; stroke-linejoin: miter; stroke-linecap: square"/>
   </g>
   <g id="patch_69">
    <path d="M 54 33.048 
L 334.8 33.048 
" style="fill: none; stroke: #000000; stroke-width: 0.8; stroke-linejoin: miter; stroke-linecap: square"/>
   </g>
  </g>
  <g id="text_9">
   <!-- LSTM Configurations For Case 4 -->
   <g transform="translate(21.15 21.028875) scale(0.2 -0.2)">
    <defs>
     <path id="DejaVuSans-4c" d="M 628 4666 
L 1259 4666 
L 1259 531 
L 3531 531 
L 3531 0 
L 628 0 
L 628 4666 
z
" transform="scale(0.015625)"/>
     <path id="DejaVuSans-54" d="M -19 4666 
L 3928 4666 
L 3928 4134 
L 2272 4134 
L 2272 0 
L 1638 0 
L 1638 4134 
L -19 4134 
L -19 4666 
z
" transform="scale(0.015625)"/>
     <path id="DejaVuSans-46" d="M 628 4666 
L 3309 4666 
L 3309 4134 
L 1259 4134 
L 1259 2759 
L 3109 2759 
L 3109 2228 
L 1259 2228 
L 1259 0 
L 628 0 
L 628 4666 
z
" transform="scale(0.015625)"/>
     <path id="DejaVuSans-34" d="M 2419 4116 
L 825 1625 
L 2419 1625 
L 2419 4116 
z
M 2253 4666 
L 3047 4666 
L 3047 1625 
L 3713 1625 
L 3713 1100 
L 3047 1100 
L 3047 0 
L 2419 0 
L 2419 1100 
L 313 1100 
L 313 1709 
L 2253 4666 
z
" transform="scale(0.015625)"/>
    </defs>
    <use xlink:href="#DejaVuSans-4c"/>
    <use xlink:href="#DejaVuSans-53" x="55.712891"/>
    <use xlink:href="#DejaVuSans-54" x="119.189453"/>
    <use xlink:href="#DejaVuSans-4d" x="180.273438"/>
    <use xlink:href="#DejaVuSans-20" x="266.552734"/>
    <use xlink:href="#DejaVuSans-43" x="298.339844"/>
    <use xlink:href="#DejaVuSans-6f" x="368.164062"/>
    <use xlink:href="#DejaVuSans-6e" x="429.345703"/>
    <use xlink:href="#DejaVuSans-66" x="492.724609"/>
    <use xlink:href="#DejaVuSans-69" x="527.929688"/>
    <use xlink:href="#DejaVuSans-67" x="555.712891"/>
    <use xlink:href="#DejaVuSans-75" x="619.189453"/>
    <use xlink:href="#DejaVuSans-72" x="682.568359"/>
    <use xlink:href="#DejaVuSans-61" x="723.681641"/>
    <use xlink:href="#DejaVuSans-74" x="784.960938"/>
    <use xlink:href="#DejaVuSans-69" x="824.169922"/>
    <use xlink:href="#DejaVuSans-6f" x="851.953125"/>
    <use xlink:href="#DejaVuSans-6e" x="913.134766"/>
    <use xlink:href="#DejaVuSans-73" x="976.513672"/>
    <use xlink:href="#DejaVuSans-20" x="1028.613281"/>
    <use xlink:href="#DejaVuSans-46" x="1060.400391"/>
    <use xlink:href="#DejaVuSans-6f" x="1114.294922"/>
    <use xlink:href="#DejaVuSans-72" x="1175.476562"/>
    <use xlink:href="#DejaVuSans-20" x="1216.589844"/>
    <use xlink:href="#DejaVuSans-43" x="1248.376953"/>
    <use xlink:href="#DejaVuSans-61" x="1318.201172"/>
    <use xlink:href="#DejaVuSans-73" x="1379.480469"/>
    <use xlink:href="#DejaVuSans-65" x="1431.580078"/>
    <use xlink:href="#DejaVuSans-20" x="1493.103516"/>
    <use xlink:href="#DejaVuSans-34" x="1524.890625"/>
   </g>
  </g>
 </g>
 <defs>
  <clipPath id="p839e5ea793">
   <rect x="54" y="33.048" width="280.8" height="134.136"/>
  </clipPath>
 </defs>
</svg>
