<?xml version="1.0" encoding="utf-8" standalone="no"?>
<!DOCTYPE svg PUBLIC "-//W3C//DTD SVG 1.1//EN"
  "http://www.w3.org/Graphics/SVG/1.1/DTD/svg11.dtd">
<svg xmlns:xlink="http://www.w3.org/1999/xlink" width="360pt" height="194.4pt" viewBox="0 0 360 194.4" xmlns="http://www.w3.org/2000/svg" version="1.1">
 <metadata>
  <rdf:RDF xmlns:dc="http://purl.org/dc/elements/1.1/" xmlns:cc="http://creativecommons.org/ns#" xmlns:rdf="http://www.w3.org/1999/02/22-rdf-syntax-ns#">
   <cc:Work>
    <dc:type rdf:resource="http://purl.org/dc/dcmitype/StillImage"/>
    <dc:date>2024-09-05T16:14:36.210249</dc:date>
    <dc:format>image/svg+xml</dc:format>
    <dc:creator>
     <cc:Agent>
      <dc:title>Matplotlib v3.9.1.post1, https://matplotlib.org/</dc:title>
     </cc:Agent>
    </dc:creator>
   </cc:Work>
  </rdf:RDF>
 </metadata>
 <defs>
  <style type="text/css">*{stroke-linejoin: round; stroke-linecap: butt}</style>
 </defs>
 <g id="figure_1">
  <g id="patch_1">
   <path d="M 0 194.4 
L 360 194.4 
L 360 0 
L 0 0 
z
" style="fill: #ffffff"/>
  </g>
  <g id="axes_1">
   <g id="patch_2">
    <path d="M 54 167.184 
L 334.8 167.184 
L 334.8 33.048 
L 54 33.048 
z
" style="fill: #ffffff"/>
   </g>
   <g id="patch_3">
    <path d="M 66.763636 44789.76 
L 71.610587 44789.76 
L 71.610587 120.644176 
L 66.763636 120.644176 
z
" clip-path="url(#p98eb31c986)" style="fill: #6c17b9"/>
   </g>
   <g id="patch_4">
    <path d="M 70.802762 44789.76 
L 75.649712 44789.76 
L 75.649712 112.286004 
L 70.802762 112.286004 
z
" clip-path="url(#p98eb31c986)" style="fill: #6c17b9"/>
   </g>
   <g id="patch_5">
    <path d="M 74.841887 44789.76 
L 79.688838 44789.76 
L 79.688838 116.310852 
L 74.841887 116.310852 
z
" clip-path="url(#p98eb31c986)" style="fill: #6c17b9"/>
   </g>
   <g id="patch_6">
    <path d="M 78.881013 44789.76 
L 83.727963 44789.76 
L 83.727963 114.061003 
L 78.881013 114.061003 
z
" clip-path="url(#p98eb31c986)" style="fill: #6c17b9"/>
   </g>
   <g id="patch_7">
    <path d="M 82.920138 44789.76 
L 87.767089 44789.76 
L 87.767089 117.275626 
L 82.920138 117.275626 
z
" clip-path="url(#p98eb31c986)" style="fill: #6c17b9"/>
   </g>
   <g id="patch_8">
    <path d="M 86.959264 44789.76 
L 91.806214 44789.76 
L 91.806214 132.710986 
L 86.959264 132.710986 
z
" clip-path="url(#p98eb31c986)" style="fill: #6c17b9"/>
   </g>
   <g id="patch_9">
    <path d="M 90.998389 44789.76 
L 95.845339 44789.76 
L 95.845339 140.239707 
L 90.998389 140.239707 
z
" clip-path="url(#p98eb31c986)" style="fill: #6c17b9"/>
   </g>
   <g id="patch_10">
    <path d="M 95.037514 44789.76 
L 99.884465 44789.76 
L 99.884465 138.677391 
L 95.037514 138.677391 
z
" clip-path="url(#p98eb31c986)" style="fill: #6c17b9"/>
   </g>
   <g id="patch_11">
    <path d="M 99.07664 44789.76 
L 103.92359 44789.76 
L 103.92359 106.278798 
L 99.07664 106.278798 
z
" clip-path="url(#p98eb31c986)" style="fill: #6c17b9"/>
   </g>
   <g id="patch_12">
    <path d="M 103.115765 44789.76 
L 107.962716 44789.76 
L 107.962716 97.287907 
L 103.115765 97.287907 
z
" clip-path="url(#p98eb31c986)" style="fill: #6c17b9"/>
   </g>
   <g id="patch_13">
    <path d="M 107.154891 44789.76 
L 112.001841 44789.76 
L 112.001841 125.075002 
L 107.154891 125.075002 
z
" clip-path="url(#p98eb31c986)" style="fill: #6c17b9"/>
   </g>
   <g id="patch_14">
    <path d="M 111.194016 44789.76 
L 116.040967 44789.76 
L 116.040967 119.634828 
L 111.194016 119.634828 
z
" clip-path="url(#p98eb31c986)" style="fill: #6c17b9"/>
   </g>
   <g id="patch_15">
    <path d="M 115.233142 44789.76 
L 120.080092 44789.76 
L 120.080092 133.372162 
L 115.233142 133.372162 
z
" clip-path="url(#p98eb31c986)" style="fill: #6c17b9"/>
   </g>
   <g id="patch_16">
    <path d="M 119.272267 44789.76 
L 124.119217 44789.76 
L 124.119217 110.888109 
L 119.272267 110.888109 
z
" clip-path="url(#p98eb31c986)" style="fill: #6c17b9"/>
   </g>
   <g id="patch_17">
    <path d="M 123.311392 44789.76 
L 128.158343 44789.76 
L 128.158343 132.362162 
L 123.311392 132.362162 
z
" clip-path="url(#p98eb31c986)" style="fill: #6c17b9"/>
   </g>
   <g id="patch_18">
    <path d="M 127.350518 44789.76 
L 132.197468 44789.76 
L 132.197468 118.435633 
L 127.350518 118.435633 
z
" clip-path="url(#p98eb31c986)" style="fill: #6c17b9"/>
   </g>
   <g id="patch_19">
    <path d="M 131.389643 44789.76 
L 136.236594 44789.76 
L 136.236594 128.232109 
L 131.389643 128.232109 
z
" clip-path="url(#p98eb31c986)" style="fill: #6c17b9"/>
   </g>
   <g id="patch_20">
    <path d="M 135.428769 44789.76 
L 140.275719 44789.76 
L 140.275719 123.412668 
L 135.428769 123.412668 
z
" clip-path="url(#p98eb31c986)" style="fill: #6c17b9"/>
   </g>
   <g id="patch_21">
    <path d="M 139.467894 44789.76 
L 144.314845 44789.76 
L 144.314845 136.847572 
L 139.467894 136.847572 
z
" clip-path="url(#p98eb31c986)" style="fill: #6c17b9"/>
   </g>
   <g id="patch_22">
    <path d="M 143.50702 44789.76 
L 148.35397 44789.76 
L 148.35397 104.121797 
L 143.50702 104.121797 
z
" clip-path="url(#p98eb31c986)" style="fill: #6c17b9"/>
   </g>
   <g id="patch_23">
    <path d="M 147.546145 44789.76 
L 152.393096 44789.76 
L 152.393096 140.379457 
L 147.546145 140.379457 
z
" clip-path="url(#p98eb31c986)" style="fill: #6c17b9"/>
   </g>
   <g id="patch_24">
    <path d="M 151.58527 44789.76 
L 156.432221 44789.76 
L 156.432221 120.458747 
L 151.58527 120.458747 
z
" clip-path="url(#p98eb31c986)" style="fill: #6c17b9"/>
   </g>
   <g id="patch_25">
    <path d="M 155.624396 44789.76 
L 160.471346 44789.76 
L 160.471346 141.489937 
L 155.624396 141.489937 
z
" clip-path="url(#p98eb31c986)" style="fill: #6c17b9"/>
   </g>
   <g id="patch_26">
    <path d="M 159.663521 44789.76 
L 164.510472 44789.76 
L 164.510472 129.177351 
L 159.663521 129.177351 
z
" clip-path="url(#p98eb31c986)" style="fill: #6c17b9"/>
   </g>
   <g id="patch_27">
    <path d="M 163.702647 44789.76 
L 168.549597 44789.76 
L 168.549597 107.10111 
L 163.702647 107.10111 
z
" clip-path="url(#p98eb31c986)" style="fill: #6c17b9"/>
   </g>
   <g id="patch_28">
    <path d="M 167.741772 44789.76 
L 172.588723 44789.76 
L 172.588723 120.244444 
L 167.741772 120.244444 
z
" clip-path="url(#p98eb31c986)" style="fill: #6c17b9"/>
   </g>
   <g id="patch_29">
    <path d="M 171.780898 44789.76 
L 176.627848 44789.76 
L 176.627848 134.679752 
L 171.780898 134.679752 
z
" clip-path="url(#p98eb31c986)" style="fill: #6c17b9"/>
   </g>
   <g id="patch_30">
    <path d="M 175.820023 44789.76 
L 180.666974 44789.76 
L 180.666974 118.706628 
L 175.820023 118.706628 
z
" clip-path="url(#p98eb31c986)" style="fill: #6c17b9"/>
   </g>
   <g id="patch_31">
    <path d="M 179.859148 44789.76 
L 184.706099 44789.76 
L 184.706099 125.117261 
L 179.859148 125.117261 
z
" clip-path="url(#p98eb31c986)" style="fill: #6c17b9"/>
   </g>
   <g id="patch_32">
    <path d="M 183.898274 44789.76 
L 188.745224 44789.76 
L 188.745224 120.853087 
L 183.898274 120.853087 
z
" clip-path="url(#p98eb31c986)" style="fill: #6c17b9"/>
   </g>
   <g id="patch_33">
    <path d="M 187.937399 44789.76 
L 192.78435 44789.76 
L 192.78435 124.106691 
L 187.937399 124.106691 
z
" clip-path="url(#p98eb31c986)" style="fill: #6c17b9"/>
   </g>
   <g id="patch_34">
    <path d="M 191.976525 44789.76 
L 196.823475 44789.76 
L 196.823475 117.786173 
L 191.976525 117.786173 
z
" clip-path="url(#p98eb31c986)" style="fill: #6c17b9"/>
   </g>
   <g id="patch_35">
    <path d="M 196.01565 44789.76 
L 200.862601 44789.76 
L 200.862601 87.93686 
L 196.01565 87.93686 
z
" clip-path="url(#p98eb31c986)" style="fill: #6c17b9"/>
   </g>
   <g id="patch_36">
    <path d="M 200.054776 44789.76 
L 204.901726 44789.76 
L 204.901726 114.182306 
L 200.054776 114.182306 
z
" clip-path="url(#p98eb31c986)" style="fill: #6c17b9"/>
   </g>
   <g id="patch_37">
    <path d="M 204.093901 44789.76 
L 208.940852 44789.76 
L 208.940852 138.127423 
L 204.093901 138.127423 
z
" clip-path="url(#p98eb31c986)" style="fill: #6c17b9"/>
   </g>
   <g id="patch_38">
    <path d="M 208.133026 44789.76 
L 212.979977 44789.76 
L 212.979977 132.665775 
L 208.133026 132.665775 
z
" clip-path="url(#p98eb31c986)" style="fill: #6c17b9"/>
   </g>
   <g id="patch_39">
    <path d="M 212.172152 44789.76 
L 217.019102 44789.76 
L 217.019102 107.663335 
L 212.172152 107.663335 
z
" clip-path="url(#p98eb31c986)" style="fill: #6c17b9"/>
   </g>
   <g id="patch_40">
    <path d="M 216.211277 44789.76 
L 221.058228 44789.76 
L 221.058228 124.498652 
L 216.211277 124.498652 
z
" clip-path="url(#p98eb31c986)" style="fill: #6c17b9"/>
   </g>
   <g id="patch_41">
    <path d="M 220.250403 44789.76 
L 225.097353 44789.76 
L 225.097353 95.589967 
L 220.250403 95.589967 
z
" clip-path="url(#p98eb31c986)" style="fill: #6c17b9"/>
   </g>
   <g id="patch_42">
    <path d="M 224.289528 44789.76 
L 229.136479 44789.76 
L 229.136479 122.718745 
L 224.289528 122.718745 
z
" clip-path="url(#p98eb31c986)" style="fill: #6c17b9"/>
   </g>
   <g id="patch_43">
    <path d="M 228.328654 44789.76 
L 233.175604 44789.76 
L 233.175604 118.871787 
L 228.328654 118.871787 
z
" clip-path="url(#p98eb31c986)" style="fill: #6c17b9"/>
   </g>
   <g id="patch_44">
    <path d="M 232.367779 44789.76 
L 237.21473 44789.76 
L 237.21473 96.708805 
L 232.367779 96.708805 
z
" clip-path="url(#p98eb31c986)" style="fill: #6c17b9"/>
   </g>
   <g id="patch_45">
    <path d="M 236.406904 44789.76 
L 241.253855 44789.76 
L 241.253855 108.725637 
L 236.406904 108.725637 
z
" clip-path="url(#p98eb31c986)" style="fill: #6c17b9"/>
   </g>
   <g id="patch_46">
    <path d="M 240.44603 44789.76 
L 245.29298 44789.76 
L 245.29298 77.012803 
L 240.44603 77.012803 
z
" clip-path="url(#p98eb31c986)" style="fill: #6c17b9"/>
   </g>
   <g id="patch_47">
    <path d="M 244.485155 44789.76 
L 249.332106 44789.76 
L 249.332106 92.966297 
L 244.485155 92.966297 
z
" clip-path="url(#p98eb31c986)" style="fill: #6c17b9"/>
   </g>
   <g id="patch_48">
    <path d="M 248.524281 44789.76 
L 253.371231 44789.76 
L 253.371231 96.335178 
L 248.524281 96.335178 
z
" clip-path="url(#p98eb31c986)" style="fill: #6c17b9"/>
   </g>
   <g id="patch_49">
    <path d="M 252.563406 44789.76 
L 257.410357 44789.76 
L 257.410357 106.941835 
L 252.563406 106.941835 
z
" clip-path="url(#p98eb31c986)" style="fill: #6c17b9"/>
   </g>
   <g id="patch_50">
    <path d="M 256.602532 44789.76 
L 261.449482 44789.76 
L 261.449482 102.317026 
L 256.602532 102.317026 
z
" clip-path="url(#p98eb31c986)" style="fill: #6c17b9"/>
   </g>
   <g id="patch_51">
    <path d="M 260.641657 44789.76 
L 265.488608 44789.76 
L 265.488608 109.347601 
L 260.641657 109.347601 
z
" clip-path="url(#p98eb31c986)" style="fill: #6c17b9"/>
   </g>
   <g id="patch_52">
    <path d="M 264.680783 44789.76 
L 269.527733 44789.76 
L 269.527733 103.579608 
L 264.680783 103.579608 
z
" clip-path="url(#p98eb31c986)" style="fill: #6c17b9"/>
   </g>
   <g id="patch_53">
    <path d="M 268.719908 44789.76 
L 273.566858 44789.76 
L 273.566858 100.459999 
L 268.719908 100.459999 
z
" clip-path="url(#p98eb31c986)" style="fill: #6c17b9"/>
   </g>
   <g id="patch_54">
    <path d="M 272.759033 44789.76 
L 277.605984 44789.76 
L 277.605984 105.017635 
L 272.759033 105.017635 
z
" clip-path="url(#p98eb31c986)" style="fill: #6c17b9"/>
   </g>
   <g id="patch_55">
    <path d="M 276.798159 44789.76 
L 281.645109 44789.76 
L 281.645109 84.001962 
L 276.798159 84.001962 
z
" clip-path="url(#p98eb31c986)" style="fill: #6c17b9"/>
   </g>
   <g id="patch_56">
    <path d="M 280.837284 44789.76 
L 285.684235 44789.76 
L 285.684235 92.134533 
L 280.837284 92.134533 
z
" clip-path="url(#p98eb31c986)" style="fill: #6c17b9"/>
   </g>
   <g id="patch_57">
    <path d="M 284.87641 44789.76 
L 289.72336 44789.76 
L 289.72336 108.904049 
L 284.87641 108.904049 
z
" clip-path="url(#p98eb31c986)" style="fill: #6c17b9"/>
   </g>
   <g id="patch_58">
    <path d="M 288.915535 44789.76 
L 293.762486 44789.76 
L 293.762486 92.046983 
L 288.915535 92.046983 
z
" clip-path="url(#p98eb31c986)" style="fill: #6c17b9"/>
   </g>
   <g id="patch_59">
    <path d="M 292.954661 44789.76 
L 297.801611 44789.76 
L 297.801611 100.970567 
L 292.954661 100.970567 
z
" clip-path="url(#p98eb31c986)" style="fill: #6c17b9"/>
   </g>
   <g id="patch_60">
    <path d="M 296.993786 44789.76 
L 301.840736 44789.76 
L 301.840736 98.980333 
L 296.993786 98.980333 
z
" clip-path="url(#p98eb31c986)" style="fill: #6c17b9"/>
   </g>
   <g id="patch_61">
    <path d="M 301.032911 44789.76 
L 305.879862 44789.76 
L 305.879862 101.853414 
L 301.032911 101.853414 
z
" clip-path="url(#p98eb31c986)" style="fill: #6c17b9"/>
   </g>
   <g id="patch_62">
    <path d="M 305.072037 44789.76 
L 309.918987 44789.76 
L 309.918987 100.56033 
L 305.072037 100.56033 
z
" clip-path="url(#p98eb31c986)" style="fill: #6c17b9"/>
   </g>
   <g id="patch_63">
    <path d="M 309.111162 44789.76 
L 313.958113 44789.76 
L 313.958113 106.751571 
L 309.111162 106.751571 
z
" clip-path="url(#p98eb31c986)" style="fill: #6c17b9"/>
   </g>
   <g id="patch_64">
    <path d="M 313.150288 44789.76 
L 317.997238 44789.76 
L 317.997238 106.27361 
L 313.150288 106.27361 
z
" clip-path="url(#p98eb31c986)" style="fill: #6c17b9"/>
   </g>
   <g id="patch_65">
    <path d="M 317.189413 44789.76 
L 322.036364 44789.76 
L 322.036364 109.887802 
L 317.189413 109.887802 
z
" clip-path="url(#p98eb31c986)" style="fill: #6c17b9"/>
   </g>
   <g id="matplotlib.axis_1">
    <g id="text_1">
     <!-- Hyperparameter Configurations -->
     <g transform="translate(83.065 187.821812) scale(0.14 -0.14)">
      <defs>
       <path id="DejaVuSans-48" d="M 628 4666 
L 1259 4666 
L 1259 2753 
L 3553 2753 
L 3553 4666 
L 4184 4666 
L 4184 0 
L 3553 0 
L 3553 2222 
L 1259 2222 
L 1259 0 
L 628 0 
L 628 4666 
z
" transform="scale(0.015625)"/>
       <path id="DejaVuSans-79" d="M 2059 -325 
Q 1816 -950 1584 -1140 
Q 1353 -1331 966 -1331 
L 506 -1331 
L 506 -850 
L 844 -850 
Q 1081 -850 1212 -737 
Q 1344 -625 1503 -206 
L 1606 56 
L 191 3500 
L 800 3500 
L 1894 763 
L 2988 3500 
L 3597 3500 
L 2059 -325 
z
" transform="scale(0.015625)"/>
       <path id="DejaVuSans-70" d="M 1159 525 
L 1159 -1331 
L 581 -1331 
L 581 3500 
L 1159 3500 
L 1159 2969 
Q 1341 3281 1617 3432 
Q 1894 3584 2278 3584 
Q 2916 3584 3314 3078 
Q 3713 2572 3713 1747 
Q 3713 922 3314 415 
Q 2916 -91 2278 -91 
Q 1894 -91 1617 61 
Q 1341 213 1159 525 
z
M 3116 1747 
Q 3116 2381 2855 2742 
Q 2594 3103 2138 3103 
Q 1681 3103 1420 2742 
Q 1159 2381 1159 1747 
Q 1159 1113 1420 752 
Q 1681 391 2138 391 
Q 2594 391 2855 752 
Q 3116 1113 3116 1747 
z
" transform="scale(0.015625)"/>
       <path id="DejaVuSans-65" d="M 3597 1894 
L 3597 1613 
L 953 1613 
Q 991 1019 1311 708 
Q 1631 397 2203 397 
Q 2534 397 2845 478 
Q 3156 559 3463 722 
L 3463 178 
Q 3153 47 2828 -22 
Q 2503 -91 2169 -91 
Q 1331 -91 842 396 
Q 353 884 353 1716 
Q 353 2575 817 3079 
Q 1281 3584 2069 3584 
Q 2775 3584 3186 3129 
Q 3597 2675 3597 1894 
z
M 3022 2063 
Q 3016 2534 2758 2815 
Q 2500 3097 2075 3097 
Q 1594 3097 1305 2825 
Q 1016 2553 972 2059 
L 3022 2063 
z
" transform="scale(0.015625)"/>
       <path id="DejaVuSans-72" d="M 2631 2963 
Q 2534 3019 2420 3045 
Q 2306 3072 2169 3072 
Q 1681 3072 1420 2755 
Q 1159 2438 1159 1844 
L 1159 0 
L 581 0 
L 581 3500 
L 1159 3500 
L 1159 2956 
Q 1341 3275 1631 3429 
Q 1922 3584 2338 3584 
Q 2397 3584 2469 3576 
Q 2541 3569 2628 3553 
L 2631 2963 
z
" transform="scale(0.015625)"/>
       <path id="DejaVuSans-61" d="M 2194 1759 
Q 1497 1759 1228 1600 
Q 959 1441 959 1056 
Q 959 750 1161 570 
Q 1363 391 1709 391 
Q 2188 391 2477 730 
Q 2766 1069 2766 1631 
L 2766 1759 
L 2194 1759 
z
M 3341 1997 
L 3341 0 
L 2766 0 
L 2766 531 
Q 2569 213 2275 61 
Q 1981 -91 1556 -91 
Q 1019 -91 701 211 
Q 384 513 384 1019 
Q 384 1609 779 1909 
Q 1175 2209 1959 2209 
L 2766 2209 
L 2766 2266 
Q 2766 2663 2505 2880 
Q 2244 3097 1772 3097 
Q 1472 3097 1187 3025 
Q 903 2953 641 2809 
L 641 3341 
Q 956 3463 1253 3523 
Q 1550 3584 1831 3584 
Q 2591 3584 2966 3190 
Q 3341 2797 3341 1997 
z
" transform="scale(0.015625)"/>
       <path id="DejaVuSans-6d" d="M 3328 2828 
Q 3544 3216 3844 3400 
Q 4144 3584 4550 3584 
Q 5097 3584 5394 3201 
Q 5691 2819 5691 2113 
L 5691 0 
L 5113 0 
L 5113 2094 
Q 5113 2597 4934 2840 
Q 4756 3084 4391 3084 
Q 3944 3084 3684 2787 
Q 3425 2491 3425 1978 
L 3425 0 
L 2847 0 
L 2847 2094 
Q 2847 2600 2669 2842 
Q 2491 3084 2119 3084 
Q 1678 3084 1418 2786 
Q 1159 2488 1159 1978 
L 1159 0 
L 581 0 
L 581 3500 
L 1159 3500 
L 1159 2956 
Q 1356 3278 1631 3431 
Q 1906 3584 2284 3584 
Q 2666 3584 2933 3390 
Q 3200 3197 3328 2828 
z
" transform="scale(0.015625)"/>
       <path id="DejaVuSans-74" d="M 1172 4494 
L 1172 3500 
L 2356 3500 
L 2356 3053 
L 1172 3053 
L 1172 1153 
Q 1172 725 1289 603 
Q 1406 481 1766 481 
L 2356 481 
L 2356 0 
L 1766 0 
Q 1100 0 847 248 
Q 594 497 594 1153 
L 594 3053 
L 172 3053 
L 172 3500 
L 594 3500 
L 594 4494 
L 1172 4494 
z
" transform="scale(0.015625)"/>
       <path id="DejaVuSans-20" transform="scale(0.015625)"/>
       <path id="DejaVuSans-43" d="M 4122 4306 
L 4122 3641 
Q 3803 3938 3442 4084 
Q 3081 4231 2675 4231 
Q 1875 4231 1450 3742 
Q 1025 3253 1025 2328 
Q 1025 1406 1450 917 
Q 1875 428 2675 428 
Q 3081 428 3442 575 
Q 3803 722 4122 1019 
L 4122 359 
Q 3791 134 3420 21 
Q 3050 -91 2638 -91 
Q 1578 -91 968 557 
Q 359 1206 359 2328 
Q 359 3453 968 4101 
Q 1578 4750 2638 4750 
Q 3056 4750 3426 4639 
Q 3797 4528 4122 4306 
z
" transform="scale(0.015625)"/>
       <path id="DejaVuSans-6f" d="M 1959 3097 
Q 1497 3097 1228 2736 
Q 959 2375 959 1747 
Q 959 1119 1226 758 
Q 1494 397 1959 397 
Q 2419 397 2687 759 
Q 2956 1122 2956 1747 
Q 2956 2369 2687 2733 
Q 2419 3097 1959 3097 
z
M 1959 3584 
Q 2709 3584 3137 3096 
Q 3566 2609 3566 1747 
Q 3566 888 3137 398 
Q 2709 -91 1959 -91 
Q 1206 -91 779 398 
Q 353 888 353 1747 
Q 353 2609 779 3096 
Q 1206 3584 1959 3584 
z
" transform="scale(0.015625)"/>
       <path id="DejaVuSans-6e" d="M 3513 2113 
L 3513 0 
L 2938 0 
L 2938 2094 
Q 2938 2591 2744 2837 
Q 2550 3084 2163 3084 
Q 1697 3084 1428 2787 
Q 1159 2491 1159 1978 
L 1159 0 
L 581 0 
L 581 3500 
L 1159 3500 
L 1159 2956 
Q 1366 3272 1645 3428 
Q 1925 3584 2291 3584 
Q 2894 3584 3203 3211 
Q 3513 2838 3513 2113 
z
" transform="scale(0.015625)"/>
       <path id="DejaVuSans-66" d="M 2375 4863 
L 2375 4384 
L 1825 4384 
Q 1516 4384 1395 4259 
Q 1275 4134 1275 3809 
L 1275 3500 
L 2222 3500 
L 2222 3053 
L 1275 3053 
L 1275 0 
L 697 0 
L 697 3053 
L 147 3053 
L 147 3500 
L 697 3500 
L 697 3744 
Q 697 4328 969 4595 
Q 1241 4863 1831 4863 
L 2375 4863 
z
" transform="scale(0.015625)"/>
       <path id="DejaVuSans-69" d="M 603 3500 
L 1178 3500 
L 1178 0 
L 603 0 
L 603 3500 
z
M 603 4863 
L 1178 4863 
L 1178 4134 
L 603 4134 
L 603 4863 
z
" transform="scale(0.015625)"/>
       <path id="DejaVuSans-67" d="M 2906 1791 
Q 2906 2416 2648 2759 
Q 2391 3103 1925 3103 
Q 1463 3103 1205 2759 
Q 947 2416 947 1791 
Q 947 1169 1205 825 
Q 1463 481 1925 481 
Q 2391 481 2648 825 
Q 2906 1169 2906 1791 
z
M 3481 434 
Q 3481 -459 3084 -895 
Q 2688 -1331 1869 -1331 
Q 1566 -1331 1297 -1286 
Q 1028 -1241 775 -1147 
L 775 -588 
Q 1028 -725 1275 -790 
Q 1522 -856 1778 -856 
Q 2344 -856 2625 -561 
Q 2906 -266 2906 331 
L 2906 616 
Q 2728 306 2450 153 
Q 2172 0 1784 0 
Q 1141 0 747 490 
Q 353 981 353 1791 
Q 353 2603 747 3093 
Q 1141 3584 1784 3584 
Q 2172 3584 2450 3431 
Q 2728 3278 2906 2969 
L 2906 3500 
L 3481 3500 
L 3481 434 
z
" transform="scale(0.015625)"/>
       <path id="DejaVuSans-75" d="M 544 1381 
L 544 3500 
L 1119 3500 
L 1119 1403 
Q 1119 906 1312 657 
Q 1506 409 1894 409 
Q 2359 409 2629 706 
Q 2900 1003 2900 1516 
L 2900 3500 
L 3475 3500 
L 3475 0 
L 2900 0 
L 2900 538 
Q 2691 219 2414 64 
Q 2138 -91 1772 -91 
Q 1169 -91 856 284 
Q 544 659 544 1381 
z
M 1991 3584 
L 1991 3584 
z
" transform="scale(0.015625)"/>
       <path id="DejaVuSans-73" d="M 2834 3397 
L 2834 2853 
Q 2591 2978 2328 3040 
Q 2066 3103 1784 3103 
Q 1356 3103 1142 2972 
Q 928 2841 928 2578 
Q 928 2378 1081 2264 
Q 1234 2150 1697 2047 
L 1894 2003 
Q 2506 1872 2764 1633 
Q 3022 1394 3022 966 
Q 3022 478 2636 193 
Q 2250 -91 1575 -91 
Q 1294 -91 989 -36 
Q 684 19 347 128 
L 347 722 
Q 666 556 975 473 
Q 1284 391 1588 391 
Q 1994 391 2212 530 
Q 2431 669 2431 922 
Q 2431 1156 2273 1281 
Q 2116 1406 1581 1522 
L 1381 1569 
Q 847 1681 609 1914 
Q 372 2147 372 2553 
Q 372 3047 722 3315 
Q 1072 3584 1716 3584 
Q 2034 3584 2315 3537 
Q 2597 3491 2834 3397 
z
" transform="scale(0.015625)"/>
      </defs>
      <use xlink:href="#DejaVuSans-48"/>
      <use xlink:href="#DejaVuSans-79" x="75.195312"/>
      <use xlink:href="#DejaVuSans-70" x="134.375"/>
      <use xlink:href="#DejaVuSans-65" x="197.851562"/>
      <use xlink:href="#DejaVuSans-72" x="259.375"/>
      <use xlink:href="#DejaVuSans-70" x="300.488281"/>
      <use xlink:href="#DejaVuSans-61" x="363.964844"/>
      <use xlink:href="#DejaVuSans-72" x="425.244141"/>
      <use xlink:href="#DejaVuSans-61" x="466.357422"/>
      <use xlink:href="#DejaVuSans-6d" x="527.636719"/>
      <use xlink:href="#DejaVuSans-65" x="625.048828"/>
      <use xlink:href="#DejaVuSans-74" x="686.572266"/>
      <use xlink:href="#DejaVuSans-65" x="725.78125"/>
      <use xlink:href="#DejaVuSans-72" x="787.304688"/>
      <use xlink:href="#DejaVuSans-20" x="828.417969"/>
      <use xlink:href="#DejaVuSans-43" x="860.205078"/>
      <use xlink:href="#DejaVuSans-6f" x="930.029297"/>
      <use xlink:href="#DejaVuSans-6e" x="991.210938"/>
      <use xlink:href="#DejaVuSans-66" x="1054.589844"/>
      <use xlink:href="#DejaVuSans-69" x="1089.794922"/>
      <use xlink:href="#DejaVuSans-67" x="1117.578125"/>
      <use xlink:href="#DejaVuSans-75" x="1181.054688"/>
      <use xlink:href="#DejaVuSans-72" x="1244.433594"/>
      <use xlink:href="#DejaVuSans-61" x="1285.546875"/>
      <use xlink:href="#DejaVuSans-74" x="1346.826172"/>
      <use xlink:href="#DejaVuSans-69" x="1386.035156"/>
      <use xlink:href="#DejaVuSans-6f" x="1413.818359"/>
      <use xlink:href="#DejaVuSans-6e" x="1475"/>
      <use xlink:href="#DejaVuSans-73" x="1538.378906"/>
     </g>
    </g>
   </g>
   <g id="matplotlib.axis_2">
    <g id="ytick_1">
     <g id="line2d_1">
      <defs>
       <path id="m576f9f6e0d" d="M 0 0 
L -3.5 0 
" style="stroke: #000000; stroke-width: 0.8"/>
      </defs>
      <g>
       <use xlink:href="#m576f9f6e0d" x="54" y="167.184" style="stroke: #000000; stroke-width: 0.8"/>
      </g>
     </g>
     <g id="text_2">
      <!-- $\mathdefault{10^{-2}}$ -->
      <g transform="translate(23.5 170.983219) scale(0.1 -0.1)">
       <defs>
        <path id="DejaVuSans-31" d="M 794 531 
L 1825 531 
L 1825 4091 
L 703 3866 
L 703 4441 
L 1819 4666 
L 2450 4666 
L 2450 531 
L 3481 531 
L 3481 0 
L 794 0 
L 794 531 
z
" transform="scale(0.015625)"/>
        <path id="DejaVuSans-30" d="M 2034 4250 
Q 1547 4250 1301 3770 
Q 1056 3291 1056 2328 
Q 1056 1369 1301 889 
Q 1547 409 2034 409 
Q 2525 409 2770 889 
Q 3016 1369 3016 2328 
Q 3016 3291 2770 3770 
Q 2525 4250 2034 4250 
z
M 2034 4750 
Q 2819 4750 3233 4129 
Q 3647 3509 3647 2328 
Q 3647 1150 3233 529 
Q 2819 -91 2034 -91 
Q 1250 -91 836 529 
Q 422 1150 422 2328 
Q 422 3509 836 4129 
Q 1250 4750 2034 4750 
z
" transform="scale(0.015625)"/>
        <path id="DejaVuSans-2212" d="M 678 2272 
L 4684 2272 
L 4684 1741 
L 678 1741 
L 678 2272 
z
" transform="scale(0.015625)"/>
        <path id="DejaVuSans-32" d="M 1228 531 
L 3431 531 
L 3431 0 
L 469 0 
L 469 531 
Q 828 903 1448 1529 
Q 2069 2156 2228 2338 
Q 2531 2678 2651 2914 
Q 2772 3150 2772 3378 
Q 2772 3750 2511 3984 
Q 2250 4219 1831 4219 
Q 1534 4219 1204 4116 
Q 875 4013 500 3803 
L 500 4441 
Q 881 4594 1212 4672 
Q 1544 4750 1819 4750 
Q 2544 4750 2975 4387 
Q 3406 4025 3406 3419 
Q 3406 3131 3298 2873 
Q 3191 2616 2906 2266 
Q 2828 2175 2409 1742 
Q 1991 1309 1228 531 
z
" transform="scale(0.015625)"/>
       </defs>
       <use xlink:href="#DejaVuSans-31" transform="translate(0 0.765625)"/>
       <use xlink:href="#DejaVuSans-30" transform="translate(63.623047 0.765625)"/>
       <use xlink:href="#DejaVuSans-2212" transform="translate(128.203125 39.046875) scale(0.7)"/>
       <use xlink:href="#DejaVuSans-32" transform="translate(186.855469 39.046875) scale(0.7)"/>
      </g>
     </g>
    </g>
    <g id="ytick_2">
     <g id="line2d_2">
      <g>
       <use xlink:href="#m576f9f6e0d" x="54" y="122.472" style="stroke: #000000; stroke-width: 0.8"/>
      </g>
     </g>
     <g id="text_3">
      <!-- $\mathdefault{10^{-1}}$ -->
      <g transform="translate(23.5 126.271219) scale(0.1 -0.1)">
       <use xlink:href="#DejaVuSans-31" transform="translate(0 0.684375)"/>
       <use xlink:href="#DejaVuSans-30" transform="translate(63.623047 0.684375)"/>
       <use xlink:href="#DejaVuSans-2212" transform="translate(128.203125 38.965625) scale(0.7)"/>
       <use xlink:href="#DejaVuSans-31" transform="translate(186.855469 38.965625) scale(0.7)"/>
      </g>
     </g>
    </g>
    <g id="ytick_3">
     <g id="line2d_3">
      <g>
       <use xlink:href="#m576f9f6e0d" x="54" y="77.76" style="stroke: #000000; stroke-width: 0.8"/>
      </g>
     </g>
     <g id="text_4">
      <!-- $\mathdefault{10^{0}}$ -->
      <g transform="translate(29.4 81.559219) scale(0.1 -0.1)">
       <use xlink:href="#DejaVuSans-31" transform="translate(0 0.765625)"/>
       <use xlink:href="#DejaVuSans-30" transform="translate(63.623047 0.765625)"/>
       <use xlink:href="#DejaVuSans-30" transform="translate(128.203125 39.046875) scale(0.7)"/>
      </g>
     </g>
    </g>
    <g id="ytick_4">
     <g id="line2d_4">
      <g>
       <use xlink:href="#m576f9f6e0d" x="54" y="33.048" style="stroke: #000000; stroke-width: 0.8"/>
      </g>
     </g>
     <g id="text_5">
      <!-- $\mathdefault{10^{1}}$ -->
      <g transform="translate(29.4 36.847219) scale(0.1 -0.1)">
       <use xlink:href="#DejaVuSans-31" transform="translate(0 0.684375)"/>
       <use xlink:href="#DejaVuSans-30" transform="translate(63.623047 0.684375)"/>
       <use xlink:href="#DejaVuSans-31" transform="translate(128.203125 38.965625) scale(0.7)"/>
      </g>
     </g>
    </g>
    <g id="ytick_5">
     <g id="line2d_5">
      <defs>
       <path id="mfc77e2b8e9" d="M 0 0 
L -2 0 
" style="stroke: #000000; stroke-width: 0.6"/>
      </defs>
      <g>
       <use xlink:href="#mfc77e2b8e9" x="54" y="153.724347" style="stroke: #000000; stroke-width: 0.6"/>
      </g>
     </g>
    </g>
    <g id="ytick_6">
     <g id="line2d_6">
      <g>
       <use xlink:href="#mfc77e2b8e9" x="54" y="145.850954" style="stroke: #000000; stroke-width: 0.6"/>
      </g>
     </g>
    </g>
    <g id="ytick_7">
     <g id="line2d_7">
      <g>
       <use xlink:href="#mfc77e2b8e9" x="54" y="140.264694" style="stroke: #000000; stroke-width: 0.6"/>
      </g>
     </g>
    </g>
    <g id="ytick_8">
     <g id="line2d_8">
      <g>
       <use xlink:href="#mfc77e2b8e9" x="54" y="135.931653" style="stroke: #000000; stroke-width: 0.6"/>
      </g>
     </g>
    </g>
    <g id="ytick_9">
     <g id="line2d_9">
      <g>
       <use xlink:href="#mfc77e2b8e9" x="54" y="132.391301" style="stroke: #000000; stroke-width: 0.6"/>
      </g>
     </g>
    </g>
    <g id="ytick_10">
     <g id="line2d_10">
      <g>
       <use xlink:href="#mfc77e2b8e9" x="54" y="129.397976" style="stroke: #000000; stroke-width: 0.6"/>
      </g>
     </g>
    </g>
    <g id="ytick_11">
     <g id="line2d_11">
      <g>
       <use xlink:href="#mfc77e2b8e9" x="54" y="126.805041" style="stroke: #000000; stroke-width: 0.6"/>
      </g>
     </g>
    </g>
    <g id="ytick_12">
     <g id="line2d_12">
      <g>
       <use xlink:href="#mfc77e2b8e9" x="54" y="124.517909" style="stroke: #000000; stroke-width: 0.6"/>
      </g>
     </g>
    </g>
    <g id="ytick_13">
     <g id="line2d_13">
      <g>
       <use xlink:href="#mfc77e2b8e9" x="54" y="109.012347" style="stroke: #000000; stroke-width: 0.6"/>
      </g>
     </g>
    </g>
    <g id="ytick_14">
     <g id="line2d_14">
      <g>
       <use xlink:href="#mfc77e2b8e9" x="54" y="101.138954" style="stroke: #000000; stroke-width: 0.6"/>
      </g>
     </g>
    </g>
    <g id="ytick_15">
     <g id="line2d_15">
      <g>
       <use xlink:href="#mfc77e2b8e9" x="54" y="95.552694" style="stroke: #000000; stroke-width: 0.6"/>
      </g>
     </g>
    </g>
    <g id="ytick_16">
     <g id="line2d_16">
      <g>
       <use xlink:href="#mfc77e2b8e9" x="54" y="91.219653" style="stroke: #000000; stroke-width: 0.6"/>
      </g>
     </g>
    </g>
    <g id="ytick_17">
     <g id="line2d_17">
      <g>
       <use xlink:href="#mfc77e2b8e9" x="54" y="87.679301" style="stroke: #000000; stroke-width: 0.6"/>
      </g>
     </g>
    </g>
    <g id="ytick_18">
     <g id="line2d_18">
      <g>
       <use xlink:href="#mfc77e2b8e9" x="54" y="84.685976" style="stroke: #000000; stroke-width: 0.6"/>
      </g>
     </g>
    </g>
    <g id="ytick_19">
     <g id="line2d_19">
      <g>
       <use xlink:href="#mfc77e2b8e9" x="54" y="82.093041" style="stroke: #000000; stroke-width: 0.6"/>
      </g>
     </g>
    </g>
    <g id="ytick_20">
     <g id="line2d_20">
      <g>
       <use xlink:href="#mfc77e2b8e9" x="54" y="79.805909" style="stroke: #000000; stroke-width: 0.6"/>
      </g>
     </g>
    </g>
    <g id="ytick_21">
     <g id="line2d_21">
      <g>
       <use xlink:href="#mfc77e2b8e9" x="54" y="64.300347" style="stroke: #000000; stroke-width: 0.6"/>
      </g>
     </g>
    </g>
    <g id="ytick_22">
     <g id="line2d_22">
      <g>
       <use xlink:href="#mfc77e2b8e9" x="54" y="56.426954" style="stroke: #000000; stroke-width: 0.6"/>
      </g>
     </g>
    </g>
    <g id="ytick_23">
     <g id="line2d_23">
      <g>
       <use xlink:href="#mfc77e2b8e9" x="54" y="50.840694" style="stroke: #000000; stroke-width: 0.6"/>
      </g>
     </g>
    </g>
    <g id="ytick_24">
     <g id="line2d_24">
      <g>
       <use xlink:href="#mfc77e2b8e9" x="54" y="46.507653" style="stroke: #000000; stroke-width: 0.6"/>
      </g>
     </g>
    </g>
    <g id="ytick_25">
     <g id="line2d_25">
      <g>
       <use xlink:href="#mfc77e2b8e9" x="54" y="42.967301" style="stroke: #000000; stroke-width: 0.6"/>
      </g>
     </g>
    </g>
    <g id="ytick_26">
     <g id="line2d_26">
      <g>
       <use xlink:href="#mfc77e2b8e9" x="54" y="39.973976" style="stroke: #000000; stroke-width: 0.6"/>
      </g>
     </g>
    </g>
    <g id="ytick_27">
     <g id="line2d_27">
      <g>
       <use xlink:href="#mfc77e2b8e9" x="54" y="37.381041" style="stroke: #000000; stroke-width: 0.6"/>
      </g>
     </g>
    </g>
    <g id="ytick_28">
     <g id="line2d_28">
      <g>
       <use xlink:href="#mfc77e2b8e9" x="54" y="35.093909" style="stroke: #000000; stroke-width: 0.6"/>
      </g>
     </g>
    </g>
    <g id="text_6">
     <!-- MSE -->
     <g transform="translate(16.588437 115.022719) rotate(-90) scale(0.14 -0.14)">
      <defs>
       <path id="DejaVuSans-4d" d="M 628 4666 
L 1569 4666 
L 2759 1491 
L 3956 4666 
L 4897 4666 
L 4897 0 
L 4281 0 
L 4281 4097 
L 3078 897 
L 2444 897 
L 1241 4097 
L 1241 0 
L 628 0 
L 628 4666 
z
" transform="scale(0.015625)"/>
       <path id="DejaVuSans-53" d="M 3425 4513 
L 3425 3897 
Q 3066 4069 2747 4153 
Q 2428 4238 2131 4238 
Q 1616 4238 1336 4038 
Q 1056 3838 1056 3469 
Q 1056 3159 1242 3001 
Q 1428 2844 1947 2747 
L 2328 2669 
Q 3034 2534 3370 2195 
Q 3706 1856 3706 1288 
Q 3706 609 3251 259 
Q 2797 -91 1919 -91 
Q 1588 -91 1214 -16 
Q 841 59 441 206 
L 441 856 
Q 825 641 1194 531 
Q 1563 422 1919 422 
Q 2459 422 2753 634 
Q 3047 847 3047 1241 
Q 3047 1584 2836 1778 
Q 2625 1972 2144 2069 
L 1759 2144 
Q 1053 2284 737 2584 
Q 422 2884 422 3419 
Q 422 4038 858 4394 
Q 1294 4750 2059 4750 
Q 2388 4750 2728 4690 
Q 3069 4631 3425 4513 
z
" transform="scale(0.015625)"/>
       <path id="DejaVuSans-45" d="M 628 4666 
L 3578 4666 
L 3578 4134 
L 1259 4134 
L 1259 2753 
L 3481 2753 
L 3481 2222 
L 1259 2222 
L 1259 531 
L 3634 531 
L 3634 0 
L 628 0 
L 628 4666 
z
" transform="scale(0.015625)"/>
      </defs>
      <use xlink:href="#DejaVuSans-4d"/>
      <use xlink:href="#DejaVuSans-53" x="86.279297"/>
      <use xlink:href="#DejaVuSans-45" x="149.755859"/>
     </g>
    </g>
   </g>
   <g id="line2d_29">
    <path d="M 69.187112 140.911086 
L 73.226237 140.703557 
L 77.265362 140.398776 
L 81.304488 139.04478 
L 85.343613 138.854282 
L 89.382739 138.027412 
L 93.421864 137.511676 
L 97.46099 136.739139 
L 101.500115 132.154634 
L 105.539241 130.09658 
L 109.578366 129.288547 
L 113.617491 128.706194 
L 117.656617 127.284791 
L 121.695742 125.979964 
L 125.734868 125.975946 
L 129.773993 124.604449 
L 133.813119 124.276822 
L 137.852244 123.469478 
L 141.891369 122.323388 
L 145.930495 122.157676 
L 149.96962 122.11441 
L 154.008746 121.147239 
L 158.047871 121.066834 
L 162.086997 120.962108 
L 166.126122 120.951666 
L 170.165247 120.648008 
L 174.204373 120.035169 
L 178.243498 118.223014 
L 182.282624 118.196745 
L 186.321749 117.933582 
L 190.360875 117.919032 
L 194.4 117.821849 
L 198.439125 116.991719 
L 202.478251 116.01309 
L 206.517376 115.127205 
L 210.556502 113.343775 
L 214.595627 112.723438 
L 218.634753 112.242372 
L 222.673878 110.695783 
L 226.713003 108.256737 
L 230.752129 107.910915 
L 234.791254 106.257843 
L 238.83038 105.94602 
L 242.869505 105.930615 
L 246.908631 103.825474 
L 250.947756 102.825311 
L 254.986881 102.602627 
L 259.026007 102.319106 
L 263.065132 102.049904 
L 267.104258 101.989866 
L 271.143383 101.57039 
L 275.182509 101.441262 
L 279.221634 99.705404 
L 283.260759 99.347587 
L 287.299885 98.877296 
L 291.33901 98.826814 
L 295.378136 97.751938 
L 299.417261 97.044038 
L 303.456387 96.594667 
L 307.495512 95.672887 
L 311.534638 94.033469 
L 315.573763 91.727964 
L 319.612888 90.430653 
" clip-path="url(#p98eb31c986)" style="fill: none; stroke: #1db8f7; stroke-width: 1.5; stroke-linecap: square"/>
   </g>
   <g id="line2d_30">
    <path d="M 69.187112 41.032441 
L 319.612888 41.032441 
" clip-path="url(#p98eb31c986)" style="fill: none; stroke-dasharray: 4.5,4.5; stroke-dashoffset: 0; stroke: #1db8f7; stroke-width: 1.5"/>
   </g>
   <g id="line2d_31">
    <path d="M 69.187112 81.838701 
L 319.612888 81.838701 
" clip-path="url(#p98eb31c986)" style="fill: none; stroke-dasharray: 4.5,4.5; stroke-dashoffset: 0; stroke: #6c17b9; stroke-width: 1.5"/>
   </g>
   <g id="patch_66">
    <path d="M 54 167.184 
L 54 33.048 
" style="fill: none; stroke: #000000; stroke-width: 0.8; stroke-linejoin: miter; stroke-linecap: square"/>
   </g>
   <g id="patch_67">
    <path d="M 334.8 167.184 
L 334.8 33.048 
" style="fill: none; stroke: #000000; stroke-width: 0.8; stroke-linejoin: miter; stroke-linecap: square"/>
   </g>
   <g id="patch_68">
    <path d="M 54 167.184 
L 334.8 167.184 
" style="fill: none; stroke: #000000; stroke-width: 0.8; stroke-linejoin: miter; stroke-linecap: square"/>
   </g>
   <g id="patch_69">
    <path d="M 54 33.048 
L 334.8 33.048 
" style="fill: none; stroke: #000000; stroke-width: 0.8; stroke-linejoin: miter; stroke-linecap: square"/>
   </g>
  </g>
  <g id="text_7">
   <!-- LSTM Configurations For Case 2 -->
   <g transform="translate(21.15 21.028875) scale(0.2 -0.2)">
    <defs>
     <path id="DejaVuSans-4c" d="M 628 4666 
L 1259 4666 
L 1259 531 
L 3531 531 
L 3531 0 
L 628 0 
L 628 4666 
z
" transform="scale(0.015625)"/>
     <path id="DejaVuSans-54" d="M -19 4666 
L 3928 4666 
L 3928 4134 
L 2272 4134 
L 2272 0 
L 1638 0 
L 1638 4134 
L -19 4134 
L -19 4666 
z
" transform="scale(0.015625)"/>
     <path id="DejaVuSans-46" d="M 628 4666 
L 3309 4666 
L 3309 4134 
L 1259 4134 
L 1259 2759 
L 3109 2759 
L 3109 2228 
L 1259 2228 
L 1259 0 
L 628 0 
L 628 4666 
z
" transform="scale(0.015625)"/>
    </defs>
    <use xlink:href="#DejaVuSans-4c"/>
    <use xlink:href="#DejaVuSans-53" x="55.712891"/>
    <use xlink:href="#DejaVuSans-54" x="119.189453"/>
    <use xlink:href="#DejaVuSans-4d" x="180.273438"/>
    <use xlink:href="#DejaVuSans-20" x="266.552734"/>
    <use xlink:href="#DejaVuSans-43" x="298.339844"/>
    <use xlink:href="#DejaVuSans-6f" x="368.164062"/>
    <use xlink:href="#DejaVuSans-6e" x="429.345703"/>
    <use xlink:href="#DejaVuSans-66" x="492.724609"/>
    <use xlink:href="#DejaVuSans-69" x="527.929688"/>
    <use xlink:href="#DejaVuSans-67" x="555.712891"/>
    <use xlink:href="#DejaVuSans-75" x="619.189453"/>
    <use xlink:href="#DejaVuSans-72" x="682.568359"/>
    <use xlink:href="#DejaVuSans-61" x="723.681641"/>
    <use xlink:href="#DejaVuSans-74" x="784.960938"/>
    <use xlink:href="#DejaVuSans-69" x="824.169922"/>
    <use xlink:href="#DejaVuSans-6f" x="851.953125"/>
    <use xlink:href="#DejaVuSans-6e" x="913.134766"/>
    <use xlink:href="#DejaVuSans-73" x="976.513672"/>
    <use xlink:href="#DejaVuSans-20" x="1028.613281"/>
    <use xlink:href="#DejaVuSans-46" x="1060.400391"/>
    <use xlink:href="#DejaVuSans-6f" x="1114.294922"/>
    <use xlink:href="#DejaVuSans-72" x="1175.476562"/>
    <use xlink:href="#DejaVuSans-20" x="1216.589844"/>
    <use xlink:href="#DejaVuSans-43" x="1248.376953"/>
    <use xlink:href="#DejaVuSans-61" x="1318.201172"/>
    <use xlink:href="#DejaVuSans-73" x="1379.480469"/>
    <use xlink:href="#DejaVuSans-65" x="1431.580078"/>
    <use xlink:href="#DejaVuSans-20" x="1493.103516"/>
    <use xlink:href="#DejaVuSans-32" x="1524.890625"/>
   </g>
  </g>
 </g>
 <defs>
  <clipPath id="p98eb31c986">
   <rect x="54" y="33.048" width="280.8" height="134.136"/>
  </clipPath>
 </defs>
</svg>
