<?xml version="1.0" encoding="utf-8" standalone="no"?>
<!DOCTYPE svg PUBLIC "-//W3C//DTD SVG 1.1//EN"
  "http://www.w3.org/Graphics/SVG/1.1/DTD/svg11.dtd">
<svg xmlns:xlink="http://www.w3.org/1999/xlink" width="360pt" height="194.4pt" viewBox="0 0 360 194.4" xmlns="http://www.w3.org/2000/svg" version="1.1">
 <metadata>
  <rdf:RDF xmlns:dc="http://purl.org/dc/elements/1.1/" xmlns:cc="http://creativecommons.org/ns#" xmlns:rdf="http://www.w3.org/1999/02/22-rdf-syntax-ns#">
   <cc:Work>
    <dc:type rdf:resource="http://purl.org/dc/dcmitype/StillImage"/>
    <dc:date>2024-09-05T16:14:44.034650</dc:date>
    <dc:format>image/svg+xml</dc:format>
    <dc:creator>
     <cc:Agent>
      <dc:title>Matplotlib v3.9.1.post1, https://matplotlib.org/</dc:title>
     </cc:Agent>
    </dc:creator>
   </cc:Work>
  </rdf:RDF>
 </metadata>
 <defs>
  <style type="text/css">*{stroke-linejoin: round; stroke-linecap: butt}</style>
 </defs>
 <g id="figure_1">
  <g id="patch_1">
   <path d="M 0 194.4 
L 360 194.4 
L 360 0 
L 0 0 
z
" style="fill: #ffffff"/>
  </g>
  <g id="axes_1">
   <g id="patch_2">
    <path d="M 54 167.184 
L 334.8 167.184 
L 334.8 33.048 
L 54 33.048 
z
" style="fill: #ffffff"/>
   </g>
   <g id="patch_3">
    <path d="M 66.763636 33634.116 
L 68.948567 33634.116 
L 68.948567 150.094837 
L 66.763636 150.094837 
z
" clip-path="url(#pf3dd7e966e)" style="fill: #6c17b9"/>
   </g>
   <g id="patch_4">
    <path d="M 68.584412 33634.116 
L 70.769342 33634.116 
L 70.769342 151.422944 
L 68.584412 151.422944 
z
" clip-path="url(#pf3dd7e966e)" style="fill: #6c17b9"/>
   </g>
   <g id="patch_5">
    <path d="M 70.405187 33634.116 
L 72.590118 33634.116 
L 72.590118 160.025982 
L 70.405187 160.025982 
z
" clip-path="url(#pf3dd7e966e)" style="fill: #6c17b9"/>
   </g>
   <g id="patch_6">
    <path d="M 72.225963 33634.116 
L 74.410894 33634.116 
L 74.410894 159.117027 
L 72.225963 159.117027 
z
" clip-path="url(#pf3dd7e966e)" style="fill: #6c17b9"/>
   </g>
   <g id="patch_7">
    <path d="M 74.046738 33634.116 
L 76.231669 33634.116 
L 76.231669 142.230972 
L 74.046738 142.230972 
z
" clip-path="url(#pf3dd7e966e)" style="fill: #6c17b9"/>
   </g>
   <g id="patch_8">
    <path d="M 75.867514 33634.116 
L 78.052445 33634.116 
L 78.052445 144.195468 
L 75.867514 144.195468 
z
" clip-path="url(#pf3dd7e966e)" style="fill: #6c17b9"/>
   </g>
   <g id="patch_9">
    <path d="M 77.688289 33634.116 
L 79.87322 33634.116 
L 79.87322 147.300109 
L 77.688289 147.300109 
z
" clip-path="url(#pf3dd7e966e)" style="fill: #6c17b9"/>
   </g>
   <g id="patch_10">
    <path d="M 79.509065 33634.116 
L 81.693996 33634.116 
L 81.693996 145.435113 
L 79.509065 145.435113 
z
" clip-path="url(#pf3dd7e966e)" style="fill: #6c17b9"/>
   </g>
   <g id="patch_11">
    <path d="M 81.32984 33634.116 
L 83.514771 33634.116 
L 83.514771 144.736303 
L 81.32984 144.736303 
z
" clip-path="url(#pf3dd7e966e)" style="fill: #6c17b9"/>
   </g>
   <g id="patch_12">
    <path d="M 83.150616 33634.116 
L 85.335547 33634.116 
L 85.335547 143.755723 
L 83.150616 143.755723 
z
" clip-path="url(#pf3dd7e966e)" style="fill: #6c17b9"/>
   </g>
   <g id="patch_13">
    <path d="M 84.971392 33634.116 
L 87.156322 33634.116 
L 87.156322 148.688747 
L 84.971392 148.688747 
z
" clip-path="url(#pf3dd7e966e)" style="fill: #6c17b9"/>
   </g>
   <g id="patch_14">
    <path d="M 86.792167 33634.116 
L 88.977098 33634.116 
L 88.977098 147.243541 
L 86.792167 147.243541 
z
" clip-path="url(#pf3dd7e966e)" style="fill: #6c17b9"/>
   </g>
   <g id="patch_15">
    <path d="M 88.612943 33634.116 
L 90.797873 33634.116 
L 90.797873 146.510906 
L 88.612943 146.510906 
z
" clip-path="url(#pf3dd7e966e)" style="fill: #6c17b9"/>
   </g>
   <g id="patch_16">
    <path d="M 90.433718 33634.116 
L 92.618649 33634.116 
L 92.618649 145.808065 
L 90.433718 145.808065 
z
" clip-path="url(#pf3dd7e966e)" style="fill: #6c17b9"/>
   </g>
   <g id="patch_17">
    <path d="M 92.254494 33634.116 
L 94.439424 33634.116 
L 94.439424 144.54128 
L 92.254494 144.54128 
z
" clip-path="url(#pf3dd7e966e)" style="fill: #6c17b9"/>
   </g>
   <g id="patch_18">
    <path d="M 94.075269 33634.116 
L 96.2602 33634.116 
L 96.2602 144.28454 
L 94.075269 144.28454 
z
" clip-path="url(#pf3dd7e966e)" style="fill: #6c17b9"/>
   </g>
   <g id="patch_19">
    <path d="M 95.896045 33634.116 
L 98.080975 33634.116 
L 98.080975 145.632333 
L 95.896045 145.632333 
z
" clip-path="url(#pf3dd7e966e)" style="fill: #6c17b9"/>
   </g>
   <g id="patch_20">
    <path d="M 97.71682 33634.116 
L 99.901751 33634.116 
L 99.901751 145.279595 
L 97.71682 145.279595 
z
" clip-path="url(#pf3dd7e966e)" style="fill: #6c17b9"/>
   </g>
   <g id="patch_21">
    <path d="M 99.537596 33634.116 
L 101.722526 33634.116 
L 101.722526 142.161602 
L 99.537596 142.161602 
z
" clip-path="url(#pf3dd7e966e)" style="fill: #6c17b9"/>
   </g>
   <g id="patch_22">
    <path d="M 101.358371 33634.116 
L 103.543302 33634.116 
L 103.543302 141.009764 
L 101.358371 141.009764 
z
" clip-path="url(#pf3dd7e966e)" style="fill: #6c17b9"/>
   </g>
   <g id="patch_23">
    <path d="M 103.179147 33634.116 
L 105.364077 33634.116 
L 105.364077 148.713984 
L 103.179147 148.713984 
z
" clip-path="url(#pf3dd7e966e)" style="fill: #6c17b9"/>
   </g>
   <g id="patch_24">
    <path d="M 104.999922 33634.116 
L 107.184853 33634.116 
L 107.184853 143.517323 
L 104.999922 143.517323 
z
" clip-path="url(#pf3dd7e966e)" style="fill: #6c17b9"/>
   </g>
   <g id="patch_25">
    <path d="M 106.820698 33634.116 
L 109.005628 33634.116 
L 109.005628 146.108417 
L 106.820698 146.108417 
z
" clip-path="url(#pf3dd7e966e)" style="fill: #6c17b9"/>
   </g>
   <g id="patch_26">
    <path d="M 108.641473 33634.116 
L 110.826404 33634.116 
L 110.826404 149.432243 
L 108.641473 149.432243 
z
" clip-path="url(#pf3dd7e966e)" style="fill: #6c17b9"/>
   </g>
   <g id="patch_27">
    <path d="M 110.462249 33634.116 
L 112.647179 33634.116 
L 112.647179 148.589469 
L 110.462249 148.589469 
z
" clip-path="url(#pf3dd7e966e)" style="fill: #6c17b9"/>
   </g>
   <g id="patch_28">
    <path d="M 112.283024 33634.116 
L 114.467955 33634.116 
L 114.467955 148.746728 
L 112.283024 148.746728 
z
" clip-path="url(#pf3dd7e966e)" style="fill: #6c17b9"/>
   </g>
   <g id="patch_29">
    <path d="M 114.1038 33634.116 
L 116.28873 33634.116 
L 116.28873 142.24737 
L 114.1038 142.24737 
z
" clip-path="url(#pf3dd7e966e)" style="fill: #6c17b9"/>
   </g>
   <g id="patch_30">
    <path d="M 115.924575 33634.116 
L 118.109506 33634.116 
L 118.109506 144.224243 
L 115.924575 144.224243 
z
" clip-path="url(#pf3dd7e966e)" style="fill: #6c17b9"/>
   </g>
   <g id="patch_31">
    <path d="M 117.745351 33634.116 
L 119.930281 33634.116 
L 119.930281 139.67686 
L 117.745351 139.67686 
z
" clip-path="url(#pf3dd7e966e)" style="fill: #6c17b9"/>
   </g>
   <g id="patch_32">
    <path d="M 119.566126 33634.116 
L 121.751057 33634.116 
L 121.751057 152.32612 
L 119.566126 152.32612 
z
" clip-path="url(#pf3dd7e966e)" style="fill: #6c17b9"/>
   </g>
   <g id="patch_33">
    <path d="M 121.386902 33634.116 
L 123.571832 33634.116 
L 123.571832 148.715772 
L 121.386902 148.715772 
z
" clip-path="url(#pf3dd7e966e)" style="fill: #6c17b9"/>
   </g>
   <g id="patch_34">
    <path d="M 123.207677 33634.116 
L 125.392608 33634.116 
L 125.392608 145.598956 
L 123.207677 145.598956 
z
" clip-path="url(#pf3dd7e966e)" style="fill: #6c17b9"/>
   </g>
   <g id="patch_35">
    <path d="M 125.028453 33634.116 
L 127.213383 33634.116 
L 127.213383 143.527133 
L 125.028453 143.527133 
z
" clip-path="url(#pf3dd7e966e)" style="fill: #6c17b9"/>
   </g>
   <g id="patch_36">
    <path d="M 126.849228 33634.116 
L 129.034159 33634.116 
L 129.034159 148.02922 
L 126.849228 148.02922 
z
" clip-path="url(#pf3dd7e966e)" style="fill: #6c17b9"/>
   </g>
   <g id="patch_37">
    <path d="M 128.670004 33634.116 
L 130.854935 33634.116 
L 130.854935 143.532819 
L 128.670004 143.532819 
z
" clip-path="url(#pf3dd7e966e)" style="fill: #6c17b9"/>
   </g>
   <g id="patch_38">
    <path d="M 130.490779 33634.116 
L 132.67571 33634.116 
L 132.67571 138.970133 
L 130.490779 138.970133 
z
" clip-path="url(#pf3dd7e966e)" style="fill: #6c17b9"/>
   </g>
   <g id="patch_39">
    <path d="M 132.311555 33634.116 
L 134.496486 33634.116 
L 134.496486 148.198511 
L 132.311555 148.198511 
z
" clip-path="url(#pf3dd7e966e)" style="fill: #6c17b9"/>
   </g>
   <g id="patch_40">
    <path d="M 134.13233 33634.116 
L 136.317261 33634.116 
L 136.317261 145.24039 
L 134.13233 145.24039 
z
" clip-path="url(#pf3dd7e966e)" style="fill: #6c17b9"/>
   </g>
   <g id="patch_41">
    <path d="M 135.953106 33634.116 
L 138.138037 33634.116 
L 138.138037 143.808495 
L 135.953106 143.808495 
z
" clip-path="url(#pf3dd7e966e)" style="fill: #6c17b9"/>
   </g>
   <g id="patch_42">
    <path d="M 137.773881 33634.116 
L 139.958812 33634.116 
L 139.958812 145.86416 
L 137.773881 145.86416 
z
" clip-path="url(#pf3dd7e966e)" style="fill: #6c17b9"/>
   </g>
   <g id="patch_43">
    <path d="M 139.594657 33634.116 
L 141.779588 33634.116 
L 141.779588 148.348081 
L 139.594657 148.348081 
z
" clip-path="url(#pf3dd7e966e)" style="fill: #6c17b9"/>
   </g>
   <g id="patch_44">
    <path d="M 141.415432 33634.116 
L 143.600363 33634.116 
L 143.600363 149.456002 
L 141.415432 149.456002 
z
" clip-path="url(#pf3dd7e966e)" style="fill: #6c17b9"/>
   </g>
   <g id="patch_45">
    <path d="M 143.236208 33634.116 
L 145.421139 33634.116 
L 145.421139 143.940145 
L 143.236208 143.940145 
z
" clip-path="url(#pf3dd7e966e)" style="fill: #6c17b9"/>
   </g>
   <g id="patch_46">
    <path d="M 145.056984 33634.116 
L 147.241914 33634.116 
L 147.241914 143.701712 
L 145.056984 143.701712 
z
" clip-path="url(#pf3dd7e966e)" style="fill: #6c17b9"/>
   </g>
   <g id="patch_47">
    <path d="M 146.877759 33634.116 
L 149.06269 33634.116 
L 149.06269 147.546889 
L 146.877759 147.546889 
z
" clip-path="url(#pf3dd7e966e)" style="fill: #6c17b9"/>
   </g>
   <g id="patch_48">
    <path d="M 148.698535 33634.116 
L 150.883465 33634.116 
L 150.883465 147.045579 
L 148.698535 147.045579 
z
" clip-path="url(#pf3dd7e966e)" style="fill: #6c17b9"/>
   </g>
   <g id="patch_49">
    <path d="M 150.51931 33634.116 
L 152.704241 33634.116 
L 152.704241 142.776237 
L 150.51931 142.776237 
z
" clip-path="url(#pf3dd7e966e)" style="fill: #6c17b9"/>
   </g>
   <g id="patch_50">
    <path d="M 152.340086 33634.116 
L 154.525016 33634.116 
L 154.525016 144.815274 
L 152.340086 144.815274 
z
" clip-path="url(#pf3dd7e966e)" style="fill: #6c17b9"/>
   </g>
   <g id="patch_51">
    <path d="M 154.160861 33634.116 
L 156.345792 33634.116 
L 156.345792 147.130369 
L 154.160861 147.130369 
z
" clip-path="url(#pf3dd7e966e)" style="fill: #6c17b9"/>
   </g>
   <g id="patch_52">
    <path d="M 155.981637 33634.116 
L 158.166567 33634.116 
L 158.166567 144.560877 
L 155.981637 144.560877 
z
" clip-path="url(#pf3dd7e966e)" style="fill: #6c17b9"/>
   </g>
   <g id="patch_53">
    <path d="M 157.802412 33634.116 
L 159.987343 33634.116 
L 159.987343 147.349298 
L 157.802412 147.349298 
z
" clip-path="url(#pf3dd7e966e)" style="fill: #6c17b9"/>
   </g>
   <g id="patch_54">
    <path d="M 159.623188 33634.116 
L 161.808118 33634.116 
L 161.808118 148.52335 
L 159.623188 148.52335 
z
" clip-path="url(#pf3dd7e966e)" style="fill: #6c17b9"/>
   </g>
   <g id="patch_55">
    <path d="M 161.443963 33634.116 
L 163.628894 33634.116 
L 163.628894 141.173023 
L 161.443963 141.173023 
z
" clip-path="url(#pf3dd7e966e)" style="fill: #6c17b9"/>
   </g>
   <g id="patch_56">
    <path d="M 163.264739 33634.116 
L 165.449669 33634.116 
L 165.449669 144.54819 
L 163.264739 144.54819 
z
" clip-path="url(#pf3dd7e966e)" style="fill: #6c17b9"/>
   </g>
   <g id="patch_57">
    <path d="M 165.085514 33634.116 
L 167.270445 33634.116 
L 167.270445 144.78489 
L 165.085514 144.78489 
z
" clip-path="url(#pf3dd7e966e)" style="fill: #6c17b9"/>
   </g>
   <g id="patch_58">
    <path d="M 166.90629 33634.116 
L 169.09122 33634.116 
L 169.09122 147.836999 
L 166.90629 147.836999 
z
" clip-path="url(#pf3dd7e966e)" style="fill: #6c17b9"/>
   </g>
   <g id="patch_59">
    <path d="M 168.727065 33634.116 
L 170.911996 33634.116 
L 170.911996 146.364635 
L 168.727065 146.364635 
z
" clip-path="url(#pf3dd7e966e)" style="fill: #6c17b9"/>
   </g>
   <g id="patch_60">
    <path d="M 170.547841 33634.116 
L 172.732771 33634.116 
L 172.732771 142.508729 
L 170.547841 142.508729 
z
" clip-path="url(#pf3dd7e966e)" style="fill: #6c17b9"/>
   </g>
   <g id="patch_61">
    <path d="M 172.368616 33634.116 
L 174.553547 33634.116 
L 174.553547 143.366737 
L 172.368616 143.366737 
z
" clip-path="url(#pf3dd7e966e)" style="fill: #6c17b9"/>
   </g>
   <g id="patch_62">
    <path d="M 174.189392 33634.116 
L 176.374322 33634.116 
L 176.374322 145.937462 
L 174.189392 145.937462 
z
" clip-path="url(#pf3dd7e966e)" style="fill: #6c17b9"/>
   </g>
   <g id="patch_63">
    <path d="M 176.010167 33634.116 
L 178.195098 33634.116 
L 178.195098 143.533191 
L 176.010167 143.533191 
z
" clip-path="url(#pf3dd7e966e)" style="fill: #6c17b9"/>
   </g>
   <g id="patch_64">
    <path d="M 177.830943 33634.116 
L 180.015873 33634.116 
L 180.015873 140.323166 
L 177.830943 140.323166 
z
" clip-path="url(#pf3dd7e966e)" style="fill: #6c17b9"/>
   </g>
   <g id="patch_65">
    <path d="M 179.651718 33634.116 
L 181.836649 33634.116 
L 181.836649 142.60643 
L 179.651718 142.60643 
z
" clip-path="url(#pf3dd7e966e)" style="fill: #6c17b9"/>
   </g>
   <g id="patch_66">
    <path d="M 181.472494 33634.116 
L 183.657424 33634.116 
L 183.657424 143.475202 
L 181.472494 143.475202 
z
" clip-path="url(#pf3dd7e966e)" style="fill: #6c17b9"/>
   </g>
   <g id="patch_67">
    <path d="M 183.293269 33634.116 
L 185.4782 33634.116 
L 185.4782 144.043721 
L 183.293269 144.043721 
z
" clip-path="url(#pf3dd7e966e)" style="fill: #6c17b9"/>
   </g>
   <g id="patch_68">
    <path d="M 185.114045 33634.116 
L 187.298975 33634.116 
L 187.298975 145.159408 
L 185.114045 145.159408 
z
" clip-path="url(#pf3dd7e966e)" style="fill: #6c17b9"/>
   </g>
   <g id="patch_69">
    <path d="M 186.93482 33634.116 
L 189.119751 33634.116 
L 189.119751 148.596659 
L 186.93482 148.596659 
z
" clip-path="url(#pf3dd7e966e)" style="fill: #6c17b9"/>
   </g>
   <g id="patch_70">
    <path d="M 188.755596 33634.116 
L 190.940527 33634.116 
L 190.940527 144.280051 
L 188.755596 144.280051 
z
" clip-path="url(#pf3dd7e966e)" style="fill: #6c17b9"/>
   </g>
   <g id="patch_71">
    <path d="M 190.576371 33634.116 
L 192.761302 33634.116 
L 192.761302 144.442865 
L 190.576371 144.442865 
z
" clip-path="url(#pf3dd7e966e)" style="fill: #6c17b9"/>
   </g>
   <g id="patch_72">
    <path d="M 192.397147 33634.116 
L 194.582078 33634.116 
L 194.582078 143.932133 
L 192.397147 143.932133 
z
" clip-path="url(#pf3dd7e966e)" style="fill: #6c17b9"/>
   </g>
   <g id="patch_73">
    <path d="M 194.217922 33634.116 
L 196.402853 33634.116 
L 196.402853 148.362003 
L 194.217922 148.362003 
z
" clip-path="url(#pf3dd7e966e)" style="fill: #6c17b9"/>
   </g>
   <g id="patch_74">
    <path d="M 196.038698 33634.116 
L 198.223629 33634.116 
L 198.223629 142.187575 
L 196.038698 142.187575 
z
" clip-path="url(#pf3dd7e966e)" style="fill: #6c17b9"/>
   </g>
   <g id="patch_75">
    <path d="M 197.859473 33634.116 
L 200.044404 33634.116 
L 200.044404 143.207987 
L 197.859473 143.207987 
z
" clip-path="url(#pf3dd7e966e)" style="fill: #6c17b9"/>
   </g>
   <g id="patch_76">
    <path d="M 199.680249 33634.116 
L 201.86518 33634.116 
L 201.86518 138.943322 
L 199.680249 138.943322 
z
" clip-path="url(#pf3dd7e966e)" style="fill: #6c17b9"/>
   </g>
   <g id="patch_77">
    <path d="M 201.501025 33634.116 
L 203.685955 33634.116 
L 203.685955 144.478072 
L 201.501025 144.478072 
z
" clip-path="url(#pf3dd7e966e)" style="fill: #6c17b9"/>
   </g>
   <g id="patch_78">
    <path d="M 203.3218 33634.116 
L 205.506731 33634.116 
L 205.506731 141.975918 
L 203.3218 141.975918 
z
" clip-path="url(#pf3dd7e966e)" style="fill: #6c17b9"/>
   </g>
   <g id="patch_79">
    <path d="M 205.142576 33634.116 
L 207.327506 33634.116 
L 207.327506 138.582595 
L 205.142576 138.582595 
z
" clip-path="url(#pf3dd7e966e)" style="fill: #6c17b9"/>
   </g>
   <g id="patch_80">
    <path d="M 206.963351 33634.116 
L 209.148282 33634.116 
L 209.148282 142.054533 
L 206.963351 142.054533 
z
" clip-path="url(#pf3dd7e966e)" style="fill: #6c17b9"/>
   </g>
   <g id="patch_81">
    <path d="M 208.784127 33634.116 
L 210.969057 33634.116 
L 210.969057 145.537137 
L 208.784127 145.537137 
z
" clip-path="url(#pf3dd7e966e)" style="fill: #6c17b9"/>
   </g>
   <g id="patch_82">
    <path d="M 210.604902 33634.116 
L 212.789833 33634.116 
L 212.789833 144.653553 
L 210.604902 144.653553 
z
" clip-path="url(#pf3dd7e966e)" style="fill: #6c17b9"/>
   </g>
   <g id="patch_83">
    <path d="M 212.425678 33634.116 
L 214.610608 33634.116 
L 214.610608 139.492748 
L 212.425678 139.492748 
z
" clip-path="url(#pf3dd7e966e)" style="fill: #6c17b9"/>
   </g>
   <g id="patch_84">
    <path d="M 214.246453 33634.116 
L 216.431384 33634.116 
L 216.431384 147.973522 
L 214.246453 147.973522 
z
" clip-path="url(#pf3dd7e966e)" style="fill: #6c17b9"/>
   </g>
   <g id="patch_85">
    <path d="M 216.067229 33634.116 
L 218.252159 33634.116 
L 218.252159 144.655485 
L 216.067229 144.655485 
z
" clip-path="url(#pf3dd7e966e)" style="fill: #6c17b9"/>
   </g>
   <g id="patch_86">
    <path d="M 217.888004 33634.116 
L 220.072935 33634.116 
L 220.072935 140.72892 
L 217.888004 140.72892 
z
" clip-path="url(#pf3dd7e966e)" style="fill: #6c17b9"/>
   </g>
   <g id="patch_87">
    <path d="M 219.70878 33634.116 
L 221.89371 33634.116 
L 221.89371 143.981201 
L 219.70878 143.981201 
z
" clip-path="url(#pf3dd7e966e)" style="fill: #6c17b9"/>
   </g>
   <g id="patch_88">
    <path d="M 221.529555 33634.116 
L 223.714486 33634.116 
L 223.714486 140.149 
L 221.529555 140.149 
z
" clip-path="url(#pf3dd7e966e)" style="fill: #6c17b9"/>
   </g>
   <g id="patch_89">
    <path d="M 223.350331 33634.116 
L 225.535261 33634.116 
L 225.535261 141.445925 
L 223.350331 141.445925 
z
" clip-path="url(#pf3dd7e966e)" style="fill: #6c17b9"/>
   </g>
   <g id="patch_90">
    <path d="M 225.171106 33634.116 
L 227.356037 33634.116 
L 227.356037 138.025308 
L 225.171106 138.025308 
z
" clip-path="url(#pf3dd7e966e)" style="fill: #6c17b9"/>
   </g>
   <g id="patch_91">
    <path d="M 226.991882 33634.116 
L 229.176812 33634.116 
L 229.176812 146.544135 
L 226.991882 146.544135 
z
" clip-path="url(#pf3dd7e966e)" style="fill: #6c17b9"/>
   </g>
   <g id="patch_92">
    <path d="M 228.812657 33634.116 
L 230.997588 33634.116 
L 230.997588 145.502081 
L 228.812657 145.502081 
z
" clip-path="url(#pf3dd7e966e)" style="fill: #6c17b9"/>
   </g>
   <g id="patch_93">
    <path d="M 230.633433 33634.116 
L 232.818363 33634.116 
L 232.818363 147.795696 
L 230.633433 147.795696 
z
" clip-path="url(#pf3dd7e966e)" style="fill: #6c17b9"/>
   </g>
   <g id="patch_94">
    <path d="M 232.454208 33634.116 
L 234.639139 33634.116 
L 234.639139 136.071007 
L 232.454208 136.071007 
z
" clip-path="url(#pf3dd7e966e)" style="fill: #6c17b9"/>
   </g>
   <g id="patch_95">
    <path d="M 234.274984 33634.116 
L 236.459914 33634.116 
L 236.459914 147.775216 
L 234.274984 147.775216 
z
" clip-path="url(#pf3dd7e966e)" style="fill: #6c17b9"/>
   </g>
   <g id="patch_96">
    <path d="M 236.095759 33634.116 
L 238.28069 33634.116 
L 238.28069 147.927271 
L 236.095759 147.927271 
z
" clip-path="url(#pf3dd7e966e)" style="fill: #6c17b9"/>
   </g>
   <g id="patch_97">
    <path d="M 237.916535 33634.116 
L 240.101465 33634.116 
L 240.101465 144.612265 
L 237.916535 144.612265 
z
" clip-path="url(#pf3dd7e966e)" style="fill: #6c17b9"/>
   </g>
   <g id="patch_98">
    <path d="M 239.73731 33634.116 
L 241.922241 33634.116 
L 241.922241 140.475792 
L 239.73731 140.475792 
z
" clip-path="url(#pf3dd7e966e)" style="fill: #6c17b9"/>
   </g>
   <g id="patch_99">
    <path d="M 241.558086 33634.116 
L 243.743016 33634.116 
L 243.743016 149.769946 
L 241.558086 149.769946 
z
" clip-path="url(#pf3dd7e966e)" style="fill: #6c17b9"/>
   </g>
   <g id="patch_100">
    <path d="M 243.378861 33634.116 
L 245.563792 33634.116 
L 245.563792 141.314057 
L 243.378861 141.314057 
z
" clip-path="url(#pf3dd7e966e)" style="fill: #6c17b9"/>
   </g>
   <g id="patch_101">
    <path d="M 245.199637 33634.116 
L 247.384568 33634.116 
L 247.384568 137.256834 
L 245.199637 137.256834 
z
" clip-path="url(#pf3dd7e966e)" style="fill: #6c17b9"/>
   </g>
   <g id="patch_102">
    <path d="M 247.020412 33634.116 
L 249.205343 33634.116 
L 249.205343 147.413135 
L 247.020412 147.413135 
z
" clip-path="url(#pf3dd7e966e)" style="fill: #6c17b9"/>
   </g>
   <g id="patch_103">
    <path d="M 248.841188 33634.116 
L 251.026119 33634.116 
L 251.026119 141.056722 
L 248.841188 141.056722 
z
" clip-path="url(#pf3dd7e966e)" style="fill: #6c17b9"/>
   </g>
   <g id="patch_104">
    <path d="M 250.661963 33634.116 
L 252.846894 33634.116 
L 252.846894 146.714594 
L 250.661963 146.714594 
z
" clip-path="url(#pf3dd7e966e)" style="fill: #6c17b9"/>
   </g>
   <g id="patch_105">
    <path d="M 252.482739 33634.116 
L 254.66767 33634.116 
L 254.66767 143.014708 
L 252.482739 143.014708 
z
" clip-path="url(#pf3dd7e966e)" style="fill: #6c17b9"/>
   </g>
   <g id="patch_106">
    <path d="M 254.303514 33634.116 
L 256.488445 33634.116 
L 256.488445 142.500032 
L 254.303514 142.500032 
z
" clip-path="url(#pf3dd7e966e)" style="fill: #6c17b9"/>
   </g>
   <g id="patch_107">
    <path d="M 256.12429 33634.116 
L 258.309221 33634.116 
L 258.309221 139.552132 
L 256.12429 139.552132 
z
" clip-path="url(#pf3dd7e966e)" style="fill: #6c17b9"/>
   </g>
   <g id="patch_108">
    <path d="M 257.945065 33634.116 
L 260.129996 33634.116 
L 260.129996 138.889023 
L 257.945065 138.889023 
z
" clip-path="url(#pf3dd7e966e)" style="fill: #6c17b9"/>
   </g>
   <g id="patch_109">
    <path d="M 259.765841 33634.116 
L 261.950772 33634.116 
L 261.950772 147.017514 
L 259.765841 147.017514 
z
" clip-path="url(#pf3dd7e966e)" style="fill: #6c17b9"/>
   </g>
   <g id="patch_110">
    <path d="M 261.586617 33634.116 
L 263.771547 33634.116 
L 263.771547 152.33915 
L 261.586617 152.33915 
z
" clip-path="url(#pf3dd7e966e)" style="fill: #6c17b9"/>
   </g>
   <g id="patch_111">
    <path d="M 263.407392 33634.116 
L 265.592323 33634.116 
L 265.592323 141.902731 
L 263.407392 141.902731 
z
" clip-path="url(#pf3dd7e966e)" style="fill: #6c17b9"/>
   </g>
   <g id="patch_112">
    <path d="M 265.228168 33634.116 
L 267.413098 33634.116 
L 267.413098 151.83222 
L 265.228168 151.83222 
z
" clip-path="url(#pf3dd7e966e)" style="fill: #6c17b9"/>
   </g>
   <g id="patch_113">
    <path d="M 267.048943 33634.116 
L 269.233874 33634.116 
L 269.233874 149.297785 
L 267.048943 149.297785 
z
" clip-path="url(#pf3dd7e966e)" style="fill: #6c17b9"/>
   </g>
   <g id="patch_114">
    <path d="M 268.869719 33634.116 
L 271.054649 33634.116 
L 271.054649 150.389412 
L 268.869719 150.389412 
z
" clip-path="url(#pf3dd7e966e)" style="fill: #6c17b9"/>
   </g>
   <g id="patch_115">
    <path d="M 270.690494 33634.116 
L 272.875425 33634.116 
L 272.875425 147.537289 
L 270.690494 147.537289 
z
" clip-path="url(#pf3dd7e966e)" style="fill: #6c17b9"/>
   </g>
   <g id="patch_116">
    <path d="M 272.51127 33634.116 
L 274.6962 33634.116 
L 274.6962 149.264208 
L 272.51127 149.264208 
z
" clip-path="url(#pf3dd7e966e)" style="fill: #6c17b9"/>
   </g>
   <g id="patch_117">
    <path d="M 274.332045 33634.116 
L 276.516976 33634.116 
L 276.516976 149.655671 
L 274.332045 149.655671 
z
" clip-path="url(#pf3dd7e966e)" style="fill: #6c17b9"/>
   </g>
   <g id="patch_118">
    <path d="M 276.152821 33634.116 
L 278.337751 33634.116 
L 278.337751 145.364221 
L 276.152821 145.364221 
z
" clip-path="url(#pf3dd7e966e)" style="fill: #6c17b9"/>
   </g>
   <g id="patch_119">
    <path d="M 277.973596 33634.116 
L 280.158527 33634.116 
L 280.158527 144.834228 
L 277.973596 144.834228 
z
" clip-path="url(#pf3dd7e966e)" style="fill: #6c17b9"/>
   </g>
   <g id="patch_120">
    <path d="M 279.794372 33634.116 
L 281.979302 33634.116 
L 281.979302 143.940049 
L 279.794372 143.940049 
z
" clip-path="url(#pf3dd7e966e)" style="fill: #6c17b9"/>
   </g>
   <g id="patch_121">
    <path d="M 281.615147 33634.116 
L 283.800078 33634.116 
L 283.800078 143.398282 
L 281.615147 143.398282 
z
" clip-path="url(#pf3dd7e966e)" style="fill: #6c17b9"/>
   </g>
   <g id="patch_122">
    <path d="M 283.435923 33634.116 
L 285.620853 33634.116 
L 285.620853 139.840116 
L 283.435923 139.840116 
z
" clip-path="url(#pf3dd7e966e)" style="fill: #6c17b9"/>
   </g>
   <g id="patch_123">
    <path d="M 285.256698 33634.116 
L 287.441629 33634.116 
L 287.441629 146.823119 
L 285.256698 146.823119 
z
" clip-path="url(#pf3dd7e966e)" style="fill: #6c17b9"/>
   </g>
   <g id="patch_124">
    <path d="M 287.077474 33634.116 
L 289.262404 33634.116 
L 289.262404 141.120714 
L 287.077474 141.120714 
z
" clip-path="url(#pf3dd7e966e)" style="fill: #6c17b9"/>
   </g>
   <g id="patch_125">
    <path d="M 288.898249 33634.116 
L 291.08318 33634.116 
L 291.08318 144.674755 
L 288.898249 144.674755 
z
" clip-path="url(#pf3dd7e966e)" style="fill: #6c17b9"/>
   </g>
   <g id="patch_126">
    <path d="M 290.719025 33634.116 
L 292.903955 33634.116 
L 292.903955 138.56238 
L 290.719025 138.56238 
z
" clip-path="url(#pf3dd7e966e)" style="fill: #6c17b9"/>
   </g>
   <g id="patch_127">
    <path d="M 292.5398 33634.116 
L 294.724731 33634.116 
L 294.724731 140.296383 
L 292.5398 140.296383 
z
" clip-path="url(#pf3dd7e966e)" style="fill: #6c17b9"/>
   </g>
   <g id="patch_128">
    <path d="M 294.360576 33634.116 
L 296.545506 33634.116 
L 296.545506 141.601481 
L 294.360576 141.601481 
z
" clip-path="url(#pf3dd7e966e)" style="fill: #6c17b9"/>
   </g>
   <g id="patch_129">
    <path d="M 296.181351 33634.116 
L 298.366282 33634.116 
L 298.366282 141.272065 
L 296.181351 141.272065 
z
" clip-path="url(#pf3dd7e966e)" style="fill: #6c17b9"/>
   </g>
   <g id="patch_130">
    <path d="M 298.002127 33634.116 
L 300.187057 33634.116 
L 300.187057 136.071709 
L 298.002127 136.071709 
z
" clip-path="url(#pf3dd7e966e)" style="fill: #6c17b9"/>
   </g>
   <g id="patch_131">
    <path d="M 299.822902 33634.116 
L 302.007833 33634.116 
L 302.007833 144.669301 
L 299.822902 144.669301 
z
" clip-path="url(#pf3dd7e966e)" style="fill: #6c17b9"/>
   </g>
   <g id="patch_132">
    <path d="M 301.643678 33634.116 
L 303.828608 33634.116 
L 303.828608 141.106502 
L 301.643678 141.106502 
z
" clip-path="url(#pf3dd7e966e)" style="fill: #6c17b9"/>
   </g>
   <g id="patch_133">
    <path d="M 303.464453 33634.116 
L 305.649384 33634.116 
L 305.649384 136.841985 
L 303.464453 136.841985 
z
" clip-path="url(#pf3dd7e966e)" style="fill: #6c17b9"/>
   </g>
   <g id="patch_134">
    <path d="M 305.285229 33634.116 
L 307.47016 33634.116 
L 307.47016 143.11203 
L 305.285229 143.11203 
z
" clip-path="url(#pf3dd7e966e)" style="fill: #6c17b9"/>
   </g>
   <g id="patch_135">
    <path d="M 307.106004 33634.116 
L 309.290935 33634.116 
L 309.290935 121.894318 
L 307.106004 121.894318 
z
" clip-path="url(#pf3dd7e966e)" style="fill: #6c17b9"/>
   </g>
   <g id="patch_136">
    <path d="M 308.92678 33634.116 
L 311.111711 33634.116 
L 311.111711 116.541748 
L 308.92678 116.541748 
z
" clip-path="url(#pf3dd7e966e)" style="fill: #6c17b9"/>
   </g>
   <g id="patch_137">
    <path d="M 310.747555 33634.116 
L 312.932486 33634.116 
L 312.932486 101.925013 
L 310.747555 101.925013 
z
" clip-path="url(#pf3dd7e966e)" style="fill: #6c17b9"/>
   </g>
   <g id="patch_138">
    <path d="M 312.568331 33634.116 
L 314.753262 33634.116 
L 314.753262 100.05769 
L 312.568331 100.05769 
z
" clip-path="url(#pf3dd7e966e)" style="fill: #6c17b9"/>
   </g>
   <g id="patch_139">
    <path d="M 314.389106 33634.116 
L 316.574037 33634.116 
L 316.574037 83.53821 
L 314.389106 83.53821 
z
" clip-path="url(#pf3dd7e966e)" style="fill: #6c17b9"/>
   </g>
   <g id="patch_140">
    <path d="M 316.209882 33634.116 
L 318.394813 33634.116 
L 318.394813 83.386878 
L 316.209882 83.386878 
z
" clip-path="url(#pf3dd7e966e)" style="fill: #6c17b9"/>
   </g>
   <g id="patch_141">
    <path d="M 318.030658 33634.116 
L 320.215588 33634.116 
L 320.215588 63.717183 
L 318.030658 63.717183 
z
" clip-path="url(#pf3dd7e966e)" style="fill: #6c17b9"/>
   </g>
   <g id="patch_142">
    <path d="M 319.851433 33634.116 
L 322.036364 33634.116 
L 322.036364 63.487498 
L 319.851433 63.487498 
z
" clip-path="url(#pf3dd7e966e)" style="fill: #6c17b9"/>
   </g>
   <g id="matplotlib.axis_1">
    <g id="text_1">
     <!-- Hyperparameter Configurations -->
     <g transform="translate(83.065 187.821812) scale(0.14 -0.14)">
      <defs>
       <path id="DejaVuSans-48" d="M 628 4666 
L 1259 4666 
L 1259 2753 
L 3553 2753 
L 3553 4666 
L 4184 4666 
L 4184 0 
L 3553 0 
L 3553 2222 
L 1259 2222 
L 1259 0 
L 628 0 
L 628 4666 
z
" transform="scale(0.015625)"/>
       <path id="DejaVuSans-79" d="M 2059 -325 
Q 1816 -950 1584 -1140 
Q 1353 -1331 966 -1331 
L 506 -1331 
L 506 -850 
L 844 -850 
Q 1081 -850 1212 -737 
Q 1344 -625 1503 -206 
L 1606 56 
L 191 3500 
L 800 3500 
L 1894 763 
L 2988 3500 
L 3597 3500 
L 2059 -325 
z
" transform="scale(0.015625)"/>
       <path id="DejaVuSans-70" d="M 1159 525 
L 1159 -1331 
L 581 -1331 
L 581 3500 
L 1159 3500 
L 1159 2969 
Q 1341 3281 1617 3432 
Q 1894 3584 2278 3584 
Q 2916 3584 3314 3078 
Q 3713 2572 3713 1747 
Q 3713 922 3314 415 
Q 2916 -91 2278 -91 
Q 1894 -91 1617 61 
Q 1341 213 1159 525 
z
M 3116 1747 
Q 3116 2381 2855 2742 
Q 2594 3103 2138 3103 
Q 1681 3103 1420 2742 
Q 1159 2381 1159 1747 
Q 1159 1113 1420 752 
Q 1681 391 2138 391 
Q 2594 391 2855 752 
Q 3116 1113 3116 1747 
z
" transform="scale(0.015625)"/>
       <path id="DejaVuSans-65" d="M 3597 1894 
L 3597 1613 
L 953 1613 
Q 991 1019 1311 708 
Q 1631 397 2203 397 
Q 2534 397 2845 478 
Q 3156 559 3463 722 
L 3463 178 
Q 3153 47 2828 -22 
Q 2503 -91 2169 -91 
Q 1331 -91 842 396 
Q 353 884 353 1716 
Q 353 2575 817 3079 
Q 1281 3584 2069 3584 
Q 2775 3584 3186 3129 
Q 3597 2675 3597 1894 
z
M 3022 2063 
Q 3016 2534 2758 2815 
Q 2500 3097 2075 3097 
Q 1594 3097 1305 2825 
Q 1016 2553 972 2059 
L 3022 2063 
z
" transform="scale(0.015625)"/>
       <path id="DejaVuSans-72" d="M 2631 2963 
Q 2534 3019 2420 3045 
Q 2306 3072 2169 3072 
Q 1681 3072 1420 2755 
Q 1159 2438 1159 1844 
L 1159 0 
L 581 0 
L 581 3500 
L 1159 3500 
L 1159 2956 
Q 1341 3275 1631 3429 
Q 1922 3584 2338 3584 
Q 2397 3584 2469 3576 
Q 2541 3569 2628 3553 
L 2631 2963 
z
" transform="scale(0.015625)"/>
       <path id="DejaVuSans-61" d="M 2194 1759 
Q 1497 1759 1228 1600 
Q 959 1441 959 1056 
Q 959 750 1161 570 
Q 1363 391 1709 391 
Q 2188 391 2477 730 
Q 2766 1069 2766 1631 
L 2766 1759 
L 2194 1759 
z
M 3341 1997 
L 3341 0 
L 2766 0 
L 2766 531 
Q 2569 213 2275 61 
Q 1981 -91 1556 -91 
Q 1019 -91 701 211 
Q 384 513 384 1019 
Q 384 1609 779 1909 
Q 1175 2209 1959 2209 
L 2766 2209 
L 2766 2266 
Q 2766 2663 2505 2880 
Q 2244 3097 1772 3097 
Q 1472 3097 1187 3025 
Q 903 2953 641 2809 
L 641 3341 
Q 956 3463 1253 3523 
Q 1550 3584 1831 3584 
Q 2591 3584 2966 3190 
Q 3341 2797 3341 1997 
z
" transform="scale(0.015625)"/>
       <path id="DejaVuSans-6d" d="M 3328 2828 
Q 3544 3216 3844 3400 
Q 4144 3584 4550 3584 
Q 5097 3584 5394 3201 
Q 5691 2819 5691 2113 
L 5691 0 
L 5113 0 
L 5113 2094 
Q 5113 2597 4934 2840 
Q 4756 3084 4391 3084 
Q 3944 3084 3684 2787 
Q 3425 2491 3425 1978 
L 3425 0 
L 2847 0 
L 2847 2094 
Q 2847 2600 2669 2842 
Q 2491 3084 2119 3084 
Q 1678 3084 1418 2786 
Q 1159 2488 1159 1978 
L 1159 0 
L 581 0 
L 581 3500 
L 1159 3500 
L 1159 2956 
Q 1356 3278 1631 3431 
Q 1906 3584 2284 3584 
Q 2666 3584 2933 3390 
Q 3200 3197 3328 2828 
z
" transform="scale(0.015625)"/>
       <path id="DejaVuSans-74" d="M 1172 4494 
L 1172 3500 
L 2356 3500 
L 2356 3053 
L 1172 3053 
L 1172 1153 
Q 1172 725 1289 603 
Q 1406 481 1766 481 
L 2356 481 
L 2356 0 
L 1766 0 
Q 1100 0 847 248 
Q 594 497 594 1153 
L 594 3053 
L 172 3053 
L 172 3500 
L 594 3500 
L 594 4494 
L 1172 4494 
z
" transform="scale(0.015625)"/>
       <path id="DejaVuSans-20" transform="scale(0.015625)"/>
       <path id="DejaVuSans-43" d="M 4122 4306 
L 4122 3641 
Q 3803 3938 3442 4084 
Q 3081 4231 2675 4231 
Q 1875 4231 1450 3742 
Q 1025 3253 1025 2328 
Q 1025 1406 1450 917 
Q 1875 428 2675 428 
Q 3081 428 3442 575 
Q 3803 722 4122 1019 
L 4122 359 
Q 3791 134 3420 21 
Q 3050 -91 2638 -91 
Q 1578 -91 968 557 
Q 359 1206 359 2328 
Q 359 3453 968 4101 
Q 1578 4750 2638 4750 
Q 3056 4750 3426 4639 
Q 3797 4528 4122 4306 
z
" transform="scale(0.015625)"/>
       <path id="DejaVuSans-6f" d="M 1959 3097 
Q 1497 3097 1228 2736 
Q 959 2375 959 1747 
Q 959 1119 1226 758 
Q 1494 397 1959 397 
Q 2419 397 2687 759 
Q 2956 1122 2956 1747 
Q 2956 2369 2687 2733 
Q 2419 3097 1959 3097 
z
M 1959 3584 
Q 2709 3584 3137 3096 
Q 3566 2609 3566 1747 
Q 3566 888 3137 398 
Q 2709 -91 1959 -91 
Q 1206 -91 779 398 
Q 353 888 353 1747 
Q 353 2609 779 3096 
Q 1206 3584 1959 3584 
z
" transform="scale(0.015625)"/>
       <path id="DejaVuSans-6e" d="M 3513 2113 
L 3513 0 
L 2938 0 
L 2938 2094 
Q 2938 2591 2744 2837 
Q 2550 3084 2163 3084 
Q 1697 3084 1428 2787 
Q 1159 2491 1159 1978 
L 1159 0 
L 581 0 
L 581 3500 
L 1159 3500 
L 1159 2956 
Q 1366 3272 1645 3428 
Q 1925 3584 2291 3584 
Q 2894 3584 3203 3211 
Q 3513 2838 3513 2113 
z
" transform="scale(0.015625)"/>
       <path id="DejaVuSans-66" d="M 2375 4863 
L 2375 4384 
L 1825 4384 
Q 1516 4384 1395 4259 
Q 1275 4134 1275 3809 
L 1275 3500 
L 2222 3500 
L 2222 3053 
L 1275 3053 
L 1275 0 
L 697 0 
L 697 3053 
L 147 3053 
L 147 3500 
L 697 3500 
L 697 3744 
Q 697 4328 969 4595 
Q 1241 4863 1831 4863 
L 2375 4863 
z
" transform="scale(0.015625)"/>
       <path id="DejaVuSans-69" d="M 603 3500 
L 1178 3500 
L 1178 0 
L 603 0 
L 603 3500 
z
M 603 4863 
L 1178 4863 
L 1178 4134 
L 603 4134 
L 603 4863 
z
" transform="scale(0.015625)"/>
       <path id="DejaVuSans-67" d="M 2906 1791 
Q 2906 2416 2648 2759 
Q 2391 3103 1925 3103 
Q 1463 3103 1205 2759 
Q 947 2416 947 1791 
Q 947 1169 1205 825 
Q 1463 481 1925 481 
Q 2391 481 2648 825 
Q 2906 1169 2906 1791 
z
M 3481 434 
Q 3481 -459 3084 -895 
Q 2688 -1331 1869 -1331 
Q 1566 -1331 1297 -1286 
Q 1028 -1241 775 -1147 
L 775 -588 
Q 1028 -725 1275 -790 
Q 1522 -856 1778 -856 
Q 2344 -856 2625 -561 
Q 2906 -266 2906 331 
L 2906 616 
Q 2728 306 2450 153 
Q 2172 0 1784 0 
Q 1141 0 747 490 
Q 353 981 353 1791 
Q 353 2603 747 3093 
Q 1141 3584 1784 3584 
Q 2172 3584 2450 3431 
Q 2728 3278 2906 2969 
L 2906 3500 
L 3481 3500 
L 3481 434 
z
" transform="scale(0.015625)"/>
       <path id="DejaVuSans-75" d="M 544 1381 
L 544 3500 
L 1119 3500 
L 1119 1403 
Q 1119 906 1312 657 
Q 1506 409 1894 409 
Q 2359 409 2629 706 
Q 2900 1003 2900 1516 
L 2900 3500 
L 3475 3500 
L 3475 0 
L 2900 0 
L 2900 538 
Q 2691 219 2414 64 
Q 2138 -91 1772 -91 
Q 1169 -91 856 284 
Q 544 659 544 1381 
z
M 1991 3584 
L 1991 3584 
z
" transform="scale(0.015625)"/>
       <path id="DejaVuSans-73" d="M 2834 3397 
L 2834 2853 
Q 2591 2978 2328 3040 
Q 2066 3103 1784 3103 
Q 1356 3103 1142 2972 
Q 928 2841 928 2578 
Q 928 2378 1081 2264 
Q 1234 2150 1697 2047 
L 1894 2003 
Q 2506 1872 2764 1633 
Q 3022 1394 3022 966 
Q 3022 478 2636 193 
Q 2250 -91 1575 -91 
Q 1294 -91 989 -36 
Q 684 19 347 128 
L 347 722 
Q 666 556 975 473 
Q 1284 391 1588 391 
Q 1994 391 2212 530 
Q 2431 669 2431 922 
Q 2431 1156 2273 1281 
Q 2116 1406 1581 1522 
L 1381 1569 
Q 847 1681 609 1914 
Q 372 2147 372 2553 
Q 372 3047 722 3315 
Q 1072 3584 1716 3584 
Q 2034 3584 2315 3537 
Q 2597 3491 2834 3397 
z
" transform="scale(0.015625)"/>
      </defs>
      <use xlink:href="#DejaVuSans-48"/>
      <use xlink:href="#DejaVuSans-79" x="75.195312"/>
      <use xlink:href="#DejaVuSans-70" x="134.375"/>
      <use xlink:href="#DejaVuSans-65" x="197.851562"/>
      <use xlink:href="#DejaVuSans-72" x="259.375"/>
      <use xlink:href="#DejaVuSans-70" x="300.488281"/>
      <use xlink:href="#DejaVuSans-61" x="363.964844"/>
      <use xlink:href="#DejaVuSans-72" x="425.244141"/>
      <use xlink:href="#DejaVuSans-61" x="466.357422"/>
      <use xlink:href="#DejaVuSans-6d" x="527.636719"/>
      <use xlink:href="#DejaVuSans-65" x="625.048828"/>
      <use xlink:href="#DejaVuSans-74" x="686.572266"/>
      <use xlink:href="#DejaVuSans-65" x="725.78125"/>
      <use xlink:href="#DejaVuSans-72" x="787.304688"/>
      <use xlink:href="#DejaVuSans-20" x="828.417969"/>
      <use xlink:href="#DejaVuSans-43" x="860.205078"/>
      <use xlink:href="#DejaVuSans-6f" x="930.029297"/>
      <use xlink:href="#DejaVuSans-6e" x="991.210938"/>
      <use xlink:href="#DejaVuSans-66" x="1054.589844"/>
      <use xlink:href="#DejaVuSans-69" x="1089.794922"/>
      <use xlink:href="#DejaVuSans-67" x="1117.578125"/>
      <use xlink:href="#DejaVuSans-75" x="1181.054688"/>
      <use xlink:href="#DejaVuSans-72" x="1244.433594"/>
      <use xlink:href="#DejaVuSans-61" x="1285.546875"/>
      <use xlink:href="#DejaVuSans-74" x="1346.826172"/>
      <use xlink:href="#DejaVuSans-69" x="1386.035156"/>
      <use xlink:href="#DejaVuSans-6f" x="1413.818359"/>
      <use xlink:href="#DejaVuSans-6e" x="1475"/>
      <use xlink:href="#DejaVuSans-73" x="1538.378906"/>
     </g>
    </g>
   </g>
   <g id="matplotlib.axis_2">
    <g id="ytick_1">
     <g id="line2d_1">
      <defs>
       <path id="mcb261dbcd4" d="M 0 0 
L -3.5 0 
" style="stroke: #000000; stroke-width: 0.8"/>
      </defs>
      <g>
       <use xlink:href="#mcb261dbcd4" x="54" y="167.184" style="stroke: #000000; stroke-width: 0.8"/>
      </g>
     </g>
     <g id="text_2">
      <!-- $\mathdefault{10^{-2}}$ -->
      <g transform="translate(23.5 170.983219) scale(0.1 -0.1)">
       <defs>
        <path id="DejaVuSans-31" d="M 794 531 
L 1825 531 
L 1825 4091 
L 703 3866 
L 703 4441 
L 1819 4666 
L 2450 4666 
L 2450 531 
L 3481 531 
L 3481 0 
L 794 0 
L 794 531 
z
" transform="scale(0.015625)"/>
        <path id="DejaVuSans-30" d="M 2034 4250 
Q 1547 4250 1301 3770 
Q 1056 3291 1056 2328 
Q 1056 1369 1301 889 
Q 1547 409 2034 409 
Q 2525 409 2770 889 
Q 3016 1369 3016 2328 
Q 3016 3291 2770 3770 
Q 2525 4250 2034 4250 
z
M 2034 4750 
Q 2819 4750 3233 4129 
Q 3647 3509 3647 2328 
Q 3647 1150 3233 529 
Q 2819 -91 2034 -91 
Q 1250 -91 836 529 
Q 422 1150 422 2328 
Q 422 3509 836 4129 
Q 1250 4750 2034 4750 
z
" transform="scale(0.015625)"/>
        <path id="DejaVuSans-2212" d="M 678 2272 
L 4684 2272 
L 4684 1741 
L 678 1741 
L 678 2272 
z
" transform="scale(0.015625)"/>
        <path id="DejaVuSans-32" d="M 1228 531 
L 3431 531 
L 3431 0 
L 469 0 
L 469 531 
Q 828 903 1448 1529 
Q 2069 2156 2228 2338 
Q 2531 2678 2651 2914 
Q 2772 3150 2772 3378 
Q 2772 3750 2511 3984 
Q 2250 4219 1831 4219 
Q 1534 4219 1204 4116 
Q 875 4013 500 3803 
L 500 4441 
Q 881 4594 1212 4672 
Q 1544 4750 1819 4750 
Q 2544 4750 2975 4387 
Q 3406 4025 3406 3419 
Q 3406 3131 3298 2873 
Q 3191 2616 2906 2266 
Q 2828 2175 2409 1742 
Q 1991 1309 1228 531 
z
" transform="scale(0.015625)"/>
       </defs>
       <use xlink:href="#DejaVuSans-31" transform="translate(0 0.765625)"/>
       <use xlink:href="#DejaVuSans-30" transform="translate(63.623047 0.765625)"/>
       <use xlink:href="#DejaVuSans-2212" transform="translate(128.203125 39.046875) scale(0.7)"/>
       <use xlink:href="#DejaVuSans-32" transform="translate(186.855469 39.046875) scale(0.7)"/>
      </g>
     </g>
    </g>
    <g id="ytick_2">
     <g id="line2d_2">
      <g>
       <use xlink:href="#mcb261dbcd4" x="54" y="133.65" style="stroke: #000000; stroke-width: 0.8"/>
      </g>
     </g>
     <g id="text_3">
      <!-- $\mathdefault{10^{-1}}$ -->
      <g transform="translate(23.5 137.449219) scale(0.1 -0.1)">
       <use xlink:href="#DejaVuSans-31" transform="translate(0 0.684375)"/>
       <use xlink:href="#DejaVuSans-30" transform="translate(63.623047 0.684375)"/>
       <use xlink:href="#DejaVuSans-2212" transform="translate(128.203125 38.965625) scale(0.7)"/>
       <use xlink:href="#DejaVuSans-31" transform="translate(186.855469 38.965625) scale(0.7)"/>
      </g>
     </g>
    </g>
    <g id="ytick_3">
     <g id="line2d_3">
      <g>
       <use xlink:href="#mcb261dbcd4" x="54" y="100.116" style="stroke: #000000; stroke-width: 0.8"/>
      </g>
     </g>
     <g id="text_4">
      <!-- $\mathdefault{10^{0}}$ -->
      <g transform="translate(29.4 103.915219) scale(0.1 -0.1)">
       <use xlink:href="#DejaVuSans-31" transform="translate(0 0.765625)"/>
       <use xlink:href="#DejaVuSans-30" transform="translate(63.623047 0.765625)"/>
       <use xlink:href="#DejaVuSans-30" transform="translate(128.203125 39.046875) scale(0.7)"/>
      </g>
     </g>
    </g>
    <g id="ytick_4">
     <g id="line2d_4">
      <g>
       <use xlink:href="#mcb261dbcd4" x="54" y="66.582" style="stroke: #000000; stroke-width: 0.8"/>
      </g>
     </g>
     <g id="text_5">
      <!-- $\mathdefault{10^{1}}$ -->
      <g transform="translate(29.4 70.381219) scale(0.1 -0.1)">
       <use xlink:href="#DejaVuSans-31" transform="translate(0 0.684375)"/>
       <use xlink:href="#DejaVuSans-30" transform="translate(63.623047 0.684375)"/>
       <use xlink:href="#DejaVuSans-31" transform="translate(128.203125 38.965625) scale(0.7)"/>
      </g>
     </g>
    </g>
    <g id="ytick_5">
     <g id="line2d_5">
      <g>
       <use xlink:href="#mcb261dbcd4" x="54" y="33.048" style="stroke: #000000; stroke-width: 0.8"/>
      </g>
     </g>
     <g id="text_6">
      <!-- $\mathdefault{10^{2}}$ -->
      <g transform="translate(29.4 36.847219) scale(0.1 -0.1)">
       <use xlink:href="#DejaVuSans-31" transform="translate(0 0.765625)"/>
       <use xlink:href="#DejaVuSans-30" transform="translate(63.623047 0.765625)"/>
       <use xlink:href="#DejaVuSans-32" transform="translate(128.203125 39.046875) scale(0.7)"/>
      </g>
     </g>
    </g>
    <g id="ytick_6">
     <g id="line2d_6">
      <defs>
       <path id="m36615b112e" d="M 0 0 
L -2 0 
" style="stroke: #000000; stroke-width: 0.6"/>
      </defs>
      <g>
       <use xlink:href="#m36615b112e" x="54" y="157.08926" style="stroke: #000000; stroke-width: 0.6"/>
      </g>
     </g>
    </g>
    <g id="ytick_7">
     <g id="line2d_7">
      <g>
       <use xlink:href="#m36615b112e" x="54" y="151.184216" style="stroke: #000000; stroke-width: 0.6"/>
      </g>
     </g>
    </g>
    <g id="ytick_8">
     <g id="line2d_8">
      <g>
       <use xlink:href="#m36615b112e" x="54" y="146.99452" style="stroke: #000000; stroke-width: 0.6"/>
      </g>
     </g>
    </g>
    <g id="ytick_9">
     <g id="line2d_9">
      <g>
       <use xlink:href="#m36615b112e" x="54" y="143.74474" style="stroke: #000000; stroke-width: 0.6"/>
      </g>
     </g>
    </g>
    <g id="ytick_10">
     <g id="line2d_10">
      <g>
       <use xlink:href="#m36615b112e" x="54" y="141.089476" style="stroke: #000000; stroke-width: 0.6"/>
      </g>
     </g>
    </g>
    <g id="ytick_11">
     <g id="line2d_11">
      <g>
       <use xlink:href="#m36615b112e" x="54" y="138.844482" style="stroke: #000000; stroke-width: 0.6"/>
      </g>
     </g>
    </g>
    <g id="ytick_12">
     <g id="line2d_12">
      <g>
       <use xlink:href="#m36615b112e" x="54" y="136.89978" style="stroke: #000000; stroke-width: 0.6"/>
      </g>
     </g>
    </g>
    <g id="ytick_13">
     <g id="line2d_13">
      <g>
       <use xlink:href="#m36615b112e" x="54" y="135.184432" style="stroke: #000000; stroke-width: 0.6"/>
      </g>
     </g>
    </g>
    <g id="ytick_14">
     <g id="line2d_14">
      <g>
       <use xlink:href="#m36615b112e" x="54" y="123.55526" style="stroke: #000000; stroke-width: 0.6"/>
      </g>
     </g>
    </g>
    <g id="ytick_15">
     <g id="line2d_15">
      <g>
       <use xlink:href="#m36615b112e" x="54" y="117.650216" style="stroke: #000000; stroke-width: 0.6"/>
      </g>
     </g>
    </g>
    <g id="ytick_16">
     <g id="line2d_16">
      <g>
       <use xlink:href="#m36615b112e" x="54" y="113.46052" style="stroke: #000000; stroke-width: 0.6"/>
      </g>
     </g>
    </g>
    <g id="ytick_17">
     <g id="line2d_17">
      <g>
       <use xlink:href="#m36615b112e" x="54" y="110.21074" style="stroke: #000000; stroke-width: 0.6"/>
      </g>
     </g>
    </g>
    <g id="ytick_18">
     <g id="line2d_18">
      <g>
       <use xlink:href="#m36615b112e" x="54" y="107.555476" style="stroke: #000000; stroke-width: 0.6"/>
      </g>
     </g>
    </g>
    <g id="ytick_19">
     <g id="line2d_19">
      <g>
       <use xlink:href="#m36615b112e" x="54" y="105.310482" style="stroke: #000000; stroke-width: 0.6"/>
      </g>
     </g>
    </g>
    <g id="ytick_20">
     <g id="line2d_20">
      <g>
       <use xlink:href="#m36615b112e" x="54" y="103.36578" style="stroke: #000000; stroke-width: 0.6"/>
      </g>
     </g>
    </g>
    <g id="ytick_21">
     <g id="line2d_21">
      <g>
       <use xlink:href="#m36615b112e" x="54" y="101.650432" style="stroke: #000000; stroke-width: 0.6"/>
      </g>
     </g>
    </g>
    <g id="ytick_22">
     <g id="line2d_22">
      <g>
       <use xlink:href="#m36615b112e" x="54" y="90.02126" style="stroke: #000000; stroke-width: 0.6"/>
      </g>
     </g>
    </g>
    <g id="ytick_23">
     <g id="line2d_23">
      <g>
       <use xlink:href="#m36615b112e" x="54" y="84.116216" style="stroke: #000000; stroke-width: 0.6"/>
      </g>
     </g>
    </g>
    <g id="ytick_24">
     <g id="line2d_24">
      <g>
       <use xlink:href="#m36615b112e" x="54" y="79.92652" style="stroke: #000000; stroke-width: 0.6"/>
      </g>
     </g>
    </g>
    <g id="ytick_25">
     <g id="line2d_25">
      <g>
       <use xlink:href="#m36615b112e" x="54" y="76.67674" style="stroke: #000000; stroke-width: 0.6"/>
      </g>
     </g>
    </g>
    <g id="ytick_26">
     <g id="line2d_26">
      <g>
       <use xlink:href="#m36615b112e" x="54" y="74.021476" style="stroke: #000000; stroke-width: 0.6"/>
      </g>
     </g>
    </g>
    <g id="ytick_27">
     <g id="line2d_27">
      <g>
       <use xlink:href="#m36615b112e" x="54" y="71.776482" style="stroke: #000000; stroke-width: 0.6"/>
      </g>
     </g>
    </g>
    <g id="ytick_28">
     <g id="line2d_28">
      <g>
       <use xlink:href="#m36615b112e" x="54" y="69.83178" style="stroke: #000000; stroke-width: 0.6"/>
      </g>
     </g>
    </g>
    <g id="ytick_29">
     <g id="line2d_29">
      <g>
       <use xlink:href="#m36615b112e" x="54" y="68.116432" style="stroke: #000000; stroke-width: 0.6"/>
      </g>
     </g>
    </g>
    <g id="ytick_30">
     <g id="line2d_30">
      <g>
       <use xlink:href="#m36615b112e" x="54" y="56.48726" style="stroke: #000000; stroke-width: 0.6"/>
      </g>
     </g>
    </g>
    <g id="ytick_31">
     <g id="line2d_31">
      <g>
       <use xlink:href="#m36615b112e" x="54" y="50.582216" style="stroke: #000000; stroke-width: 0.6"/>
      </g>
     </g>
    </g>
    <g id="ytick_32">
     <g id="line2d_32">
      <g>
       <use xlink:href="#m36615b112e" x="54" y="46.39252" style="stroke: #000000; stroke-width: 0.6"/>
      </g>
     </g>
    </g>
    <g id="ytick_33">
     <g id="line2d_33">
      <g>
       <use xlink:href="#m36615b112e" x="54" y="43.14274" style="stroke: #000000; stroke-width: 0.6"/>
      </g>
     </g>
    </g>
    <g id="ytick_34">
     <g id="line2d_34">
      <g>
       <use xlink:href="#m36615b112e" x="54" y="40.487476" style="stroke: #000000; stroke-width: 0.6"/>
      </g>
     </g>
    </g>
    <g id="ytick_35">
     <g id="line2d_35">
      <g>
       <use xlink:href="#m36615b112e" x="54" y="38.242482" style="stroke: #000000; stroke-width: 0.6"/>
      </g>
     </g>
    </g>
    <g id="ytick_36">
     <g id="line2d_36">
      <g>
       <use xlink:href="#m36615b112e" x="54" y="36.29778" style="stroke: #000000; stroke-width: 0.6"/>
      </g>
     </g>
    </g>
    <g id="ytick_37">
     <g id="line2d_37">
      <g>
       <use xlink:href="#m36615b112e" x="54" y="34.582432" style="stroke: #000000; stroke-width: 0.6"/>
      </g>
     </g>
    </g>
    <g id="text_7">
     <!-- MSE -->
     <g transform="translate(16.588437 115.022719) rotate(-90) scale(0.14 -0.14)">
      <defs>
       <path id="DejaVuSans-4d" d="M 628 4666 
L 1569 4666 
L 2759 1491 
L 3956 4666 
L 4897 4666 
L 4897 0 
L 4281 0 
L 4281 4097 
L 3078 897 
L 2444 897 
L 1241 4097 
L 1241 0 
L 628 0 
L 628 4666 
z
" transform="scale(0.015625)"/>
       <path id="DejaVuSans-53" d="M 3425 4513 
L 3425 3897 
Q 3066 4069 2747 4153 
Q 2428 4238 2131 4238 
Q 1616 4238 1336 4038 
Q 1056 3838 1056 3469 
Q 1056 3159 1242 3001 
Q 1428 2844 1947 2747 
L 2328 2669 
Q 3034 2534 3370 2195 
Q 3706 1856 3706 1288 
Q 3706 609 3251 259 
Q 2797 -91 1919 -91 
Q 1588 -91 1214 -16 
Q 841 59 441 206 
L 441 856 
Q 825 641 1194 531 
Q 1563 422 1919 422 
Q 2459 422 2753 634 
Q 3047 847 3047 1241 
Q 3047 1584 2836 1778 
Q 2625 1972 2144 2069 
L 1759 2144 
Q 1053 2284 737 2584 
Q 422 2884 422 3419 
Q 422 4038 858 4394 
Q 1294 4750 2059 4750 
Q 2388 4750 2728 4690 
Q 3069 4631 3425 4513 
z
" transform="scale(0.015625)"/>
       <path id="DejaVuSans-45" d="M 628 4666 
L 3578 4666 
L 3578 4134 
L 1259 4134 
L 1259 2753 
L 3481 2753 
L 3481 2222 
L 1259 2222 
L 1259 531 
L 3634 531 
L 3634 0 
L 628 0 
L 628 4666 
z
" transform="scale(0.015625)"/>
      </defs>
      <use xlink:href="#DejaVuSans-4d"/>
      <use xlink:href="#DejaVuSans-53" x="86.279297"/>
      <use xlink:href="#DejaVuSans-45" x="149.755859"/>
     </g>
    </g>
   </g>
   <g id="line2d_38">
    <path d="M 67.856102 124.979829 
L 69.676877 124.643613 
L 71.497653 122.272025 
L 73.318428 122.10335 
L 75.139204 117.658831 
L 76.959979 117.530234 
L 78.780755 116.662981 
L 80.60153 116.49073 
L 82.422306 115.522899 
L 84.243081 115.496401 
L 86.063857 114.18564 
L 87.884632 113.948766 
L 89.705408 113.449362 
L 95.167734 113.311776 
L 96.98851 113.186143 
L 98.809285 113.175007 
L 100.630061 112.777026 
L 106.092387 112.381179 
L 107.913163 112.156022 
L 137.045571 111.617072 
L 146.149449 111.496608 
L 149.791 111.416372 
L 155.253326 111.370529 
L 158.894877 111.284135 
L 175.281857 111.067156 
L 180.744184 111.005428 
L 200.772714 110.727673 
L 206.235041 110.592355 
L 217.159694 110.436016 
L 220.801245 110.3376 
L 233.546674 110.21903 
L 248.112878 109.980338 
L 266.320633 109.567567 
L 271.782959 109.34065 
L 279.066061 109.151593 
L 284.528388 108.298993 
L 286.349164 107.65194 
L 288.169939 107.409652 
L 293.632266 107.016678 
L 295.453041 106.19765 
L 299.094592 106.023472 
L 300.915368 105.525936 
L 302.736143 105.233823 
L 304.556919 104.482712 
L 306.377694 102.985103 
L 310.019245 95.27951 
L 311.840021 90.066988 
L 313.660796 87.346611 
L 315.481572 74.513669 
L 317.302347 74.262069 
L 319.123123 54.700717 
L 320.943898 52.892272 
L 320.943898 52.892272 
" clip-path="url(#pf3dd7e966e)" style="fill: none; stroke: #1db8f7; stroke-width: 1.5; stroke-linecap: square"/>
   </g>
   <g id="line2d_39">
    <path d="M 67.856102 54.700717 
L 320.943898 54.700717 
" clip-path="url(#pf3dd7e966e)" style="fill: none; stroke-dasharray: 4.5,4.5; stroke-dashoffset: 0; stroke: #1db8f7; stroke-width: 1.5"/>
   </g>
   <g id="line2d_40">
    <path d="M 67.856102 63.717183 
L 320.943898 63.717183 
" clip-path="url(#pf3dd7e966e)" style="fill: none; stroke-dasharray: 4.5,4.5; stroke-dashoffset: 0; stroke: #6c17b9; stroke-width: 1.5"/>
   </g>
   <g id="patch_143">
    <path d="M 54 167.184 
L 54 33.048 
" style="fill: none; stroke: #000000; stroke-width: 0.8; stroke-linejoin: miter; stroke-linecap: square"/>
   </g>
   <g id="patch_144">
    <path d="M 334.8 167.184 
L 334.8 33.048 
" style="fill: none; stroke: #000000; stroke-width: 0.8; stroke-linejoin: miter; stroke-linecap: square"/>
   </g>
   <g id="patch_145">
    <path d="M 54 167.184 
L 334.8 167.184 
" style="fill: none; stroke: #000000; stroke-width: 0.8; stroke-linejoin: miter; stroke-linecap: square"/>
   </g>
   <g id="patch_146">
    <path d="M 54 33.048 
L 334.8 33.048 
" style="fill: none; stroke: #000000; stroke-width: 0.8; stroke-linejoin: miter; stroke-linecap: square"/>
   </g>
  </g>
  <g id="text_8">
   <!-- SARIMA Configurations For Case 4 -->
   <g transform="translate(9.0625 21.028875) scale(0.2 -0.2)">
    <defs>
     <path id="DejaVuSans-41" d="M 2188 4044 
L 1331 1722 
L 3047 1722 
L 2188 4044 
z
M 1831 4666 
L 2547 4666 
L 4325 0 
L 3669 0 
L 3244 1197 
L 1141 1197 
L 716 0 
L 50 0 
L 1831 4666 
z
" transform="scale(0.015625)"/>
     <path id="DejaVuSans-52" d="M 2841 2188 
Q 3044 2119 3236 1894 
Q 3428 1669 3622 1275 
L 4263 0 
L 3584 0 
L 2988 1197 
Q 2756 1666 2539 1819 
Q 2322 1972 1947 1972 
L 1259 1972 
L 1259 0 
L 628 0 
L 628 4666 
L 2053 4666 
Q 2853 4666 3247 4331 
Q 3641 3997 3641 3322 
Q 3641 2881 3436 2590 
Q 3231 2300 2841 2188 
z
M 1259 4147 
L 1259 2491 
L 2053 2491 
Q 2509 2491 2742 2702 
Q 2975 2913 2975 3322 
Q 2975 3731 2742 3939 
Q 2509 4147 2053 4147 
L 1259 4147 
z
" transform="scale(0.015625)"/>
     <path id="DejaVuSans-49" d="M 628 4666 
L 1259 4666 
L 1259 0 
L 628 0 
L 628 4666 
z
" transform="scale(0.015625)"/>
     <path id="DejaVuSans-46" d="M 628 4666 
L 3309 4666 
L 3309 4134 
L 1259 4134 
L 1259 2759 
L 3109 2759 
L 3109 2228 
L 1259 2228 
L 1259 0 
L 628 0 
L 628 4666 
z
" transform="scale(0.015625)"/>
     <path id="DejaVuSans-34" d="M 2419 4116 
L 825 1625 
L 2419 1625 
L 2419 4116 
z
M 2253 4666 
L 3047 4666 
L 3047 1625 
L 3713 1625 
L 3713 1100 
L 3047 1100 
L 3047 0 
L 2419 0 
L 2419 1100 
L 313 1100 
L 313 1709 
L 2253 4666 
z
" transform="scale(0.015625)"/>
    </defs>
    <use xlink:href="#DejaVuSans-53"/>
    <use xlink:href="#DejaVuSans-41" x="65.351562"/>
    <use xlink:href="#DejaVuSans-52" x="133.759766"/>
    <use xlink:href="#DejaVuSans-49" x="203.242188"/>
    <use xlink:href="#DejaVuSans-4d" x="232.734375"/>
    <use xlink:href="#DejaVuSans-41" x="319.013672"/>
    <use xlink:href="#DejaVuSans-20" x="387.421875"/>
    <use xlink:href="#DejaVuSans-43" x="419.208984"/>
    <use xlink:href="#DejaVuSans-6f" x="489.033203"/>
    <use xlink:href="#DejaVuSans-6e" x="550.214844"/>
    <use xlink:href="#DejaVuSans-66" x="613.59375"/>
    <use xlink:href="#DejaVuSans-69" x="648.798828"/>
    <use xlink:href="#DejaVuSans-67" x="676.582031"/>
    <use xlink:href="#DejaVuSans-75" x="740.058594"/>
    <use xlink:href="#DejaVuSans-72" x="803.4375"/>
    <use xlink:href="#DejaVuSans-61" x="844.550781"/>
    <use xlink:href="#DejaVuSans-74" x="905.830078"/>
    <use xlink:href="#DejaVuSans-69" x="945.039062"/>
    <use xlink:href="#DejaVuSans-6f" x="972.822266"/>
    <use xlink:href="#DejaVuSans-6e" x="1034.003906"/>
    <use xlink:href="#DejaVuSans-73" x="1097.382812"/>
    <use xlink:href="#DejaVuSans-20" x="1149.482422"/>
    <use xlink:href="#DejaVuSans-46" x="1181.269531"/>
    <use xlink:href="#DejaVuSans-6f" x="1235.164062"/>
    <use xlink:href="#DejaVuSans-72" x="1296.345703"/>
    <use xlink:href="#DejaVuSans-20" x="1337.458984"/>
    <use xlink:href="#DejaVuSans-43" x="1369.246094"/>
    <use xlink:href="#DejaVuSans-61" x="1439.070312"/>
    <use xlink:href="#DejaVuSans-73" x="1500.349609"/>
    <use xlink:href="#DejaVuSans-65" x="1552.449219"/>
    <use xlink:href="#DejaVuSans-20" x="1613.972656"/>
    <use xlink:href="#DejaVuSans-34" x="1645.759766"/>
   </g>
  </g>
 </g>
 <defs>
  <clipPath id="pf3dd7e966e">
   <rect x="54" y="33.048" width="280.8" height="134.136"/>
  </clipPath>
 </defs>
</svg>
