<?xml version="1.0" encoding="utf-8" standalone="no"?>
<!DOCTYPE svg PUBLIC "-//W3C//DTD SVG 1.1//EN"
  "http://www.w3.org/Graphics/SVG/1.1/DTD/svg11.dtd">
<svg xmlns:xlink="http://www.w3.org/1999/xlink" width="713.542679pt" height="290.017785pt" viewBox="0 0 713.542679 290.017785" xmlns="http://www.w3.org/2000/svg" version="1.1">
 <metadata>
  <rdf:RDF xmlns:dc="http://purl.org/dc/elements/1.1/" xmlns:cc="http://creativecommons.org/ns#" xmlns:rdf="http://www.w3.org/1999/02/22-rdf-syntax-ns#">
   <cc:Work>
    <dc:type rdf:resource="http://purl.org/dc/dcmitype/StillImage"/>
    <dc:date>2024-09-05T16:14:21.500168</dc:date>
    <dc:format>image/svg+xml</dc:format>
    <dc:creator>
     <cc:Agent>
      <dc:title>Matplotlib v3.9.1.post1, https://matplotlib.org/</dc:title>
     </cc:Agent>
    </dc:creator>
   </cc:Work>
  </rdf:RDF>
 </metadata>
 <defs>
  <style type="text/css">*{stroke-linejoin: round; stroke-linecap: butt}</style>
 </defs>
 <g id="figure_1">
  <g id="patch_1">
   <path d="M 0 290.017785 
L 713.542679 290.017785 
L 713.542679 0 
L 0 0 
z
" style="fill: #ffffff"/>
  </g>
  <g id="axes_1">
   <g id="patch_2">
    <path d="M 58.342679 174.877187 
L 706.342679 174.877187 
L 706.342679 30.877187 
L 58.342679 30.877187 
z
" style="fill: #ffffff"/>
   </g>
   <g id="patch_3">
    <path d="M 87.797224 174.877187 
L 102.617121 174.877187 
L 102.617121 39.727224 
L 87.797224 39.727224 
z
" clip-path="url(#pf66ae3a13d)" style="fill: #6c17b9"/>
   </g>
   <g id="patch_4">
    <path d="M 106.322096 174.877187 
L 121.141993 174.877187 
L 121.141993 42.660632 
L 106.322096 42.660632 
z
" clip-path="url(#pf66ae3a13d)" style="fill: #6c17b9"/>
   </g>
   <g id="patch_5">
    <path d="M 124.846967 174.877187 
L 139.666864 174.877187 
L 139.666864 44.039271 
L 124.846967 44.039271 
z
" clip-path="url(#pf66ae3a13d)" style="fill: #6c17b9"/>
   </g>
   <g id="patch_6">
    <path d="M 143.371838 174.877187 
L 158.191736 174.877187 
L 158.191736 49.423609 
L 143.371838 49.423609 
z
" clip-path="url(#pf66ae3a13d)" style="fill: #6c17b9"/>
   </g>
   <g id="patch_7">
    <path d="M 161.89671 174.877187 
L 176.716607 174.877187 
L 176.716607 49.435585 
L 161.89671 49.435585 
z
" clip-path="url(#pf66ae3a13d)" style="fill: #6c17b9"/>
   </g>
   <g id="patch_8">
    <path d="M 180.421581 174.877187 
L 195.241478 174.877187 
L 195.241478 50.136404 
L 180.421581 50.136404 
z
" clip-path="url(#pf66ae3a13d)" style="fill: #6c17b9"/>
   </g>
   <g id="patch_9">
    <path d="M 198.946452 174.877187 
L 213.76635 174.877187 
L 213.76635 52.376423 
L 198.946452 52.376423 
z
" clip-path="url(#pf66ae3a13d)" style="fill: #6c17b9"/>
   </g>
   <g id="patch_10">
    <path d="M 217.471324 174.877187 
L 232.291221 174.877187 
L 232.291221 53.637127 
L 217.471324 53.637127 
z
" clip-path="url(#pf66ae3a13d)" style="fill: #6c17b9"/>
   </g>
   <g id="patch_11">
    <path d="M 235.996195 174.877187 
L 250.816092 174.877187 
L 250.816092 58.717852 
L 235.996195 58.717852 
z
" clip-path="url(#pf66ae3a13d)" style="fill: #6c17b9"/>
   </g>
   <g id="patch_12">
    <path d="M 254.521067 174.877187 
L 269.340964 174.877187 
L 269.340964 61.003123 
L 254.521067 61.003123 
z
" clip-path="url(#pf66ae3a13d)" style="fill: #6c17b9"/>
   </g>
   <g id="patch_13">
    <path d="M 273.045938 174.877187 
L 287.865835 174.877187 
L 287.865835 62.683932 
L 273.045938 62.683932 
z
" clip-path="url(#pf66ae3a13d)" style="fill: #6c17b9"/>
   </g>
   <g id="patch_14">
    <path d="M 291.570809 174.877187 
L 306.390706 174.877187 
L 306.390706 65.243628 
L 291.570809 65.243628 
z
" clip-path="url(#pf66ae3a13d)" style="fill: #6c17b9"/>
   </g>
   <g id="patch_15">
    <path d="M 310.095681 174.877187 
L 324.915578 174.877187 
L 324.915578 68.133618 
L 310.095681 68.133618 
z
" clip-path="url(#pf66ae3a13d)" style="fill: #6c17b9"/>
   </g>
   <g id="patch_16">
    <path d="M 328.620552 174.877187 
L 343.440449 174.877187 
L 343.440449 68.642761 
L 328.620552 68.642761 
z
" clip-path="url(#pf66ae3a13d)" style="fill: #6c17b9"/>
   </g>
   <g id="patch_17">
    <path d="M 347.145423 174.877187 
L 361.96532 174.877187 
L 361.96532 70.614563 
L 347.145423 70.614563 
z
" clip-path="url(#pf66ae3a13d)" style="fill: #6c17b9"/>
   </g>
   <g id="patch_18">
    <path d="M 365.670295 174.877187 
L 380.490192 174.877187 
L 380.490192 71.149042 
L 365.670295 71.149042 
z
" clip-path="url(#pf66ae3a13d)" style="fill: #6c17b9"/>
   </g>
   <g id="patch_19">
    <path d="M 384.195166 174.877187 
L 399.015063 174.877187 
L 399.015063 71.204571 
L 384.195166 71.204571 
z
" clip-path="url(#pf66ae3a13d)" style="fill: #6c17b9"/>
   </g>
   <g id="patch_20">
    <path d="M 402.720037 174.877187 
L 417.539934 174.877187 
L 417.539934 71.656041 
L 402.720037 71.656041 
z
" clip-path="url(#pf66ae3a13d)" style="fill: #6c17b9"/>
   </g>
   <g id="patch_21">
    <path d="M 421.244909 174.877187 
L 436.064806 174.877187 
L 436.064806 71.866648 
L 421.244909 71.866648 
z
" clip-path="url(#pf66ae3a13d)" style="fill: #6c17b9"/>
   </g>
   <g id="patch_22">
    <path d="M 439.76978 174.877187 
L 454.589677 174.877187 
L 454.589677 73.09649 
L 439.76978 73.09649 
z
" clip-path="url(#pf66ae3a13d)" style="fill: #6c17b9"/>
   </g>
   <g id="patch_23">
    <path d="M 458.294651 174.877187 
L 473.114549 174.877187 
L 473.114549 75.921554 
L 458.294651 75.921554 
z
" clip-path="url(#pf66ae3a13d)" style="fill: #6c17b9"/>
   </g>
   <g id="patch_24">
    <path d="M 476.819523 174.877187 
L 491.63942 174.877187 
L 491.63942 75.974763 
L 476.819523 75.974763 
z
" clip-path="url(#pf66ae3a13d)" style="fill: #6c17b9"/>
   </g>
   <g id="patch_25">
    <path d="M 495.344394 174.877187 
L 510.164291 174.877187 
L 510.164291 78.730257 
L 495.344394 78.730257 
z
" clip-path="url(#pf66ae3a13d)" style="fill: #6c17b9"/>
   </g>
   <g id="patch_26">
    <path d="M 513.869266 174.877187 
L 528.689163 174.877187 
L 528.689163 79.265171 
L 513.869266 79.265171 
z
" clip-path="url(#pf66ae3a13d)" style="fill: #6c17b9"/>
   </g>
   <g id="patch_27">
    <path d="M 532.394137 174.877187 
L 547.214034 174.877187 
L 547.214034 81.807589 
L 532.394137 81.807589 
z
" clip-path="url(#pf66ae3a13d)" style="fill: #6c17b9"/>
   </g>
   <g id="patch_28">
    <path d="M 550.919008 174.877187 
L 565.738905 174.877187 
L 565.738905 82.995781 
L 550.919008 82.995781 
z
" clip-path="url(#pf66ae3a13d)" style="fill: #6c17b9"/>
   </g>
   <g id="patch_29">
    <path d="M 569.44388 174.877187 
L 584.263777 174.877187 
L 584.263777 84.348862 
L 569.44388 84.348862 
z
" clip-path="url(#pf66ae3a13d)" style="fill: #6c17b9"/>
   </g>
   <g id="patch_30">
    <path d="M 587.968751 174.877187 
L 602.788648 174.877187 
L 602.788648 86.460793 
L 587.968751 86.460793 
z
" clip-path="url(#pf66ae3a13d)" style="fill: #6c17b9"/>
   </g>
   <g id="patch_31">
    <path d="M 606.493622 174.877187 
L 621.313519 174.877187 
L 621.313519 88.28374 
L 606.493622 88.28374 
z
" clip-path="url(#pf66ae3a13d)" style="fill: #6c17b9"/>
   </g>
   <g id="patch_32">
    <path d="M 625.018494 174.877187 
L 639.838391 174.877187 
L 639.838391 88.792253 
L 625.018494 88.792253 
z
" clip-path="url(#pf66ae3a13d)" style="fill: #6c17b9"/>
   </g>
   <g id="patch_33">
    <path d="M 643.543365 174.877187 
L 658.363262 174.877187 
L 658.363262 90.89602 
L 643.543365 90.89602 
z
" clip-path="url(#pf66ae3a13d)" style="fill: #6c17b9"/>
   </g>
   <g id="patch_34">
    <path d="M 662.068236 174.877187 
L 676.888133 174.877187 
L 676.888133 111.433174 
L 662.068236 111.433174 
z
" clip-path="url(#pf66ae3a13d)" style="fill: #6c17b9"/>
   </g>
   <g id="matplotlib.axis_1">
    <g id="xtick_1">
     <g id="line2d_1">
      <defs>
       <path id="md71537d21d" d="M 0 0 
L 0 3.5 
" style="stroke: #000000; stroke-width: 0.8"/>
      </defs>
      <g>
       <use xlink:href="#md71537d21d" x="95.207173" y="174.877187" style="stroke: #000000; stroke-width: 0.8"/>
      </g>
     </g>
     <g id="text_1">
      <!-- Kingston upon Thames -->
      <g transform="translate(12.572907 268.413799) rotate(-45) scale(0.1 -0.1)">
       <defs>
        <path id="DejaVuSans-4b" d="M 628 4666 
L 1259 4666 
L 1259 2694 
L 3353 4666 
L 4166 4666 
L 1850 2491 
L 4331 0 
L 3500 0 
L 1259 2247 
L 1259 0 
L 628 0 
L 628 4666 
z
" transform="scale(0.015625)"/>
        <path id="DejaVuSans-69" d="M 603 3500 
L 1178 3500 
L 1178 0 
L 603 0 
L 603 3500 
z
M 603 4863 
L 1178 4863 
L 1178 4134 
L 603 4134 
L 603 4863 
z
" transform="scale(0.015625)"/>
        <path id="DejaVuSans-6e" d="M 3513 2113 
L 3513 0 
L 2938 0 
L 2938 2094 
Q 2938 2591 2744 2837 
Q 2550 3084 2163 3084 
Q 1697 3084 1428 2787 
Q 1159 2491 1159 1978 
L 1159 0 
L 581 0 
L 581 3500 
L 1159 3500 
L 1159 2956 
Q 1366 3272 1645 3428 
Q 1925 3584 2291 3584 
Q 2894 3584 3203 3211 
Q 3513 2838 3513 2113 
z
" transform="scale(0.015625)"/>
        <path id="DejaVuSans-67" d="M 2906 1791 
Q 2906 2416 2648 2759 
Q 2391 3103 1925 3103 
Q 1463 3103 1205 2759 
Q 947 2416 947 1791 
Q 947 1169 1205 825 
Q 1463 481 1925 481 
Q 2391 481 2648 825 
Q 2906 1169 2906 1791 
z
M 3481 434 
Q 3481 -459 3084 -895 
Q 2688 -1331 1869 -1331 
Q 1566 -1331 1297 -1286 
Q 1028 -1241 775 -1147 
L 775 -588 
Q 1028 -725 1275 -790 
Q 1522 -856 1778 -856 
Q 2344 -856 2625 -561 
Q 2906 -266 2906 331 
L 2906 616 
Q 2728 306 2450 153 
Q 2172 0 1784 0 
Q 1141 0 747 490 
Q 353 981 353 1791 
Q 353 2603 747 3093 
Q 1141 3584 1784 3584 
Q 2172 3584 2450 3431 
Q 2728 3278 2906 2969 
L 2906 3500 
L 3481 3500 
L 3481 434 
z
" transform="scale(0.015625)"/>
        <path id="DejaVuSans-73" d="M 2834 3397 
L 2834 2853 
Q 2591 2978 2328 3040 
Q 2066 3103 1784 3103 
Q 1356 3103 1142 2972 
Q 928 2841 928 2578 
Q 928 2378 1081 2264 
Q 1234 2150 1697 2047 
L 1894 2003 
Q 2506 1872 2764 1633 
Q 3022 1394 3022 966 
Q 3022 478 2636 193 
Q 2250 -91 1575 -91 
Q 1294 -91 989 -36 
Q 684 19 347 128 
L 347 722 
Q 666 556 975 473 
Q 1284 391 1588 391 
Q 1994 391 2212 530 
Q 2431 669 2431 922 
Q 2431 1156 2273 1281 
Q 2116 1406 1581 1522 
L 1381 1569 
Q 847 1681 609 1914 
Q 372 2147 372 2553 
Q 372 3047 722 3315 
Q 1072 3584 1716 3584 
Q 2034 3584 2315 3537 
Q 2597 3491 2834 3397 
z
" transform="scale(0.015625)"/>
        <path id="DejaVuSans-74" d="M 1172 4494 
L 1172 3500 
L 2356 3500 
L 2356 3053 
L 1172 3053 
L 1172 1153 
Q 1172 725 1289 603 
Q 1406 481 1766 481 
L 2356 481 
L 2356 0 
L 1766 0 
Q 1100 0 847 248 
Q 594 497 594 1153 
L 594 3053 
L 172 3053 
L 172 3500 
L 594 3500 
L 594 4494 
L 1172 4494 
z
" transform="scale(0.015625)"/>
        <path id="DejaVuSans-6f" d="M 1959 3097 
Q 1497 3097 1228 2736 
Q 959 2375 959 1747 
Q 959 1119 1226 758 
Q 1494 397 1959 397 
Q 2419 397 2687 759 
Q 2956 1122 2956 1747 
Q 2956 2369 2687 2733 
Q 2419 3097 1959 3097 
z
M 1959 3584 
Q 2709 3584 3137 3096 
Q 3566 2609 3566 1747 
Q 3566 888 3137 398 
Q 2709 -91 1959 -91 
Q 1206 -91 779 398 
Q 353 888 353 1747 
Q 353 2609 779 3096 
Q 1206 3584 1959 3584 
z
" transform="scale(0.015625)"/>
        <path id="DejaVuSans-20" transform="scale(0.015625)"/>
        <path id="DejaVuSans-75" d="M 544 1381 
L 544 3500 
L 1119 3500 
L 1119 1403 
Q 1119 906 1312 657 
Q 1506 409 1894 409 
Q 2359 409 2629 706 
Q 2900 1003 2900 1516 
L 2900 3500 
L 3475 3500 
L 3475 0 
L 2900 0 
L 2900 538 
Q 2691 219 2414 64 
Q 2138 -91 1772 -91 
Q 1169 -91 856 284 
Q 544 659 544 1381 
z
M 1991 3584 
L 1991 3584 
z
" transform="scale(0.015625)"/>
        <path id="DejaVuSans-70" d="M 1159 525 
L 1159 -1331 
L 581 -1331 
L 581 3500 
L 1159 3500 
L 1159 2969 
Q 1341 3281 1617 3432 
Q 1894 3584 2278 3584 
Q 2916 3584 3314 3078 
Q 3713 2572 3713 1747 
Q 3713 922 3314 415 
Q 2916 -91 2278 -91 
Q 1894 -91 1617 61 
Q 1341 213 1159 525 
z
M 3116 1747 
Q 3116 2381 2855 2742 
Q 2594 3103 2138 3103 
Q 1681 3103 1420 2742 
Q 1159 2381 1159 1747 
Q 1159 1113 1420 752 
Q 1681 391 2138 391 
Q 2594 391 2855 752 
Q 3116 1113 3116 1747 
z
" transform="scale(0.015625)"/>
        <path id="DejaVuSans-54" d="M -19 4666 
L 3928 4666 
L 3928 4134 
L 2272 4134 
L 2272 0 
L 1638 0 
L 1638 4134 
L -19 4134 
L -19 4666 
z
" transform="scale(0.015625)"/>
        <path id="DejaVuSans-68" d="M 3513 2113 
L 3513 0 
L 2938 0 
L 2938 2094 
Q 2938 2591 2744 2837 
Q 2550 3084 2163 3084 
Q 1697 3084 1428 2787 
Q 1159 2491 1159 1978 
L 1159 0 
L 581 0 
L 581 4863 
L 1159 4863 
L 1159 2956 
Q 1366 3272 1645 3428 
Q 1925 3584 2291 3584 
Q 2894 3584 3203 3211 
Q 3513 2838 3513 2113 
z
" transform="scale(0.015625)"/>
        <path id="DejaVuSans-61" d="M 2194 1759 
Q 1497 1759 1228 1600 
Q 959 1441 959 1056 
Q 959 750 1161 570 
Q 1363 391 1709 391 
Q 2188 391 2477 730 
Q 2766 1069 2766 1631 
L 2766 1759 
L 2194 1759 
z
M 3341 1997 
L 3341 0 
L 2766 0 
L 2766 531 
Q 2569 213 2275 61 
Q 1981 -91 1556 -91 
Q 1019 -91 701 211 
Q 384 513 384 1019 
Q 384 1609 779 1909 
Q 1175 2209 1959 2209 
L 2766 2209 
L 2766 2266 
Q 2766 2663 2505 2880 
Q 2244 3097 1772 3097 
Q 1472 3097 1187 3025 
Q 903 2953 641 2809 
L 641 3341 
Q 956 3463 1253 3523 
Q 1550 3584 1831 3584 
Q 2591 3584 2966 3190 
Q 3341 2797 3341 1997 
z
" transform="scale(0.015625)"/>
        <path id="DejaVuSans-6d" d="M 3328 2828 
Q 3544 3216 3844 3400 
Q 4144 3584 4550 3584 
Q 5097 3584 5394 3201 
Q 5691 2819 5691 2113 
L 5691 0 
L 5113 0 
L 5113 2094 
Q 5113 2597 4934 2840 
Q 4756 3084 4391 3084 
Q 3944 3084 3684 2787 
Q 3425 2491 3425 1978 
L 3425 0 
L 2847 0 
L 2847 2094 
Q 2847 2600 2669 2842 
Q 2491 3084 2119 3084 
Q 1678 3084 1418 2786 
Q 1159 2488 1159 1978 
L 1159 0 
L 581 0 
L 581 3500 
L 1159 3500 
L 1159 2956 
Q 1356 3278 1631 3431 
Q 1906 3584 2284 3584 
Q 2666 3584 2933 3390 
Q 3200 3197 3328 2828 
z
" transform="scale(0.015625)"/>
        <path id="DejaVuSans-65" d="M 3597 1894 
L 3597 1613 
L 953 1613 
Q 991 1019 1311 708 
Q 1631 397 2203 397 
Q 2534 397 2845 478 
Q 3156 559 3463 722 
L 3463 178 
Q 3153 47 2828 -22 
Q 2503 -91 2169 -91 
Q 1331 -91 842 396 
Q 353 884 353 1716 
Q 353 2575 817 3079 
Q 1281 3584 2069 3584 
Q 2775 3584 3186 3129 
Q 3597 2675 3597 1894 
z
M 3022 2063 
Q 3016 2534 2758 2815 
Q 2500 3097 2075 3097 
Q 1594 3097 1305 2825 
Q 1016 2553 972 2059 
L 3022 2063 
z
" transform="scale(0.015625)"/>
       </defs>
       <use xlink:href="#DejaVuSans-4b"/>
       <use xlink:href="#DejaVuSans-69" x="65.576172"/>
       <use xlink:href="#DejaVuSans-6e" x="93.359375"/>
       <use xlink:href="#DejaVuSans-67" x="156.738281"/>
       <use xlink:href="#DejaVuSans-73" x="220.214844"/>
       <use xlink:href="#DejaVuSans-74" x="272.314453"/>
       <use xlink:href="#DejaVuSans-6f" x="311.523438"/>
       <use xlink:href="#DejaVuSans-6e" x="372.705078"/>
       <use xlink:href="#DejaVuSans-20" x="436.083984"/>
       <use xlink:href="#DejaVuSans-75" x="467.871094"/>
       <use xlink:href="#DejaVuSans-70" x="531.25"/>
       <use xlink:href="#DejaVuSans-6f" x="594.726562"/>
       <use xlink:href="#DejaVuSans-6e" x="655.908203"/>
       <use xlink:href="#DejaVuSans-20" x="719.287109"/>
       <use xlink:href="#DejaVuSans-54" x="751.074219"/>
       <use xlink:href="#DejaVuSans-68" x="812.158203"/>
       <use xlink:href="#DejaVuSans-61" x="875.537109"/>
       <use xlink:href="#DejaVuSans-6d" x="936.816406"/>
       <use xlink:href="#DejaVuSans-65" x="1034.228516"/>
       <use xlink:href="#DejaVuSans-73" x="1095.751953"/>
      </g>
     </g>
    </g>
    <g id="xtick_2">
     <g id="line2d_2">
      <g>
       <use xlink:href="#md71537d21d" x="113.732044" y="174.877187" style="stroke: #000000; stroke-width: 0.8"/>
      </g>
     </g>
     <g id="text_2">
      <!-- Sutton -->
      <g transform="translate(88.939113 210.572465) rotate(-45) scale(0.1 -0.1)">
       <defs>
        <path id="DejaVuSans-53" d="M 3425 4513 
L 3425 3897 
Q 3066 4069 2747 4153 
Q 2428 4238 2131 4238 
Q 1616 4238 1336 4038 
Q 1056 3838 1056 3469 
Q 1056 3159 1242 3001 
Q 1428 2844 1947 2747 
L 2328 2669 
Q 3034 2534 3370 2195 
Q 3706 1856 3706 1288 
Q 3706 609 3251 259 
Q 2797 -91 1919 -91 
Q 1588 -91 1214 -16 
Q 841 59 441 206 
L 441 856 
Q 825 641 1194 531 
Q 1563 422 1919 422 
Q 2459 422 2753 634 
Q 3047 847 3047 1241 
Q 3047 1584 2836 1778 
Q 2625 1972 2144 2069 
L 1759 2144 
Q 1053 2284 737 2584 
Q 422 2884 422 3419 
Q 422 4038 858 4394 
Q 1294 4750 2059 4750 
Q 2388 4750 2728 4690 
Q 3069 4631 3425 4513 
z
" transform="scale(0.015625)"/>
       </defs>
       <use xlink:href="#DejaVuSans-53"/>
       <use xlink:href="#DejaVuSans-75" x="63.476562"/>
       <use xlink:href="#DejaVuSans-74" x="126.855469"/>
       <use xlink:href="#DejaVuSans-74" x="166.064453"/>
       <use xlink:href="#DejaVuSans-6f" x="205.273438"/>
       <use xlink:href="#DejaVuSans-6e" x="266.455078"/>
      </g>
     </g>
    </g>
    <g id="xtick_3">
     <g id="line2d_3">
      <g>
       <use xlink:href="#md71537d21d" x="132.256916" y="174.877187" style="stroke: #000000; stroke-width: 0.8"/>
      </g>
     </g>
     <g id="text_3">
      <!-- Westminster -->
      <g transform="translate(86.356847 231.679602) rotate(-45) scale(0.1 -0.1)">
       <defs>
        <path id="DejaVuSans-57" d="M 213 4666 
L 850 4666 
L 1831 722 
L 2809 4666 
L 3519 4666 
L 4500 722 
L 5478 4666 
L 6119 4666 
L 4947 0 
L 4153 0 
L 3169 4050 
L 2175 0 
L 1381 0 
L 213 4666 
z
" transform="scale(0.015625)"/>
        <path id="DejaVuSans-72" d="M 2631 2963 
Q 2534 3019 2420 3045 
Q 2306 3072 2169 3072 
Q 1681 3072 1420 2755 
Q 1159 2438 1159 1844 
L 1159 0 
L 581 0 
L 581 3500 
L 1159 3500 
L 1159 2956 
Q 1341 3275 1631 3429 
Q 1922 3584 2338 3584 
Q 2397 3584 2469 3576 
Q 2541 3569 2628 3553 
L 2631 2963 
z
" transform="scale(0.015625)"/>
       </defs>
       <use xlink:href="#DejaVuSans-57"/>
       <use xlink:href="#DejaVuSans-65" x="93.001953"/>
       <use xlink:href="#DejaVuSans-73" x="154.525391"/>
       <use xlink:href="#DejaVuSans-74" x="206.625"/>
       <use xlink:href="#DejaVuSans-6d" x="245.833984"/>
       <use xlink:href="#DejaVuSans-69" x="343.246094"/>
       <use xlink:href="#DejaVuSans-6e" x="371.029297"/>
       <use xlink:href="#DejaVuSans-73" x="434.408203"/>
       <use xlink:href="#DejaVuSans-74" x="486.507812"/>
       <use xlink:href="#DejaVuSans-65" x="525.716797"/>
       <use xlink:href="#DejaVuSans-72" x="587.240234"/>
      </g>
     </g>
    </g>
    <g id="xtick_4">
     <g id="line2d_4">
      <g>
       <use xlink:href="#md71537d21d" x="150.781787" y="174.877187" style="stroke: #000000; stroke-width: 0.8"/>
      </g>
     </g>
     <g id="text_4">
      <!-- Barking and Dagenham -->
      <g transform="translate(65.590888 270.970432) rotate(-45) scale(0.1 -0.1)">
       <defs>
        <path id="DejaVuSans-42" d="M 1259 2228 
L 1259 519 
L 2272 519 
Q 2781 519 3026 730 
Q 3272 941 3272 1375 
Q 3272 1813 3026 2020 
Q 2781 2228 2272 2228 
L 1259 2228 
z
M 1259 4147 
L 1259 2741 
L 2194 2741 
Q 2656 2741 2882 2914 
Q 3109 3088 3109 3444 
Q 3109 3797 2882 3972 
Q 2656 4147 2194 4147 
L 1259 4147 
z
M 628 4666 
L 2241 4666 
Q 2963 4666 3353 4366 
Q 3744 4066 3744 3513 
Q 3744 3084 3544 2831 
Q 3344 2578 2956 2516 
Q 3422 2416 3680 2098 
Q 3938 1781 3938 1306 
Q 3938 681 3513 340 
Q 3088 0 2303 0 
L 628 0 
L 628 4666 
z
" transform="scale(0.015625)"/>
        <path id="DejaVuSans-6b" d="M 581 4863 
L 1159 4863 
L 1159 1991 
L 2875 3500 
L 3609 3500 
L 1753 1863 
L 3688 0 
L 2938 0 
L 1159 1709 
L 1159 0 
L 581 0 
L 581 4863 
z
" transform="scale(0.015625)"/>
        <path id="DejaVuSans-64" d="M 2906 2969 
L 2906 4863 
L 3481 4863 
L 3481 0 
L 2906 0 
L 2906 525 
Q 2725 213 2448 61 
Q 2172 -91 1784 -91 
Q 1150 -91 751 415 
Q 353 922 353 1747 
Q 353 2572 751 3078 
Q 1150 3584 1784 3584 
Q 2172 3584 2448 3432 
Q 2725 3281 2906 2969 
z
M 947 1747 
Q 947 1113 1208 752 
Q 1469 391 1925 391 
Q 2381 391 2643 752 
Q 2906 1113 2906 1747 
Q 2906 2381 2643 2742 
Q 2381 3103 1925 3103 
Q 1469 3103 1208 2742 
Q 947 2381 947 1747 
z
" transform="scale(0.015625)"/>
        <path id="DejaVuSans-44" d="M 1259 4147 
L 1259 519 
L 2022 519 
Q 2988 519 3436 956 
Q 3884 1394 3884 2338 
Q 3884 3275 3436 3711 
Q 2988 4147 2022 4147 
L 1259 4147 
z
M 628 4666 
L 1925 4666 
Q 3281 4666 3915 4102 
Q 4550 3538 4550 2338 
Q 4550 1131 3912 565 
Q 3275 0 1925 0 
L 628 0 
L 628 4666 
z
" transform="scale(0.015625)"/>
       </defs>
       <use xlink:href="#DejaVuSans-42"/>
       <use xlink:href="#DejaVuSans-61" x="68.603516"/>
       <use xlink:href="#DejaVuSans-72" x="129.882812"/>
       <use xlink:href="#DejaVuSans-6b" x="170.996094"/>
       <use xlink:href="#DejaVuSans-69" x="228.90625"/>
       <use xlink:href="#DejaVuSans-6e" x="256.689453"/>
       <use xlink:href="#DejaVuSans-67" x="320.068359"/>
       <use xlink:href="#DejaVuSans-20" x="383.544922"/>
       <use xlink:href="#DejaVuSans-61" x="415.332031"/>
       <use xlink:href="#DejaVuSans-6e" x="476.611328"/>
       <use xlink:href="#DejaVuSans-64" x="539.990234"/>
       <use xlink:href="#DejaVuSans-20" x="603.466797"/>
       <use xlink:href="#DejaVuSans-44" x="635.253906"/>
       <use xlink:href="#DejaVuSans-61" x="712.255859"/>
       <use xlink:href="#DejaVuSans-67" x="773.535156"/>
       <use xlink:href="#DejaVuSans-65" x="837.011719"/>
       <use xlink:href="#DejaVuSans-6e" x="898.535156"/>
       <use xlink:href="#DejaVuSans-68" x="961.914062"/>
       <use xlink:href="#DejaVuSans-61" x="1025.292969"/>
       <use xlink:href="#DejaVuSans-6d" x="1086.572266"/>
      </g>
     </g>
    </g>
    <g id="xtick_5">
     <g id="line2d_5">
      <g>
       <use xlink:href="#md71537d21d" x="169.306658" y="174.877187" style="stroke: #000000; stroke-width: 0.8"/>
      </g>
     </g>
     <g id="text_5">
      <!-- Lambeth -->
      <g transform="translate(136.581977 218.504214) rotate(-45) scale(0.1 -0.1)">
       <defs>
        <path id="DejaVuSans-4c" d="M 628 4666 
L 1259 4666 
L 1259 531 
L 3531 531 
L 3531 0 
L 628 0 
L 628 4666 
z
" transform="scale(0.015625)"/>
        <path id="DejaVuSans-62" d="M 3116 1747 
Q 3116 2381 2855 2742 
Q 2594 3103 2138 3103 
Q 1681 3103 1420 2742 
Q 1159 2381 1159 1747 
Q 1159 1113 1420 752 
Q 1681 391 2138 391 
Q 2594 391 2855 752 
Q 3116 1113 3116 1747 
z
M 1159 2969 
Q 1341 3281 1617 3432 
Q 1894 3584 2278 3584 
Q 2916 3584 3314 3078 
Q 3713 2572 3713 1747 
Q 3713 922 3314 415 
Q 2916 -91 2278 -91 
Q 1894 -91 1617 61 
Q 1341 213 1159 525 
L 1159 0 
L 581 0 
L 581 4863 
L 1159 4863 
L 1159 2969 
z
" transform="scale(0.015625)"/>
       </defs>
       <use xlink:href="#DejaVuSans-4c"/>
       <use xlink:href="#DejaVuSans-61" x="55.712891"/>
       <use xlink:href="#DejaVuSans-6d" x="116.992188"/>
       <use xlink:href="#DejaVuSans-62" x="214.404297"/>
       <use xlink:href="#DejaVuSans-65" x="277.880859"/>
       <use xlink:href="#DejaVuSans-74" x="339.404297"/>
       <use xlink:href="#DejaVuSans-68" x="378.613281"/>
      </g>
     </g>
    </g>
    <g id="xtick_6">
     <g id="line2d_6">
      <g>
       <use xlink:href="#md71537d21d" x="187.83153" y="174.877187" style="stroke: #000000; stroke-width: 0.8"/>
      </g>
     </g>
     <g id="text_6">
      <!-- Hackney -->
      <g transform="translate(155.710099 217.900963) rotate(-45) scale(0.1 -0.1)">
       <defs>
        <path id="DejaVuSans-48" d="M 628 4666 
L 1259 4666 
L 1259 2753 
L 3553 2753 
L 3553 4666 
L 4184 4666 
L 4184 0 
L 3553 0 
L 3553 2222 
L 1259 2222 
L 1259 0 
L 628 0 
L 628 4666 
z
" transform="scale(0.015625)"/>
        <path id="DejaVuSans-63" d="M 3122 3366 
L 3122 2828 
Q 2878 2963 2633 3030 
Q 2388 3097 2138 3097 
Q 1578 3097 1268 2742 
Q 959 2388 959 1747 
Q 959 1106 1268 751 
Q 1578 397 2138 397 
Q 2388 397 2633 464 
Q 2878 531 3122 666 
L 3122 134 
Q 2881 22 2623 -34 
Q 2366 -91 2075 -91 
Q 1284 -91 818 406 
Q 353 903 353 1747 
Q 353 2603 823 3093 
Q 1294 3584 2113 3584 
Q 2378 3584 2631 3529 
Q 2884 3475 3122 3366 
z
" transform="scale(0.015625)"/>
        <path id="DejaVuSans-79" d="M 2059 -325 
Q 1816 -950 1584 -1140 
Q 1353 -1331 966 -1331 
L 506 -1331 
L 506 -850 
L 844 -850 
Q 1081 -850 1212 -737 
Q 1344 -625 1503 -206 
L 1606 56 
L 191 3500 
L 800 3500 
L 1894 763 
L 2988 3500 
L 3597 3500 
L 2059 -325 
z
" transform="scale(0.015625)"/>
       </defs>
       <use xlink:href="#DejaVuSans-48"/>
       <use xlink:href="#DejaVuSans-61" x="75.195312"/>
       <use xlink:href="#DejaVuSans-63" x="136.474609"/>
       <use xlink:href="#DejaVuSans-6b" x="191.455078"/>
       <use xlink:href="#DejaVuSans-6e" x="249.365234"/>
       <use xlink:href="#DejaVuSans-65" x="312.744141"/>
       <use xlink:href="#DejaVuSans-79" x="374.267578"/>
      </g>
     </g>
    </g>
    <g id="xtick_7">
     <g id="line2d_7">
      <g>
       <use xlink:href="#md71537d21d" x="206.356401" y="174.877187" style="stroke: #000000; stroke-width: 0.8"/>
      </g>
     </g>
     <g id="text_7">
      <!-- Hillingdon -->
      <g transform="translate(169.443217 222.692717) rotate(-45) scale(0.1 -0.1)">
       <defs>
        <path id="DejaVuSans-6c" d="M 603 4863 
L 1178 4863 
L 1178 0 
L 603 0 
L 603 4863 
z
" transform="scale(0.015625)"/>
       </defs>
       <use xlink:href="#DejaVuSans-48"/>
       <use xlink:href="#DejaVuSans-69" x="75.195312"/>
       <use xlink:href="#DejaVuSans-6c" x="102.978516"/>
       <use xlink:href="#DejaVuSans-6c" x="130.761719"/>
       <use xlink:href="#DejaVuSans-69" x="158.544922"/>
       <use xlink:href="#DejaVuSans-6e" x="186.328125"/>
       <use xlink:href="#DejaVuSans-67" x="249.707031"/>
       <use xlink:href="#DejaVuSans-64" x="313.183594"/>
       <use xlink:href="#DejaVuSans-6f" x="376.660156"/>
       <use xlink:href="#DejaVuSans-6e" x="437.841797"/>
      </g>
     </g>
    </g>
    <g id="xtick_8">
     <g id="line2d_8">
      <g>
       <use xlink:href="#md71537d21d" x="224.881272" y="174.877187" style="stroke: #000000; stroke-width: 0.8"/>
      </g>
     </g>
     <g id="text_8">
      <!-- Newham -->
      <g transform="translate(192.284755 218.376051) rotate(-45) scale(0.1 -0.1)">
       <defs>
        <path id="DejaVuSans-4e" d="M 628 4666 
L 1478 4666 
L 3547 763 
L 3547 4666 
L 4159 4666 
L 4159 0 
L 3309 0 
L 1241 3903 
L 1241 0 
L 628 0 
L 628 4666 
z
" transform="scale(0.015625)"/>
        <path id="DejaVuSans-77" d="M 269 3500 
L 844 3500 
L 1563 769 
L 2278 3500 
L 2956 3500 
L 3675 769 
L 4391 3500 
L 4966 3500 
L 4050 0 
L 3372 0 
L 2619 2869 
L 1863 0 
L 1184 0 
L 269 3500 
z
" transform="scale(0.015625)"/>
       </defs>
       <use xlink:href="#DejaVuSans-4e"/>
       <use xlink:href="#DejaVuSans-65" x="74.804688"/>
       <use xlink:href="#DejaVuSans-77" x="136.328125"/>
       <use xlink:href="#DejaVuSans-68" x="218.115234"/>
       <use xlink:href="#DejaVuSans-61" x="281.494141"/>
       <use xlink:href="#DejaVuSans-6d" x="342.773438"/>
      </g>
     </g>
    </g>
    <g id="xtick_9">
     <g id="line2d_9">
      <g>
       <use xlink:href="#md71537d21d" x="243.406144" y="174.877187" style="stroke: #000000; stroke-width: 0.8"/>
      </g>
     </g>
     <g id="text_9">
      <!-- Camden -->
      <g transform="translate(212.455859 216.729818) rotate(-45) scale(0.1 -0.1)">
       <defs>
        <path id="DejaVuSans-43" d="M 4122 4306 
L 4122 3641 
Q 3803 3938 3442 4084 
Q 3081 4231 2675 4231 
Q 1875 4231 1450 3742 
Q 1025 3253 1025 2328 
Q 1025 1406 1450 917 
Q 1875 428 2675 428 
Q 3081 428 3442 575 
Q 3803 722 4122 1019 
L 4122 359 
Q 3791 134 3420 21 
Q 3050 -91 2638 -91 
Q 1578 -91 968 557 
Q 359 1206 359 2328 
Q 359 3453 968 4101 
Q 1578 4750 2638 4750 
Q 3056 4750 3426 4639 
Q 3797 4528 4122 4306 
z
" transform="scale(0.015625)"/>
       </defs>
       <use xlink:href="#DejaVuSans-43"/>
       <use xlink:href="#DejaVuSans-61" x="69.824219"/>
       <use xlink:href="#DejaVuSans-6d" x="131.103516"/>
       <use xlink:href="#DejaVuSans-64" x="228.515625"/>
       <use xlink:href="#DejaVuSans-65" x="291.992188"/>
       <use xlink:href="#DejaVuSans-6e" x="353.515625"/>
      </g>
     </g>
    </g>
    <g id="xtick_10">
     <g id="line2d_10">
      <g>
       <use xlink:href="#md71537d21d" x="261.931015" y="174.877187" style="stroke: #000000; stroke-width: 0.8"/>
      </g>
     </g>
     <g id="text_10">
      <!-- Richmond upon Thames -->
      <g transform="translate(174.700555 273.009993) rotate(-45) scale(0.1 -0.1)">
       <defs>
        <path id="DejaVuSans-52" d="M 2841 2188 
Q 3044 2119 3236 1894 
Q 3428 1669 3622 1275 
L 4263 0 
L 3584 0 
L 2988 1197 
Q 2756 1666 2539 1819 
Q 2322 1972 1947 1972 
L 1259 1972 
L 1259 0 
L 628 0 
L 628 4666 
L 2053 4666 
Q 2853 4666 3247 4331 
Q 3641 3997 3641 3322 
Q 3641 2881 3436 2590 
Q 3231 2300 2841 2188 
z
M 1259 4147 
L 1259 2491 
L 2053 2491 
Q 2509 2491 2742 2702 
Q 2975 2913 2975 3322 
Q 2975 3731 2742 3939 
Q 2509 4147 2053 4147 
L 1259 4147 
z
" transform="scale(0.015625)"/>
       </defs>
       <use xlink:href="#DejaVuSans-52"/>
       <use xlink:href="#DejaVuSans-69" x="69.482422"/>
       <use xlink:href="#DejaVuSans-63" x="97.265625"/>
       <use xlink:href="#DejaVuSans-68" x="152.246094"/>
       <use xlink:href="#DejaVuSans-6d" x="215.625"/>
       <use xlink:href="#DejaVuSans-6f" x="313.037109"/>
       <use xlink:href="#DejaVuSans-6e" x="374.21875"/>
       <use xlink:href="#DejaVuSans-64" x="437.597656"/>
       <use xlink:href="#DejaVuSans-20" x="501.074219"/>
       <use xlink:href="#DejaVuSans-75" x="532.861328"/>
       <use xlink:href="#DejaVuSans-70" x="596.240234"/>
       <use xlink:href="#DejaVuSans-6f" x="659.716797"/>
       <use xlink:href="#DejaVuSans-6e" x="720.898438"/>
       <use xlink:href="#DejaVuSans-20" x="784.277344"/>
       <use xlink:href="#DejaVuSans-54" x="816.064453"/>
       <use xlink:href="#DejaVuSans-68" x="877.148438"/>
       <use xlink:href="#DejaVuSans-61" x="940.527344"/>
       <use xlink:href="#DejaVuSans-6d" x="1001.806641"/>
       <use xlink:href="#DejaVuSans-65" x="1099.21875"/>
       <use xlink:href="#DejaVuSans-73" x="1160.742188"/>
      </g>
     </g>
    </g>
    <g id="xtick_11">
     <g id="line2d_11">
      <g>
       <use xlink:href="#md71537d21d" x="280.455886" y="174.877187" style="stroke: #000000; stroke-width: 0.8"/>
      </g>
     </g>
     <g id="text_11">
      <!-- Croydon -->
      <g transform="translate(249.491239 216.744181) rotate(-45) scale(0.1 -0.1)">
       <use xlink:href="#DejaVuSans-43"/>
       <use xlink:href="#DejaVuSans-72" x="69.824219"/>
       <use xlink:href="#DejaVuSans-6f" x="108.6875"/>
       <use xlink:href="#DejaVuSans-79" x="169.869141"/>
       <use xlink:href="#DejaVuSans-64" x="229.048828"/>
       <use xlink:href="#DejaVuSans-6f" x="292.525391"/>
       <use xlink:href="#DejaVuSans-6e" x="353.707031"/>
      </g>
     </g>
    </g>
    <g id="xtick_12">
     <g id="line2d_12">
      <g>
       <use xlink:href="#md71537d21d" x="298.980758" y="174.877187" style="stroke: #000000; stroke-width: 0.8"/>
      </g>
     </g>
     <g id="text_12">
      <!-- Hammersmith and Fulham -->
      <g transform="translate(203.413067 281.347224) rotate(-45) scale(0.1 -0.1)">
       <defs>
        <path id="DejaVuSans-46" d="M 628 4666 
L 3309 4666 
L 3309 4134 
L 1259 4134 
L 1259 2759 
L 3109 2759 
L 3109 2228 
L 1259 2228 
L 1259 0 
L 628 0 
L 628 4666 
z
" transform="scale(0.015625)"/>
       </defs>
       <use xlink:href="#DejaVuSans-48"/>
       <use xlink:href="#DejaVuSans-61" x="75.195312"/>
       <use xlink:href="#DejaVuSans-6d" x="136.474609"/>
       <use xlink:href="#DejaVuSans-6d" x="233.886719"/>
       <use xlink:href="#DejaVuSans-65" x="331.298828"/>
       <use xlink:href="#DejaVuSans-72" x="392.822266"/>
       <use xlink:href="#DejaVuSans-73" x="433.935547"/>
       <use xlink:href="#DejaVuSans-6d" x="486.035156"/>
       <use xlink:href="#DejaVuSans-69" x="583.447266"/>
       <use xlink:href="#DejaVuSans-74" x="611.230469"/>
       <use xlink:href="#DejaVuSans-68" x="650.439453"/>
       <use xlink:href="#DejaVuSans-20" x="713.818359"/>
       <use xlink:href="#DejaVuSans-61" x="745.605469"/>
       <use xlink:href="#DejaVuSans-6e" x="806.884766"/>
       <use xlink:href="#DejaVuSans-64" x="870.263672"/>
       <use xlink:href="#DejaVuSans-20" x="933.740234"/>
       <use xlink:href="#DejaVuSans-46" x="965.527344"/>
       <use xlink:href="#DejaVuSans-75" x="1017.546875"/>
       <use xlink:href="#DejaVuSans-6c" x="1080.925781"/>
       <use xlink:href="#DejaVuSans-68" x="1108.708984"/>
       <use xlink:href="#DejaVuSans-61" x="1172.087891"/>
       <use xlink:href="#DejaVuSans-6d" x="1233.367188"/>
      </g>
     </g>
    </g>
    <g id="xtick_13">
     <g id="line2d_13">
      <g>
       <use xlink:href="#md71537d21d" x="317.505629" y="174.877187" style="stroke: #000000; stroke-width: 0.8"/>
      </g>
     </g>
     <g id="text_13">
      <!-- Havering -->
      <g transform="translate(284.006445 219.278717) rotate(-45) scale(0.1 -0.1)">
       <defs>
        <path id="DejaVuSans-76" d="M 191 3500 
L 800 3500 
L 1894 563 
L 2988 3500 
L 3597 3500 
L 2284 0 
L 1503 0 
L 191 3500 
z
" transform="scale(0.015625)"/>
       </defs>
       <use xlink:href="#DejaVuSans-48"/>
       <use xlink:href="#DejaVuSans-61" x="75.195312"/>
       <use xlink:href="#DejaVuSans-76" x="136.474609"/>
       <use xlink:href="#DejaVuSans-65" x="195.654297"/>
       <use xlink:href="#DejaVuSans-72" x="257.177734"/>
       <use xlink:href="#DejaVuSans-69" x="298.291016"/>
       <use xlink:href="#DejaVuSans-6e" x="326.074219"/>
       <use xlink:href="#DejaVuSans-67" x="389.453125"/>
      </g>
     </g>
    </g>
    <g id="xtick_14">
     <g id="line2d_14">
      <g>
       <use xlink:href="#md71537d21d" x="336.030501" y="174.877187" style="stroke: #000000; stroke-width: 0.8"/>
      </g>
     </g>
     <g id="text_14">
      <!-- Brent -->
      <g transform="translate(315.356466 206.453568) rotate(-45) scale(0.1 -0.1)">
       <use xlink:href="#DejaVuSans-42"/>
       <use xlink:href="#DejaVuSans-72" x="68.603516"/>
       <use xlink:href="#DejaVuSans-65" x="107.466797"/>
       <use xlink:href="#DejaVuSans-6e" x="168.990234"/>
       <use xlink:href="#DejaVuSans-74" x="232.369141"/>
      </g>
     </g>
    </g>
    <g id="xtick_15">
     <g id="line2d_15">
      <g>
       <use xlink:href="#md71537d21d" x="354.555372" y="174.877187" style="stroke: #000000; stroke-width: 0.8"/>
      </g>
     </g>
     <g id="text_15">
      <!-- Bexley -->
      <g transform="translate(329.320499 211.014406) rotate(-45) scale(0.1 -0.1)">
       <defs>
        <path id="DejaVuSans-78" d="M 3513 3500 
L 2247 1797 
L 3578 0 
L 2900 0 
L 1881 1375 
L 863 0 
L 184 0 
L 1544 1831 
L 300 3500 
L 978 3500 
L 1906 2253 
L 2834 3500 
L 3513 3500 
z
" transform="scale(0.015625)"/>
       </defs>
       <use xlink:href="#DejaVuSans-42"/>
       <use xlink:href="#DejaVuSans-65" x="68.603516"/>
       <use xlink:href="#DejaVuSans-78" x="128.376953"/>
       <use xlink:href="#DejaVuSans-6c" x="187.556641"/>
       <use xlink:href="#DejaVuSans-65" x="215.339844"/>
       <use xlink:href="#DejaVuSans-79" x="276.863281"/>
      </g>
     </g>
    </g>
    <g id="xtick_16">
     <g id="line2d_16">
      <g>
       <use xlink:href="#md71537d21d" x="373.080243" y="174.877187" style="stroke: #000000; stroke-width: 0.8"/>
      </g>
     </g>
     <g id="text_16">
      <!-- Greenwich -->
      <g transform="translate(334.083304 224.776472) rotate(-45) scale(0.1 -0.1)">
       <defs>
        <path id="DejaVuSans-47" d="M 3809 666 
L 3809 1919 
L 2778 1919 
L 2778 2438 
L 4434 2438 
L 4434 434 
Q 4069 175 3628 42 
Q 3188 -91 2688 -91 
Q 1594 -91 976 548 
Q 359 1188 359 2328 
Q 359 3472 976 4111 
Q 1594 4750 2688 4750 
Q 3144 4750 3555 4637 
Q 3966 4525 4313 4306 
L 4313 3634 
Q 3963 3931 3569 4081 
Q 3175 4231 2741 4231 
Q 1884 4231 1454 3753 
Q 1025 3275 1025 2328 
Q 1025 1384 1454 906 
Q 1884 428 2741 428 
Q 3075 428 3337 486 
Q 3600 544 3809 666 
z
" transform="scale(0.015625)"/>
       </defs>
       <use xlink:href="#DejaVuSans-47"/>
       <use xlink:href="#DejaVuSans-72" x="77.490234"/>
       <use xlink:href="#DejaVuSans-65" x="116.353516"/>
       <use xlink:href="#DejaVuSans-65" x="177.876953"/>
       <use xlink:href="#DejaVuSans-6e" x="239.400391"/>
       <use xlink:href="#DejaVuSans-77" x="302.779297"/>
       <use xlink:href="#DejaVuSans-69" x="384.566406"/>
       <use xlink:href="#DejaVuSans-63" x="412.349609"/>
       <use xlink:href="#DejaVuSans-68" x="467.330078"/>
      </g>
     </g>
    </g>
    <g id="xtick_17">
     <g id="line2d_17">
      <g>
       <use xlink:href="#md71537d21d" x="391.605115" y="174.877187" style="stroke: #000000; stroke-width: 0.8"/>
      </g>
     </g>
     <g id="text_17">
      <!-- Lewisham -->
      <g transform="translate(354.834457 222.550191) rotate(-45) scale(0.1 -0.1)">
       <use xlink:href="#DejaVuSans-4c"/>
       <use xlink:href="#DejaVuSans-65" x="53.962891"/>
       <use xlink:href="#DejaVuSans-77" x="115.486328"/>
       <use xlink:href="#DejaVuSans-69" x="197.273438"/>
       <use xlink:href="#DejaVuSans-73" x="225.056641"/>
       <use xlink:href="#DejaVuSans-68" x="277.15625"/>
       <use xlink:href="#DejaVuSans-61" x="340.535156"/>
       <use xlink:href="#DejaVuSans-6d" x="401.814453"/>
      </g>
     </g>
    </g>
    <g id="xtick_18">
     <g id="line2d_18">
      <g>
       <use xlink:href="#md71537d21d" x="410.129986" y="174.877187" style="stroke: #000000; stroke-width: 0.8"/>
      </g>
     </g>
     <g id="text_18">
      <!-- Tower Hamlets -->
      <g transform="translate(356.618575 239.290944) rotate(-45) scale(0.1 -0.1)">
       <use xlink:href="#DejaVuSans-54"/>
       <use xlink:href="#DejaVuSans-6f" x="44.083984"/>
       <use xlink:href="#DejaVuSans-77" x="105.265625"/>
       <use xlink:href="#DejaVuSans-65" x="187.052734"/>
       <use xlink:href="#DejaVuSans-72" x="248.576172"/>
       <use xlink:href="#DejaVuSans-20" x="289.689453"/>
       <use xlink:href="#DejaVuSans-48" x="321.476562"/>
       <use xlink:href="#DejaVuSans-61" x="396.671875"/>
       <use xlink:href="#DejaVuSans-6d" x="457.951172"/>
       <use xlink:href="#DejaVuSans-6c" x="555.363281"/>
       <use xlink:href="#DejaVuSans-65" x="583.146484"/>
       <use xlink:href="#DejaVuSans-74" x="644.669922"/>
       <use xlink:href="#DejaVuSans-73" x="683.878906"/>
      </g>
     </g>
    </g>
    <g id="xtick_19">
     <g id="line2d_19">
      <g>
       <use xlink:href="#md71537d21d" x="428.654857" y="174.877187" style="stroke: #000000; stroke-width: 0.8"/>
      </g>
     </g>
     <g id="text_19">
      <!-- Islington -->
      <g transform="translate(396.935594 217.498796) rotate(-45) scale(0.1 -0.1)">
       <defs>
        <path id="DejaVuSans-49" d="M 628 4666 
L 1259 4666 
L 1259 0 
L 628 0 
L 628 4666 
z
" transform="scale(0.015625)"/>
       </defs>
       <use xlink:href="#DejaVuSans-49"/>
       <use xlink:href="#DejaVuSans-73" x="29.492188"/>
       <use xlink:href="#DejaVuSans-6c" x="81.591797"/>
       <use xlink:href="#DejaVuSans-69" x="109.375"/>
       <use xlink:href="#DejaVuSans-6e" x="137.158203"/>
       <use xlink:href="#DejaVuSans-67" x="200.537109"/>
       <use xlink:href="#DejaVuSans-74" x="264.013672"/>
       <use xlink:href="#DejaVuSans-6f" x="303.222656"/>
       <use xlink:href="#DejaVuSans-6e" x="364.404297"/>
      </g>
     </g>
    </g>
    <g id="xtick_20">
     <g id="line2d_20">
      <g>
       <use xlink:href="#md71537d21d" x="447.179729" y="174.877187" style="stroke: #000000; stroke-width: 0.8"/>
      </g>
     </g>
     <g id="text_20">
      <!-- Waltham Forest -->
      <g transform="translate(390.457611 242.50165) rotate(-45) scale(0.1 -0.1)">
       <use xlink:href="#DejaVuSans-57"/>
       <use xlink:href="#DejaVuSans-61" x="92.501953"/>
       <use xlink:href="#DejaVuSans-6c" x="153.78125"/>
       <use xlink:href="#DejaVuSans-74" x="181.564453"/>
       <use xlink:href="#DejaVuSans-68" x="220.773438"/>
       <use xlink:href="#DejaVuSans-61" x="284.152344"/>
       <use xlink:href="#DejaVuSans-6d" x="345.431641"/>
       <use xlink:href="#DejaVuSans-20" x="442.84375"/>
       <use xlink:href="#DejaVuSans-46" x="474.630859"/>
       <use xlink:href="#DejaVuSans-6f" x="528.525391"/>
       <use xlink:href="#DejaVuSans-72" x="589.707031"/>
       <use xlink:href="#DejaVuSans-65" x="628.570312"/>
       <use xlink:href="#DejaVuSans-73" x="690.09375"/>
       <use xlink:href="#DejaVuSans-74" x="742.193359"/>
      </g>
     </g>
    </g>
    <g id="xtick_21">
     <g id="line2d_21">
      <g>
       <use xlink:href="#md71537d21d" x="465.7046" y="174.877187" style="stroke: #000000; stroke-width: 0.8"/>
      </g>
     </g>
     <g id="text_21">
      <!-- Harrow -->
      <g transform="translate(438.942818 212.541315) rotate(-45) scale(0.1 -0.1)">
       <use xlink:href="#DejaVuSans-48"/>
       <use xlink:href="#DejaVuSans-61" x="75.195312"/>
       <use xlink:href="#DejaVuSans-72" x="136.474609"/>
       <use xlink:href="#DejaVuSans-72" x="175.837891"/>
       <use xlink:href="#DejaVuSans-6f" x="214.701172"/>
       <use xlink:href="#DejaVuSans-77" x="275.882812"/>
      </g>
     </g>
    </g>
    <g id="xtick_22">
     <g id="line2d_22">
      <g>
       <use xlink:href="#md71537d21d" x="484.229471" y="174.877187" style="stroke: #000000; stroke-width: 0.8"/>
      </g>
     </g>
     <g id="text_22">
      <!-- Southwark -->
      <g transform="translate(445.091111 224.917893) rotate(-45) scale(0.1 -0.1)">
       <use xlink:href="#DejaVuSans-53"/>
       <use xlink:href="#DejaVuSans-6f" x="63.476562"/>
       <use xlink:href="#DejaVuSans-75" x="124.658203"/>
       <use xlink:href="#DejaVuSans-74" x="188.037109"/>
       <use xlink:href="#DejaVuSans-68" x="227.246094"/>
       <use xlink:href="#DejaVuSans-77" x="290.625"/>
       <use xlink:href="#DejaVuSans-61" x="372.412109"/>
       <use xlink:href="#DejaVuSans-72" x="433.691406"/>
       <use xlink:href="#DejaVuSans-6b" x="474.804688"/>
      </g>
     </g>
    </g>
    <g id="xtick_23">
     <g id="line2d_23">
      <g>
       <use xlink:href="#md71537d21d" x="502.754343" y="174.877187" style="stroke: #000000; stroke-width: 0.8"/>
      </g>
     </g>
     <g id="text_23">
      <!-- Wandsworth -->
      <g transform="translate(457.48625 231.047625) rotate(-45) scale(0.1 -0.1)">
       <use xlink:href="#DejaVuSans-57"/>
       <use xlink:href="#DejaVuSans-61" x="92.501953"/>
       <use xlink:href="#DejaVuSans-6e" x="153.78125"/>
       <use xlink:href="#DejaVuSans-64" x="217.160156"/>
       <use xlink:href="#DejaVuSans-73" x="280.636719"/>
       <use xlink:href="#DejaVuSans-77" x="332.736328"/>
       <use xlink:href="#DejaVuSans-6f" x="414.523438"/>
       <use xlink:href="#DejaVuSans-72" x="475.705078"/>
       <use xlink:href="#DejaVuSans-74" x="516.818359"/>
       <use xlink:href="#DejaVuSans-68" x="556.027344"/>
      </g>
     </g>
    </g>
    <g id="xtick_24">
     <g id="line2d_24">
      <g>
       <use xlink:href="#md71537d21d" x="521.279214" y="174.877187" style="stroke: #000000; stroke-width: 0.8"/>
      </g>
     </g>
     <g id="text_24">
      <!-- Redbridge -->
      <g transform="translate(483.684335 223.374412) rotate(-45) scale(0.1 -0.1)">
       <use xlink:href="#DejaVuSans-52"/>
       <use xlink:href="#DejaVuSans-65" x="64.982422"/>
       <use xlink:href="#DejaVuSans-64" x="126.505859"/>
       <use xlink:href="#DejaVuSans-62" x="189.982422"/>
       <use xlink:href="#DejaVuSans-72" x="253.458984"/>
       <use xlink:href="#DejaVuSans-69" x="294.572266"/>
       <use xlink:href="#DejaVuSans-64" x="322.355469"/>
       <use xlink:href="#DejaVuSans-67" x="385.832031"/>
       <use xlink:href="#DejaVuSans-65" x="449.308594"/>
      </g>
     </g>
    </g>
    <g id="xtick_25">
     <g id="line2d_25">
      <g>
       <use xlink:href="#md71537d21d" x="539.804085" y="174.877187" style="stroke: #000000; stroke-width: 0.8"/>
      </g>
     </g>
     <g id="text_25">
      <!-- Bromley -->
      <g transform="translate(509.019529 216.56409) rotate(-45) scale(0.1 -0.1)">
       <use xlink:href="#DejaVuSans-42"/>
       <use xlink:href="#DejaVuSans-72" x="68.603516"/>
       <use xlink:href="#DejaVuSans-6f" x="107.466797"/>
       <use xlink:href="#DejaVuSans-6d" x="168.648438"/>
       <use xlink:href="#DejaVuSans-6c" x="266.060547"/>
       <use xlink:href="#DejaVuSans-65" x="293.84375"/>
       <use xlink:href="#DejaVuSans-79" x="355.367188"/>
      </g>
     </g>
    </g>
    <g id="xtick_26">
     <g id="line2d_26">
      <g>
       <use xlink:href="#md71537d21d" x="558.328957" y="174.877187" style="stroke: #000000; stroke-width: 0.8"/>
      </g>
     </g>
     <g id="text_26">
      <!-- Haringey -->
      <g transform="translate(524.829773 219.278717) rotate(-45) scale(0.1 -0.1)">
       <use xlink:href="#DejaVuSans-48"/>
       <use xlink:href="#DejaVuSans-61" x="75.195312"/>
       <use xlink:href="#DejaVuSans-72" x="136.474609"/>
       <use xlink:href="#DejaVuSans-69" x="177.587891"/>
       <use xlink:href="#DejaVuSans-6e" x="205.371094"/>
       <use xlink:href="#DejaVuSans-67" x="268.75"/>
       <use xlink:href="#DejaVuSans-65" x="332.226562"/>
       <use xlink:href="#DejaVuSans-79" x="393.75"/>
      </g>
     </g>
    </g>
    <g id="xtick_27">
     <g id="line2d_27">
      <g>
       <use xlink:href="#md71537d21d" x="576.853828" y="174.877187" style="stroke: #000000; stroke-width: 0.8"/>
      </g>
     </g>
     <g id="text_27">
      <!-- Ealing -->
      <g transform="translate(553.682823 208.950538) rotate(-45) scale(0.1 -0.1)">
       <defs>
        <path id="DejaVuSans-45" d="M 628 4666 
L 3578 4666 
L 3578 4134 
L 1259 4134 
L 1259 2753 
L 3481 2753 
L 3481 2222 
L 1259 2222 
L 1259 531 
L 3634 531 
L 3634 0 
L 628 0 
L 628 4666 
z
" transform="scale(0.015625)"/>
       </defs>
       <use xlink:href="#DejaVuSans-45"/>
       <use xlink:href="#DejaVuSans-61" x="63.183594"/>
       <use xlink:href="#DejaVuSans-6c" x="124.462891"/>
       <use xlink:href="#DejaVuSans-69" x="152.246094"/>
       <use xlink:href="#DejaVuSans-6e" x="180.029297"/>
       <use xlink:href="#DejaVuSans-67" x="243.408203"/>
      </g>
     </g>
    </g>
    <g id="xtick_28">
     <g id="line2d_28">
      <g>
       <use xlink:href="#md71537d21d" x="595.378699" y="174.877187" style="stroke: #000000; stroke-width: 0.8"/>
      </g>
     </g>
     <g id="text_28">
      <!-- Enfield -->
      <g transform="translate(569.70078 211.457453) rotate(-45) scale(0.1 -0.1)">
       <defs>
        <path id="DejaVuSans-66" d="M 2375 4863 
L 2375 4384 
L 1825 4384 
Q 1516 4384 1395 4259 
Q 1275 4134 1275 3809 
L 1275 3500 
L 2222 3500 
L 2222 3053 
L 1275 3053 
L 1275 0 
L 697 0 
L 697 3053 
L 147 3053 
L 147 3500 
L 697 3500 
L 697 3744 
Q 697 4328 969 4595 
Q 1241 4863 1831 4863 
L 2375 4863 
z
" transform="scale(0.015625)"/>
       </defs>
       <use xlink:href="#DejaVuSans-45"/>
       <use xlink:href="#DejaVuSans-6e" x="63.183594"/>
       <use xlink:href="#DejaVuSans-66" x="126.5625"/>
       <use xlink:href="#DejaVuSans-69" x="161.767578"/>
       <use xlink:href="#DejaVuSans-65" x="189.550781"/>
       <use xlink:href="#DejaVuSans-6c" x="251.074219"/>
       <use xlink:href="#DejaVuSans-64" x="278.857422"/>
      </g>
     </g>
    </g>
    <g id="xtick_29">
     <g id="line2d_29">
      <g>
       <use xlink:href="#md71537d21d" x="613.903571" y="174.877187" style="stroke: #000000; stroke-width: 0.8"/>
      </g>
     </g>
     <g id="text_29">
      <!-- Hounslow -->
      <g transform="translate(578.068725 221.614379) rotate(-45) scale(0.1 -0.1)">
       <use xlink:href="#DejaVuSans-48"/>
       <use xlink:href="#DejaVuSans-6f" x="75.195312"/>
       <use xlink:href="#DejaVuSans-75" x="136.376953"/>
       <use xlink:href="#DejaVuSans-6e" x="199.755859"/>
       <use xlink:href="#DejaVuSans-73" x="263.134766"/>
       <use xlink:href="#DejaVuSans-6c" x="315.234375"/>
       <use xlink:href="#DejaVuSans-6f" x="343.017578"/>
       <use xlink:href="#DejaVuSans-77" x="404.199219"/>
      </g>
     </g>
    </g>
    <g id="xtick_30">
     <g id="line2d_30">
      <g>
       <use xlink:href="#md71537d21d" x="632.428442" y="174.877187" style="stroke: #000000; stroke-width: 0.8"/>
      </g>
     </g>
     <g id="text_30">
      <!-- Merton -->
      <g transform="translate(606.019109 212.188866) rotate(-45) scale(0.1 -0.1)">
       <defs>
        <path id="DejaVuSans-4d" d="M 628 4666 
L 1569 4666 
L 2759 1491 
L 3956 4666 
L 4897 4666 
L 4897 0 
L 4281 0 
L 4281 4097 
L 3078 897 
L 2444 897 
L 1241 4097 
L 1241 0 
L 628 0 
L 628 4666 
z
" transform="scale(0.015625)"/>
       </defs>
       <use xlink:href="#DejaVuSans-4d"/>
       <use xlink:href="#DejaVuSans-65" x="86.279297"/>
       <use xlink:href="#DejaVuSans-72" x="147.802734"/>
       <use xlink:href="#DejaVuSans-74" x="188.916016"/>
       <use xlink:href="#DejaVuSans-6f" x="228.125"/>
       <use xlink:href="#DejaVuSans-6e" x="289.306641"/>
      </g>
     </g>
    </g>
    <g id="xtick_31">
     <g id="line2d_31">
      <g>
       <use xlink:href="#md71537d21d" x="650.953314" y="174.877187" style="stroke: #000000; stroke-width: 0.8"/>
      </g>
     </g>
     <g id="text_31">
      <!-- Barnet -->
      <g transform="translate(625.910685 210.822162) rotate(-45) scale(0.1 -0.1)">
       <use xlink:href="#DejaVuSans-42"/>
       <use xlink:href="#DejaVuSans-61" x="68.603516"/>
       <use xlink:href="#DejaVuSans-72" x="129.882812"/>
       <use xlink:href="#DejaVuSans-6e" x="169.246094"/>
       <use xlink:href="#DejaVuSans-65" x="232.625"/>
       <use xlink:href="#DejaVuSans-74" x="294.148438"/>
      </g>
     </g>
    </g>
    <g id="xtick_32">
     <g id="line2d_32">
      <g>
       <use xlink:href="#md71537d21d" x="669.478185" y="174.877187" style="stroke: #000000; stroke-width: 0.8"/>
      </g>
     </g>
     <g id="text_32">
      <!-- Kensington and Chelsea -->
      <g transform="translate(582.793523 272.464195) rotate(-45) scale(0.1 -0.1)">
       <use xlink:href="#DejaVuSans-4b"/>
       <use xlink:href="#DejaVuSans-65" x="60.576172"/>
       <use xlink:href="#DejaVuSans-6e" x="122.099609"/>
       <use xlink:href="#DejaVuSans-73" x="185.478516"/>
       <use xlink:href="#DejaVuSans-69" x="237.578125"/>
       <use xlink:href="#DejaVuSans-6e" x="265.361328"/>
       <use xlink:href="#DejaVuSans-67" x="328.740234"/>
       <use xlink:href="#DejaVuSans-74" x="392.216797"/>
       <use xlink:href="#DejaVuSans-6f" x="431.425781"/>
       <use xlink:href="#DejaVuSans-6e" x="492.607422"/>
       <use xlink:href="#DejaVuSans-20" x="555.986328"/>
       <use xlink:href="#DejaVuSans-61" x="587.773438"/>
       <use xlink:href="#DejaVuSans-6e" x="649.052734"/>
       <use xlink:href="#DejaVuSans-64" x="712.431641"/>
       <use xlink:href="#DejaVuSans-20" x="775.908203"/>
       <use xlink:href="#DejaVuSans-43" x="807.695312"/>
       <use xlink:href="#DejaVuSans-68" x="877.519531"/>
       <use xlink:href="#DejaVuSans-65" x="940.898438"/>
       <use xlink:href="#DejaVuSans-6c" x="1002.421875"/>
       <use xlink:href="#DejaVuSans-73" x="1030.205078"/>
       <use xlink:href="#DejaVuSans-65" x="1082.304688"/>
       <use xlink:href="#DejaVuSans-61" x="1143.828125"/>
      </g>
     </g>
    </g>
    <g id="text_33">
     <!-- Borough -->
     <g transform="translate(352.93721 268.455598) scale(0.14 -0.14)">
      <use xlink:href="#DejaVuSans-42"/>
      <use xlink:href="#DejaVuSans-6f" x="68.603516"/>
      <use xlink:href="#DejaVuSans-72" x="129.785156"/>
      <use xlink:href="#DejaVuSans-6f" x="168.648438"/>
      <use xlink:href="#DejaVuSans-75" x="229.830078"/>
      <use xlink:href="#DejaVuSans-67" x="293.208984"/>
      <use xlink:href="#DejaVuSans-68" x="356.685547"/>
     </g>
    </g>
   </g>
   <g id="matplotlib.axis_2">
    <g id="ytick_1">
     <g id="line2d_33">
      <defs>
       <path id="m51ea0723a6" d="M 0 0 
L -3.5 0 
" style="stroke: #000000; stroke-width: 0.8"/>
      </defs>
      <g>
       <use xlink:href="#m51ea0723a6" x="58.342679" y="174.877187" style="stroke: #000000; stroke-width: 0.8"/>
      </g>
     </g>
     <g id="text_34">
      <!-- 0.0 -->
      <g transform="translate(35.439554 178.676406) scale(0.1 -0.1)">
       <defs>
        <path id="DejaVuSans-30" d="M 2034 4250 
Q 1547 4250 1301 3770 
Q 1056 3291 1056 2328 
Q 1056 1369 1301 889 
Q 1547 409 2034 409 
Q 2525 409 2770 889 
Q 3016 1369 3016 2328 
Q 3016 3291 2770 3770 
Q 2525 4250 2034 4250 
z
M 2034 4750 
Q 2819 4750 3233 4129 
Q 3647 3509 3647 2328 
Q 3647 1150 3233 529 
Q 2819 -91 2034 -91 
Q 1250 -91 836 529 
Q 422 1150 422 2328 
Q 422 3509 836 4129 
Q 1250 4750 2034 4750 
z
" transform="scale(0.015625)"/>
        <path id="DejaVuSans-2e" d="M 684 794 
L 1344 794 
L 1344 0 
L 684 0 
L 684 794 
z
" transform="scale(0.015625)"/>
       </defs>
       <use xlink:href="#DejaVuSans-30"/>
       <use xlink:href="#DejaVuSans-2e" x="63.623047"/>
       <use xlink:href="#DejaVuSans-30" x="95.410156"/>
      </g>
     </g>
    </g>
    <g id="ytick_2">
     <g id="line2d_34">
      <g>
       <use xlink:href="#m51ea0723a6" x="58.342679" y="146.077187" style="stroke: #000000; stroke-width: 0.8"/>
      </g>
     </g>
     <g id="text_35">
      <!-- 0.2 -->
      <g transform="translate(35.439554 149.876406) scale(0.1 -0.1)">
       <defs>
        <path id="DejaVuSans-32" d="M 1228 531 
L 3431 531 
L 3431 0 
L 469 0 
L 469 531 
Q 828 903 1448 1529 
Q 2069 2156 2228 2338 
Q 2531 2678 2651 2914 
Q 2772 3150 2772 3378 
Q 2772 3750 2511 3984 
Q 2250 4219 1831 4219 
Q 1534 4219 1204 4116 
Q 875 4013 500 3803 
L 500 4441 
Q 881 4594 1212 4672 
Q 1544 4750 1819 4750 
Q 2544 4750 2975 4387 
Q 3406 4025 3406 3419 
Q 3406 3131 3298 2873 
Q 3191 2616 2906 2266 
Q 2828 2175 2409 1742 
Q 1991 1309 1228 531 
z
" transform="scale(0.015625)"/>
       </defs>
       <use xlink:href="#DejaVuSans-30"/>
       <use xlink:href="#DejaVuSans-2e" x="63.623047"/>
       <use xlink:href="#DejaVuSans-32" x="95.410156"/>
      </g>
     </g>
    </g>
    <g id="ytick_3">
     <g id="line2d_35">
      <g>
       <use xlink:href="#m51ea0723a6" x="58.342679" y="117.277187" style="stroke: #000000; stroke-width: 0.8"/>
      </g>
     </g>
     <g id="text_36">
      <!-- 0.4 -->
      <g transform="translate(35.439554 121.076406) scale(0.1 -0.1)">
       <defs>
        <path id="DejaVuSans-34" d="M 2419 4116 
L 825 1625 
L 2419 1625 
L 2419 4116 
z
M 2253 4666 
L 3047 4666 
L 3047 1625 
L 3713 1625 
L 3713 1100 
L 3047 1100 
L 3047 0 
L 2419 0 
L 2419 1100 
L 313 1100 
L 313 1709 
L 2253 4666 
z
" transform="scale(0.015625)"/>
       </defs>
       <use xlink:href="#DejaVuSans-30"/>
       <use xlink:href="#DejaVuSans-2e" x="63.623047"/>
       <use xlink:href="#DejaVuSans-34" x="95.410156"/>
      </g>
     </g>
    </g>
    <g id="ytick_4">
     <g id="line2d_36">
      <g>
       <use xlink:href="#m51ea0723a6" x="58.342679" y="88.477187" style="stroke: #000000; stroke-width: 0.8"/>
      </g>
     </g>
     <g id="text_37">
      <!-- 0.6 -->
      <g transform="translate(35.439554 92.276406) scale(0.1 -0.1)">
       <defs>
        <path id="DejaVuSans-36" d="M 2113 2584 
Q 1688 2584 1439 2293 
Q 1191 2003 1191 1497 
Q 1191 994 1439 701 
Q 1688 409 2113 409 
Q 2538 409 2786 701 
Q 3034 994 3034 1497 
Q 3034 2003 2786 2293 
Q 2538 2584 2113 2584 
z
M 3366 4563 
L 3366 3988 
Q 3128 4100 2886 4159 
Q 2644 4219 2406 4219 
Q 1781 4219 1451 3797 
Q 1122 3375 1075 2522 
Q 1259 2794 1537 2939 
Q 1816 3084 2150 3084 
Q 2853 3084 3261 2657 
Q 3669 2231 3669 1497 
Q 3669 778 3244 343 
Q 2819 -91 2113 -91 
Q 1303 -91 875 529 
Q 447 1150 447 2328 
Q 447 3434 972 4092 
Q 1497 4750 2381 4750 
Q 2619 4750 2861 4703 
Q 3103 4656 3366 4563 
z
" transform="scale(0.015625)"/>
       </defs>
       <use xlink:href="#DejaVuSans-30"/>
       <use xlink:href="#DejaVuSans-2e" x="63.623047"/>
       <use xlink:href="#DejaVuSans-36" x="95.410156"/>
      </g>
     </g>
    </g>
    <g id="ytick_5">
     <g id="line2d_37">
      <g>
       <use xlink:href="#m51ea0723a6" x="58.342679" y="59.677187" style="stroke: #000000; stroke-width: 0.8"/>
      </g>
     </g>
     <g id="text_38">
      <!-- 0.8 -->
      <g transform="translate(35.439554 63.476406) scale(0.1 -0.1)">
       <defs>
        <path id="DejaVuSans-38" d="M 2034 2216 
Q 1584 2216 1326 1975 
Q 1069 1734 1069 1313 
Q 1069 891 1326 650 
Q 1584 409 2034 409 
Q 2484 409 2743 651 
Q 3003 894 3003 1313 
Q 3003 1734 2745 1975 
Q 2488 2216 2034 2216 
z
M 1403 2484 
Q 997 2584 770 2862 
Q 544 3141 544 3541 
Q 544 4100 942 4425 
Q 1341 4750 2034 4750 
Q 2731 4750 3128 4425 
Q 3525 4100 3525 3541 
Q 3525 3141 3298 2862 
Q 3072 2584 2669 2484 
Q 3125 2378 3379 2068 
Q 3634 1759 3634 1313 
Q 3634 634 3220 271 
Q 2806 -91 2034 -91 
Q 1263 -91 848 271 
Q 434 634 434 1313 
Q 434 1759 690 2068 
Q 947 2378 1403 2484 
z
M 1172 3481 
Q 1172 3119 1398 2916 
Q 1625 2713 2034 2713 
Q 2441 2713 2670 2916 
Q 2900 3119 2900 3481 
Q 2900 3844 2670 4047 
Q 2441 4250 2034 4250 
Q 1625 4250 1398 4047 
Q 1172 3844 1172 3481 
z
" transform="scale(0.015625)"/>
       </defs>
       <use xlink:href="#DejaVuSans-30"/>
       <use xlink:href="#DejaVuSans-2e" x="63.623047"/>
       <use xlink:href="#DejaVuSans-38" x="95.410156"/>
      </g>
     </g>
    </g>
    <g id="ytick_6">
     <g id="line2d_38">
      <g>
       <use xlink:href="#m51ea0723a6" x="58.342679" y="30.877187" style="stroke: #000000; stroke-width: 0.8"/>
      </g>
     </g>
     <g id="text_39">
      <!-- 1.0 -->
      <g transform="translate(35.439554 34.676406) scale(0.1 -0.1)">
       <defs>
        <path id="DejaVuSans-31" d="M 794 531 
L 1825 531 
L 1825 4091 
L 703 3866 
L 703 4441 
L 1819 4666 
L 2450 4666 
L 2450 531 
L 3481 531 
L 3481 0 
L 794 0 
L 794 531 
z
" transform="scale(0.015625)"/>
       </defs>
       <use xlink:href="#DejaVuSans-31"/>
       <use xlink:href="#DejaVuSans-2e" x="63.623047"/>
       <use xlink:href="#DejaVuSans-30" x="95.410156"/>
      </g>
     </g>
    </g>
    <g id="text_40">
     <!-- Correlation -->
     <g transform="translate(28.527991 141.473437) rotate(-90) scale(0.14 -0.14)">
      <use xlink:href="#DejaVuSans-43"/>
      <use xlink:href="#DejaVuSans-6f" x="69.824219"/>
      <use xlink:href="#DejaVuSans-72" x="131.005859"/>
      <use xlink:href="#DejaVuSans-72" x="170.369141"/>
      <use xlink:href="#DejaVuSans-65" x="209.232422"/>
      <use xlink:href="#DejaVuSans-6c" x="270.755859"/>
      <use xlink:href="#DejaVuSans-61" x="298.539062"/>
      <use xlink:href="#DejaVuSans-74" x="359.818359"/>
      <use xlink:href="#DejaVuSans-69" x="399.027344"/>
      <use xlink:href="#DejaVuSans-6f" x="426.810547"/>
      <use xlink:href="#DejaVuSans-6e" x="487.992188"/>
     </g>
    </g>
   </g>
   <g id="patch_35">
    <path d="M 58.342679 174.877187 
L 58.342679 30.877187 
" style="fill: none; stroke: #000000; stroke-width: 0.8; stroke-linejoin: miter; stroke-linecap: square"/>
   </g>
   <g id="patch_36">
    <path d="M 706.342679 174.877187 
L 706.342679 30.877187 
" style="fill: none; stroke: #000000; stroke-width: 0.8; stroke-linejoin: miter; stroke-linecap: square"/>
   </g>
   <g id="patch_37">
    <path d="M 58.342679 174.877187 
L 706.342679 174.877187 
" style="fill: none; stroke: #000000; stroke-width: 0.8; stroke-linejoin: miter; stroke-linecap: square"/>
   </g>
   <g id="patch_38">
    <path d="M 58.342679 30.877187 
L 706.342679 30.877187 
" style="fill: none; stroke: #000000; stroke-width: 0.8; stroke-linejoin: miter; stroke-linecap: square"/>
   </g>
   <g id="text_41">
    <!-- Correlation Between Theft and Violence Against the Person -->
    <g transform="translate(116.102991 20.877187) scale(0.18 -0.18)">
     <defs>
      <path id="DejaVuSans-56" d="M 1831 0 
L 50 4666 
L 709 4666 
L 2188 738 
L 3669 4666 
L 4325 4666 
L 2547 0 
L 1831 0 
z
" transform="scale(0.015625)"/>
      <path id="DejaVuSans-41" d="M 2188 4044 
L 1331 1722 
L 3047 1722 
L 2188 4044 
z
M 1831 4666 
L 2547 4666 
L 4325 0 
L 3669 0 
L 3244 1197 
L 1141 1197 
L 716 0 
L 50 0 
L 1831 4666 
z
" transform="scale(0.015625)"/>
      <path id="DejaVuSans-50" d="M 1259 4147 
L 1259 2394 
L 2053 2394 
Q 2494 2394 2734 2622 
Q 2975 2850 2975 3272 
Q 2975 3691 2734 3919 
Q 2494 4147 2053 4147 
L 1259 4147 
z
M 628 4666 
L 2053 4666 
Q 2838 4666 3239 4311 
Q 3641 3956 3641 3272 
Q 3641 2581 3239 2228 
Q 2838 1875 2053 1875 
L 1259 1875 
L 1259 0 
L 628 0 
L 628 4666 
z
" transform="scale(0.015625)"/>
     </defs>
     <use xlink:href="#DejaVuSans-43"/>
     <use xlink:href="#DejaVuSans-6f" x="69.824219"/>
     <use xlink:href="#DejaVuSans-72" x="131.005859"/>
     <use xlink:href="#DejaVuSans-72" x="170.369141"/>
     <use xlink:href="#DejaVuSans-65" x="209.232422"/>
     <use xlink:href="#DejaVuSans-6c" x="270.755859"/>
     <use xlink:href="#DejaVuSans-61" x="298.539062"/>
     <use xlink:href="#DejaVuSans-74" x="359.818359"/>
     <use xlink:href="#DejaVuSans-69" x="399.027344"/>
     <use xlink:href="#DejaVuSans-6f" x="426.810547"/>
     <use xlink:href="#DejaVuSans-6e" x="487.992188"/>
     <use xlink:href="#DejaVuSans-20" x="551.371094"/>
     <use xlink:href="#DejaVuSans-42" x="583.158203"/>
     <use xlink:href="#DejaVuSans-65" x="651.761719"/>
     <use xlink:href="#DejaVuSans-74" x="713.285156"/>
     <use xlink:href="#DejaVuSans-77" x="752.494141"/>
     <use xlink:href="#DejaVuSans-65" x="834.28125"/>
     <use xlink:href="#DejaVuSans-65" x="895.804688"/>
     <use xlink:href="#DejaVuSans-6e" x="957.328125"/>
     <use xlink:href="#DejaVuSans-20" x="1020.707031"/>
     <use xlink:href="#DejaVuSans-54" x="1052.494141"/>
     <use xlink:href="#DejaVuSans-68" x="1113.578125"/>
     <use xlink:href="#DejaVuSans-65" x="1176.957031"/>
     <use xlink:href="#DejaVuSans-66" x="1238.480469"/>
     <use xlink:href="#DejaVuSans-74" x="1271.935547"/>
     <use xlink:href="#DejaVuSans-20" x="1311.144531"/>
     <use xlink:href="#DejaVuSans-61" x="1342.931641"/>
     <use xlink:href="#DejaVuSans-6e" x="1404.210938"/>
     <use xlink:href="#DejaVuSans-64" x="1467.589844"/>
     <use xlink:href="#DejaVuSans-20" x="1531.066406"/>
     <use xlink:href="#DejaVuSans-56" x="1562.853516"/>
     <use xlink:href="#DejaVuSans-69" x="1629.011719"/>
     <use xlink:href="#DejaVuSans-6f" x="1656.794922"/>
     <use xlink:href="#DejaVuSans-6c" x="1717.976562"/>
     <use xlink:href="#DejaVuSans-65" x="1745.759766"/>
     <use xlink:href="#DejaVuSans-6e" x="1807.283203"/>
     <use xlink:href="#DejaVuSans-63" x="1870.662109"/>
     <use xlink:href="#DejaVuSans-65" x="1925.642578"/>
     <use xlink:href="#DejaVuSans-20" x="1987.166016"/>
     <use xlink:href="#DejaVuSans-41" x="2018.953125"/>
     <use xlink:href="#DejaVuSans-67" x="2087.361328"/>
     <use xlink:href="#DejaVuSans-61" x="2150.837891"/>
     <use xlink:href="#DejaVuSans-69" x="2212.117188"/>
     <use xlink:href="#DejaVuSans-6e" x="2239.900391"/>
     <use xlink:href="#DejaVuSans-73" x="2303.279297"/>
     <use xlink:href="#DejaVuSans-74" x="2355.378906"/>
     <use xlink:href="#DejaVuSans-20" x="2394.587891"/>
     <use xlink:href="#DejaVuSans-74" x="2426.375"/>
     <use xlink:href="#DejaVuSans-68" x="2465.583984"/>
     <use xlink:href="#DejaVuSans-65" x="2528.962891"/>
     <use xlink:href="#DejaVuSans-20" x="2590.486328"/>
     <use xlink:href="#DejaVuSans-50" x="2622.273438"/>
     <use xlink:href="#DejaVuSans-65" x="2678.951172"/>
     <use xlink:href="#DejaVuSans-72" x="2740.474609"/>
     <use xlink:href="#DejaVuSans-73" x="2781.587891"/>
     <use xlink:href="#DejaVuSans-6f" x="2833.6875"/>
     <use xlink:href="#DejaVuSans-6e" x="2894.869141"/>
    </g>
   </g>
  </g>
 </g>
 <defs>
  <clipPath id="pf66ae3a13d">
   <rect x="58.342679" y="30.877187" width="648" height="144"/>
  </clipPath>
 </defs>
</svg>
